<?xml version="1.0" encoding="UTF-8"?>
<svg xmlns="http://www.w3.org/2000/svg" xmlns:xlink="http://www.w3.org/1999/xlink" width="128.728pt" height="128.728pt" viewBox="0 0 128.728 128.728" version="1.1">
<defs>
<clipPath id="clip1">
  <path d="M 0 113 L 16 113 L 16 128.726562 L 0 128.726562 Z M 0 113 "/>
</clipPath>
<clipPath id="clip2">
  <path d="M 0 107 L 21 107 L 21 128.726562 L 0 128.726562 Z M 0 107 "/>
</clipPath>
<clipPath id="clip3">
  <path d="M 56 113 L 72 113 L 72 128.726562 L 56 128.726562 Z M 56 113 "/>
</clipPath>
<clipPath id="clip4">
  <path d="M 51 107 L 78 107 L 78 128.726562 L 51 128.726562 Z M 51 107 "/>
</clipPath>
<clipPath id="clip5">
  <path d="M 113 113 L 128.726562 113 L 128.726562 128.726562 L 113 128.726562 Z M 113 113 "/>
</clipPath>
<clipPath id="clip6">
  <path d="M 107 107 L 128.726562 107 L 128.726562 128.726562 L 107 128.726562 Z M 107 107 "/>
</clipPath>
<clipPath id="clip7">
  <path d="M 113 56 L 128.726562 56 L 128.726562 72 L 113 72 Z M 113 56 "/>
</clipPath>
<clipPath id="clip8">
  <path d="M 107 51 L 128.726562 51 L 128.726562 78 L 107 78 Z M 107 51 "/>
</clipPath>
<clipPath id="clip9">
  <path d="M 113 0 L 128.726562 0 L 128.726562 16 L 113 16 Z M 113 0 "/>
</clipPath>
<clipPath id="clip10">
  <path d="M 107 0 L 128.726562 0 L 128.726562 21 L 107 21 Z M 107 0 "/>
</clipPath>
</defs>
<g id="surface1">
<path style="fill-rule:nonzero;fill:rgb(100%,0%,0%);fill-opacity:1;stroke-width:0.3985;stroke-linecap:butt;stroke-linejoin:miter;stroke:rgb(0%,0%,0%);stroke-opacity:1;stroke-miterlimit:10;" d="M 12.452406 0.00071875 C 12.452406 6.879625 6.878187 12.453844 -0.00071875 12.453844 C -6.879625 12.453844 -12.453844 6.879625 -12.453844 0.00071875 C -12.453844 -6.878187 -6.879625 -12.452406 -0.00071875 -12.452406 C 6.878187 -12.452406 12.452406 -6.878187 12.452406 0.00071875 Z M 12.452406 0.00071875 " transform="matrix(1,0,0,-1,64.364,64.364)"/>
<path style="fill:none;stroke-width:0.3985;stroke-linecap:butt;stroke-linejoin:miter;stroke:rgb(0%,0%,0%);stroke-opacity:1;stroke-miterlimit:10;" d="M -8.946031 -8.9485 L -56.692125 -56.694594 " transform="matrix(1,0,0,-1,64.364,64.364)"/>
<g clip-path="url(#clip1)" clip-rule="nonzero">
<path style=" stroke:none;fill-rule:nonzero;fill:rgb(100%,50%,50%);fill-opacity:1;" d="M 15.140625 121.058594 C 15.140625 116.929688 11.796875 113.585938 7.671875 113.585938 C 3.542969 113.585938 0.199219 116.929688 0.199219 121.058594 C 0.199219 125.183594 3.542969 128.53125 7.671875 128.53125 C 11.796875 128.53125 15.140625 125.183594 15.140625 121.058594 Z M 15.140625 121.058594 "/>
</g>
<g clip-path="url(#clip2)" clip-rule="nonzero">
<path style="fill:none;stroke-width:0.3985;stroke-linecap:butt;stroke-linejoin:miter;stroke:rgb(0%,0%,0%);stroke-opacity:1;stroke-miterlimit:10;" d="M -49.223375 -56.694594 C -49.223375 -52.565687 -52.567125 -49.221937 -56.692125 -49.221937 C -60.821031 -49.221937 -64.164781 -52.565687 -64.164781 -56.694594 C -64.164781 -60.819594 -60.821031 -64.16725 -56.692125 -64.16725 C -52.567125 -64.16725 -49.223375 -60.819594 -49.223375 -56.694594 Z M -49.223375 -56.694594 " transform="matrix(1,0,0,-1,64.364,64.364)"/>
</g>
<path style="fill:none;stroke-width:0.3985;stroke-linecap:butt;stroke-linejoin:miter;stroke:rgb(0%,0%,0%);stroke-opacity:1;stroke-miterlimit:10;" d="M -12.653063 0.00071875 L -56.692125 0.00071875 " transform="matrix(1,0,0,-1,64.364,64.364)"/>
<path style="fill-rule:nonzero;fill:rgb(100%,50%,50%);fill-opacity:1;stroke-width:0.3985;stroke-linecap:butt;stroke-linejoin:miter;stroke:rgb(0%,0%,0%);stroke-opacity:1;stroke-miterlimit:10;" d="M -49.223375 0.00071875 C -49.223375 4.125719 -52.567125 7.473375 -56.692125 7.473375 C -60.821031 7.473375 -64.164781 4.125719 -64.164781 0.00071875 C -64.164781 -4.128187 -60.821031 -7.471937 -56.692125 -7.471937 C -52.567125 -7.471937 -49.223375 -4.128187 -49.223375 0.00071875 Z M -49.223375 0.00071875 " transform="matrix(1,0,0,-1,64.364,64.364)"/>
<path style="fill:none;stroke-width:0.3985;stroke-linecap:butt;stroke-linejoin:miter;stroke:rgb(0%,0%,0%);stroke-opacity:1;stroke-miterlimit:10;" d="M -8.946031 8.946031 L -56.692125 56.692125 " transform="matrix(1,0,0,-1,64.364,64.364)"/>
<path style="fill-rule:nonzero;fill:rgb(100%,50%,50%);fill-opacity:1;stroke-width:0.3985;stroke-linecap:butt;stroke-linejoin:miter;stroke:rgb(0%,0%,0%);stroke-opacity:1;stroke-miterlimit:10;" d="M -49.223375 56.692125 C -49.223375 60.821031 -52.567125 64.164781 -56.692125 64.164781 C -60.821031 64.164781 -64.164781 60.821031 -64.164781 56.692125 C -64.164781 52.567125 -60.821031 49.223375 -56.692125 49.223375 C -52.567125 49.223375 -49.223375 52.567125 -49.223375 56.692125 Z M -49.223375 56.692125 " transform="matrix(1,0,0,-1,64.364,64.364)"/>
<path style="fill:none;stroke-width:0.3985;stroke-linecap:butt;stroke-linejoin:miter;stroke:rgb(0%,0%,0%);stroke-opacity:1;stroke-miterlimit:10;" d="M -0.00071875 -12.651625 L -0.00071875 -56.694594 " transform="matrix(1,0,0,-1,64.364,64.364)"/>
<g clip-path="url(#clip3)" clip-rule="nonzero">
<path style=" stroke:none;fill-rule:nonzero;fill:rgb(100%,50%,50%);fill-opacity:1;" d="M 71.835938 121.058594 C 71.835938 116.929688 68.492188 113.585938 64.363281 113.585938 C 60.238281 113.585938 56.890625 116.929688 56.890625 121.058594 C 56.890625 125.183594 60.238281 128.53125 64.363281 128.53125 C 68.492188 128.53125 71.835938 125.183594 71.835938 121.058594 Z M 71.835938 121.058594 "/>
</g>
<g clip-path="url(#clip4)" clip-rule="nonzero">
<path style="fill:none;stroke-width:0.3985;stroke-linecap:butt;stroke-linejoin:miter;stroke:rgb(0%,0%,0%);stroke-opacity:1;stroke-miterlimit:10;" d="M 7.471937 -56.694594 C 7.471937 -52.565687 4.128187 -49.221937 -0.00071875 -49.221937 C -4.125719 -49.221937 -7.473375 -52.565687 -7.473375 -56.694594 C -7.473375 -60.819594 -4.125719 -64.16725 -0.00071875 -64.16725 C 4.128187 -64.16725 7.471937 -60.819594 7.471937 -56.694594 Z M 7.471937 -56.694594 " transform="matrix(1,0,0,-1,64.364,64.364)"/>
</g>
<path style="fill:none;stroke-width:0.3985;stroke-linecap:butt;stroke-linejoin:miter;stroke:rgb(0%,0%,0%);stroke-opacity:1;stroke-miterlimit:10;" d="M -0.00071875 12.653063 L -0.00071875 56.692125 " transform="matrix(1,0,0,-1,64.364,64.364)"/>
<path style="fill-rule:nonzero;fill:rgb(100%,50%,50%);fill-opacity:1;stroke-width:0.3985;stroke-linecap:butt;stroke-linejoin:miter;stroke:rgb(0%,0%,0%);stroke-opacity:1;stroke-miterlimit:10;" d="M 7.471937 56.692125 C 7.471937 60.821031 4.128187 64.164781 -0.00071875 64.164781 C -4.125719 64.164781 -7.473375 60.821031 -7.473375 56.692125 C -7.473375 52.567125 -4.125719 49.223375 -0.00071875 49.223375 C 4.128187 49.223375 7.471937 52.567125 7.471937 56.692125 Z M 7.471937 56.692125 " transform="matrix(1,0,0,-1,64.364,64.364)"/>
<path style="fill:none;stroke-width:0.3985;stroke-linecap:butt;stroke-linejoin:miter;stroke:rgb(0%,0%,0%);stroke-opacity:1;stroke-miterlimit:10;" d="M 8.9485 -8.9485 L 56.694594 -56.694594 " transform="matrix(1,0,0,-1,64.364,64.364)"/>
<g clip-path="url(#clip5)" clip-rule="nonzero">
<path style=" stroke:none;fill-rule:nonzero;fill:rgb(100%,50%,50%);fill-opacity:1;" d="M 128.53125 121.058594 C 128.53125 116.929688 125.183594 113.585938 121.058594 113.585938 C 116.929688 113.585938 113.585938 116.929688 113.585938 121.058594 C 113.585938 125.183594 116.929688 128.53125 121.058594 128.53125 C 125.183594 128.53125 128.53125 125.183594 128.53125 121.058594 Z M 128.53125 121.058594 "/>
</g>
<g clip-path="url(#clip6)" clip-rule="nonzero">
<path style="fill:none;stroke-width:0.3985;stroke-linecap:butt;stroke-linejoin:miter;stroke:rgb(0%,0%,0%);stroke-opacity:1;stroke-miterlimit:10;" d="M 64.16725 -56.694594 C 64.16725 -52.565687 60.819594 -49.221937 56.694594 -49.221937 C 52.565687 -49.221937 49.221937 -52.565687 49.221937 -56.694594 C 49.221937 -60.819594 52.565687 -64.16725 56.694594 -64.16725 C 60.819594 -64.16725 64.16725 -60.819594 64.16725 -56.694594 Z M 64.16725 -56.694594 " transform="matrix(1,0,0,-1,64.364,64.364)"/>
</g>
<path style="fill:none;stroke-width:0.3985;stroke-linecap:butt;stroke-linejoin:miter;stroke:rgb(0%,0%,0%);stroke-opacity:1;stroke-miterlimit:10;" d="M 12.651625 0.00071875 L 56.694594 0.00071875 " transform="matrix(1,0,0,-1,64.364,64.364)"/>
<g clip-path="url(#clip7)" clip-rule="nonzero">
<path style=" stroke:none;fill-rule:nonzero;fill:rgb(100%,50%,50%);fill-opacity:1;" d="M 128.53125 64.363281 C 128.53125 60.238281 125.183594 56.890625 121.058594 56.890625 C 116.929688 56.890625 113.585938 60.238281 113.585938 64.363281 C 113.585938 68.492188 116.929688 71.835938 121.058594 71.835938 C 125.183594 71.835938 128.53125 68.492188 128.53125 64.363281 Z M 128.53125 64.363281 "/>
</g>
<g clip-path="url(#clip8)" clip-rule="nonzero">
<path style="fill:none;stroke-width:0.3985;stroke-linecap:butt;stroke-linejoin:miter;stroke:rgb(0%,0%,0%);stroke-opacity:1;stroke-miterlimit:10;" d="M 64.16725 0.00071875 C 64.16725 4.125719 60.819594 7.473375 56.694594 7.473375 C 52.565687 7.473375 49.221937 4.125719 49.221937 0.00071875 C 49.221937 -4.128187 52.565687 -7.471937 56.694594 -7.471937 C 60.819594 -7.471937 64.16725 -4.128187 64.16725 0.00071875 Z M 64.16725 0.00071875 " transform="matrix(1,0,0,-1,64.364,64.364)"/>
</g>
<path style="fill:none;stroke-width:0.3985;stroke-linecap:butt;stroke-linejoin:miter;stroke:rgb(0%,0%,0%);stroke-opacity:1;stroke-miterlimit:10;" d="M 8.9485 8.946031 L 56.694594 56.692125 " transform="matrix(1,0,0,-1,64.364,64.364)"/>
<g clip-path="url(#clip9)" clip-rule="nonzero">
<path style=" stroke:none;fill-rule:nonzero;fill:rgb(100%,50%,50%);fill-opacity:1;" d="M 128.53125 7.671875 C 128.53125 3.542969 125.183594 0.199219 121.058594 0.199219 C 116.929688 0.199219 113.585938 3.542969 113.585938 7.671875 C 113.585938 11.796875 116.929688 15.140625 121.058594 15.140625 C 125.183594 15.140625 128.53125 11.796875 128.53125 7.671875 Z M 128.53125 7.671875 "/>
</g>
<g clip-path="url(#clip10)" clip-rule="nonzero">
<path style="fill:none;stroke-width:0.3985;stroke-linecap:butt;stroke-linejoin:miter;stroke:rgb(0%,0%,0%);stroke-opacity:1;stroke-miterlimit:10;" d="M 64.16725 56.692125 C 64.16725 60.821031 60.819594 64.164781 56.694594 64.164781 C 52.565687 64.164781 49.221937 60.821031 49.221937 56.692125 C 49.221937 52.567125 52.565687 49.223375 56.694594 49.223375 C 60.819594 49.223375 64.16725 52.567125 64.16725 56.692125 Z M 64.16725 56.692125 " transform="matrix(1,0,0,-1,64.364,64.364)"/>
</g>
</g>
</svg>
