<svg id="chart" class="nvd3-svg"><g class="nvd3 nv-wrap nv-lineChart" transform="translate(75,30)"><g><g class="nv-legendWrap nvd3-svg" transform="translate(0,-30)"><g class="nvd3 nv-legend" transform="translate(0,5)"><g transform="translate(1655,5)"><g class="nv-series" transform="translate(0,5)"><circle style="stroke-width: 2px; fill: rgb(31, 119, 180); fill-opacity: 1; stroke: rgb(31, 119, 180);" class="nv-legend-symbol" r="5"></circle><text text-anchor="start" class="nv-legend-text" dy=".32em" dx="8" fill="#000">concepts_fast</text></g><g class="nv-series" transform="translate(106,5)"><circle style="stroke-width: 2px; fill: rgb(255, 127, 14); fill-opacity: 1; stroke: rgb(255, 127, 14);" class="nv-legend-symbol" r="5"></circle><text text-anchor="start" class="nv-legend-text" dy=".32em" dx="8" fill="#000">sfinae</text></g></g></g></g><g class="nv-focus"><g class="nv-background"><rect width="1825" height="889"></rect></g><g class="nv-x nv-axis nvd3-svg" transform="translate(0,889)"><g class="nvd3 nv-wrap nv-axis"><g><g class="tick zero" style="opacity: 1;" transform="translate(0,0)"><line y2="-889" x2="0"></line></g><g class="tick" style="opacity: 1;" transform="translate(148.97959183673467,0)"><line y2="-889" x2="0"></line><text dy=".71em" style="text-anchor: middle;" y="7" transform="translate(0,0)" x="0">20</text></g><g class="tick" style="opacity: 1;" transform="translate(297.95918367346934,0)"><line y2="-889" x2="0"></line><text dy=".71em" style="text-anchor: middle;" y="7" transform="translate(0,0)" x="0">40</text></g><g class="tick" style="opacity: 1;" transform="translate(446.9387755102041,0)"><line y2="-889" x2="0"></line><text dy=".71em" style="text-anchor: middle;" y="7" transform="translate(0,0)" x="0">60</text></g><g class="tick" style="opacity: 1;" transform="translate(595.9183673469387,0)"><line y2="-889" x2="0"></line><text dy=".71em" style="text-anchor: middle;" y="7" transform="translate(0,0)" x="0">80</text></g><g class="tick" style="opacity: 1;" transform="translate(744.8979591836735,0)"><line y2="-889" x2="0"></line><text dy=".71em" style="text-anchor: middle;" y="7" transform="translate(0,0)" x="0">100</text></g><g class="tick" style="opacity: 1;" transform="translate(893.8775510204082,0)"><line y2="-889" x2="0"></line><text dy=".71em" style="text-anchor: middle;" y="7" transform="translate(0,0)" x="0">120</text></g><g class="tick" style="opacity: 1;" transform="translate(1042.857142857143,0)"><line y2="-889" x2="0"></line><text dy=".71em" style="text-anchor: middle;" y="7" transform="translate(0,0)" x="0">140</text></g><g class="tick" style="opacity: 1;" transform="translate(1191.8367346938774,0)"><line y2="-889" x2="0"></line><text dy=".71em" style="text-anchor: middle;" y="7" transform="translate(0,0)" x="0">160</text></g><g class="tick" style="opacity: 1;" transform="translate(1340.8163265306123,0)"><line y2="-889" x2="0"></line><text dy=".71em" style="text-anchor: middle;" y="7" transform="translate(0,0)" x="0">180</text></g><g class="tick" style="opacity: 1;" transform="translate(1489.795918367347,0)"><line y2="-889" x2="0"></line><text dy=".71em" style="text-anchor: middle;" y="7" transform="translate(0,0)" x="0">200</text></g><g class="tick" style="opacity: 1;" transform="translate(1638.7755102040817,0)"><line y2="-889" x2="0"></line><text dy=".71em" style="text-anchor: middle;" y="7" transform="translate(0,0)" x="0">220</text></g><g class="tick" style="opacity: 1;" transform="translate(1787.7551020408164,0)"><line y2="-889" x2="0"></line><text dy=".71em" style="text-anchor: middle;" y="7" transform="translate(0,0)" x="0">240</text></g><path class="domain" d="M0,0V0H1825V0"></path><text class="nv-axislabel" text-anchor="middle" y="36" x="912.5">Number of constrained template instanciated</text></g><g class="nv-axisMaxMin nv-axisMaxMin-x nv-axisMin-x" transform="translate(0,0)"><text dy=".71em" y="7" transform="" style="text-anchor: middle;">0</text></g><g class="nv-axisMaxMin nv-axisMaxMin-x nv-axisMax-x" transform="translate(1825,0)"><text dy=".71em" y="7" transform="" style="text-anchor: middle;">245</text></g></g><g transform="translate(24,30)"><g class="control interpolate"><circle style="fill: rgb(51, 51, 51); stroke: rgb(51, 51, 51); stroke-width: 2px; fill-opacity: 1;" cx="0" cy="0" r="5"></circle><text text-anchor="start" dx="8" dy=".32em">interpolate</text></g><g class="control baseline" transform="translate(80,0)"><circle style="fill: rgb(51, 51, 51); stroke: rgb(51, 51, 51); stroke-width: 2px; fill-opacity: 1;" cx="0" cy="0" r="5"></circle><text text-anchor="start" dx="8" dy=".32em">subtract baseline</text></g><g class="control baseline" transform="translate(200,0)"><text text-anchor="start" dx="8" dy=".32em" style="color: blue;">export as png</text></g><g class="control baseline" transform="translate(300,0)"><text text-anchor="start" dx="8" dy=".32em" style="color: blue;">export as svg</text></g></g></g><g class="nv-y nv-axis nvd3-svg"><g class="nvd3 nv-wrap nv-axis"><g><g class="tick zero" style="opacity: 1;" transform="translate(0,889)"><line x2="1825" y2="0"></line><text dy=".32em" style="text-anchor: end;" x="-3" opacity="0" y="0">0.00s</text></g><g class="tick" style="opacity: 1;" transform="translate(0,847.8749595225979)"><line x2="1825" y2="0"></line><text dy=".32em" style="text-anchor: end;" x="-3" opacity="1" y="0">0.02s</text></g><g class="tick" style="opacity: 1;" transform="translate(0,806.749919045196)"><line x2="1825" y2="0"></line><text dy=".32em" style="text-anchor: end;" x="-3" opacity="1" y="0">0.04s</text></g><g class="tick" style="opacity: 1;" transform="translate(0,765.6248785677939)"><line x2="1825" y2="0"></line><text dy=".32em" style="text-anchor: end;" x="-3" opacity="1" y="0">0.06s</text></g><g class="tick" style="opacity: 1;" transform="translate(0,724.4998380903919)"><line x2="1825" y2="0"></line><text dy=".32em" style="text-anchor: end;" x="-3" opacity="1" y="0">0.08s</text></g><g class="tick" style="opacity: 1;" transform="translate(0,683.3747976129898)"><line x2="1825" y2="0"></line><text dy=".32em" style="text-anchor: end;" x="-3" opacity="1" y="0">0.10s</text></g><g class="tick" style="opacity: 1;" transform="translate(0,642.2497571355877)"><line x2="1825" y2="0"></line><text dy=".32em" style="text-anchor: end;" x="-3" opacity="1" y="0">0.12s</text></g><g class="tick" style="opacity: 1;" transform="translate(0,601.1247166581857)"><line x2="1825" y2="0"></line><text dy=".32em" style="text-anchor: end;" x="-3" opacity="1" y="0">0.14s</text></g><g class="tick" style="opacity: 1;" transform="translate(0,559.9996761807837)"><line x2="1825" y2="0"></line><text dy=".32em" style="text-anchor: end;" x="-3" opacity="1" y="0">0.16s</text></g><g class="tick" style="opacity: 1;" transform="translate(0,518.8746357033817)"><line x2="1825" y2="0"></line><text dy=".32em" style="text-anchor: end;" x="-3" opacity="1" y="0">0.18s</text></g><g class="tick" style="opacity: 1;" transform="translate(0,477.74959522597965)"><line x2="1825" y2="0"></line><text dy=".32em" style="text-anchor: end;" x="-3" opacity="1" y="0">0.20s</text></g><g class="tick" style="opacity: 1;" transform="translate(0,436.62455474857757)"><line x2="1825" y2="0"></line><text dy=".32em" style="text-anchor: end;" x="-3" opacity="1" y="0">0.22s</text></g><g class="tick" style="opacity: 1;" transform="translate(0,395.4995142711756)"><line x2="1825" y2="0"></line><text dy=".32em" style="text-anchor: end;" x="-3" opacity="1" y="0">0.24s</text></g><g class="tick" style="opacity: 1;" transform="translate(0,354.3744737937735)"><line x2="1825" y2="0"></line><text dy=".32em" style="text-anchor: end;" x="-3" opacity="1" y="0">0.26s</text></g><g class="tick" style="opacity: 1;" transform="translate(0,313.24943331637144)"><line x2="1825" y2="0"></line><text dy=".32em" style="text-anchor: end;" x="-3" opacity="1" y="0">0.28s</text></g><g class="tick" style="opacity: 1;" transform="translate(0,272.12439283896947)"><line x2="1825" y2="0"></line><text dy=".32em" style="text-anchor: end;" x="-3" opacity="1" y="0">0.30s</text></g><g class="tick" style="opacity: 1;" transform="translate(0,230.99935236156736)"><line x2="1825" y2="0"></line><text dy=".32em" style="text-anchor: end;" x="-3" opacity="1" y="0">0.32s</text></g><g class="tick" style="opacity: 1;" transform="translate(0,189.87431188416528)"><line x2="1825" y2="0"></line><text dy=".32em" style="text-anchor: end;" x="-3" opacity="1" y="0">0.34s</text></g><g class="tick" style="opacity: 1;" transform="translate(0,148.7492714067633)"><line x2="1825" y2="0"></line><text dy=".32em" style="text-anchor: end;" x="-3" opacity="1" y="0">0.36s</text></g><g class="tick" style="opacity: 1;" transform="translate(0,107.62423092936125)"><line x2="1825" y2="0"></line><text dy=".32em" style="text-anchor: end;" x="-3" opacity="1" y="0">0.38s</text></g><g class="tick" style="opacity: 1;" transform="translate(0,66.49919045195917)"><line x2="1825" y2="0"></line><text dy=".32em" style="text-anchor: end;" x="-3" opacity="1" y="0">0.40s</text></g><g class="tick" style="opacity: 1;" transform="translate(0,25.374149974557184)"><line x2="1825" y2="0"></line><text dy=".32em" style="text-anchor: end;" x="-3" opacity="1" y="0">0.42s</text></g><path class="domain" d="M0,0H0V889H0"></path><text class="nv-axislabel" style="text-anchor: middle;" transform="rotate(-90)" y="-50" x="-444.5">Compilation time</text></g><g class="nv-axisMaxMin nv-axisMaxMin-y nv-axisMin-y" transform="translate(0,889)"><text style="opacity: 1;" dy=".32em" y="0" x="-3" text-anchor="end">0.00s</text></g><g class="nv-axisMaxMin nv-axisMaxMin-y nv-axisMax-y" transform="translate(0,0)"><text style="opacity: 1;" dy=".32em" y="0" x="-3" text-anchor="end">0.43s</text></g></g></g><g class="nv-linesWrap nvd3-svg"><g class="nvd3 nv-wrap nv-line" transform="translate(0,0)"><defs><clipPath id="nv-edge-clip-43125"><rect width="1825" height="889"></rect></clipPath></defs><g clip-path="url(#nv-edge-clip-43125)"><g class="nv-groups"><g style="stroke-opacity: 1; stroke-width: 1.5px; fill-opacity: 0.5; fill: rgb(31, 119, 180); stroke: rgb(31, 119, 180);" class="nv-group nv-series-0"><path class="nv-line" d="M0,886.4255724661147Q29.795918367346932,888.4427557015313,37.24489795918367,878.8236087338669C48.418367346938766,864.3948882823704,63.31632653061223,799.3761992875976,74.48979591836734,790.2341027894712S100.56122448979592,803.9327509598927,111.73469387755102,817.8762987463571S137.80612244897958,881.5289167090716,148.97959183673467,883.191088032567S175.05102040816325,841.7548338113522,186.22448979591837,828.9574409029931S212.29591836734696,802.3369965767682,223.46938775510205,797.8751353101725S249.54081632653063,799.7280240088819,260.7142857142857,799.2116991256881S286.7857142857142,801.9440468150067,297.95918367346934,794.432969422214S324.03061224489795,754.6502502659944,335.2040816326531,749.1378498404034S361.2755102040816,762.7071597585235,372.44897959183675,757.6836332516076S398.5204081632653,718.4396521256418,409.6938775510204,715.647673127631S435.765306122449,739.273700444095,446.9387755102041,739.0704399315354S473.01020408163265,720.4163271961881,484.18367346938777,714.2926030439006S510.2551020408163,701.3117924550122,521.4285714285714,698.2456122496184S547.5,696.4166788869871,558.6734693877551,693.851401674608S584.7448979591836,680.5734626682704,595.9183673469387,681.1437641670908S621.9897959183672,704.3961704908174,633.1632653061224,697.6534116667438S659.2346938775511,644.757664916501,670.4081632653061,636.1920386732664S696.4795918367347,641.7462838275433,707.6530612244898,640.5492367118472S733.7244897959184,634.9470808854143,744.8979591836735,628.2117245686266S770.969387755102,599.6411308229635,782.1428571428571,595.6468612665958S808.2142857142857,605.9926876994958,819.3877551020408,601.5832608595088S845.4591836734695,567.6204546190498,856.6326530612246,566.2506823333488S882.7040816326531,598.1285518342046,893.8775510204082,592.4514456215015S919.9489795918367,535.8499214738398,931.1224489795918,528.4033075819955S957.1938775510205,540.9548755609011,968.3673469387755,542.8073530092057S994.438775510204,543.7539486283943,1005.612244897959,540.7531572373595S1031.6836734693877,526.7605678401258,1042.857142857143,522.8020770689734S1068.9285714285713,520.3333408891151,1080.1020408163265,514.3632187630107S1106.173469387755,489.12683767405287,1117.3469387755101,483.0012628949438S1143.4183673469388,479.3839043345515,1154.591836734694,473.5260535689504S1180.6632653061222,446.2322895175093,1191.8367346938774,443.94892445760274S1217.908163265306,461.0798685062684,1229.0816326530612,458.30361983624016S1255.1530612244896,430.83240123513906,1266.3265306122448,425.44059999074807S1292.3979591836735,427.7488457001434,1303.5714285714287,422.35827820696676S1329.642857142857,399.51938416524035,1340.8163265306123,389.5034833695703S1366.8877551020407,357.0799873941806,1378.061224489796,355.585606235833S1404.1326530612243,377.3972995790351,1415.3061224489795,379.5409423139197S1441.3775510204082,372.05505400841923,1452.5510204081634,369.8765578017301S1478.6224489795918,373.6162633575429,1489.795918367347,365.0176342693253S1515.8673469387754,323.0895245640006,1527.0408163265306,312.5523638802795S1553.112244897959,299.78571193967724,1564.2857142857142,294.7698963778509S1590.3571428571427,276.2852188092706,1601.5306122448978,279.1135934681039S1627.6020408163265,314.01713500948335,1638.7755102040817,313.6257274367397S1664.8469387755101,288.44106108618223,1676.0204081632653,276.5042096498127S1702.091836734694,235.96520099921372,1713.2653061224491,234.04671786094292S1739.3367346938774,259.6904424758294,1750.5102040816325,263.7143220613408S1776.5816326530612,267.4768520146182,1787.7551020408164,260.87258176435216Q1795.2040816326532,256.46973493084147,1825,219.68585372623397"></path></g><g style="stroke-opacity: 1; stroke-width: 1.5px; fill-opacity: 0.5; fill: rgb(255, 127, 14); stroke: rgb(255, 127, 14);" class="nv-group nv-series-1"><path class="nv-line" d="M0,819.5973816903364Q29.795918367346932,854.3474240181338,37.24489795918367,857.8046005458666C48.418367346938766,862.9903653374658,63.31632653061223,867.5038385298608,74.48979591836734,854.1691469676643S100.56122448979592,775.9155974464543,111.73469387755102,768.9066567978906S137.80612244897958,803.2786571910997,148.97959183673467,807.4428759772402S175.05102040816325,790.0351604061617,186.22448979591837,796.6681153721607S212.29591836734696,857.3196335060369,223.46938775510205,851.6625757505667S249.54081632653063,778.8548040893742,260.7142857142857,758.9543970023593S286.7857142857142,724.1687815145486,297.95918367346934,718.9931951704676S324.03061224489795,725.1006749317667,335.2040816326531,724.450488041819S361.2755102040816,723.9358081602443,372.44897959183675,714.6586159041495S398.5204081632653,668.2648408659851,409.6938775510204,662.602539667854S435.765306122449,678.7022733265485,446.9387755102041,676.9099412499421S473.01020408163265,656.6160703381597,484.18367346938777,650.6536591571448S510.2551020408163,641.76581822177,521.4285714285714,637.1605333765093S547.5,622.7662551464125,558.6734693877551,619.9517601887403S584.7448979591836,622.4892779987973,595.9183673469387,618.3972336586946S621.9897959183672,599.7312974742102,633.1632653061224,592.6714645880559S659.2346938775511,579.9565273858539,670.4081632653061,571.3316810843319S696.4795918367347,540.0303846509692,707.6530612244898,535.172489244576S733.7244897959184,540.1621904056993,744.8979591836735,538.9457117083778S770.969387755102,536.7555976777537,782.1428571428571,527.0626312624324S808.2142857142857,485.9580504926679,819.3877551020408,474.32593560623593S845.4591836734695,449.6984107415462,856.6326530612246,449.5151986862194S882.7040816326531,472.1517575287969,893.8775510204082,473.1045219040571S919.9489795918367,465.9084623213213,931.1224489795918,455.866961187954S957.1938775510205,416.1773902484157,968.3673469387755,406.16118101494203S994.438775510204,391.5381447471898,1005.612244897959,389.0922329647963S1031.6836734693877,397.2088765786188,1042.857142857143,389.8551024656521S1068.9285714285713,349.8929753203497,1080.1020408163265,340.06707221168523S1106.173469387755,330.2828082065042,1117.3469387755101,324.34908174122234S1143.4183673469388,299.92224707406245,1154.591836734694,300.50889577647257S1180.6632653061222,326.613940532914,1191.8367346938774,328.26007309062317S1217.908163265306,316.8061324420596,1229.0816326530612,311.48311282786705S1255.1530612244896,297.6478267104593,1266.3265306122448,292.77327566267286S1292.3979591836735,283.9547304205025,1303.5714285714287,278.98610584262394S1329.642857142857,263.0918945737152,1340.8163265306123,259.6491118101495S1366.8877551020407,261.5805493361708,1378.061224489796,256.03422075218595S1404.1326530612243,228.71372542443456,1415.3061224489795,222.67358791691728S1441.3775510204082,215.38294074108336,1452.5510204081634,215.76663736873755S1478.6224489795918,237.64248577508454,1489.795918367347,225.23156543461178S1515.8673469387754,144.61394296155808,1527.0408163265306,133.02716843225244S1553.112244897959,146.49448824998856,1564.2857142857142,147.9864019059075S1590.3571428571427,138.08020215571082,1601.5306122448978,142.9732594717121S1627.6020408163265,190.47864435398074,1638.7755102040817,180.60678401258275S1664.8469387755101,90.60535261599668,1676.0204081632653,77.1608571957256S1702.091836734694,96.74182553083226,1713.2653061224491,90.97681454410885S1739.3367346938774,42.88673439885277,1750.5102040816325,38.727450617569524S1776.5816326530612,69.057373594856,1787.7551020408164,63.24825600222058Q1795.2040816326532,59.37551094046363,1825,0"></path></g></g><g class="nv-scatterWrap nvd3-svg" clip-path="url(#nv-edge-clip-43125)"><g class="nvd3 nv-wrap nv-scatter nv-chart-43125" transform="translate(0,0)"><defs><clipPath id="nv-edge-clip-43125"><rect transform="translate( -10, -10)" width="1845" height="909"></rect></clipPath></defs><g clip-path=""><g class="nv-groups"><g style="stroke-opacity: 1; fill-opacity: 0.5; fill: rgb(31, 119, 180); stroke: rgb(31, 119, 180);" class="nv-group nv-series-0 nv-noninteractive"><path class="nv-point nv-point-0" transform="translate(0,886.4255724661147)" d="M0,2.256758334191025A2.256758334191025,2.256758334191025 0 1,1 0,-2.256758334191025A2.256758334191025,2.256758334191025 0 1,1 0,2.256758334191025Z"></path><path class="nv-point nv-point-1" transform="translate(37.24489795918367,878.8236087338669)" d="M0,2.256758334191025A2.256758334191025,2.256758334191025 0 1,1 0,-2.256758334191025A2.256758334191025,2.256758334191025 0 1,1 0,2.256758334191025Z"></path><path class="nv-point nv-point-2" transform="translate(74.48979591836734,790.2341027894712)" d="M0,2.256758334191025A2.256758334191025,2.256758334191025 0 1,1 0,-2.256758334191025A2.256758334191025,2.256758334191025 0 1,1 0,2.256758334191025Z"></path><path class="nv-point nv-point-3" transform="translate(111.73469387755102,817.8762987463571)" d="M0,2.256758334191025A2.256758334191025,2.256758334191025 0 1,1 0,-2.256758334191025A2.256758334191025,2.256758334191025 0 1,1 0,2.256758334191025Z"></path><path class="nv-point nv-point-4" transform="translate(148.97959183673467,883.191088032567)" d="M0,2.256758334191025A2.256758334191025,2.256758334191025 0 1,1 0,-2.256758334191025A2.256758334191025,2.256758334191025 0 1,1 0,2.256758334191025Z"></path><path class="nv-point nv-point-5" transform="translate(186.22448979591837,828.9574409029931)" d="M0,2.256758334191025A2.256758334191025,2.256758334191025 0 1,1 0,-2.256758334191025A2.256758334191025,2.256758334191025 0 1,1 0,2.256758334191025Z"></path><path class="nv-point nv-point-6" transform="translate(223.46938775510205,797.8751353101725)" d="M0,2.256758334191025A2.256758334191025,2.256758334191025 0 1,1 0,-2.256758334191025A2.256758334191025,2.256758334191025 0 1,1 0,2.256758334191025Z"></path><path class="nv-point nv-point-7" transform="translate(260.7142857142857,799.2116991256881)" d="M0,2.256758334191025A2.256758334191025,2.256758334191025 0 1,1 0,-2.256758334191025A2.256758334191025,2.256758334191025 0 1,1 0,2.256758334191025Z"></path><path class="nv-point nv-point-8" transform="translate(297.95918367346934,794.432969422214)" d="M0,2.256758334191025A2.256758334191025,2.256758334191025 0 1,1 0,-2.256758334191025A2.256758334191025,2.256758334191025 0 1,1 0,2.256758334191025Z"></path><path class="nv-point nv-point-9" transform="translate(335.2040816326531,749.1378498404034)" d="M0,2.256758334191025A2.256758334191025,2.256758334191025 0 1,1 0,-2.256758334191025A2.256758334191025,2.256758334191025 0 1,1 0,2.256758334191025Z"></path><path class="nv-point nv-point-10" transform="translate(372.44897959183675,757.6836332516076)" d="M0,2.256758334191025A2.256758334191025,2.256758334191025 0 1,1 0,-2.256758334191025A2.256758334191025,2.256758334191025 0 1,1 0,2.256758334191025Z"></path><path class="nv-point nv-point-11" transform="translate(409.6938775510204,715.647673127631)" d="M0,2.256758334191025A2.256758334191025,2.256758334191025 0 1,1 0,-2.256758334191025A2.256758334191025,2.256758334191025 0 1,1 0,2.256758334191025Z"></path><path class="nv-point nv-point-12" transform="translate(446.9387755102041,739.0704399315354)" d="M0,2.256758334191025A2.256758334191025,2.256758334191025 0 1,1 0,-2.256758334191025A2.256758334191025,2.256758334191025 0 1,1 0,2.256758334191025Z"></path><path class="nv-point nv-point-13" transform="translate(484.18367346938777,714.2926030439006)" d="M0,2.256758334191025A2.256758334191025,2.256758334191025 0 1,1 0,-2.256758334191025A2.256758334191025,2.256758334191025 0 1,1 0,2.256758334191025Z"></path><path class="nv-point nv-point-14" transform="translate(521.4285714285714,698.2456122496184)" d="M0,2.256758334191025A2.256758334191025,2.256758334191025 0 1,1 0,-2.256758334191025A2.256758334191025,2.256758334191025 0 1,1 0,2.256758334191025Z"></path><path class="nv-point nv-point-15" transform="translate(558.6734693877551,693.851401674608)" d="M0,2.256758334191025A2.256758334191025,2.256758334191025 0 1,1 0,-2.256758334191025A2.256758334191025,2.256758334191025 0 1,1 0,2.256758334191025Z"></path><path class="nv-point nv-point-16" transform="translate(595.9183673469387,681.1437641670908)" d="M0,2.256758334191025A2.256758334191025,2.256758334191025 0 1,1 0,-2.256758334191025A2.256758334191025,2.256758334191025 0 1,1 0,2.256758334191025Z"></path><path class="nv-point nv-point-17" transform="translate(633.1632653061224,697.6534116667438)" d="M0,2.256758334191025A2.256758334191025,2.256758334191025 0 1,1 0,-2.256758334191025A2.256758334191025,2.256758334191025 0 1,1 0,2.256758334191025Z"></path><path class="nv-point nv-point-18" transform="translate(670.4081632653061,636.1920386732664)" d="M0,2.256758334191025A2.256758334191025,2.256758334191025 0 1,1 0,-2.256758334191025A2.256758334191025,2.256758334191025 0 1,1 0,2.256758334191025Z"></path><path class="nv-point nv-point-19" transform="translate(707.6530612244898,640.5492367118472)" d="M0,2.256758334191025A2.256758334191025,2.256758334191025 0 1,1 0,-2.256758334191025A2.256758334191025,2.256758334191025 0 1,1 0,2.256758334191025Z"></path><path class="nv-point nv-point-20" transform="translate(744.8979591836735,628.2117245686266)" d="M0,2.256758334191025A2.256758334191025,2.256758334191025 0 1,1 0,-2.256758334191025A2.256758334191025,2.256758334191025 0 1,1 0,2.256758334191025Z"></path><path class="nv-point nv-point-21" transform="translate(782.1428571428571,595.6468612665958)" d="M0,2.256758334191025A2.256758334191025,2.256758334191025 0 1,1 0,-2.256758334191025A2.256758334191025,2.256758334191025 0 1,1 0,2.256758334191025Z"></path><path class="nv-point nv-point-22" transform="translate(819.3877551020408,601.5832608595088)" d="M0,2.256758334191025A2.256758334191025,2.256758334191025 0 1,1 0,-2.256758334191025A2.256758334191025,2.256758334191025 0 1,1 0,2.256758334191025Z"></path><path class="nv-point nv-point-23" transform="translate(856.6326530612246,566.2506823333488)" d="M0,2.256758334191025A2.256758334191025,2.256758334191025 0 1,1 0,-2.256758334191025A2.256758334191025,2.256758334191025 0 1,1 0,2.256758334191025Z"></path><path class="nv-point nv-point-24" transform="translate(893.8775510204082,592.4514456215015)" d="M0,2.256758334191025A2.256758334191025,2.256758334191025 0 1,1 0,-2.256758334191025A2.256758334191025,2.256758334191025 0 1,1 0,2.256758334191025Z"></path><path class="nv-point nv-point-25" transform="translate(931.1224489795918,528.4033075819955)" d="M0,2.256758334191025A2.256758334191025,2.256758334191025 0 1,1 0,-2.256758334191025A2.256758334191025,2.256758334191025 0 1,1 0,2.256758334191025Z"></path><path class="nv-point nv-point-26" transform="translate(968.3673469387755,542.8073530092057)" d="M0,2.256758334191025A2.256758334191025,2.256758334191025 0 1,1 0,-2.256758334191025A2.256758334191025,2.256758334191025 0 1,1 0,2.256758334191025Z"></path><path class="nv-point nv-point-27" transform="translate(1005.612244897959,540.7531572373595)" d="M0,2.256758334191025A2.256758334191025,2.256758334191025 0 1,1 0,-2.256758334191025A2.256758334191025,2.256758334191025 0 1,1 0,2.256758334191025Z"></path><path class="nv-point nv-point-28" transform="translate(1042.857142857143,522.8020770689734)" d="M0,2.256758334191025A2.256758334191025,2.256758334191025 0 1,1 0,-2.256758334191025A2.256758334191025,2.256758334191025 0 1,1 0,2.256758334191025Z"></path><path class="nv-point nv-point-29" transform="translate(1080.1020408163265,514.3632187630107)" d="M0,2.256758334191025A2.256758334191025,2.256758334191025 0 1,1 0,-2.256758334191025A2.256758334191025,2.256758334191025 0 1,1 0,2.256758334191025Z"></path><path class="nv-point nv-point-30" transform="translate(1117.3469387755101,483.0012628949438)" d="M0,2.256758334191025A2.256758334191025,2.256758334191025 0 1,1 0,-2.256758334191025A2.256758334191025,2.256758334191025 0 1,1 0,2.256758334191025Z"></path><path class="nv-point nv-point-31" transform="translate(1154.591836734694,473.5260535689504)" d="M0,2.256758334191025A2.256758334191025,2.256758334191025 0 1,1 0,-2.256758334191025A2.256758334191025,2.256758334191025 0 1,1 0,2.256758334191025Z"></path><path class="nv-point nv-point-32" transform="translate(1191.8367346938774,443.94892445760274)" d="M0,2.256758334191025A2.256758334191025,2.256758334191025 0 1,1 0,-2.256758334191025A2.256758334191025,2.256758334191025 0 1,1 0,2.256758334191025Z"></path><path class="nv-point nv-point-33" transform="translate(1229.0816326530612,458.30361983624016)" d="M0,2.256758334191025A2.256758334191025,2.256758334191025 0 1,1 0,-2.256758334191025A2.256758334191025,2.256758334191025 0 1,1 0,2.256758334191025Z"></path><path class="nv-point nv-point-34" transform="translate(1266.3265306122448,425.44059999074807)" d="M0,2.256758334191025A2.256758334191025,2.256758334191025 0 1,1 0,-2.256758334191025A2.256758334191025,2.256758334191025 0 1,1 0,2.256758334191025Z"></path><path class="nv-point nv-point-35" transform="translate(1303.5714285714287,422.35827820696676)" d="M0,2.256758334191025A2.256758334191025,2.256758334191025 0 1,1 0,-2.256758334191025A2.256758334191025,2.256758334191025 0 1,1 0,2.256758334191025Z"></path><path class="nv-point nv-point-36" transform="translate(1340.8163265306123,389.5034833695703)" d="M0,2.256758334191025A2.256758334191025,2.256758334191025 0 1,1 0,-2.256758334191025A2.256758334191025,2.256758334191025 0 1,1 0,2.256758334191025Z"></path><path class="nv-point nv-point-37" transform="translate(1378.061224489796,355.585606235833)" d="M0,2.256758334191025A2.256758334191025,2.256758334191025 0 1,1 0,-2.256758334191025A2.256758334191025,2.256758334191025 0 1,1 0,2.256758334191025Z"></path><path class="nv-point nv-point-38" transform="translate(1415.3061224489795,379.5409423139197)" d="M0,2.256758334191025A2.256758334191025,2.256758334191025 0 1,1 0,-2.256758334191025A2.256758334191025,2.256758334191025 0 1,1 0,2.256758334191025Z"></path><path class="nv-point nv-point-39" transform="translate(1452.5510204081634,369.8765578017301)" d="M0,2.256758334191025A2.256758334191025,2.256758334191025 0 1,1 0,-2.256758334191025A2.256758334191025,2.256758334191025 0 1,1 0,2.256758334191025Z"></path><path class="nv-point nv-point-40" transform="translate(1489.795918367347,365.0176342693253)" d="M0,2.256758334191025A2.256758334191025,2.256758334191025 0 1,1 0,-2.256758334191025A2.256758334191025,2.256758334191025 0 1,1 0,2.256758334191025Z"></path><path class="nv-point nv-point-41" transform="translate(1527.0408163265306,312.5523638802795)" d="M0,2.256758334191025A2.256758334191025,2.256758334191025 0 1,1 0,-2.256758334191025A2.256758334191025,2.256758334191025 0 1,1 0,2.256758334191025Z"></path><path class="nv-point nv-point-42" transform="translate(1564.2857142857142,294.7698963778509)" d="M0,2.256758334191025A2.256758334191025,2.256758334191025 0 1,1 0,-2.256758334191025A2.256758334191025,2.256758334191025 0 1,1 0,2.256758334191025Z"></path><path class="nv-point nv-point-43" transform="translate(1601.5306122448978,279.1135934681039)" d="M0,2.256758334191025A2.256758334191025,2.256758334191025 0 1,1 0,-2.256758334191025A2.256758334191025,2.256758334191025 0 1,1 0,2.256758334191025Z"></path><path class="nv-point nv-point-44" transform="translate(1638.7755102040817,313.6257274367397)" d="M0,2.256758334191025A2.256758334191025,2.256758334191025 0 1,1 0,-2.256758334191025A2.256758334191025,2.256758334191025 0 1,1 0,2.256758334191025Z"></path><path class="nv-point nv-point-45" transform="translate(1676.0204081632653,276.5042096498127)" d="M0,2.256758334191025A2.256758334191025,2.256758334191025 0 1,1 0,-2.256758334191025A2.256758334191025,2.256758334191025 0 1,1 0,2.256758334191025Z"></path><path class="nv-point nv-point-46" transform="translate(1713.2653061224491,234.04671786094292)" d="M0,2.256758334191025A2.256758334191025,2.256758334191025 0 1,1 0,-2.256758334191025A2.256758334191025,2.256758334191025 0 1,1 0,2.256758334191025Z"></path><path class="nv-point nv-point-47" transform="translate(1750.5102040816325,263.7143220613408)" d="M0,2.256758334191025A2.256758334191025,2.256758334191025 0 1,1 0,-2.256758334191025A2.256758334191025,2.256758334191025 0 1,1 0,2.256758334191025Z"></path><path class="nv-point nv-point-48" transform="translate(1787.7551020408164,260.87258176435216)" d="M0,2.256758334191025A2.256758334191025,2.256758334191025 0 1,1 0,-2.256758334191025A2.256758334191025,2.256758334191025 0 1,1 0,2.256758334191025Z"></path><path class="nv-point nv-point-49" transform="translate(1825,219.68585372623397)" d="M0,2.256758334191025A2.256758334191025,2.256758334191025 0 1,1 0,-2.256758334191025A2.256758334191025,2.256758334191025 0 1,1 0,2.256758334191025Z"></path></g><g style="stroke-opacity: 1; fill-opacity: 0.5; fill: rgb(255, 127, 14); stroke: rgb(255, 127, 14);" class="nv-group nv-series-1 nv-noninteractive"><path class="nv-point nv-point-0" transform="translate(0,819.5973816903364)" d="M0,2.256758334191025A2.256758334191025,2.256758334191025 0 1,1 0,-2.256758334191025A2.256758334191025,2.256758334191025 0 1,1 0,2.256758334191025Z"></path><path class="nv-point nv-point-1" transform="translate(37.24489795918367,857.8046005458666)" d="M0,2.256758334191025A2.256758334191025,2.256758334191025 0 1,1 0,-2.256758334191025A2.256758334191025,2.256758334191025 0 1,1 0,2.256758334191025Z"></path><path class="nv-point nv-point-2" transform="translate(74.48979591836734,854.1691469676643)" d="M0,2.256758334191025A2.256758334191025,2.256758334191025 0 1,1 0,-2.256758334191025A2.256758334191025,2.256758334191025 0 1,1 0,2.256758334191025Z"></path><path class="nv-point nv-point-3" transform="translate(111.73469387755102,768.9066567978906)" d="M0,2.256758334191025A2.256758334191025,2.256758334191025 0 1,1 0,-2.256758334191025A2.256758334191025,2.256758334191025 0 1,1 0,2.256758334191025Z"></path><path class="nv-point nv-point-4" transform="translate(148.97959183673467,807.4428759772402)" d="M0,2.256758334191025A2.256758334191025,2.256758334191025 0 1,1 0,-2.256758334191025A2.256758334191025,2.256758334191025 0 1,1 0,2.256758334191025Z"></path><path class="nv-point nv-point-5" transform="translate(186.22448979591837,796.6681153721607)" d="M0,2.256758334191025A2.256758334191025,2.256758334191025 0 1,1 0,-2.256758334191025A2.256758334191025,2.256758334191025 0 1,1 0,2.256758334191025Z"></path><path class="nv-point nv-point-6" transform="translate(223.46938775510205,851.6625757505667)" d="M0,2.256758334191025A2.256758334191025,2.256758334191025 0 1,1 0,-2.256758334191025A2.256758334191025,2.256758334191025 0 1,1 0,2.256758334191025Z"></path><path class="nv-point nv-point-7" transform="translate(260.7142857142857,758.9543970023593)" d="M0,2.256758334191025A2.256758334191025,2.256758334191025 0 1,1 0,-2.256758334191025A2.256758334191025,2.256758334191025 0 1,1 0,2.256758334191025Z"></path><path class="nv-point nv-point-8" transform="translate(297.95918367346934,718.9931951704676)" d="M0,2.256758334191025A2.256758334191025,2.256758334191025 0 1,1 0,-2.256758334191025A2.256758334191025,2.256758334191025 0 1,1 0,2.256758334191025Z"></path><path class="nv-point nv-point-9" transform="translate(335.2040816326531,724.450488041819)" d="M0,2.256758334191025A2.256758334191025,2.256758334191025 0 1,1 0,-2.256758334191025A2.256758334191025,2.256758334191025 0 1,1 0,2.256758334191025Z"></path><path class="nv-point nv-point-10" transform="translate(372.44897959183675,714.6586159041495)" d="M0,2.256758334191025A2.256758334191025,2.256758334191025 0 1,1 0,-2.256758334191025A2.256758334191025,2.256758334191025 0 1,1 0,2.256758334191025Z"></path><path class="nv-point nv-point-11" transform="translate(409.6938775510204,662.602539667854)" d="M0,2.256758334191025A2.256758334191025,2.256758334191025 0 1,1 0,-2.256758334191025A2.256758334191025,2.256758334191025 0 1,1 0,2.256758334191025Z"></path><path class="nv-point nv-point-12" transform="translate(446.9387755102041,676.9099412499421)" d="M0,2.256758334191025A2.256758334191025,2.256758334191025 0 1,1 0,-2.256758334191025A2.256758334191025,2.256758334191025 0 1,1 0,2.256758334191025Z"></path><path class="nv-point nv-point-13" transform="translate(484.18367346938777,650.6536591571448)" d="M0,2.256758334191025A2.256758334191025,2.256758334191025 0 1,1 0,-2.256758334191025A2.256758334191025,2.256758334191025 0 1,1 0,2.256758334191025Z"></path><path class="nv-point nv-point-14" transform="translate(521.4285714285714,637.1605333765093)" d="M0,2.256758334191025A2.256758334191025,2.256758334191025 0 1,1 0,-2.256758334191025A2.256758334191025,2.256758334191025 0 1,1 0,2.256758334191025Z"></path><path class="nv-point nv-point-15" transform="translate(558.6734693877551,619.9517601887403)" d="M0,2.256758334191025A2.256758334191025,2.256758334191025 0 1,1 0,-2.256758334191025A2.256758334191025,2.256758334191025 0 1,1 0,2.256758334191025Z"></path><path class="nv-point nv-point-16" transform="translate(595.9183673469387,618.3972336586946)" d="M0,2.256758334191025A2.256758334191025,2.256758334191025 0 1,1 0,-2.256758334191025A2.256758334191025,2.256758334191025 0 1,1 0,2.256758334191025Z"></path><path class="nv-point nv-point-17" transform="translate(633.1632653061224,592.6714645880559)" d="M0,2.256758334191025A2.256758334191025,2.256758334191025 0 1,1 0,-2.256758334191025A2.256758334191025,2.256758334191025 0 1,1 0,2.256758334191025Z"></path><path class="nv-point nv-point-18" transform="translate(670.4081632653061,571.3316810843319)" d="M0,2.256758334191025A2.256758334191025,2.256758334191025 0 1,1 0,-2.256758334191025A2.256758334191025,2.256758334191025 0 1,1 0,2.256758334191025Z"></path><path class="nv-point nv-point-19" transform="translate(707.6530612244898,535.172489244576)" d="M0,2.256758334191025A2.256758334191025,2.256758334191025 0 1,1 0,-2.256758334191025A2.256758334191025,2.256758334191025 0 1,1 0,2.256758334191025Z"></path><path class="nv-point nv-point-20" transform="translate(744.8979591836735,538.9457117083778)" d="M0,2.256758334191025A2.256758334191025,2.256758334191025 0 1,1 0,-2.256758334191025A2.256758334191025,2.256758334191025 0 1,1 0,2.256758334191025Z"></path><path class="nv-point nv-point-21" transform="translate(782.1428571428571,527.0626312624324)" d="M0,2.256758334191025A2.256758334191025,2.256758334191025 0 1,1 0,-2.256758334191025A2.256758334191025,2.256758334191025 0 1,1 0,2.256758334191025Z"></path><path class="nv-point nv-point-22" transform="translate(819.3877551020408,474.32593560623593)" d="M0,2.256758334191025A2.256758334191025,2.256758334191025 0 1,1 0,-2.256758334191025A2.256758334191025,2.256758334191025 0 1,1 0,2.256758334191025Z"></path><path class="nv-point nv-point-23" transform="translate(856.6326530612246,449.5151986862194)" d="M0,2.256758334191025A2.256758334191025,2.256758334191025 0 1,1 0,-2.256758334191025A2.256758334191025,2.256758334191025 0 1,1 0,2.256758334191025Z"></path><path class="nv-point nv-point-24" transform="translate(893.8775510204082,473.1045219040571)" d="M0,2.256758334191025A2.256758334191025,2.256758334191025 0 1,1 0,-2.256758334191025A2.256758334191025,2.256758334191025 0 1,1 0,2.256758334191025Z"></path><path class="nv-point nv-point-25" transform="translate(931.1224489795918,455.866961187954)" d="M0,2.256758334191025A2.256758334191025,2.256758334191025 0 1,1 0,-2.256758334191025A2.256758334191025,2.256758334191025 0 1,1 0,2.256758334191025Z"></path><path class="nv-point nv-point-26" transform="translate(968.3673469387755,406.16118101494203)" d="M0,2.256758334191025A2.256758334191025,2.256758334191025 0 1,1 0,-2.256758334191025A2.256758334191025,2.256758334191025 0 1,1 0,2.256758334191025Z"></path><path class="nv-point nv-point-27" transform="translate(1005.612244897959,389.0922329647963)" d="M0,2.256758334191025A2.256758334191025,2.256758334191025 0 1,1 0,-2.256758334191025A2.256758334191025,2.256758334191025 0 1,1 0,2.256758334191025Z"></path><path class="nv-point nv-point-28" transform="translate(1042.857142857143,389.8551024656521)" d="M0,2.256758334191025A2.256758334191025,2.256758334191025 0 1,1 0,-2.256758334191025A2.256758334191025,2.256758334191025 0 1,1 0,2.256758334191025Z"></path><path class="nv-point nv-point-29" transform="translate(1080.1020408163265,340.06707221168523)" d="M0,2.256758334191025A2.256758334191025,2.256758334191025 0 1,1 0,-2.256758334191025A2.256758334191025,2.256758334191025 0 1,1 0,2.256758334191025Z"></path><path class="nv-point nv-point-30" transform="translate(1117.3469387755101,324.34908174122234)" d="M0,2.256758334191025A2.256758334191025,2.256758334191025 0 1,1 0,-2.256758334191025A2.256758334191025,2.256758334191025 0 1,1 0,2.256758334191025Z"></path><path class="nv-point nv-point-31" transform="translate(1154.591836734694,300.50889577647257)" d="M0,2.256758334191025A2.256758334191025,2.256758334191025 0 1,1 0,-2.256758334191025A2.256758334191025,2.256758334191025 0 1,1 0,2.256758334191025Z"></path><path class="nv-point nv-point-32" transform="translate(1191.8367346938774,328.26007309062317)" d="M0,2.256758334191025A2.256758334191025,2.256758334191025 0 1,1 0,-2.256758334191025A2.256758334191025,2.256758334191025 0 1,1 0,2.256758334191025Z"></path><path class="nv-point nv-point-33" transform="translate(1229.0816326530612,311.48311282786705)" d="M0,2.256758334191025A2.256758334191025,2.256758334191025 0 1,1 0,-2.256758334191025A2.256758334191025,2.256758334191025 0 1,1 0,2.256758334191025Z"></path><path class="nv-point nv-point-34" transform="translate(1266.3265306122448,292.77327566267286)" d="M0,2.256758334191025A2.256758334191025,2.256758334191025 0 1,1 0,-2.256758334191025A2.256758334191025,2.256758334191025 0 1,1 0,2.256758334191025Z"></path><path class="nv-point nv-point-35" transform="translate(1303.5714285714287,278.98610584262394)" d="M0,2.256758334191025A2.256758334191025,2.256758334191025 0 1,1 0,-2.256758334191025A2.256758334191025,2.256758334191025 0 1,1 0,2.256758334191025Z"></path><path class="nv-point nv-point-36" transform="translate(1340.8163265306123,259.6491118101495)" d="M0,2.256758334191025A2.256758334191025,2.256758334191025 0 1,1 0,-2.256758334191025A2.256758334191025,2.256758334191025 0 1,1 0,2.256758334191025Z"></path><path class="nv-point nv-point-37" transform="translate(1378.061224489796,256.03422075218595)" d="M0,2.256758334191025A2.256758334191025,2.256758334191025 0 1,1 0,-2.256758334191025A2.256758334191025,2.256758334191025 0 1,1 0,2.256758334191025Z"></path><path class="nv-point nv-point-38" transform="translate(1415.3061224489795,222.67358791691728)" d="M0,2.256758334191025A2.256758334191025,2.256758334191025 0 1,1 0,-2.256758334191025A2.256758334191025,2.256758334191025 0 1,1 0,2.256758334191025Z"></path><path class="nv-point nv-point-39" transform="translate(1452.5510204081634,215.76663736873755)" d="M0,2.256758334191025A2.256758334191025,2.256758334191025 0 1,1 0,-2.256758334191025A2.256758334191025,2.256758334191025 0 1,1 0,2.256758334191025Z"></path><path class="nv-point nv-point-40" transform="translate(1489.795918367347,225.23156543461178)" d="M0,2.256758334191025A2.256758334191025,2.256758334191025 0 1,1 0,-2.256758334191025A2.256758334191025,2.256758334191025 0 1,1 0,2.256758334191025Z"></path><path class="nv-point nv-point-41" transform="translate(1527.0408163265306,133.02716843225244)" d="M0,2.256758334191025A2.256758334191025,2.256758334191025 0 1,1 0,-2.256758334191025A2.256758334191025,2.256758334191025 0 1,1 0,2.256758334191025Z"></path><path class="nv-point nv-point-42" transform="translate(1564.2857142857142,147.9864019059075)" d="M0,2.256758334191025A2.256758334191025,2.256758334191025 0 1,1 0,-2.256758334191025A2.256758334191025,2.256758334191025 0 1,1 0,2.256758334191025Z"></path><path class="nv-point nv-point-43" transform="translate(1601.5306122448978,142.9732594717121)" d="M0,2.256758334191025A2.256758334191025,2.256758334191025 0 1,1 0,-2.256758334191025A2.256758334191025,2.256758334191025 0 1,1 0,2.256758334191025Z"></path><path class="nv-point nv-point-44" transform="translate(1638.7755102040817,180.60678401258275)" d="M0,2.256758334191025A2.256758334191025,2.256758334191025 0 1,1 0,-2.256758334191025A2.256758334191025,2.256758334191025 0 1,1 0,2.256758334191025Z"></path><path class="nv-point nv-point-45" transform="translate(1676.0204081632653,77.1608571957256)" d="M0,2.256758334191025A2.256758334191025,2.256758334191025 0 1,1 0,-2.256758334191025A2.256758334191025,2.256758334191025 0 1,1 0,2.256758334191025Z"></path><path class="nv-point nv-point-46" transform="translate(1713.2653061224491,90.97681454410885)" d="M0,2.256758334191025A2.256758334191025,2.256758334191025 0 1,1 0,-2.256758334191025A2.256758334191025,2.256758334191025 0 1,1 0,2.256758334191025Z"></path><path class="nv-point nv-point-47" transform="translate(1750.5102040816325,38.727450617569524)" d="M0,2.256758334191025A2.256758334191025,2.256758334191025 0 1,1 0,-2.256758334191025A2.256758334191025,2.256758334191025 0 1,1 0,2.256758334191025Z"></path><path class="nv-point nv-point-48" transform="translate(1787.7551020408164,63.24825600222058)" d="M0,2.256758334191025A2.256758334191025,2.256758334191025 0 1,1 0,-2.256758334191025A2.256758334191025,2.256758334191025 0 1,1 0,2.256758334191025Z"></path><path class="nv-point nv-point-49" transform="translate(1825,0)" d="M0,2.256758334191025A2.256758334191025,2.256758334191025 0 1,1 0,-2.256758334191025A2.256758334191025,2.256758334191025 0 1,1 0,2.256758334191025Z"></path></g></g><g class="nv-point-paths"></g></g><g class="nv-point-clips"></g></g></g></g></g></g><g class="nv-interactive"><g class=" nv-wrap nv-interactiveLineLayer"><g class="nv-interactiveGuideLine"></g></g></g></g><g class="nv-focusWrap"></g></g><text style="font-size: 24px;" text-anchor="middle" x="50%" y="20px">Benchmarking compilation speed of template instanciation constrained by Concepts vs. SFINAE</text><text style="font-size: 16px;" text-anchor="middle" x="50%" y="40px"></text></g></svg>