<svg id="chart" class="nvd3-svg"><g class="nvd3 nv-wrap nv-lineChart" transform="translate(75,30)"><g><g class="nv-legendWrap nvd3-svg" transform="translate(0,-30)"><g class="nvd3 nv-legend" transform="translate(0,5)"><g transform="translate(1655,5)"><g class="nv-series" transform="translate(0,5)"><circle style="stroke-width: 2px; fill: rgb(31, 119, 180); fill-opacity: 1; stroke: rgb(31, 119, 180);" class="nv-legend-symbol" r="5"></circle><text text-anchor="start" class="nv-legend-text" dy=".32em" dx="8" fill="#000">concepts_fast</text></g><g class="nv-series" transform="translate(106,5)"><circle style="stroke-width: 2px; fill: rgb(255, 127, 14); fill-opacity: 1; stroke: rgb(255, 127, 14);" class="nv-legend-symbol" r="5"></circle><text text-anchor="start" class="nv-legend-text" dy=".32em" dx="8" fill="#000">sfinae</text></g></g></g></g><g class="nv-focus"><g class="nv-background"><rect width="1825" height="889"></rect></g><g class="nv-x nv-axis nvd3-svg" transform="translate(0,889)"><g class="nvd3 nv-wrap nv-axis"><g><g class="tick zero" style="opacity: 1;" transform="translate(0,0)"><line y2="-889" x2="0"></line></g><g class="tick" style="opacity: 1;" transform="translate(148.97959183673467,0)"><line y2="-889" x2="0"></line><text dy=".71em" style="text-anchor: middle;" y="7" transform="translate(0,0)" x="0">20</text></g><g class="tick" style="opacity: 1;" transform="translate(297.95918367346934,0)"><line y2="-889" x2="0"></line><text dy=".71em" style="text-anchor: middle;" y="7" transform="translate(0,0)" x="0">40</text></g><g class="tick" style="opacity: 1;" transform="translate(446.9387755102041,0)"><line y2="-889" x2="0"></line><text dy=".71em" style="text-anchor: middle;" y="7" transform="translate(0,0)" x="0">60</text></g><g class="tick" style="opacity: 1;" transform="translate(595.9183673469387,0)"><line y2="-889" x2="0"></line><text dy=".71em" style="text-anchor: middle;" y="7" transform="translate(0,0)" x="0">80</text></g><g class="tick" style="opacity: 1;" transform="translate(744.8979591836735,0)"><line y2="-889" x2="0"></line><text dy=".71em" style="text-anchor: middle;" y="7" transform="translate(0,0)" x="0">100</text></g><g class="tick" style="opacity: 1;" transform="translate(893.8775510204082,0)"><line y2="-889" x2="0"></line><text dy=".71em" style="text-anchor: middle;" y="7" transform="translate(0,0)" x="0">120</text></g><g class="tick" style="opacity: 1;" transform="translate(1042.857142857143,0)"><line y2="-889" x2="0"></line><text dy=".71em" style="text-anchor: middle;" y="7" transform="translate(0,0)" x="0">140</text></g><g class="tick" style="opacity: 1;" transform="translate(1191.8367346938774,0)"><line y2="-889" x2="0"></line><text dy=".71em" style="text-anchor: middle;" y="7" transform="translate(0,0)" x="0">160</text></g><g class="tick" style="opacity: 1;" transform="translate(1340.8163265306123,0)"><line y2="-889" x2="0"></line><text dy=".71em" style="text-anchor: middle;" y="7" transform="translate(0,0)" x="0">180</text></g><g class="tick" style="opacity: 1;" transform="translate(1489.795918367347,0)"><line y2="-889" x2="0"></line><text dy=".71em" style="text-anchor: middle;" y="7" transform="translate(0,0)" x="0">200</text></g><g class="tick" style="opacity: 1;" transform="translate(1638.7755102040817,0)"><line y2="-889" x2="0"></line><text dy=".71em" style="text-anchor: middle;" y="7" transform="translate(0,0)" x="0">220</text></g><g class="tick" style="opacity: 1;" transform="translate(1787.7551020408164,0)"><line y2="-889" x2="0"></line><text dy=".71em" style="text-anchor: middle;" y="7" transform="translate(0,0)" x="0">240</text></g><path class="domain" d="M0,0V0H1825V0"></path><text class="nv-axislabel" text-anchor="middle" y="36" x="912.5">Number of constrained template instanciated</text></g><g class="nv-axisMaxMin nv-axisMaxMin-x nv-axisMin-x" transform="translate(0,0)"><text dy=".71em" y="7" transform="" style="text-anchor: middle;">0</text></g><g class="nv-axisMaxMin nv-axisMaxMin-x nv-axisMax-x" transform="translate(1825,0)"><text dy=".71em" y="7" transform="" style="text-anchor: middle;">245</text></g></g><g transform="translate(24,30)"><g class="control interpolate"><circle style="fill: rgb(51, 51, 51); stroke: rgb(51, 51, 51); stroke-width: 2px; fill-opacity: 1;" cx="0" cy="0" r="5"></circle><text text-anchor="start" dx="8" dy=".32em">interpolate</text></g><g class="control baseline" transform="translate(80,0)"><circle style="fill: rgb(51, 51, 51); stroke: rgb(51, 51, 51); stroke-width: 2px; fill-opacity: 1;" cx="0" cy="0" r="5"></circle><text text-anchor="start" dx="8" dy=".32em">subtract baseline</text></g><g class="control baseline" transform="translate(200,0)"><text text-anchor="start" dx="8" dy=".32em" style="color: blue;">export as png</text></g><g class="control baseline" transform="translate(300,0)"><text text-anchor="start" dx="8" dy=".32em" style="color: blue;">export as svg</text></g></g></g><g class="nv-y nv-axis nvd3-svg"><g class="nvd3 nv-wrap nv-axis"><g><g class="tick zero" style="opacity: 1;" transform="translate(0,889)"><line x2="1825" y2="0"></line><text dy=".32em" style="text-anchor: end;" x="-3" opacity="0" y="0">0.00s</text></g><g class="tick" style="opacity: 1;" transform="translate(0,828.1192632403619)"><line x2="1825" y2="0"></line><text dy=".32em" style="text-anchor: end;" x="-3" opacity="1" y="0">0.05s</text></g><g class="tick" style="opacity: 1;" transform="translate(0,767.2385264807236)"><line x2="1825" y2="0"></line><text dy=".32em" style="text-anchor: end;" x="-3" opacity="1" y="0">0.10s</text></g><g class="tick" style="opacity: 1;" transform="translate(0,706.3577897210855)"><line x2="1825" y2="0"></line><text dy=".32em" style="text-anchor: end;" x="-3" opacity="1" y="0">0.15s</text></g><g class="tick" style="opacity: 1;" transform="translate(0,645.4770529614473)"><line x2="1825" y2="0"></line><text dy=".32em" style="text-anchor: end;" x="-3" opacity="1" y="0">0.20s</text></g><g class="tick" style="opacity: 1;" transform="translate(0,584.5963162018091)"><line x2="1825" y2="0"></line><text dy=".32em" style="text-anchor: end;" x="-3" opacity="1" y="0">0.25s</text></g><g class="tick" style="opacity: 1;" transform="translate(0,523.7155794421709)"><line x2="1825" y2="0"></line><text dy=".32em" style="text-anchor: end;" x="-3" opacity="1" y="0">0.30s</text></g><g class="tick" style="opacity: 1;" transform="translate(0,462.8348426825327)"><line x2="1825" y2="0"></line><text dy=".32em" style="text-anchor: end;" x="-3" opacity="1" y="0">0.35s</text></g><g class="tick" style="opacity: 1;" transform="translate(0,401.9541059228944)"><line x2="1825" y2="0"></line><text dy=".32em" style="text-anchor: end;" x="-3" opacity="1" y="0">0.40s</text></g><g class="tick" style="opacity: 1;" transform="translate(0,341.07336916325625)"><line x2="1825" y2="0"></line><text dy=".32em" style="text-anchor: end;" x="-3" opacity="1" y="0">0.45s</text></g><g class="tick" style="opacity: 1;" transform="translate(0,280.19263240361806)"><line x2="1825" y2="0"></line><text dy=".32em" style="text-anchor: end;" x="-3" opacity="1" y="0">0.50s</text></g><g class="tick" style="opacity: 1;" transform="translate(0,219.3118956439798)"><line x2="1825" y2="0"></line><text dy=".32em" style="text-anchor: end;" x="-3" opacity="1" y="0">0.55s</text></g><g class="tick" style="opacity: 1;" transform="translate(0,158.43115888434173)"><line x2="1825" y2="0"></line><text dy=".32em" style="text-anchor: end;" x="-3" opacity="1" y="0">0.60s</text></g><g class="tick" style="opacity: 1;" transform="translate(0,97.55042212470345)"><line x2="1825" y2="0"></line><text dy=".32em" style="text-anchor: end;" x="-3" opacity="1" y="0">0.65s</text></g><g class="tick" style="opacity: 1;" transform="translate(0,36.66968536506536)"><line x2="1825" y2="0"></line><text dy=".32em" style="text-anchor: end;" x="-3" opacity="1" y="0">0.70s</text></g><path class="domain" d="M0,0H0V889H0"></path><text class="nv-axislabel" style="text-anchor: middle;" transform="rotate(-90)" y="-50" x="-444.5">Compilation time</text></g><g class="nv-axisMaxMin nv-axisMaxMin-y nv-axisMin-y" transform="translate(0,889)"><text style="opacity: 1;" dy=".32em" y="0" x="-3" text-anchor="end">0.00s</text></g><g class="nv-axisMaxMin nv-axisMaxMin-y nv-axisMax-y" transform="translate(0,0)"><text style="opacity: 1;" dy=".32em" y="0" x="-3" text-anchor="end">0.73s</text></g></g></g><g class="nv-linesWrap nvd3-svg"><g class="nvd3 nv-wrap nv-line" transform="translate(0,0)"><defs><clipPath id="nv-edge-clip-31755"><rect width="1825" height="889"></rect></clipPath></defs><g clip-path="url(#nv-edge-clip-31755)"><g class="nv-groups"><g style="stroke-opacity: 1; stroke-width: 1.5px; fill-opacity: 0.5; fill: rgb(31, 119, 180); stroke: rgb(31, 119, 180);" class="nv-group nv-series-0"><path class="nv-line" d="M0,882.6988437453775Q29.795918367346932,870.4014219658246,37.24489795918367,868.5708599729359C48.418367346938766,865.8250169836026,63.31632653061223,866.1502418793726,74.48979591836734,864.3932238164895S100.56122448979592,863.1563707684807,111.73469387755102,856.8574062203814S137.80612244897958,827.9411262046032,148.97959183673467,822.4001268291614S175.05102040816325,823.1434197442599,186.22448979591837,819.9174103841034S212.29591836734696,805.6092196308532,223.46938775510205,800.8933977614516S249.54081632653063,788.0559638468408,260.7142857142857,788.4785979214262S286.7857142857142,817.5661963304461,297.95918367346934,803.7109582586877S324.03061224489795,694.8986956867128,335.2040816326531,696.1103441097031S361.2755102040816,813.1591615578894,372.44897959183675,811.7886144119565S398.5204081632653,703.9313270767933,409.6938775510204,686.9733631368166S435.765306122449,702.9675241331515,446.9387755102041,698.7355214787788S473.01020408163265,662.4269197634349,484.18367346938777,658.760012107665S510.2551020408163,675.7814746560821,521.4285714285714,674.2894704403136S547.5,655.8143585402867,558.6734693877551,648.8133173358754S584.7448979591836,631.8783663143939,595.9183673469387,627.6158624109046S621.9897959183672,622.1943719217221,633.1632653061224,620.3966246459468S659.2346938775511,625.076039834766,670.4081632653061,615.6308805724022S696.4795918367347,563.3583755868931,707.6530612244898,557.4288962301881S733.7244897959184,576.1227526173924,744.8979591836735,576.1010181943692S770.969387755102,563.8781144366101,782.1428571428571,557.2840000767002S808.2142857142857,543.0865513836158,819.3877551020408,532.1402557949696S845.4591836734695,474.4009041713919,856.6326530612246,484.3086961523922S882.7040816326531,601.8921682308018,893.8775510204082,598.1922023349715S919.9489795918367,471.1446979658028,931.1224489795918,459.64225684685726S957.1938775510205,515.734662779613,968.3673469387755,521.5092615420015S994.438775510204,500.74058964602875,1005.612244897959,498.13958192944676S1031.6836734693877,509.9385122364117,1042.857142857143,504.16921009812137S1068.9285714285713,469.4195205282448,1080.1020408163265,459.67756767417774S1106.173469387755,441.2602315933358,1117.3469387755101,439.22285773767453S1143.4183673469388,453.9700594836985,1154.591836734694,446.09507530310253S1180.6632653061222,392.99635783902835,1191.8367346938774,386.72296320036816S1217.908163265306,412.69608575897524,1229.0816326530612,404.27244437870144S1255.1530612244896,334.9016453549846,1266.3265306122448,330.56535399854266S1292.3979591836735,362.42089510433965,1303.5714285714287,375.3638353357549S1329.642857142857,422.37216565586834,1340.8163265306123,416.85162220797787S1366.8877551020407,346.65363661390796,1378.061224489796,338.5602123498184S1404.1326530612243,366.56218546094044,1415.3061224489795,362.89546044738097S1441.3775510204082,320.2932516887727,1452.5510204081634,314.11537892608845S1478.6224489795918,336.6757100241605,1489.795918367347,321.7096420294857S1515.8673469387754,234.592230001808,1527.0408163265306,214.34159229492306S1553.112244897959,186.11655216431356,1564.2857142857142,186.70539065025275S1590.3571428571427,230.01710351505778,1601.5306122448978,218.2671822011844S1627.6020408163265,103.82753048830607,1638.7755102040817,108.37258189109686S1664.8469387755101,234.8881712631965,1676.0204081632653,248.56752488645637S1702.091836734694,220.94654342597616,1713.2653061224491,199.56827271282918S1739.3367346938774,115.8930575415412,1750.5102040816325,106.04572013214322S1776.5816326530612,123.98928231952168,1787.7551020408164,133.919356650176Q1795.2040816326532,140.53940620394556,1825,172.2462156698388"></path></g><g style="stroke-opacity: 1; stroke-width: 1.5px; fill-opacity: 0.5; fill: rgb(255, 127, 14); stroke: rgb(255, 127, 14);" class="nv-group nv-series-1"><path class="nv-line" d="M0,888.001555917142Q29.795918367346932,887.4054117427916,37.24489795918367,883.7727799418175C48.418367346938766,878.3238322403563,63.31632653061223,857.6779567904279,74.48979591836734,851.6752379074011S100.56122448979592,848.9842484618882,111.73469387755102,843.7546540549721S137.80612244897958,819.8849609514106,148.97959183673467,816.8112751946267S175.05102040816325,827.4517668425292,186.22448979591837,823.263415676413S212.29591836734696,785.6315102668616,223.46938775510205,788.888934087186S249.54081632653063,850.4818537054385,260.7142857142857,844.979574478576S286.7857142857142,768.9080589248832,297.95918367346934,752.207072574769S324.03061224489795,739.9605470911472,335.2040816326531,733.6396654778146S361.2755102040816,716.0123178371656,372.44897959183675,710.0678618192178S398.5204081632653,699.6793555407634,409.6938775510204,694.0099586914956S435.765306122449,676.5323776632754,446.9387755102041,672.2718828240992S473.01020408163265,671.7783226911888,484.18367346938777,665.606659763654S510.2551020408163,635.9893989448251,521.4285714285714,631.1274633072004S547.5,632.1084954993453,558.6734693877551,633.1937555128226S584.7448979591836,643.6525790422343,595.9183673469387,638.3625300637158S621.9897959183672,611.578354329997,633.1632653061224,597.9267623226995S659.2346938775511,559.2408287176286,670.4081632653061,547.3519166817329S696.4795918367347,533.2575390759824,707.6530612244898,518.6673487500616S733.7244897959184,457.5805306964922,744.8979591836735,450.08398117559415S770.969387755102,471.5565561499817,782.1428571428571,468.6903519440747S808.2142857142857,451.9041934432337,819.3877551020408,430.97595313621395S845.4591836734695,321.90506919448416,856.6326530612246,329.1687498972766S882.7040816326531,473.58333675744683,893.8775510204082,479.40049115483026S919.9489795918367,367.76165773657885,931.1224489795918,367.9497792131661S957.1938775510205,466.55684740506985,968.3673469387755,480.6546343320787S994.438775510204,476.8154341912791,1005.612244897959,461.9350253932251S1031.6836734693877,395.12541808424965,1042.857142857143,381.4519090117187S1068.9285714285713,373.626238227898,1080.1020408163265,370.77829824301887S1106.173469387755,364.299918163689,1117.3469387755101,362.46564244585784S1143.4183673469388,362.28884478630795,1154.591836734694,358.549793457478S1180.6632653061222,344.5203147171135,1191.8367346938774,337.5386335869917S1217.908163265306,320.2009564918451,1229.0816326530612,312.0052525899994S1255.1530612244896,301.2289360183862,1266.3265306122448,282.90060757468683S1292.3979591836735,185.93945010107973,1303.5714285714287,189.8163962986702S1329.642857142857,318.3146277440843,1340.8163265306123,308.7469155586234S1366.8877551020407,145.95736561039615,1378.061224489796,126.03164839559743S1404.1326530612243,167.79692966597088,1415.3061224489795,175.90880079329858S1441.3775510204082,186.92115198132882,1452.5510204081634,180.11078924444868S1478.6224489795918,134.15794825753724,1489.795918367347,130.50638254743095S1515.8673469387754,158.7318488431976,1527.0408163265306,155.76701784373995S1553.112244897959,119.99367956598672,1564.2857142857142,110.74084255104663S1590.3571428571427,92.0049784554783,1601.5306122448978,94.0814377441393S1627.6020408163265,119.30846687375708,1638.7755102040817,124.58390447545325S1664.8469387755101,136.59049897550528,1676.0204081632653,129.25102175544708S1702.091836734694,83.71643143007411,1713.2653061224491,75.65405634173197S1739.3367346938774,86.84996295109264,1750.5102040816325,75.50185449983285S1776.5816326530612,4.157667274789234,1787.7551020408164,0Q1795.2040816326532,-2.7717781831928225,1825,47.784072667904624"></path></g></g><g class="nv-scatterWrap nvd3-svg" clip-path="url(#nv-edge-clip-31755)"><g class="nvd3 nv-wrap nv-scatter nv-chart-31755" transform="translate(0,0)"><defs><clipPath id="nv-edge-clip-31755"><rect transform="translate( -10, -10)" width="1845" height="909"></rect></clipPath></defs><g clip-path=""><g class="nv-groups"><g style="stroke-opacity: 1; fill-opacity: 0.5; fill: rgb(31, 119, 180); stroke: rgb(31, 119, 180);" class="nv-group nv-series-0 nv-noninteractive"><path class="nv-point nv-point-0" transform="translate(0,882.6988437453775)" d="M0,2.256758334191025A2.256758334191025,2.256758334191025 0 1,1 0,-2.256758334191025A2.256758334191025,2.256758334191025 0 1,1 0,2.256758334191025Z"></path><path class="nv-point nv-point-1" transform="translate(37.24489795918367,868.5708599729359)" d="M0,2.256758334191025A2.256758334191025,2.256758334191025 0 1,1 0,-2.256758334191025A2.256758334191025,2.256758334191025 0 1,1 0,2.256758334191025Z"></path><path class="nv-point nv-point-2" transform="translate(74.48979591836734,864.3932238164895)" d="M0,2.256758334191025A2.256758334191025,2.256758334191025 0 1,1 0,-2.256758334191025A2.256758334191025,2.256758334191025 0 1,1 0,2.256758334191025Z"></path><path class="nv-point nv-point-3" transform="translate(111.73469387755102,856.8574062203814)" d="M0,2.256758334191025A2.256758334191025,2.256758334191025 0 1,1 0,-2.256758334191025A2.256758334191025,2.256758334191025 0 1,1 0,2.256758334191025Z"></path><path class="nv-point nv-point-4" transform="translate(148.97959183673467,822.4001268291614)" d="M0,2.256758334191025A2.256758334191025,2.256758334191025 0 1,1 0,-2.256758334191025A2.256758334191025,2.256758334191025 0 1,1 0,2.256758334191025Z"></path><path class="nv-point nv-point-5" transform="translate(186.22448979591837,819.9174103841034)" d="M0,2.256758334191025A2.256758334191025,2.256758334191025 0 1,1 0,-2.256758334191025A2.256758334191025,2.256758334191025 0 1,1 0,2.256758334191025Z"></path><path class="nv-point nv-point-6" transform="translate(223.46938775510205,800.8933977614516)" d="M0,2.256758334191025A2.256758334191025,2.256758334191025 0 1,1 0,-2.256758334191025A2.256758334191025,2.256758334191025 0 1,1 0,2.256758334191025Z"></path><path class="nv-point nv-point-7" transform="translate(260.7142857142857,788.4785979214262)" d="M0,2.256758334191025A2.256758334191025,2.256758334191025 0 1,1 0,-2.256758334191025A2.256758334191025,2.256758334191025 0 1,1 0,2.256758334191025Z"></path><path class="nv-point nv-point-8" transform="translate(297.95918367346934,803.7109582586877)" d="M0,2.256758334191025A2.256758334191025,2.256758334191025 0 1,1 0,-2.256758334191025A2.256758334191025,2.256758334191025 0 1,1 0,2.256758334191025Z"></path><path class="nv-point nv-point-9" transform="translate(335.2040816326531,696.1103441097031)" d="M0,2.256758334191025A2.256758334191025,2.256758334191025 0 1,1 0,-2.256758334191025A2.256758334191025,2.256758334191025 0 1,1 0,2.256758334191025Z"></path><path class="nv-point nv-point-10" transform="translate(372.44897959183675,811.7886144119565)" d="M0,2.256758334191025A2.256758334191025,2.256758334191025 0 1,1 0,-2.256758334191025A2.256758334191025,2.256758334191025 0 1,1 0,2.256758334191025Z"></path><path class="nv-point nv-point-11" transform="translate(409.6938775510204,686.9733631368166)" d="M0,2.256758334191025A2.256758334191025,2.256758334191025 0 1,1 0,-2.256758334191025A2.256758334191025,2.256758334191025 0 1,1 0,2.256758334191025Z"></path><path class="nv-point nv-point-12" transform="translate(446.9387755102041,698.7355214787788)" d="M0,2.256758334191025A2.256758334191025,2.256758334191025 0 1,1 0,-2.256758334191025A2.256758334191025,2.256758334191025 0 1,1 0,2.256758334191025Z"></path><path class="nv-point nv-point-13" transform="translate(484.18367346938777,658.760012107665)" d="M0,2.256758334191025A2.256758334191025,2.256758334191025 0 1,1 0,-2.256758334191025A2.256758334191025,2.256758334191025 0 1,1 0,2.256758334191025Z"></path><path class="nv-point nv-point-14" transform="translate(521.4285714285714,674.2894704403136)" d="M0,2.256758334191025A2.256758334191025,2.256758334191025 0 1,1 0,-2.256758334191025A2.256758334191025,2.256758334191025 0 1,1 0,2.256758334191025Z"></path><path class="nv-point nv-point-15" transform="translate(558.6734693877551,648.8133173358754)" d="M0,2.256758334191025A2.256758334191025,2.256758334191025 0 1,1 0,-2.256758334191025A2.256758334191025,2.256758334191025 0 1,1 0,2.256758334191025Z"></path><path class="nv-point nv-point-16" transform="translate(595.9183673469387,627.6158624109046)" d="M0,2.256758334191025A2.256758334191025,2.256758334191025 0 1,1 0,-2.256758334191025A2.256758334191025,2.256758334191025 0 1,1 0,2.256758334191025Z"></path><path class="nv-point nv-point-17" transform="translate(633.1632653061224,620.3966246459468)" d="M0,2.256758334191025A2.256758334191025,2.256758334191025 0 1,1 0,-2.256758334191025A2.256758334191025,2.256758334191025 0 1,1 0,2.256758334191025Z"></path><path class="nv-point nv-point-18" transform="translate(670.4081632653061,615.6308805724022)" d="M0,2.256758334191025A2.256758334191025,2.256758334191025 0 1,1 0,-2.256758334191025A2.256758334191025,2.256758334191025 0 1,1 0,2.256758334191025Z"></path><path class="nv-point nv-point-19" transform="translate(707.6530612244898,557.4288962301881)" d="M0,2.256758334191025A2.256758334191025,2.256758334191025 0 1,1 0,-2.256758334191025A2.256758334191025,2.256758334191025 0 1,1 0,2.256758334191025Z"></path><path class="nv-point nv-point-20" transform="translate(744.8979591836735,576.1010181943692)" d="M0,2.256758334191025A2.256758334191025,2.256758334191025 0 1,1 0,-2.256758334191025A2.256758334191025,2.256758334191025 0 1,1 0,2.256758334191025Z"></path><path class="nv-point nv-point-21" transform="translate(782.1428571428571,557.2840000767002)" d="M0,2.256758334191025A2.256758334191025,2.256758334191025 0 1,1 0,-2.256758334191025A2.256758334191025,2.256758334191025 0 1,1 0,2.256758334191025Z"></path><path class="nv-point nv-point-22" transform="translate(819.3877551020408,532.1402557949696)" d="M0,2.256758334191025A2.256758334191025,2.256758334191025 0 1,1 0,-2.256758334191025A2.256758334191025,2.256758334191025 0 1,1 0,2.256758334191025Z"></path><path class="nv-point nv-point-23" transform="translate(856.6326530612246,484.3086961523922)" d="M0,2.256758334191025A2.256758334191025,2.256758334191025 0 1,1 0,-2.256758334191025A2.256758334191025,2.256758334191025 0 1,1 0,2.256758334191025Z"></path><path class="nv-point nv-point-24" transform="translate(893.8775510204082,598.1922023349715)" d="M0,2.256758334191025A2.256758334191025,2.256758334191025 0 1,1 0,-2.256758334191025A2.256758334191025,2.256758334191025 0 1,1 0,2.256758334191025Z"></path><path class="nv-point nv-point-25" transform="translate(931.1224489795918,459.64225684685726)" d="M0,2.256758334191025A2.256758334191025,2.256758334191025 0 1,1 0,-2.256758334191025A2.256758334191025,2.256758334191025 0 1,1 0,2.256758334191025Z"></path><path class="nv-point nv-point-26" transform="translate(968.3673469387755,521.5092615420015)" d="M0,2.256758334191025A2.256758334191025,2.256758334191025 0 1,1 0,-2.256758334191025A2.256758334191025,2.256758334191025 0 1,1 0,2.256758334191025Z"></path><path class="nv-point nv-point-27" transform="translate(1005.612244897959,498.13958192944676)" d="M0,2.256758334191025A2.256758334191025,2.256758334191025 0 1,1 0,-2.256758334191025A2.256758334191025,2.256758334191025 0 1,1 0,2.256758334191025Z"></path><path class="nv-point nv-point-28" transform="translate(1042.857142857143,504.16921009812137)" d="M0,2.256758334191025A2.256758334191025,2.256758334191025 0 1,1 0,-2.256758334191025A2.256758334191025,2.256758334191025 0 1,1 0,2.256758334191025Z"></path><path class="nv-point nv-point-29" transform="translate(1080.1020408163265,459.67756767417774)" d="M0,2.256758334191025A2.256758334191025,2.256758334191025 0 1,1 0,-2.256758334191025A2.256758334191025,2.256758334191025 0 1,1 0,2.256758334191025Z"></path><path class="nv-point nv-point-30" transform="translate(1117.3469387755101,439.22285773767453)" d="M0,2.256758334191025A2.256758334191025,2.256758334191025 0 1,1 0,-2.256758334191025A2.256758334191025,2.256758334191025 0 1,1 0,2.256758334191025Z"></path><path class="nv-point nv-point-31" transform="translate(1154.591836734694,446.09507530310253)" d="M0,2.256758334191025A2.256758334191025,2.256758334191025 0 1,1 0,-2.256758334191025A2.256758334191025,2.256758334191025 0 1,1 0,2.256758334191025Z"></path><path class="nv-point nv-point-32" transform="translate(1191.8367346938774,386.72296320036816)" d="M0,2.256758334191025A2.256758334191025,2.256758334191025 0 1,1 0,-2.256758334191025A2.256758334191025,2.256758334191025 0 1,1 0,2.256758334191025Z"></path><path class="nv-point nv-point-33" transform="translate(1229.0816326530612,404.27244437870144)" d="M0,2.256758334191025A2.256758334191025,2.256758334191025 0 1,1 0,-2.256758334191025A2.256758334191025,2.256758334191025 0 1,1 0,2.256758334191025Z"></path><path class="nv-point nv-point-34" transform="translate(1266.3265306122448,330.56535399854266)" d="M0,2.256758334191025A2.256758334191025,2.256758334191025 0 1,1 0,-2.256758334191025A2.256758334191025,2.256758334191025 0 1,1 0,2.256758334191025Z"></path><path class="nv-point nv-point-35" transform="translate(1303.5714285714287,375.3638353357549)" d="M0,2.256758334191025A2.256758334191025,2.256758334191025 0 1,1 0,-2.256758334191025A2.256758334191025,2.256758334191025 0 1,1 0,2.256758334191025Z"></path><path class="nv-point nv-point-36" transform="translate(1340.8163265306123,416.85162220797787)" d="M0,2.256758334191025A2.256758334191025,2.256758334191025 0 1,1 0,-2.256758334191025A2.256758334191025,2.256758334191025 0 1,1 0,2.256758334191025Z"></path><path class="nv-point nv-point-37" transform="translate(1378.061224489796,338.5602123498184)" d="M0,2.256758334191025A2.256758334191025,2.256758334191025 0 1,1 0,-2.256758334191025A2.256758334191025,2.256758334191025 0 1,1 0,2.256758334191025Z"></path><path class="nv-point nv-point-38" transform="translate(1415.3061224489795,362.89546044738097)" d="M0,2.256758334191025A2.256758334191025,2.256758334191025 0 1,1 0,-2.256758334191025A2.256758334191025,2.256758334191025 0 1,1 0,2.256758334191025Z"></path><path class="nv-point nv-point-39" transform="translate(1452.5510204081634,314.11537892608845)" d="M0,2.256758334191025A2.256758334191025,2.256758334191025 0 1,1 0,-2.256758334191025A2.256758334191025,2.256758334191025 0 1,1 0,2.256758334191025Z"></path><path class="nv-point nv-point-40" transform="translate(1489.795918367347,321.7096420294857)" d="M0,2.256758334191025A2.256758334191025,2.256758334191025 0 1,1 0,-2.256758334191025A2.256758334191025,2.256758334191025 0 1,1 0,2.256758334191025Z"></path><path class="nv-point nv-point-41" transform="translate(1527.0408163265306,214.34159229492306)" d="M0,2.256758334191025A2.256758334191025,2.256758334191025 0 1,1 0,-2.256758334191025A2.256758334191025,2.256758334191025 0 1,1 0,2.256758334191025Z"></path><path class="nv-point nv-point-42" transform="translate(1564.2857142857142,186.70539065025275)" d="M0,2.256758334191025A2.256758334191025,2.256758334191025 0 1,1 0,-2.256758334191025A2.256758334191025,2.256758334191025 0 1,1 0,2.256758334191025Z"></path><path class="nv-point nv-point-43" transform="translate(1601.5306122448978,218.2671822011844)" d="M0,2.256758334191025A2.256758334191025,2.256758334191025 0 1,1 0,-2.256758334191025A2.256758334191025,2.256758334191025 0 1,1 0,2.256758334191025Z"></path><path class="nv-point nv-point-44" transform="translate(1638.7755102040817,108.37258189109686)" d="M0,2.256758334191025A2.256758334191025,2.256758334191025 0 1,1 0,-2.256758334191025A2.256758334191025,2.256758334191025 0 1,1 0,2.256758334191025Z"></path><path class="nv-point nv-point-45" transform="translate(1676.0204081632653,248.56752488645637)" d="M0,2.256758334191025A2.256758334191025,2.256758334191025 0 1,1 0,-2.256758334191025A2.256758334191025,2.256758334191025 0 1,1 0,2.256758334191025Z"></path><path class="nv-point nv-point-46" transform="translate(1713.2653061224491,199.56827271282918)" d="M0,2.256758334191025A2.256758334191025,2.256758334191025 0 1,1 0,-2.256758334191025A2.256758334191025,2.256758334191025 0 1,1 0,2.256758334191025Z"></path><path class="nv-point nv-point-47" transform="translate(1750.5102040816325,106.04572013214322)" d="M0,2.256758334191025A2.256758334191025,2.256758334191025 0 1,1 0,-2.256758334191025A2.256758334191025,2.256758334191025 0 1,1 0,2.256758334191025Z"></path><path class="nv-point nv-point-48" transform="translate(1787.7551020408164,133.919356650176)" d="M0,2.256758334191025A2.256758334191025,2.256758334191025 0 1,1 0,-2.256758334191025A2.256758334191025,2.256758334191025 0 1,1 0,2.256758334191025Z"></path><path class="nv-point nv-point-49" transform="translate(1825,172.2462156698388)" d="M0,2.256758334191025A2.256758334191025,2.256758334191025 0 1,1 0,-2.256758334191025A2.256758334191025,2.256758334191025 0 1,1 0,2.256758334191025Z"></path></g><g style="stroke-opacity: 1; fill-opacity: 0.5; fill: rgb(255, 127, 14); stroke: rgb(255, 127, 14);" class="nv-group nv-series-1 nv-noninteractive"><path class="nv-point nv-point-0" transform="translate(0,888.001555917142)" d="M0,2.256758334191025A2.256758334191025,2.256758334191025 0 1,1 0,-2.256758334191025A2.256758334191025,2.256758334191025 0 1,1 0,2.256758334191025Z"></path><path class="nv-point nv-point-1" transform="translate(37.24489795918367,883.7727799418175)" d="M0,2.256758334191025A2.256758334191025,2.256758334191025 0 1,1 0,-2.256758334191025A2.256758334191025,2.256758334191025 0 1,1 0,2.256758334191025Z"></path><path class="nv-point nv-point-2" transform="translate(74.48979591836734,851.6752379074011)" d="M0,2.256758334191025A2.256758334191025,2.256758334191025 0 1,1 0,-2.256758334191025A2.256758334191025,2.256758334191025 0 1,1 0,2.256758334191025Z"></path><path class="nv-point nv-point-3" transform="translate(111.73469387755102,843.7546540549721)" d="M0,2.256758334191025A2.256758334191025,2.256758334191025 0 1,1 0,-2.256758334191025A2.256758334191025,2.256758334191025 0 1,1 0,2.256758334191025Z"></path><path class="nv-point nv-point-4" transform="translate(148.97959183673467,816.8112751946267)" d="M0,2.256758334191025A2.256758334191025,2.256758334191025 0 1,1 0,-2.256758334191025A2.256758334191025,2.256758334191025 0 1,1 0,2.256758334191025Z"></path><path class="nv-point nv-point-5" transform="translate(186.22448979591837,823.263415676413)" d="M0,2.256758334191025A2.256758334191025,2.256758334191025 0 1,1 0,-2.256758334191025A2.256758334191025,2.256758334191025 0 1,1 0,2.256758334191025Z"></path><path class="nv-point nv-point-6" transform="translate(223.46938775510205,788.888934087186)" d="M0,2.256758334191025A2.256758334191025,2.256758334191025 0 1,1 0,-2.256758334191025A2.256758334191025,2.256758334191025 0 1,1 0,2.256758334191025Z"></path><path class="nv-point nv-point-7" transform="translate(260.7142857142857,844.979574478576)" d="M0,2.256758334191025A2.256758334191025,2.256758334191025 0 1,1 0,-2.256758334191025A2.256758334191025,2.256758334191025 0 1,1 0,2.256758334191025Z"></path><path class="nv-point nv-point-8" transform="translate(297.95918367346934,752.207072574769)" d="M0,2.256758334191025A2.256758334191025,2.256758334191025 0 1,1 0,-2.256758334191025A2.256758334191025,2.256758334191025 0 1,1 0,2.256758334191025Z"></path><path class="nv-point nv-point-9" transform="translate(335.2040816326531,733.6396654778146)" d="M0,2.256758334191025A2.256758334191025,2.256758334191025 0 1,1 0,-2.256758334191025A2.256758334191025,2.256758334191025 0 1,1 0,2.256758334191025Z"></path><path class="nv-point nv-point-10" transform="translate(372.44897959183675,710.0678618192178)" d="M0,2.256758334191025A2.256758334191025,2.256758334191025 0 1,1 0,-2.256758334191025A2.256758334191025,2.256758334191025 0 1,1 0,2.256758334191025Z"></path><path class="nv-point nv-point-11" transform="translate(409.6938775510204,694.0099586914956)" d="M0,2.256758334191025A2.256758334191025,2.256758334191025 0 1,1 0,-2.256758334191025A2.256758334191025,2.256758334191025 0 1,1 0,2.256758334191025Z"></path><path class="nv-point nv-point-12" transform="translate(446.9387755102041,672.2718828240992)" d="M0,2.256758334191025A2.256758334191025,2.256758334191025 0 1,1 0,-2.256758334191025A2.256758334191025,2.256758334191025 0 1,1 0,2.256758334191025Z"></path><path class="nv-point nv-point-13" transform="translate(484.18367346938777,665.606659763654)" d="M0,2.256758334191025A2.256758334191025,2.256758334191025 0 1,1 0,-2.256758334191025A2.256758334191025,2.256758334191025 0 1,1 0,2.256758334191025Z"></path><path class="nv-point nv-point-14" transform="translate(521.4285714285714,631.1274633072004)" d="M0,2.256758334191025A2.256758334191025,2.256758334191025 0 1,1 0,-2.256758334191025A2.256758334191025,2.256758334191025 0 1,1 0,2.256758334191025Z"></path><path class="nv-point nv-point-15" transform="translate(558.6734693877551,633.1937555128226)" d="M0,2.256758334191025A2.256758334191025,2.256758334191025 0 1,1 0,-2.256758334191025A2.256758334191025,2.256758334191025 0 1,1 0,2.256758334191025Z"></path><path class="nv-point nv-point-16" transform="translate(595.9183673469387,638.3625300637158)" d="M0,2.256758334191025A2.256758334191025,2.256758334191025 0 1,1 0,-2.256758334191025A2.256758334191025,2.256758334191025 0 1,1 0,2.256758334191025Z"></path><path class="nv-point nv-point-17" transform="translate(633.1632653061224,597.9267623226995)" d="M0,2.256758334191025A2.256758334191025,2.256758334191025 0 1,1 0,-2.256758334191025A2.256758334191025,2.256758334191025 0 1,1 0,2.256758334191025Z"></path><path class="nv-point nv-point-18" transform="translate(670.4081632653061,547.3519166817329)" d="M0,2.256758334191025A2.256758334191025,2.256758334191025 0 1,1 0,-2.256758334191025A2.256758334191025,2.256758334191025 0 1,1 0,2.256758334191025Z"></path><path class="nv-point nv-point-19" transform="translate(707.6530612244898,518.6673487500616)" d="M0,2.256758334191025A2.256758334191025,2.256758334191025 0 1,1 0,-2.256758334191025A2.256758334191025,2.256758334191025 0 1,1 0,2.256758334191025Z"></path><path class="nv-point nv-point-20" transform="translate(744.8979591836735,450.08398117559415)" d="M0,2.256758334191025A2.256758334191025,2.256758334191025 0 1,1 0,-2.256758334191025A2.256758334191025,2.256758334191025 0 1,1 0,2.256758334191025Z"></path><path class="nv-point nv-point-21" transform="translate(782.1428571428571,468.6903519440747)" d="M0,2.256758334191025A2.256758334191025,2.256758334191025 0 1,1 0,-2.256758334191025A2.256758334191025,2.256758334191025 0 1,1 0,2.256758334191025Z"></path><path class="nv-point nv-point-22" transform="translate(819.3877551020408,430.97595313621395)" d="M0,2.256758334191025A2.256758334191025,2.256758334191025 0 1,1 0,-2.256758334191025A2.256758334191025,2.256758334191025 0 1,1 0,2.256758334191025Z"></path><path class="nv-point nv-point-23" transform="translate(856.6326530612246,329.1687498972766)" d="M0,2.256758334191025A2.256758334191025,2.256758334191025 0 1,1 0,-2.256758334191025A2.256758334191025,2.256758334191025 0 1,1 0,2.256758334191025Z"></path><path class="nv-point nv-point-24" transform="translate(893.8775510204082,479.40049115483026)" d="M0,2.256758334191025A2.256758334191025,2.256758334191025 0 1,1 0,-2.256758334191025A2.256758334191025,2.256758334191025 0 1,1 0,2.256758334191025Z"></path><path class="nv-point nv-point-25" transform="translate(931.1224489795918,367.9497792131661)" d="M0,2.256758334191025A2.256758334191025,2.256758334191025 0 1,1 0,-2.256758334191025A2.256758334191025,2.256758334191025 0 1,1 0,2.256758334191025Z"></path><path class="nv-point nv-point-26" transform="translate(968.3673469387755,480.6546343320787)" d="M0,2.256758334191025A2.256758334191025,2.256758334191025 0 1,1 0,-2.256758334191025A2.256758334191025,2.256758334191025 0 1,1 0,2.256758334191025Z"></path><path class="nv-point nv-point-27" transform="translate(1005.612244897959,461.9350253932251)" d="M0,2.256758334191025A2.256758334191025,2.256758334191025 0 1,1 0,-2.256758334191025A2.256758334191025,2.256758334191025 0 1,1 0,2.256758334191025Z"></path><path class="nv-point nv-point-28" transform="translate(1042.857142857143,381.4519090117187)" d="M0,2.256758334191025A2.256758334191025,2.256758334191025 0 1,1 0,-2.256758334191025A2.256758334191025,2.256758334191025 0 1,1 0,2.256758334191025Z"></path><path class="nv-point nv-point-29" transform="translate(1080.1020408163265,370.77829824301887)" d="M0,2.256758334191025A2.256758334191025,2.256758334191025 0 1,1 0,-2.256758334191025A2.256758334191025,2.256758334191025 0 1,1 0,2.256758334191025Z"></path><path class="nv-point nv-point-30" transform="translate(1117.3469387755101,362.46564244585784)" d="M0,2.256758334191025A2.256758334191025,2.256758334191025 0 1,1 0,-2.256758334191025A2.256758334191025,2.256758334191025 0 1,1 0,2.256758334191025Z"></path><path class="nv-point nv-point-31" transform="translate(1154.591836734694,358.549793457478)" d="M0,2.256758334191025A2.256758334191025,2.256758334191025 0 1,1 0,-2.256758334191025A2.256758334191025,2.256758334191025 0 1,1 0,2.256758334191025Z"></path><path class="nv-point nv-point-32" transform="translate(1191.8367346938774,337.5386335869917)" d="M0,2.256758334191025A2.256758334191025,2.256758334191025 0 1,1 0,-2.256758334191025A2.256758334191025,2.256758334191025 0 1,1 0,2.256758334191025Z"></path><path class="nv-point nv-point-33" transform="translate(1229.0816326530612,312.0052525899994)" d="M0,2.256758334191025A2.256758334191025,2.256758334191025 0 1,1 0,-2.256758334191025A2.256758334191025,2.256758334191025 0 1,1 0,2.256758334191025Z"></path><path class="nv-point nv-point-34" transform="translate(1266.3265306122448,282.90060757468683)" d="M0,2.256758334191025A2.256758334191025,2.256758334191025 0 1,1 0,-2.256758334191025A2.256758334191025,2.256758334191025 0 1,1 0,2.256758334191025Z"></path><path class="nv-point nv-point-35" transform="translate(1303.5714285714287,189.8163962986702)" d="M0,2.256758334191025A2.256758334191025,2.256758334191025 0 1,1 0,-2.256758334191025A2.256758334191025,2.256758334191025 0 1,1 0,2.256758334191025Z"></path><path class="nv-point nv-point-36" transform="translate(1340.8163265306123,308.7469155586234)" d="M0,2.256758334191025A2.256758334191025,2.256758334191025 0 1,1 0,-2.256758334191025A2.256758334191025,2.256758334191025 0 1,1 0,2.256758334191025Z"></path><path class="nv-point nv-point-37" transform="translate(1378.061224489796,126.03164839559743)" d="M0,2.256758334191025A2.256758334191025,2.256758334191025 0 1,1 0,-2.256758334191025A2.256758334191025,2.256758334191025 0 1,1 0,2.256758334191025Z"></path><path class="nv-point nv-point-38" transform="translate(1415.3061224489795,175.90880079329858)" d="M0,2.256758334191025A2.256758334191025,2.256758334191025 0 1,1 0,-2.256758334191025A2.256758334191025,2.256758334191025 0 1,1 0,2.256758334191025Z"></path><path class="nv-point nv-point-39" transform="translate(1452.5510204081634,180.11078924444868)" d="M0,2.256758334191025A2.256758334191025,2.256758334191025 0 1,1 0,-2.256758334191025A2.256758334191025,2.256758334191025 0 1,1 0,2.256758334191025Z"></path><path class="nv-point nv-point-40" transform="translate(1489.795918367347,130.50638254743095)" d="M0,2.256758334191025A2.256758334191025,2.256758334191025 0 1,1 0,-2.256758334191025A2.256758334191025,2.256758334191025 0 1,1 0,2.256758334191025Z"></path><path class="nv-point nv-point-41" transform="translate(1527.0408163265306,155.76701784373995)" d="M0,2.256758334191025A2.256758334191025,2.256758334191025 0 1,1 0,-2.256758334191025A2.256758334191025,2.256758334191025 0 1,1 0,2.256758334191025Z"></path><path class="nv-point nv-point-42" transform="translate(1564.2857142857142,110.74084255104663)" d="M0,2.256758334191025A2.256758334191025,2.256758334191025 0 1,1 0,-2.256758334191025A2.256758334191025,2.256758334191025 0 1,1 0,2.256758334191025Z"></path><path class="nv-point nv-point-43" transform="translate(1601.5306122448978,94.0814377441393)" d="M0,2.256758334191025A2.256758334191025,2.256758334191025 0 1,1 0,-2.256758334191025A2.256758334191025,2.256758334191025 0 1,1 0,2.256758334191025Z"></path><path class="nv-point nv-point-44" transform="translate(1638.7755102040817,124.58390447545325)" d="M0,2.256758334191025A2.256758334191025,2.256758334191025 0 1,1 0,-2.256758334191025A2.256758334191025,2.256758334191025 0 1,1 0,2.256758334191025Z"></path><path class="nv-point nv-point-45" transform="translate(1676.0204081632653,129.25102175544708)" d="M0,2.256758334191025A2.256758334191025,2.256758334191025 0 1,1 0,-2.256758334191025A2.256758334191025,2.256758334191025 0 1,1 0,2.256758334191025Z"></path><path class="nv-point nv-point-46" transform="translate(1713.2653061224491,75.65405634173197)" d="M0,2.256758334191025A2.256758334191025,2.256758334191025 0 1,1 0,-2.256758334191025A2.256758334191025,2.256758334191025 0 1,1 0,2.256758334191025Z"></path><path class="nv-point nv-point-47" transform="translate(1750.5102040816325,75.50185449983285)" d="M0,2.256758334191025A2.256758334191025,2.256758334191025 0 1,1 0,-2.256758334191025A2.256758334191025,2.256758334191025 0 1,1 0,2.256758334191025Z"></path><path class="nv-point nv-point-48" transform="translate(1787.7551020408164,0)" d="M0,2.256758334191025A2.256758334191025,2.256758334191025 0 1,1 0,-2.256758334191025A2.256758334191025,2.256758334191025 0 1,1 0,2.256758334191025Z"></path><path class="nv-point nv-point-49" transform="translate(1825,47.784072667904624)" d="M0,2.256758334191025A2.256758334191025,2.256758334191025 0 1,1 0,-2.256758334191025A2.256758334191025,2.256758334191025 0 1,1 0,2.256758334191025Z"></path></g></g><g class="nv-point-paths"></g></g><g class="nv-point-clips"></g></g></g></g></g></g><g class="nv-interactive"><g class=" nv-wrap nv-interactiveLineLayer"><g class="nv-interactiveGuideLine"></g></g></g></g><g class="nv-focusWrap"></g></g><text style="font-size: 24px;" text-anchor="middle" x="50%" y="20px">Benchmarking compilation speed of template instanciation constrained by Concepts vs. SFINAE</text><text style="font-size: 16px;" text-anchor="middle" x="50%" y="40px"></text></g></svg>