<svg id="chart" class="nvd3-svg"><g class="nvd3 nv-wrap nv-lineChart" transform="translate(75,30)"><g><g class="nv-legendWrap nvd3-svg" transform="translate(0,-30)"><g class="nvd3 nv-legend" transform="translate(0,5)"><g transform="translate(1655,5)"><g class="nv-series" transform="translate(0,5)"><circle style="stroke-width: 2px; fill: rgb(31, 119, 180); fill-opacity: 1; stroke: rgb(31, 119, 180);" class="nv-legend-symbol" r="5"></circle><text text-anchor="start" class="nv-legend-text" dy=".32em" dx="8" fill="#000">concepts_fast</text></g><g class="nv-series" transform="translate(106,5)"><circle style="stroke-width: 2px; fill: rgb(255, 127, 14); fill-opacity: 1; stroke: rgb(255, 127, 14);" class="nv-legend-symbol" r="5"></circle><text text-anchor="start" class="nv-legend-text" dy=".32em" dx="8" fill="#000">sfinae</text></g></g></g></g><g class="nv-focus"><g class="nv-background"><rect width="1825" height="889"></rect></g><g class="nv-x nv-axis nvd3-svg" transform="translate(0,889)"><g class="nvd3 nv-wrap nv-axis"><g><g class="tick zero" style="opacity: 1;" transform="translate(0,0)"><line y2="-889" x2="0"></line></g><g class="tick" style="opacity: 1;" transform="translate(148.97959183673467,0)"><line y2="-889" x2="0"></line><text dy=".71em" style="text-anchor: middle;" y="7" transform="translate(0,0)" x="0">20</text></g><g class="tick" style="opacity: 1;" transform="translate(297.95918367346934,0)"><line y2="-889" x2="0"></line><text dy=".71em" style="text-anchor: middle;" y="7" transform="translate(0,0)" x="0">40</text></g><g class="tick" style="opacity: 1;" transform="translate(446.9387755102041,0)"><line y2="-889" x2="0"></line><text dy=".71em" style="text-anchor: middle;" y="7" transform="translate(0,0)" x="0">60</text></g><g class="tick" style="opacity: 1;" transform="translate(595.9183673469387,0)"><line y2="-889" x2="0"></line><text dy=".71em" style="text-anchor: middle;" y="7" transform="translate(0,0)" x="0">80</text></g><g class="tick" style="opacity: 1;" transform="translate(744.8979591836735,0)"><line y2="-889" x2="0"></line><text dy=".71em" style="text-anchor: middle;" y="7" transform="translate(0,0)" x="0">100</text></g><g class="tick" style="opacity: 1;" transform="translate(893.8775510204082,0)"><line y2="-889" x2="0"></line><text dy=".71em" style="text-anchor: middle;" y="7" transform="translate(0,0)" x="0">120</text></g><g class="tick" style="opacity: 1;" transform="translate(1042.857142857143,0)"><line y2="-889" x2="0"></line><text dy=".71em" style="text-anchor: middle;" y="7" transform="translate(0,0)" x="0">140</text></g><g class="tick" style="opacity: 1;" transform="translate(1191.8367346938774,0)"><line y2="-889" x2="0"></line><text dy=".71em" style="text-anchor: middle;" y="7" transform="translate(0,0)" x="0">160</text></g><g class="tick" style="opacity: 1;" transform="translate(1340.8163265306123,0)"><line y2="-889" x2="0"></line><text dy=".71em" style="text-anchor: middle;" y="7" transform="translate(0,0)" x="0">180</text></g><g class="tick" style="opacity: 1;" transform="translate(1489.795918367347,0)"><line y2="-889" x2="0"></line><text dy=".71em" style="text-anchor: middle;" y="7" transform="translate(0,0)" x="0">200</text></g><g class="tick" style="opacity: 1;" transform="translate(1638.7755102040817,0)"><line y2="-889" x2="0"></line><text dy=".71em" style="text-anchor: middle;" y="7" transform="translate(0,0)" x="0">220</text></g><g class="tick" style="opacity: 1;" transform="translate(1787.7551020408164,0)"><line y2="-889" x2="0"></line><text dy=".71em" style="text-anchor: middle;" y="7" transform="translate(0,0)" x="0">240</text></g><path class="domain" d="M0,0V0H1825V0"></path><text class="nv-axislabel" text-anchor="middle" y="36" x="912.5">Number of constrained template instanciated</text></g><g class="nv-axisMaxMin nv-axisMaxMin-x nv-axisMin-x" transform="translate(0,0)"><text dy=".71em" y="7" transform="" style="text-anchor: middle;">0</text></g><g class="nv-axisMaxMin nv-axisMaxMin-x nv-axisMax-x" transform="translate(1825,0)"><text dy=".71em" y="7" transform="" style="text-anchor: middle;">245</text></g></g><g transform="translate(24,30)"><g class="control interpolate"><circle style="fill: rgb(51, 51, 51); stroke: rgb(51, 51, 51); stroke-width: 2px; fill-opacity: 1;" cx="0" cy="0" r="5"></circle><text text-anchor="start" dx="8" dy=".32em">interpolate</text></g><g class="control baseline" transform="translate(80,0)"><circle style="fill: rgb(51, 51, 51); stroke: rgb(51, 51, 51); stroke-width: 2px; fill-opacity: 1;" cx="0" cy="0" r="5"></circle><text text-anchor="start" dx="8" dy=".32em">subtract baseline</text></g><g class="control baseline" transform="translate(200,0)"><text text-anchor="start" dx="8" dy=".32em" style="color: blue;">export as png</text></g><g class="control baseline" transform="translate(300,0)"><text text-anchor="start" dx="8" dy=".32em" style="color: blue;">export as svg</text></g></g></g><g class="nv-y nv-axis nvd3-svg"><g class="nvd3 nv-wrap nv-axis"><g><g class="tick zero" style="opacity: 1;" transform="translate(0,889)"><line x2="1825" y2="0"></line><text dy=".32em" style="text-anchor: end;" x="-3" opacity="0" y="0">0.00s</text></g><g class="tick" style="opacity: 1;" transform="translate(0,860.5817005331388)"><line x2="1825" y2="0"></line><text dy=".32em" style="text-anchor: end;" x="-3" opacity="1" y="0">0.10s</text></g><g class="tick" style="opacity: 1;" transform="translate(0,832.1634010662776)"><line x2="1825" y2="0"></line><text dy=".32em" style="text-anchor: end;" x="-3" opacity="1" y="0">0.20s</text></g><g class="tick" style="opacity: 1;" transform="translate(0,803.7451015994164)"><line x2="1825" y2="0"></line><text dy=".32em" style="text-anchor: end;" x="-3" opacity="1" y="0">0.30s</text></g><g class="tick" style="opacity: 1;" transform="translate(0,775.3268021325553)"><line x2="1825" y2="0"></line><text dy=".32em" style="text-anchor: end;" x="-3" opacity="1" y="0">0.40s</text></g><g class="tick" style="opacity: 1;" transform="translate(0,746.908502665694)"><line x2="1825" y2="0"></line><text dy=".32em" style="text-anchor: end;" x="-3" opacity="1" y="0">0.50s</text></g><g class="tick" style="opacity: 1;" transform="translate(0,718.4902031988329)"><line x2="1825" y2="0"></line><text dy=".32em" style="text-anchor: end;" x="-3" opacity="1" y="0">0.60s</text></g><g class="tick" style="opacity: 1;" transform="translate(0,690.0719037319717)"><line x2="1825" y2="0"></line><text dy=".32em" style="text-anchor: end;" x="-3" opacity="1" y="0">0.70s</text></g><g class="tick" style="opacity: 1;" transform="translate(0,661.6536042651105)"><line x2="1825" y2="0"></line><text dy=".32em" style="text-anchor: end;" x="-3" opacity="1" y="0">0.80s</text></g><g class="tick" style="opacity: 1;" transform="translate(0,633.2353047982493)"><line x2="1825" y2="0"></line><text dy=".32em" style="text-anchor: end;" x="-3" opacity="1" y="0">0.90s</text></g><g class="tick" style="opacity: 1;" transform="translate(0,604.817005331388)"><line x2="1825" y2="0"></line><text dy=".32em" style="text-anchor: end;" x="-3" opacity="1" y="0">1.00s</text></g><g class="tick" style="opacity: 1;" transform="translate(0,576.3987058645268)"><line x2="1825" y2="0"></line><text dy=".32em" style="text-anchor: end;" x="-3" opacity="1" y="0">1.10s</text></g><g class="tick" style="opacity: 1;" transform="translate(0,547.9804063976657)"><line x2="1825" y2="0"></line><text dy=".32em" style="text-anchor: end;" x="-3" opacity="1" y="0">1.20s</text></g><g class="tick" style="opacity: 1;" transform="translate(0,519.5621069308046)"><line x2="1825" y2="0"></line><text dy=".32em" style="text-anchor: end;" x="-3" opacity="1" y="0">1.30s</text></g><g class="tick" style="opacity: 1;" transform="translate(0,491.1438074639434)"><line x2="1825" y2="0"></line><text dy=".32em" style="text-anchor: end;" x="-3" opacity="1" y="0">1.40s</text></g><g class="tick" style="opacity: 1;" transform="translate(0,462.72550799708216)"><line x2="1825" y2="0"></line><text dy=".32em" style="text-anchor: end;" x="-3" opacity="1" y="0">1.50s</text></g><g class="tick" style="opacity: 1;" transform="translate(0,434.307208530221)"><line x2="1825" y2="0"></line><text dy=".32em" style="text-anchor: end;" x="-3" opacity="1" y="0">1.60s</text></g><g class="tick" style="opacity: 1;" transform="translate(0,405.88890906335985)"><line x2="1825" y2="0"></line><text dy=".32em" style="text-anchor: end;" x="-3" opacity="1" y="0">1.70s</text></g><g class="tick" style="opacity: 1;" transform="translate(0,377.47060959649855)"><line x2="1825" y2="0"></line><text dy=".32em" style="text-anchor: end;" x="-3" opacity="1" y="0">1.80s</text></g><g class="tick" style="opacity: 1;" transform="translate(0,349.0523101296374)"><line x2="1825" y2="0"></line><text dy=".32em" style="text-anchor: end;" x="-3" opacity="1" y="0">1.90s</text></g><g class="tick" style="opacity: 1;" transform="translate(0,320.6340106627762)"><line x2="1825" y2="0"></line><text dy=".32em" style="text-anchor: end;" x="-3" opacity="1" y="0">2.00s</text></g><g class="tick" style="opacity: 1;" transform="translate(0,292.215711195915)"><line x2="1825" y2="0"></line><text dy=".32em" style="text-anchor: end;" x="-3" opacity="1" y="0">2.10s</text></g><g class="tick" style="opacity: 1;" transform="translate(0,263.79741172905375)"><line x2="1825" y2="0"></line><text dy=".32em" style="text-anchor: end;" x="-3" opacity="1" y="0">2.20s</text></g><g class="tick" style="opacity: 1;" transform="translate(0,235.37911226219268)"><line x2="1825" y2="0"></line><text dy=".32em" style="text-anchor: end;" x="-3" opacity="1" y="0">2.30s</text></g><g class="tick" style="opacity: 1;" transform="translate(0,206.9608127953314)"><line x2="1825" y2="0"></line><text dy=".32em" style="text-anchor: end;" x="-3" opacity="1" y="0">2.40s</text></g><g class="tick" style="opacity: 1;" transform="translate(0,178.54251332847025)"><line x2="1825" y2="0"></line><text dy=".32em" style="text-anchor: end;" x="-3" opacity="1" y="0">2.50s</text></g><g class="tick" style="opacity: 1;" transform="translate(0,150.124213861609)"><line x2="1825" y2="0"></line><text dy=".32em" style="text-anchor: end;" x="-3" opacity="1" y="0">2.60s</text></g><g class="tick" style="opacity: 1;" transform="translate(0,121.70591439474785)"><line x2="1825" y2="0"></line><text dy=".32em" style="text-anchor: end;" x="-3" opacity="1" y="0">2.70s</text></g><g class="tick" style="opacity: 1;" transform="translate(0,93.2876149278867)"><line x2="1825" y2="0"></line><text dy=".32em" style="text-anchor: end;" x="-3" opacity="1" y="0">2.80s</text></g><g class="tick" style="opacity: 1;" transform="translate(0,64.86931546102554)"><line x2="1825" y2="0"></line><text dy=".32em" style="text-anchor: end;" x="-3" opacity="1" y="0">2.90s</text></g><g class="tick" style="opacity: 1;" transform="translate(0,36.45101599416427)"><line x2="1825" y2="0"></line><text dy=".32em" style="text-anchor: end;" x="-3" opacity="1" y="0">3.00s</text></g><g class="tick" style="opacity: 1;" transform="translate(0,8.032716527303117)" opacity="0"><line x2="1825" y2="0"></line><text dy=".32em" style="text-anchor: end;" x="-3" opacity="0" y="0">3.10s</text></g><path class="domain" d="M0,0H0V889H0"></path><text class="nv-axislabel" style="text-anchor: middle;" transform="rotate(-90)" y="-50" x="-444.5">Compilation time</text></g><g class="nv-axisMaxMin nv-axisMaxMin-y nv-axisMin-y" transform="translate(0,889)"><text style="opacity: 1;" dy=".32em" y="0" x="-3" text-anchor="end">0.00s</text></g><g class="nv-axisMaxMin nv-axisMaxMin-y nv-axisMax-y" transform="translate(0,0)"><text style="opacity: 1;" dy=".32em" y="0" x="-3" text-anchor="end">3.13s</text></g></g></g><g class="nv-linesWrap nvd3-svg"><g class="nvd3 nv-wrap nv-line" transform="translate(0,0)"><defs><clipPath id="nv-edge-clip-22159"><rect width="1825" height="889"></rect></clipPath></defs><g clip-path="url(#nv-edge-clip-22159)"><g class="nv-groups"><g style="stroke-opacity: 1; stroke-width: 1.5px; fill-opacity: 0.5; fill: rgb(31, 119, 180); stroke: rgb(31, 119, 180);" class="nv-group nv-series-0"><path class="nv-line" d="M0,889Q29.795918367346932,865.6739187780066,37.24489795918367,861.6581857169434C48.418367346938766,855.6345861253486,63.31632653061223,852.3349231651016,74.48979591836734,848.8426693893678S100.56122448979592,843.980127840791,111.73469387755102,838.3764938787175S137.80612244897958,817.3131771243238,148.97959183673467,811.4851096422108S175.05102040816325,805.3585789699468,186.22448979591837,799.5227106646302S212.29591836734696,779.1135547456643,223.46938775510205,772.5793209400991S249.54081632653063,759.5208423612315,260.7142857142857,755.9611519608627S286.7857142857142,753.5611555251376,297.95918367346934,748.8480516043073S324.03061224489795,731.07217794139,335.2040816326531,724.5404591553277S361.2755102040816,709.2419507484339,372.44897959183675,705.3032596972253S398.5204081632653,705.0979232744276,409.6938775510204,698.2825188139373S435.765306122449,670.6535091964687,446.9387755102041,659.8672299606236S473.01020408163265,634.3792976524375,484.18367346938777,626.3739905749702S510.2551020408163,607.0310608337015,521.4285714285714,606.4985161108423S547.5,625.2134724796422,558.6734693877551,622.8236924225754S584.7448979591836,600.4568993173855,595.9183673469387,590.5666490637306S621.9897959183672,561.1391589462021,633.1632653061224,556.8886907315426S659.2346938775511,566.0398520618131,670.4081632653061,562.2301942993339S696.4795918367347,537.4021206956187,707.6530612244898,531.4909723150142S733.7244897959184,525.3670561263012,744.8979591836735,522.8225384286375S770.969387755102,520.2498297779026,782.1428571428571,514.5275209972555S808.2142857142857,490.8326697122304,819.3877551020408,484.67381322432306S845.4591836734695,479.3232300098522,856.6326530612246,473.4684777445397S882.7040816326531,448.3973992620833,893.8775510204082,445.64213145557324S919.9489795918367,462.6525440132009,931.1224489795918,455.1000257011392S957.1938775510205,404.5452350279676,968.3673469387755,395.29200937516185S994.438775510204,397.43661055357836,1005.612244897959,393.4118546824344S1031.6836734693877,373.95140106372037,1042.857142857143,368.46030356753556S1068.9285714285713,365.3102487448318,1080.1020408163265,356.8045380412024S1106.173469387755,321.00533837275987,1117.3469387755101,311.7555655433394S1143.4183673469388,296.09517851103476,1154.591836734694,295.1393858450658S1180.6632653061222,310.3704718364743,1191.8367346938774,305.3836144368797S1217.908163265306,274.60368323857375,1229.0816326530612,261.89366984776876S1255.1530612244896,221.61732339896935,1266.3265306122448,220.65019183151313S1292.3979591836735,250.7455972414111,1303.5714285714287,255.4461260647273S1329.642857142857,261.19475019068096,1340.8163265306123,251.9870506536211S1366.8877551020407,204.56810565341956,1378.061224489796,194.06146248432842S1404.1326530612243,188.32490192649863,1415.3061224489795,181.94276285968016S1441.3775510204082,158.13595768390553,1452.5510204081634,151.5138687055386S1478.6224489795918,136.8134092017752,1489.795918367347,137.79550300390068S1515.8673469387754,158.80321935538728,1527.0408163265306,158.06116071970862S1553.112244897959,137.90964510370938,1564.2857142857142,132.84844543270952S1590.3571428571427,134.44785574500372,1601.5306122448978,124.31982957970959S1627.6020408163265,78.74261773135676,1638.7755102040817,65.32827099741536S1664.8469387755101,44.69009200304593,1676.0204081632653,34.890851353433625S1702.091836734694,-3.8943585040402353,1713.2653061224491,0S1739.3367346938774,57.184723102191384,1750.5102040816325,60.85324138036852S1776.5816326530612,31.355657527205295,1787.7551020408164,24.4567885211809Q1795.2040816326532,19.857542517164635,1825,14.860781340205891"></path></g><g style="stroke-opacity: 1; stroke-width: 1.5px; fill-opacity: 0.5; fill: rgb(255, 127, 14); stroke: rgb(255, 127, 14);" class="nv-group nv-series-1"><path class="nv-line" d="M0,877.5352054460842Q29.795918367346932,868.8128904639183,37.24489795918367,869.4868588540744C48.418367346938766,870.4978114393085,63.31632653061223,881.4865000131064,74.48979591836734,884.2748893476451S100.56122448979592,889.926578654117,111.73469387755102,888.0761210843323S137.80612244897958,874.948813384156,148.97959183673467,871.9385055490806S175.05102040816325,868.3710569529574,186.22448979591837,868.0074021838296S212.29591836734696,870.6210900223958,223.46938775510205,869.5141404215626S249.54081632653063,862.373119085781,260.7142857142857,860.6277381782751S286.7857142857142,857.1479316177076,297.95918367346934,857.8782677048563S324.03061224489795,867.4055452285708,335.2040816326531,865.4966454259325S361.2755102040816,848.4594770393567,372.44897959183675,845.1522690206012S398.5204081632653,843.7379470927345,409.6938775510204,843.448591967563S435.765306122449,844.1814146559148,446.9387755102041,843.2232348527906S473.01020408163265,837.7532521531098,484.18367346938777,837.0607266134018S510.2551020408163,840.1031755451743,521.4285714285714,838.6063979214044S547.5,826.8850145416022,558.6734693877551,827.0822091216028S584.7448979591836,840.2652451070337,595.9183673469387,839.9210284547413S621.9897959183672,828.5686140660673,633.1632653061224,824.7874314396538S659.2346938775511,816.8316858764568,670.4081632653061,814.7131442786515S696.4795918367347,811.8190672883956,707.6530612244898,810.6638207876184S733.7244897959184,807.54813789812,744.8979591836735,807.0115009401375S770.969387755102,807.2738018442166,782.1428571428571,807.0862410677353S808.2142857142857,806.8522305807754,819.3877551020408,805.7610957635956S845.4591836734695,799.1549494512295,856.6326530612246,799.8120089532028S882.7040816326531,810.6785130484428,893.8775510204082,810.1414924434175S919.9489795918367,797.2159262511564,931.1224489795918,796.2318715863677S957.1938775510205,808.0982735483492,968.3673469387755,803.5811280114926S994.438775510204,770.1187082716111,1005.612244897959,766.1175680073242S1031.6836734693877,775.9211424476051,1042.857142857143,776.9068595829127S1068.9285714285713,773.5067379340504,1080.1020408163265,772.6890155760412S1106.173469387755,771.7929865938511,1117.3469387755101,771.4553771961847S1143.4183673469388,772.1544673630694,1154.591836734694,770.4382862582657S1180.6632653061222,762.4798267474697,1191.8367346938774,760.0141698308264S1217.908163265306,755.3599628356412,1229.0816326530612,754.0005734806439S1255.1530612244896,752.0251464389537,1266.3265306122448,750.9515741308444S1292.3979591836735,745.3668951745152,1303.5714285714287,746.8434247599149S1329.642857142857,762.0074293554321,1340.8163265306123,760.7951047001758S1366.8877551020407,741.8546064976571,1378.061224489796,738.7612603915395S1404.1326530612243,741.6863275373643,1415.3061224489795,740.1727973260587S1441.3775510204082,733.5448257597021,1452.5510204081634,728.6710589828359S1478.6224489795918,706.375425299511,1489.795918367347,707.6810188136175S1515.8673469387754,733.8831029874058,1527.0408163265306,737.3750157435461S1553.112244897959,736.9637461136617,1564.2857142857142,730.9604371878862S1590.3571428571427,700.2206752558766,1601.5306122448978,697.3529562383761S1627.6020408163265,712.7203079757284,1638.7755102040817,711.84231040455S1664.8469387755101,695.6313046109251,1676.0204081632653,691.4996390971868S1702.091836734694,682.9489280163515,1713.2653061224491,684.2978736462948S1739.3367346938774,698.4814895376545,1750.5102040816325,700.492609963475S1776.5816326530612,700.8743956076624,1787.7551020408164,697.7053431517652Q1795.2040816326532,695.5926415145003,1825,679.3655935908264"></path></g></g><g class="nv-scatterWrap nvd3-svg" clip-path="url(#nv-edge-clip-22159)"><g class="nvd3 nv-wrap nv-scatter nv-chart-22159" transform="translate(0,0)"><defs><clipPath id="nv-edge-clip-22159"><rect transform="translate( -10, -10)" width="1845" height="909"></rect></clipPath></defs><g clip-path=""><g class="nv-groups"><g style="stroke-opacity: 1; fill-opacity: 0.5; fill: rgb(31, 119, 180); stroke: rgb(31, 119, 180);" class="nv-group nv-series-0 nv-noninteractive"><path class="nv-point nv-point-0" transform="translate(0,889)" d="M0,2.256758334191025A2.256758334191025,2.256758334191025 0 1,1 0,-2.256758334191025A2.256758334191025,2.256758334191025 0 1,1 0,2.256758334191025Z"></path><path class="nv-point nv-point-1" transform="translate(37.24489795918367,861.6581857169434)" d="M0,2.256758334191025A2.256758334191025,2.256758334191025 0 1,1 0,-2.256758334191025A2.256758334191025,2.256758334191025 0 1,1 0,2.256758334191025Z"></path><path class="nv-point nv-point-2" transform="translate(74.48979591836734,848.8426693893678)" d="M0,2.256758334191025A2.256758334191025,2.256758334191025 0 1,1 0,-2.256758334191025A2.256758334191025,2.256758334191025 0 1,1 0,2.256758334191025Z"></path><path class="nv-point nv-point-3" transform="translate(111.73469387755102,838.3764938787175)" d="M0,2.256758334191025A2.256758334191025,2.256758334191025 0 1,1 0,-2.256758334191025A2.256758334191025,2.256758334191025 0 1,1 0,2.256758334191025Z"></path><path class="nv-point nv-point-4" transform="translate(148.97959183673467,811.4851096422108)" d="M0,2.256758334191025A2.256758334191025,2.256758334191025 0 1,1 0,-2.256758334191025A2.256758334191025,2.256758334191025 0 1,1 0,2.256758334191025Z"></path><path class="nv-point nv-point-5" transform="translate(186.22448979591837,799.5227106646302)" d="M0,2.256758334191025A2.256758334191025,2.256758334191025 0 1,1 0,-2.256758334191025A2.256758334191025,2.256758334191025 0 1,1 0,2.256758334191025Z"></path><path class="nv-point nv-point-6" transform="translate(223.46938775510205,772.5793209400991)" d="M0,2.256758334191025A2.256758334191025,2.256758334191025 0 1,1 0,-2.256758334191025A2.256758334191025,2.256758334191025 0 1,1 0,2.256758334191025Z"></path><path class="nv-point nv-point-7" transform="translate(260.7142857142857,755.9611519608627)" d="M0,2.256758334191025A2.256758334191025,2.256758334191025 0 1,1 0,-2.256758334191025A2.256758334191025,2.256758334191025 0 1,1 0,2.256758334191025Z"></path><path class="nv-point nv-point-8" transform="translate(297.95918367346934,748.8480516043073)" d="M0,2.256758334191025A2.256758334191025,2.256758334191025 0 1,1 0,-2.256758334191025A2.256758334191025,2.256758334191025 0 1,1 0,2.256758334191025Z"></path><path class="nv-point nv-point-9" transform="translate(335.2040816326531,724.5404591553277)" d="M0,2.256758334191025A2.256758334191025,2.256758334191025 0 1,1 0,-2.256758334191025A2.256758334191025,2.256758334191025 0 1,1 0,2.256758334191025Z"></path><path class="nv-point nv-point-10" transform="translate(372.44897959183675,705.3032596972253)" d="M0,2.256758334191025A2.256758334191025,2.256758334191025 0 1,1 0,-2.256758334191025A2.256758334191025,2.256758334191025 0 1,1 0,2.256758334191025Z"></path><path class="nv-point nv-point-11" transform="translate(409.6938775510204,698.2825188139373)" d="M0,2.256758334191025A2.256758334191025,2.256758334191025 0 1,1 0,-2.256758334191025A2.256758334191025,2.256758334191025 0 1,1 0,2.256758334191025Z"></path><path class="nv-point nv-point-12" transform="translate(446.9387755102041,659.8672299606236)" d="M0,2.256758334191025A2.256758334191025,2.256758334191025 0 1,1 0,-2.256758334191025A2.256758334191025,2.256758334191025 0 1,1 0,2.256758334191025Z"></path><path class="nv-point nv-point-13" transform="translate(484.18367346938777,626.3739905749702)" d="M0,2.256758334191025A2.256758334191025,2.256758334191025 0 1,1 0,-2.256758334191025A2.256758334191025,2.256758334191025 0 1,1 0,2.256758334191025Z"></path><path class="nv-point nv-point-14" transform="translate(521.4285714285714,606.4985161108423)" d="M0,2.256758334191025A2.256758334191025,2.256758334191025 0 1,1 0,-2.256758334191025A2.256758334191025,2.256758334191025 0 1,1 0,2.256758334191025Z"></path><path class="nv-point nv-point-15" transform="translate(558.6734693877551,622.8236924225754)" d="M0,2.256758334191025A2.256758334191025,2.256758334191025 0 1,1 0,-2.256758334191025A2.256758334191025,2.256758334191025 0 1,1 0,2.256758334191025Z"></path><path class="nv-point nv-point-16" transform="translate(595.9183673469387,590.5666490637306)" d="M0,2.256758334191025A2.256758334191025,2.256758334191025 0 1,1 0,-2.256758334191025A2.256758334191025,2.256758334191025 0 1,1 0,2.256758334191025Z"></path><path class="nv-point nv-point-17" transform="translate(633.1632653061224,556.8886907315426)" d="M0,2.256758334191025A2.256758334191025,2.256758334191025 0 1,1 0,-2.256758334191025A2.256758334191025,2.256758334191025 0 1,1 0,2.256758334191025Z"></path><path class="nv-point nv-point-18" transform="translate(670.4081632653061,562.2301942993339)" d="M0,2.256758334191025A2.256758334191025,2.256758334191025 0 1,1 0,-2.256758334191025A2.256758334191025,2.256758334191025 0 1,1 0,2.256758334191025Z"></path><path class="nv-point nv-point-19" transform="translate(707.6530612244898,531.4909723150142)" d="M0,2.256758334191025A2.256758334191025,2.256758334191025 0 1,1 0,-2.256758334191025A2.256758334191025,2.256758334191025 0 1,1 0,2.256758334191025Z"></path><path class="nv-point nv-point-20" transform="translate(744.8979591836735,522.8225384286375)" d="M0,2.256758334191025A2.256758334191025,2.256758334191025 0 1,1 0,-2.256758334191025A2.256758334191025,2.256758334191025 0 1,1 0,2.256758334191025Z"></path><path class="nv-point nv-point-21" transform="translate(782.1428571428571,514.5275209972555)" d="M0,2.256758334191025A2.256758334191025,2.256758334191025 0 1,1 0,-2.256758334191025A2.256758334191025,2.256758334191025 0 1,1 0,2.256758334191025Z"></path><path class="nv-point nv-point-22" transform="translate(819.3877551020408,484.67381322432306)" d="M0,2.256758334191025A2.256758334191025,2.256758334191025 0 1,1 0,-2.256758334191025A2.256758334191025,2.256758334191025 0 1,1 0,2.256758334191025Z"></path><path class="nv-point nv-point-23" transform="translate(856.6326530612246,473.4684777445397)" d="M0,2.256758334191025A2.256758334191025,2.256758334191025 0 1,1 0,-2.256758334191025A2.256758334191025,2.256758334191025 0 1,1 0,2.256758334191025Z"></path><path class="nv-point nv-point-24" transform="translate(893.8775510204082,445.64213145557324)" d="M0,2.256758334191025A2.256758334191025,2.256758334191025 0 1,1 0,-2.256758334191025A2.256758334191025,2.256758334191025 0 1,1 0,2.256758334191025Z"></path><path class="nv-point nv-point-25" transform="translate(931.1224489795918,455.1000257011392)" d="M0,2.256758334191025A2.256758334191025,2.256758334191025 0 1,1 0,-2.256758334191025A2.256758334191025,2.256758334191025 0 1,1 0,2.256758334191025Z"></path><path class="nv-point nv-point-26" transform="translate(968.3673469387755,395.29200937516185)" d="M0,2.256758334191025A2.256758334191025,2.256758334191025 0 1,1 0,-2.256758334191025A2.256758334191025,2.256758334191025 0 1,1 0,2.256758334191025Z"></path><path class="nv-point nv-point-27" transform="translate(1005.612244897959,393.4118546824344)" d="M0,2.256758334191025A2.256758334191025,2.256758334191025 0 1,1 0,-2.256758334191025A2.256758334191025,2.256758334191025 0 1,1 0,2.256758334191025Z"></path><path class="nv-point nv-point-28" transform="translate(1042.857142857143,368.46030356753556)" d="M0,2.256758334191025A2.256758334191025,2.256758334191025 0 1,1 0,-2.256758334191025A2.256758334191025,2.256758334191025 0 1,1 0,2.256758334191025Z"></path><path class="nv-point nv-point-29" transform="translate(1080.1020408163265,356.8045380412024)" d="M0,2.256758334191025A2.256758334191025,2.256758334191025 0 1,1 0,-2.256758334191025A2.256758334191025,2.256758334191025 0 1,1 0,2.256758334191025Z"></path><path class="nv-point nv-point-30" transform="translate(1117.3469387755101,311.7555655433394)" d="M0,2.256758334191025A2.256758334191025,2.256758334191025 0 1,1 0,-2.256758334191025A2.256758334191025,2.256758334191025 0 1,1 0,2.256758334191025Z"></path><path class="nv-point nv-point-31" transform="translate(1154.591836734694,295.1393858450658)" d="M0,2.256758334191025A2.256758334191025,2.256758334191025 0 1,1 0,-2.256758334191025A2.256758334191025,2.256758334191025 0 1,1 0,2.256758334191025Z"></path><path class="nv-point nv-point-32" transform="translate(1191.8367346938774,305.3836144368797)" d="M0,2.256758334191025A2.256758334191025,2.256758334191025 0 1,1 0,-2.256758334191025A2.256758334191025,2.256758334191025 0 1,1 0,2.256758334191025Z"></path><path class="nv-point nv-point-33" transform="translate(1229.0816326530612,261.89366984776876)" d="M0,2.256758334191025A2.256758334191025,2.256758334191025 0 1,1 0,-2.256758334191025A2.256758334191025,2.256758334191025 0 1,1 0,2.256758334191025Z"></path><path class="nv-point nv-point-34" transform="translate(1266.3265306122448,220.65019183151313)" d="M0,2.256758334191025A2.256758334191025,2.256758334191025 0 1,1 0,-2.256758334191025A2.256758334191025,2.256758334191025 0 1,1 0,2.256758334191025Z"></path><path class="nv-point nv-point-35" transform="translate(1303.5714285714287,255.4461260647273)" d="M0,2.256758334191025A2.256758334191025,2.256758334191025 0 1,1 0,-2.256758334191025A2.256758334191025,2.256758334191025 0 1,1 0,2.256758334191025Z"></path><path class="nv-point nv-point-36" transform="translate(1340.8163265306123,251.9870506536211)" d="M0,2.256758334191025A2.256758334191025,2.256758334191025 0 1,1 0,-2.256758334191025A2.256758334191025,2.256758334191025 0 1,1 0,2.256758334191025Z"></path><path class="nv-point nv-point-37" transform="translate(1378.061224489796,194.06146248432842)" d="M0,2.256758334191025A2.256758334191025,2.256758334191025 0 1,1 0,-2.256758334191025A2.256758334191025,2.256758334191025 0 1,1 0,2.256758334191025Z"></path><path class="nv-point nv-point-38" transform="translate(1415.3061224489795,181.94276285968016)" d="M0,2.256758334191025A2.256758334191025,2.256758334191025 0 1,1 0,-2.256758334191025A2.256758334191025,2.256758334191025 0 1,1 0,2.256758334191025Z"></path><path class="nv-point nv-point-39" transform="translate(1452.5510204081634,151.5138687055386)" d="M0,2.256758334191025A2.256758334191025,2.256758334191025 0 1,1 0,-2.256758334191025A2.256758334191025,2.256758334191025 0 1,1 0,2.256758334191025Z"></path><path class="nv-point nv-point-40" transform="translate(1489.795918367347,137.79550300390068)" d="M0,2.256758334191025A2.256758334191025,2.256758334191025 0 1,1 0,-2.256758334191025A2.256758334191025,2.256758334191025 0 1,1 0,2.256758334191025Z"></path><path class="nv-point nv-point-41" transform="translate(1527.0408163265306,158.06116071970862)" d="M0,2.256758334191025A2.256758334191025,2.256758334191025 0 1,1 0,-2.256758334191025A2.256758334191025,2.256758334191025 0 1,1 0,2.256758334191025Z"></path><path class="nv-point nv-point-42" transform="translate(1564.2857142857142,132.84844543270952)" d="M0,2.256758334191025A2.256758334191025,2.256758334191025 0 1,1 0,-2.256758334191025A2.256758334191025,2.256758334191025 0 1,1 0,2.256758334191025Z"></path><path class="nv-point nv-point-43" transform="translate(1601.5306122448978,124.31982957970959)" d="M0,2.256758334191025A2.256758334191025,2.256758334191025 0 1,1 0,-2.256758334191025A2.256758334191025,2.256758334191025 0 1,1 0,2.256758334191025Z"></path><path class="nv-point nv-point-44" transform="translate(1638.7755102040817,65.32827099741536)" d="M0,2.256758334191025A2.256758334191025,2.256758334191025 0 1,1 0,-2.256758334191025A2.256758334191025,2.256758334191025 0 1,1 0,2.256758334191025Z"></path><path class="nv-point nv-point-45" transform="translate(1676.0204081632653,34.890851353433625)" d="M0,2.256758334191025A2.256758334191025,2.256758334191025 0 1,1 0,-2.256758334191025A2.256758334191025,2.256758334191025 0 1,1 0,2.256758334191025Z"></path><path class="nv-point nv-point-46" transform="translate(1713.2653061224491,0)" d="M0,2.256758334191025A2.256758334191025,2.256758334191025 0 1,1 0,-2.256758334191025A2.256758334191025,2.256758334191025 0 1,1 0,2.256758334191025Z"></path><path class="nv-point nv-point-47" transform="translate(1750.5102040816325,60.85324138036852)" d="M0,2.256758334191025A2.256758334191025,2.256758334191025 0 1,1 0,-2.256758334191025A2.256758334191025,2.256758334191025 0 1,1 0,2.256758334191025Z"></path><path class="nv-point nv-point-48" transform="translate(1787.7551020408164,24.4567885211809)" d="M0,2.256758334191025A2.256758334191025,2.256758334191025 0 1,1 0,-2.256758334191025A2.256758334191025,2.256758334191025 0 1,1 0,2.256758334191025Z"></path><path class="nv-point nv-point-49" transform="translate(1825,14.860781340205891)" d="M0,2.256758334191025A2.256758334191025,2.256758334191025 0 1,1 0,-2.256758334191025A2.256758334191025,2.256758334191025 0 1,1 0,2.256758334191025Z"></path></g><g style="stroke-opacity: 1; fill-opacity: 0.5; fill: rgb(255, 127, 14); stroke: rgb(255, 127, 14);" class="nv-group nv-series-1 nv-noninteractive"><path class="nv-point nv-point-0" transform="translate(0,877.5352054460842)" d="M0,2.256758334191025A2.256758334191025,2.256758334191025 0 1,1 0,-2.256758334191025A2.256758334191025,2.256758334191025 0 1,1 0,2.256758334191025Z"></path><path class="nv-point nv-point-1" transform="translate(37.24489795918367,869.4868588540744)" d="M0,2.256758334191025A2.256758334191025,2.256758334191025 0 1,1 0,-2.256758334191025A2.256758334191025,2.256758334191025 0 1,1 0,2.256758334191025Z"></path><path class="nv-point nv-point-2" transform="translate(74.48979591836734,884.2748893476451)" d="M0,2.256758334191025A2.256758334191025,2.256758334191025 0 1,1 0,-2.256758334191025A2.256758334191025,2.256758334191025 0 1,1 0,2.256758334191025Z"></path><path class="nv-point nv-point-3" transform="translate(111.73469387755102,888.0761210843323)" d="M0,2.256758334191025A2.256758334191025,2.256758334191025 0 1,1 0,-2.256758334191025A2.256758334191025,2.256758334191025 0 1,1 0,2.256758334191025Z"></path><path class="nv-point nv-point-4" transform="translate(148.97959183673467,871.9385055490806)" d="M0,2.256758334191025A2.256758334191025,2.256758334191025 0 1,1 0,-2.256758334191025A2.256758334191025,2.256758334191025 0 1,1 0,2.256758334191025Z"></path><path class="nv-point nv-point-5" transform="translate(186.22448979591837,868.0074021838296)" d="M0,2.256758334191025A2.256758334191025,2.256758334191025 0 1,1 0,-2.256758334191025A2.256758334191025,2.256758334191025 0 1,1 0,2.256758334191025Z"></path><path class="nv-point nv-point-6" transform="translate(223.46938775510205,869.5141404215626)" d="M0,2.256758334191025A2.256758334191025,2.256758334191025 0 1,1 0,-2.256758334191025A2.256758334191025,2.256758334191025 0 1,1 0,2.256758334191025Z"></path><path class="nv-point nv-point-7" transform="translate(260.7142857142857,860.6277381782751)" d="M0,2.256758334191025A2.256758334191025,2.256758334191025 0 1,1 0,-2.256758334191025A2.256758334191025,2.256758334191025 0 1,1 0,2.256758334191025Z"></path><path class="nv-point nv-point-8" transform="translate(297.95918367346934,857.8782677048563)" d="M0,2.256758334191025A2.256758334191025,2.256758334191025 0 1,1 0,-2.256758334191025A2.256758334191025,2.256758334191025 0 1,1 0,2.256758334191025Z"></path><path class="nv-point nv-point-9" transform="translate(335.2040816326531,865.4966454259325)" d="M0,2.256758334191025A2.256758334191025,2.256758334191025 0 1,1 0,-2.256758334191025A2.256758334191025,2.256758334191025 0 1,1 0,2.256758334191025Z"></path><path class="nv-point nv-point-10" transform="translate(372.44897959183675,845.1522690206012)" d="M0,2.256758334191025A2.256758334191025,2.256758334191025 0 1,1 0,-2.256758334191025A2.256758334191025,2.256758334191025 0 1,1 0,2.256758334191025Z"></path><path class="nv-point nv-point-11" transform="translate(409.6938775510204,843.448591967563)" d="M0,2.256758334191025A2.256758334191025,2.256758334191025 0 1,1 0,-2.256758334191025A2.256758334191025,2.256758334191025 0 1,1 0,2.256758334191025Z"></path><path class="nv-point nv-point-12" transform="translate(446.9387755102041,843.2232348527906)" d="M0,2.256758334191025A2.256758334191025,2.256758334191025 0 1,1 0,-2.256758334191025A2.256758334191025,2.256758334191025 0 1,1 0,2.256758334191025Z"></path><path class="nv-point nv-point-13" transform="translate(484.18367346938777,837.0607266134018)" d="M0,2.256758334191025A2.256758334191025,2.256758334191025 0 1,1 0,-2.256758334191025A2.256758334191025,2.256758334191025 0 1,1 0,2.256758334191025Z"></path><path class="nv-point nv-point-14" transform="translate(521.4285714285714,838.6063979214044)" d="M0,2.256758334191025A2.256758334191025,2.256758334191025 0 1,1 0,-2.256758334191025A2.256758334191025,2.256758334191025 0 1,1 0,2.256758334191025Z"></path><path class="nv-point nv-point-15" transform="translate(558.6734693877551,827.0822091216028)" d="M0,2.256758334191025A2.256758334191025,2.256758334191025 0 1,1 0,-2.256758334191025A2.256758334191025,2.256758334191025 0 1,1 0,2.256758334191025Z"></path><path class="nv-point nv-point-16" transform="translate(595.9183673469387,839.9210284547413)" d="M0,2.256758334191025A2.256758334191025,2.256758334191025 0 1,1 0,-2.256758334191025A2.256758334191025,2.256758334191025 0 1,1 0,2.256758334191025Z"></path><path class="nv-point nv-point-17" transform="translate(633.1632653061224,824.7874314396538)" d="M0,2.256758334191025A2.256758334191025,2.256758334191025 0 1,1 0,-2.256758334191025A2.256758334191025,2.256758334191025 0 1,1 0,2.256758334191025Z"></path><path class="nv-point nv-point-18" transform="translate(670.4081632653061,814.7131442786515)" d="M0,2.256758334191025A2.256758334191025,2.256758334191025 0 1,1 0,-2.256758334191025A2.256758334191025,2.256758334191025 0 1,1 0,2.256758334191025Z"></path><path class="nv-point nv-point-19" transform="translate(707.6530612244898,810.6638207876184)" d="M0,2.256758334191025A2.256758334191025,2.256758334191025 0 1,1 0,-2.256758334191025A2.256758334191025,2.256758334191025 0 1,1 0,2.256758334191025Z"></path><path class="nv-point nv-point-20" transform="translate(744.8979591836735,807.0115009401375)" d="M0,2.256758334191025A2.256758334191025,2.256758334191025 0 1,1 0,-2.256758334191025A2.256758334191025,2.256758334191025 0 1,1 0,2.256758334191025Z"></path><path class="nv-point nv-point-21" transform="translate(782.1428571428571,807.0862410677353)" d="M0,2.256758334191025A2.256758334191025,2.256758334191025 0 1,1 0,-2.256758334191025A2.256758334191025,2.256758334191025 0 1,1 0,2.256758334191025Z"></path><path class="nv-point nv-point-22" transform="translate(819.3877551020408,805.7610957635956)" d="M0,2.256758334191025A2.256758334191025,2.256758334191025 0 1,1 0,-2.256758334191025A2.256758334191025,2.256758334191025 0 1,1 0,2.256758334191025Z"></path><path class="nv-point nv-point-23" transform="translate(856.6326530612246,799.8120089532028)" d="M0,2.256758334191025A2.256758334191025,2.256758334191025 0 1,1 0,-2.256758334191025A2.256758334191025,2.256758334191025 0 1,1 0,2.256758334191025Z"></path><path class="nv-point nv-point-24" transform="translate(893.8775510204082,810.1414924434175)" d="M0,2.256758334191025A2.256758334191025,2.256758334191025 0 1,1 0,-2.256758334191025A2.256758334191025,2.256758334191025 0 1,1 0,2.256758334191025Z"></path><path class="nv-point nv-point-25" transform="translate(931.1224489795918,796.2318715863677)" d="M0,2.256758334191025A2.256758334191025,2.256758334191025 0 1,1 0,-2.256758334191025A2.256758334191025,2.256758334191025 0 1,1 0,2.256758334191025Z"></path><path class="nv-point nv-point-26" transform="translate(968.3673469387755,803.5811280114926)" d="M0,2.256758334191025A2.256758334191025,2.256758334191025 0 1,1 0,-2.256758334191025A2.256758334191025,2.256758334191025 0 1,1 0,2.256758334191025Z"></path><path class="nv-point nv-point-27" transform="translate(1005.612244897959,766.1175680073242)" d="M0,2.256758334191025A2.256758334191025,2.256758334191025 0 1,1 0,-2.256758334191025A2.256758334191025,2.256758334191025 0 1,1 0,2.256758334191025Z"></path><path class="nv-point nv-point-28" transform="translate(1042.857142857143,776.9068595829127)" d="M0,2.256758334191025A2.256758334191025,2.256758334191025 0 1,1 0,-2.256758334191025A2.256758334191025,2.256758334191025 0 1,1 0,2.256758334191025Z"></path><path class="nv-point nv-point-29" transform="translate(1080.1020408163265,772.6890155760412)" d="M0,2.256758334191025A2.256758334191025,2.256758334191025 0 1,1 0,-2.256758334191025A2.256758334191025,2.256758334191025 0 1,1 0,2.256758334191025Z"></path><path class="nv-point nv-point-30" transform="translate(1117.3469387755101,771.4553771961847)" d="M0,2.256758334191025A2.256758334191025,2.256758334191025 0 1,1 0,-2.256758334191025A2.256758334191025,2.256758334191025 0 1,1 0,2.256758334191025Z"></path><path class="nv-point nv-point-31" transform="translate(1154.591836734694,770.4382862582657)" d="M0,2.256758334191025A2.256758334191025,2.256758334191025 0 1,1 0,-2.256758334191025A2.256758334191025,2.256758334191025 0 1,1 0,2.256758334191025Z"></path><path class="nv-point nv-point-32" transform="translate(1191.8367346938774,760.0141698308264)" d="M0,2.256758334191025A2.256758334191025,2.256758334191025 0 1,1 0,-2.256758334191025A2.256758334191025,2.256758334191025 0 1,1 0,2.256758334191025Z"></path><path class="nv-point nv-point-33" transform="translate(1229.0816326530612,754.0005734806439)" d="M0,2.256758334191025A2.256758334191025,2.256758334191025 0 1,1 0,-2.256758334191025A2.256758334191025,2.256758334191025 0 1,1 0,2.256758334191025Z"></path><path class="nv-point nv-point-34" transform="translate(1266.3265306122448,750.9515741308444)" d="M0,2.256758334191025A2.256758334191025,2.256758334191025 0 1,1 0,-2.256758334191025A2.256758334191025,2.256758334191025 0 1,1 0,2.256758334191025Z"></path><path class="nv-point nv-point-35" transform="translate(1303.5714285714287,746.8434247599149)" d="M0,2.256758334191025A2.256758334191025,2.256758334191025 0 1,1 0,-2.256758334191025A2.256758334191025,2.256758334191025 0 1,1 0,2.256758334191025Z"></path><path class="nv-point nv-point-36" transform="translate(1340.8163265306123,760.7951047001758)" d="M0,2.256758334191025A2.256758334191025,2.256758334191025 0 1,1 0,-2.256758334191025A2.256758334191025,2.256758334191025 0 1,1 0,2.256758334191025Z"></path><path class="nv-point nv-point-37" transform="translate(1378.061224489796,738.7612603915395)" d="M0,2.256758334191025A2.256758334191025,2.256758334191025 0 1,1 0,-2.256758334191025A2.256758334191025,2.256758334191025 0 1,1 0,2.256758334191025Z"></path><path class="nv-point nv-point-38" transform="translate(1415.3061224489795,740.1727973260587)" d="M0,2.256758334191025A2.256758334191025,2.256758334191025 0 1,1 0,-2.256758334191025A2.256758334191025,2.256758334191025 0 1,1 0,2.256758334191025Z"></path><path class="nv-point nv-point-39" transform="translate(1452.5510204081634,728.6710589828359)" d="M0,2.256758334191025A2.256758334191025,2.256758334191025 0 1,1 0,-2.256758334191025A2.256758334191025,2.256758334191025 0 1,1 0,2.256758334191025Z"></path><path class="nv-point nv-point-40" transform="translate(1489.795918367347,707.6810188136175)" d="M0,2.256758334191025A2.256758334191025,2.256758334191025 0 1,1 0,-2.256758334191025A2.256758334191025,2.256758334191025 0 1,1 0,2.256758334191025Z"></path><path class="nv-point nv-point-41" transform="translate(1527.0408163265306,737.3750157435461)" d="M0,2.256758334191025A2.256758334191025,2.256758334191025 0 1,1 0,-2.256758334191025A2.256758334191025,2.256758334191025 0 1,1 0,2.256758334191025Z"></path><path class="nv-point nv-point-42" transform="translate(1564.2857142857142,730.9604371878862)" d="M0,2.256758334191025A2.256758334191025,2.256758334191025 0 1,1 0,-2.256758334191025A2.256758334191025,2.256758334191025 0 1,1 0,2.256758334191025Z"></path><path class="nv-point nv-point-43" transform="translate(1601.5306122448978,697.3529562383761)" d="M0,2.256758334191025A2.256758334191025,2.256758334191025 0 1,1 0,-2.256758334191025A2.256758334191025,2.256758334191025 0 1,1 0,2.256758334191025Z"></path><path class="nv-point nv-point-44" transform="translate(1638.7755102040817,711.84231040455)" d="M0,2.256758334191025A2.256758334191025,2.256758334191025 0 1,1 0,-2.256758334191025A2.256758334191025,2.256758334191025 0 1,1 0,2.256758334191025Z"></path><path class="nv-point nv-point-45" transform="translate(1676.0204081632653,691.4996390971868)" d="M0,2.256758334191025A2.256758334191025,2.256758334191025 0 1,1 0,-2.256758334191025A2.256758334191025,2.256758334191025 0 1,1 0,2.256758334191025Z"></path><path class="nv-point nv-point-46" transform="translate(1713.2653061224491,684.2978736462948)" d="M0,2.256758334191025A2.256758334191025,2.256758334191025 0 1,1 0,-2.256758334191025A2.256758334191025,2.256758334191025 0 1,1 0,2.256758334191025Z"></path><path class="nv-point nv-point-47" transform="translate(1750.5102040816325,700.492609963475)" d="M0,2.256758334191025A2.256758334191025,2.256758334191025 0 1,1 0,-2.256758334191025A2.256758334191025,2.256758334191025 0 1,1 0,2.256758334191025Z"></path><path class="nv-point nv-point-48" transform="translate(1787.7551020408164,697.7053431517652)" d="M0,2.256758334191025A2.256758334191025,2.256758334191025 0 1,1 0,-2.256758334191025A2.256758334191025,2.256758334191025 0 1,1 0,2.256758334191025Z"></path><path class="nv-point nv-point-49" transform="translate(1825,679.3655935908264)" d="M0,2.256758334191025A2.256758334191025,2.256758334191025 0 1,1 0,-2.256758334191025A2.256758334191025,2.256758334191025 0 1,1 0,2.256758334191025Z"></path></g></g><g class="nv-point-paths"></g></g><g class="nv-point-clips"></g></g></g></g></g></g><g class="nv-interactive"><g class=" nv-wrap nv-interactiveLineLayer"><g class="nv-interactiveGuideLine"></g></g></g></g><g class="nv-focusWrap"></g></g><text style="font-size: 24px;" text-anchor="middle" x="50%" y="20px">Benchmarking compilation speed of template instanciation constrained by Concepts vs. SFINAE</text><text style="font-size: 16px;" text-anchor="middle" x="50%" y="40px"></text></g></svg>