<svg id="chart" class="nvd3-svg"><g class="nvd3 nv-wrap nv-lineChart" transform="translate(75,30)"><g><g class="nv-legendWrap nvd3-svg" transform="translate(0,-30)"><g class="nvd3 nv-legend" transform="translate(0,5)"><g transform="translate(1575,5)"><g class="nv-series" transform="translate(0,5)"><circle style="stroke-width: 2px; fill: rgb(31, 119, 180); fill-opacity: 1; stroke: rgb(31, 119, 180);" class="nv-legend-symbol" r="5"></circle><text text-anchor="start" class="nv-legend-text" dy=".32em" dx="8" fill="#000">concepts</text></g><g class="nv-series" transform="translate(80,5)"><circle style="stroke-width: 2px; fill: rgb(255, 127, 14); fill-opacity: 1; stroke: rgb(255, 127, 14);" class="nv-legend-symbol" r="5"></circle><text text-anchor="start" class="nv-legend-text" dy=".32em" dx="8" fill="#000">concepts_fast</text></g><g class="nv-series" transform="translate(186,5)"><circle style="stroke-width: 2px; fill: rgb(44, 160, 44); fill-opacity: 1; stroke: rgb(44, 160, 44);" class="nv-legend-symbol" r="5"></circle><text text-anchor="start" class="nv-legend-text" dy=".32em" dx="8" fill="#000">sfinae</text></g></g></g></g><g class="nv-focus"><g class="nv-background"><rect width="1825" height="889"></rect></g><g class="nv-x nv-axis nvd3-svg" transform="translate(0,889)"><g class="nvd3 nv-wrap nv-axis"><g><g class="tick zero" style="opacity: 1;" transform="translate(0,0)"><line y2="-889" x2="0"></line></g><g class="tick" style="opacity: 1;" transform="translate(148.97959183673467,0)"><line y2="-889" x2="0"></line><text dy=".71em" style="text-anchor: middle;" y="7" transform="translate(0,0)" x="0">20</text></g><g class="tick" style="opacity: 1;" transform="translate(297.95918367346934,0)"><line y2="-889" x2="0"></line><text dy=".71em" style="text-anchor: middle;" y="7" transform="translate(0,0)" x="0">40</text></g><g class="tick" style="opacity: 1;" transform="translate(446.9387755102041,0)"><line y2="-889" x2="0"></line><text dy=".71em" style="text-anchor: middle;" y="7" transform="translate(0,0)" x="0">60</text></g><g class="tick" style="opacity: 1;" transform="translate(595.9183673469387,0)"><line y2="-889" x2="0"></line><text dy=".71em" style="text-anchor: middle;" y="7" transform="translate(0,0)" x="0">80</text></g><g class="tick" style="opacity: 1;" transform="translate(744.8979591836735,0)"><line y2="-889" x2="0"></line><text dy=".71em" style="text-anchor: middle;" y="7" transform="translate(0,0)" x="0">100</text></g><g class="tick" style="opacity: 1;" transform="translate(893.8775510204082,0)"><line y2="-889" x2="0"></line><text dy=".71em" style="text-anchor: middle;" y="7" transform="translate(0,0)" x="0">120</text></g><g class="tick" style="opacity: 1;" transform="translate(1042.857142857143,0)"><line y2="-889" x2="0"></line><text dy=".71em" style="text-anchor: middle;" y="7" transform="translate(0,0)" x="0">140</text></g><g class="tick" style="opacity: 1;" transform="translate(1191.8367346938774,0)"><line y2="-889" x2="0"></line><text dy=".71em" style="text-anchor: middle;" y="7" transform="translate(0,0)" x="0">160</text></g><g class="tick" style="opacity: 1;" transform="translate(1340.8163265306123,0)"><line y2="-889" x2="0"></line><text dy=".71em" style="text-anchor: middle;" y="7" transform="translate(0,0)" x="0">180</text></g><g class="tick" style="opacity: 1;" transform="translate(1489.795918367347,0)"><line y2="-889" x2="0"></line><text dy=".71em" style="text-anchor: middle;" y="7" transform="translate(0,0)" x="0">200</text></g><g class="tick" style="opacity: 1;" transform="translate(1638.7755102040817,0)"><line y2="-889" x2="0"></line><text dy=".71em" style="text-anchor: middle;" y="7" transform="translate(0,0)" x="0">220</text></g><g class="tick" style="opacity: 1;" transform="translate(1787.7551020408164,0)"><line y2="-889" x2="0"></line><text dy=".71em" style="text-anchor: middle;" y="7" transform="translate(0,0)" x="0">240</text></g><path class="domain" d="M0,0V0H1825V0"></path><text class="nv-axislabel" text-anchor="middle" y="36" x="912.5">Number of constrained template instanciated</text></g><g class="nv-axisMaxMin nv-axisMaxMin-x nv-axisMin-x" transform="translate(0,0)"><text dy=".71em" y="7" transform="" style="text-anchor: middle;">0</text></g><g class="nv-axisMaxMin nv-axisMaxMin-x nv-axisMax-x" transform="translate(1825,0)"><text dy=".71em" y="7" transform="" style="text-anchor: middle;">245</text></g></g><g transform="translate(24,30)"><g class="control interpolate"><circle style="fill: rgb(51, 51, 51); stroke: rgb(51, 51, 51); stroke-width: 2px; fill-opacity: 1;" cx="0" cy="0" r="5"></circle><text text-anchor="start" dx="8" dy=".32em">interpolate</text></g><g class="control baseline" transform="translate(80,0)"><circle style="fill: rgb(51, 51, 51); stroke: rgb(51, 51, 51); stroke-width: 2px; fill-opacity: 1;" cx="0" cy="0" r="5"></circle><text text-anchor="start" dx="8" dy=".32em">subtract baseline</text></g><g class="control baseline" transform="translate(200,0)"><text text-anchor="start" dx="8" dy=".32em" style="color: blue;">export as png</text></g><g class="control baseline" transform="translate(300,0)"><text text-anchor="start" dx="8" dy=".32em" style="color: blue;">export as svg</text></g></g></g><g class="nv-y nv-axis nvd3-svg"><g class="nvd3 nv-wrap nv-axis"><g><g class="tick zero" style="opacity: 1;" transform="translate(0,889)"><line x2="1825" y2="0"></line><text dy=".32em" style="text-anchor: end;" x="-3" opacity="0" y="0">0.00s</text></g><g class="tick" style="opacity: 1;" transform="translate(0,846.0564575195312)"><line x2="1825" y2="0"></line><text dy=".32em" style="text-anchor: end;" x="-3" opacity="1" y="0">0.20s</text></g><g class="tick" style="opacity: 1;" transform="translate(0,803.1129760742188)"><line x2="1825" y2="0"></line><text dy=".32em" style="text-anchor: end;" x="-3" opacity="1" y="0">0.40s</text></g><g class="tick" style="opacity: 1;" transform="translate(0,760.16943359375)"><line x2="1825" y2="0"></line><text dy=".32em" style="text-anchor: end;" x="-3" opacity="1" y="0">0.60s</text></g><g class="tick" style="opacity: 1;" transform="translate(0,717.2258911132812)"><line x2="1825" y2="0"></line><text dy=".32em" style="text-anchor: end;" x="-3" opacity="1" y="0">0.80s</text></g><g class="tick" style="opacity: 1;" transform="translate(0,674.2824096679688)"><line x2="1825" y2="0"></line><text dy=".32em" style="text-anchor: end;" x="-3" opacity="1" y="0">1.00s</text></g><g class="tick" style="opacity: 1;" transform="translate(0,631.3388671875)"><line x2="1825" y2="0"></line><text dy=".32em" style="text-anchor: end;" x="-3" opacity="1" y="0">1.20s</text></g><g class="tick" style="opacity: 1;" transform="translate(0,588.3953857421875)"><line x2="1825" y2="0"></line><text dy=".32em" style="text-anchor: end;" x="-3" opacity="1" y="0">1.40s</text></g><g class="tick" style="opacity: 1;" transform="translate(0,545.4518432617188)"><line x2="1825" y2="0"></line><text dy=".32em" style="text-anchor: end;" x="-3" opacity="1" y="0">1.60s</text></g><g class="tick" style="opacity: 1;" transform="translate(0,502.5083312988281)"><line x2="1825" y2="0"></line><text dy=".32em" style="text-anchor: end;" x="-3" opacity="1" y="0">1.80s</text></g><g class="tick" style="opacity: 1;" transform="translate(0,459.5647888183594)"><line x2="1825" y2="0"></line><text dy=".32em" style="text-anchor: end;" x="-3" opacity="1" y="0">2.00s</text></g><g class="tick" style="opacity: 1;" transform="translate(0,416.62127685546875)"><line x2="1825" y2="0"></line><text dy=".32em" style="text-anchor: end;" x="-3" opacity="1" y="0">2.20s</text></g><g class="tick" style="opacity: 1;" transform="translate(0,373.6777648925781)"><line x2="1825" y2="0"></line><text dy=".32em" style="text-anchor: end;" x="-3" opacity="1" y="0">2.40s</text></g><g class="tick" style="opacity: 1;" transform="translate(0,330.7342529296875)"><line x2="1825" y2="0"></line><text dy=".32em" style="text-anchor: end;" x="-3" opacity="1" y="0">2.60s</text></g><g class="tick" style="opacity: 1;" transform="translate(0,287.79071044921875)"><line x2="1825" y2="0"></line><text dy=".32em" style="text-anchor: end;" x="-3" opacity="1" y="0">2.80s</text></g><g class="tick" style="opacity: 1;" transform="translate(0,244.84719848632812)"><line x2="1825" y2="0"></line><text dy=".32em" style="text-anchor: end;" x="-3" opacity="1" y="0">3.00s</text></g><g class="tick" style="opacity: 1;" transform="translate(0,201.9036865234375)"><line x2="1825" y2="0"></line><text dy=".32em" style="text-anchor: end;" x="-3" opacity="1" y="0">3.20s</text></g><g class="tick" style="opacity: 1;" transform="translate(0,158.9601593017578)"><line x2="1825" y2="0"></line><text dy=".32em" style="text-anchor: end;" x="-3" opacity="1" y="0">3.40s</text></g><g class="tick" style="opacity: 1;" transform="translate(0,116.01663970947266)"><line x2="1825" y2="0"></line><text dy=".32em" style="text-anchor: end;" x="-3" opacity="1" y="0">3.60s</text></g><g class="tick" style="opacity: 1;" transform="translate(0,73.0731201171875)"><line x2="1825" y2="0"></line><text dy=".32em" style="text-anchor: end;" x="-3" opacity="1" y="0">3.80s</text></g><g class="tick" style="opacity: 1;" transform="translate(0,30.129602432250977)"><line x2="1825" y2="0"></line><text dy=".32em" style="text-anchor: end;" x="-3" opacity="1" y="0">4.00s</text></g><path class="domain" d="M0,0H0V889H0"></path><text class="nv-axislabel" style="text-anchor: middle;" transform="rotate(-90)" y="-50" x="-444.5">Compilation time</text></g><g class="nv-axisMaxMin nv-axisMaxMin-y nv-axisMin-y" transform="translate(0,889)"><text style="opacity: 1;" dy=".32em" y="0" x="-3" text-anchor="end">0.00s</text></g><g class="nv-axisMaxMin nv-axisMaxMin-y nv-axisMax-y" transform="translate(0,0)"><text style="opacity: 1;" dy=".32em" y="0" x="-3" text-anchor="end">4.14s</text></g></g></g><g class="nv-linesWrap nvd3-svg"><g class="nvd3 nv-wrap nv-line" transform="translate(0,0)"><defs><clipPath id="nv-edge-clip-32789"><rect width="1825" height="889"></rect></clipPath></defs><g clip-path="url(#nv-edge-clip-32789)"><g class="nv-groups"><g style="stroke-opacity: 1; stroke-width: 1.5px; fill-opacity: 0.5; fill: rgb(31, 119, 180); stroke: rgb(31, 119, 180);" class="nv-group nv-series-0"><path class="nv-line" d="M0,889Q29.795918367346932,877.7118663717459,37.24489795918367,872.9444915153941C48.418367346938766,865.7934292308665,63.31632653061223,847.0041684801326,74.48979591836734,841.3262514364824S100.56122448979592,838.5252388823864,111.73469387755102,835.0917112243926S137.80612244897958,823.2149400336496,148.97959183673467,818.4360670498575S175.05102040816325,808.3201734188789,186.22448979591837,803.232557999112S212.29591836734696,792.4051546594685,223.46938775510205,784.5186309180783S249.54081632653063,756.3933308568754,260.7142857142857,750.655733056511S286.7857142857142,746.949299329859,297.95918367346934,746.2679789156496S324.03061224489795,749.5442581398258,335.2040816326531,746.1135969617822S361.2755102040816,730.7919073444045,372.44897959183675,723.3969043953585S398.5204081632653,704.125548954888,409.6938775510204,696.8135773014756S435.765306122449,679.1709300025456,446.9387755102041,674.6504267059421S473.01020408163265,668.5931144002809,484.18367346938777,666.6768886574522S510.2551020408163,666.989420859054,521.4285714285714,661.8755884204176S547.5,642.3460028591979,558.6734693877551,632.5846723998761S584.7448979591836,604.6293749978867,595.9183673469387,596.8000520249391S621.9897959183672,583.745898350418,633.1632653061224,580.3891859135592S659.2346938775511,578.5585251340354,670.4081632653061,574.4219691125472S696.4795918367347,558.1127181050168,707.6530612244898,552.8121457703047S733.7244897959184,543.6344714251692,744.8979591836735,539.0848202144663S770.969387755102,525.9709965191112,782.1428571428571,522.4811376989518S808.2142857142857,522.4040433449378,819.3877551020408,515.819094746737S845.4591836734695,484.8696677818778,856.6326530612246,478.5814803776131S882.7040816326531,478.91305803026904,893.8775510204082,473.89784538497236S919.9489795918367,448.7243540478251,931.1224489795918,445.1467294089685S957.1938775510205,454.57031982053564,968.3673469387755,450.04701445926185S994.438775510204,422.4850796991152,1005.612244897959,414.9913603338098S1031.6836734693877,404.6803742921444,1042.857142857143,400.08888535722576S1068.9285714285713,388.44565176331685,1080.1020408163265,384.38143410101907S1106.173469387755,379.90998303996633,1117.3469387755101,372.99410094190733S1143.4183673469388,345.8600017341646,1154.591836734694,338.2755534472922S1180.6632653061222,329.2964284661916,1191.8367346938774,322.43111236275814S1217.908163265306,297.5064035719927,1229.0816326530612,292.5067794244022S1255.1530612244896,297.7145400768345,1266.3265306122448,289.10028471215514S1292.3979591836735,244.07216831202965,1303.5714285714287,235.07841032653963S1329.642857142857,238.231506064021,1340.8163265306123,229.1418981422217S1366.8877551020407,174.51545414825208,1378.061224489796,174.48102418121087S1404.1326530612243,229.2465515001006,1415.3061224489795,228.9123650286136S1441.3775510204082,178.88012614719327,1452.5510204081634,172.25311437129758S1478.6224489795918,186.21026290950311,1489.795918367347,184.73228652264237S1515.8673469387754,174.65426907617316,1527.0408163265306,162.39993845889268S1553.112244897959,111.70633716411425,1564.2857142857142,103.0367490741058S1590.3571428571427,105.75926087391264,1601.5306122448978,104.60268452550301S1627.6020408163265,99.9711937018424,1638.7755102040817,95.32624008470826S1664.8469387755101,78.64938181136624,1676.0204081632653,73.63632707794214S1702.091836734694,64.30128620430969,1713.2653061224491,61.90587519521427S1739.3367346938774,60.946753151083364,1750.5102040816325,57.66692035063932S1776.5816326530612,48.69036124484991,1787.7551020408164,40.040323192254014Q1795.2040816326532,34.27363115719008,1825,0"></path></g><g style="stroke-opacity: 1; stroke-width: 1.5px; fill-opacity: 0.5; fill: rgb(255, 127, 14); stroke: rgb(255, 127, 14);" class="nv-group nv-series-1"><path class="nv-line" d="M0,887.8888364238337Q29.795918367346932,885.7202745583556,37.24489795918367,885.3974681196294C48.418367346938766,884.91325846154,63.31632653061223,884.9706095323021,74.48979591836734,884.6607720365711S100.56122448979592,884.4426618992435,111.73469387755102,883.3318848147559S137.80612244897958,878.232706852269,148.97959183673467,877.2555914733202S175.05102040816325,877.386665831788,186.22448979591837,876.8177822884307S212.29591836734696,874.294635779536,223.46938775510205,873.4630345176051S249.54081632653063,871.1992453968556,260.7142857142857,871.2737738755585S286.7857142857142,876.4031626042612,297.95918367346934,873.9598910422909S324.03061224489795,854.7716313127337,335.2040816326531,854.9852967957565S361.2755102040816,875.6260137255026,372.44897959183675,875.3843275957764S398.5204081632653,856.364470879318,409.6938775510204,853.3740559309155S435.765306122449,856.1945111636245,446.9387755102041,855.4482279397594S473.01020408163265,849.04546722453,484.18367346938777,848.3988344384809S510.2551020408163,851.4004469096848,521.4285714285714,851.1373426994326S547.5,847.8793896223531,558.6734693877551,846.6448063701325S584.7448979591836,843.6584495843559,595.9183673469387,842.9067876846293S621.9897959183672,841.9507468380478,633.1632653061224,841.6337270386216S659.2346938775511,842.4589082443346,670.4081632653061,840.7933223551212S696.4795918367347,831.5754421395244,707.6530612244898,830.529821110532S733.7244897959184,833.8263482043184,744.8979591836735,833.8225154951716S770.969387755102,831.6670943467681,782.1428571428571,830.50426971622S808.2142857142857,828.000651772978,819.3877551020408,826.0703512915179S845.4591836734695,815.8884319987673,856.6326530612246,817.6355998398192S882.7040816326531,838.3705992673999,893.8775510204082,837.718136898531S919.9489795918367,815.3142234589483,931.1224489795918,813.2858507140265S957.1938775510205,823.1773429820192,968.3673469387755,824.1956519323859S994.438775510204,820.5332460494619,1005.612244897959,820.0745770498044S1031.6836734693877,822.1552335301457,1042.857142857143,821.1378586013358S1068.9285714285713,815.010000828438,1080.1020408163265,813.2920775244052S1106.173469387755,810.0443127974105,1117.3469387755101,809.68503657445S1143.4183673469388,812.2855995137576,1154.591836734694,810.8969027046688S1180.6632653061222,801.5333258620948,1191.8367346938774,800.4270578471916S1217.908163265306,805.0072311646292,1229.0816326530612,803.5217826053142S1255.1530612244896,791.2887412380003,1266.3265306122448,790.5240674517586S1292.3979591836735,796.1415629629772,1303.5714285714287,798.4239573637026S1329.642857142857,806.7135382465422,1340.8163265306123,805.7400301232609S1366.8877551020407,793.3611203548902,1378.061224489796,791.9339032084944S1404.1326530612243,796.8718497256976,1415.3061224489795,796.2252491472885S1441.3775510204082,788.7126561050083,1452.5510204081634,787.623232685767S1478.6224489795918,791.6015847801209,1489.795918367347,788.9624263523465S1515.8673469387754,773.5998974475898,1527.0408163265306,770.0288431672706S1553.112244897959,765.051560385883,1564.2857142857142,765.1553978168847S1590.3571428571427,772.7931068042533,1601.5306122448978,770.7210927072821S1627.6020408163265,750.5404833851086,1638.7755102040817,751.3419705037434S1664.8469387755101,773.6520845600897,1676.0204081632653,776.0643401648471S1702.091836734694,771.193578784452,1713.2653061224491,767.4236745354589S1739.3367346938774,752.6681522838079,1750.5102040816325,750.9316451715591S1776.5816326530612,754.095863280682,1787.7551020408164,755.8469604538004Q1795.2040816326532,757.0143585692127,1825,762.6056263256818"></path></g><g style="stroke-opacity: 1; stroke-width: 1.5px; fill-opacity: 0.5; fill: rgb(44, 160, 44); stroke: rgb(44, 160, 44);" class="nv-group nv-series-2"><path class="nv-line" d="M0,888.8239315686075Q29.795918367346932,888.7188058320102,37.24489795918367,888.0782173463803C48.418367346938766,887.1173346179355,63.31632653061223,883.4765830048967,74.48979591836734,882.4180467123089S100.56122448979592,881.943510082066,111.73469387755102,881.0213087291278S137.80612244897958,876.8120600644104,148.97959183673467,876.2700376927205S175.05102040816325,878.1464118491267,186.22448979591837,877.4078262511949S212.29591836734696,870.7717104490906,223.46938775510205,871.3461337065088S249.54081632653063,882.2076019932749,260.7142857142857,881.2373146339826S286.7857142857142,867.8226501103054,297.95918367346934,864.8775513112265S324.03061224489795,862.7179646413974,335.2040816326531,861.6033226401231S361.2755102040816,858.4948666915278,372.44897959183675,857.4466046360645S398.5204081632653,855.614666286825,409.6938775510204,854.6149089370343S435.765306122449,851.532863253148,446.9387755102041,850.7815556374601S473.01020408163265,850.6945198586004,484.18367346938777,849.6061914991153S510.2551020408163,844.3834006147348,521.4285714285714,843.5260332408928S547.5,843.699031210616,558.6734693877551,843.8904090068357S584.7448979591836,845.7347472974325,595.9183673469387,844.801885215691S621.9897959183672,840.0786885053868,633.1632653061224,837.6713284618926S659.2346938775511,830.8493423699896,670.4081632653061,828.7528182590629S696.4795918367347,826.267376160598,707.6530612244898,823.6945010557149S733.7244897959184,812.922280139081,744.8979591836735,811.600317559842S770.969387755102,815.3868516868978,782.1428571428571,814.8814171941216S808.2142857142857,811.9212988989746,819.3877551020408,808.2307542746676S845.4591836734695,788.9968885270275,856.6326530612246,790.2777863654082S882.7040816326531,815.7442598667446,893.8775510204082,816.7700731972054S919.9489795918367,797.0833680327279,931.1224489795918,797.1165419018134S957.1938775510205,814.5051890166997,968.3673469387755,816.9912323244424S994.438775510204,816.3142169980982,1005.612244897959,813.6901639534317S1031.6836734693877,801.9087703202795,1042.857142857143,799.4975453599986S1068.9285714285713,798.1175446136798,1080.1020408163265,797.6153308848925S1106.173469387755,796.472915162154,1117.3469387755101,796.14945383475S1143.4183673469388,796.1182768393377,1154.591836734694,795.4589220355325S1180.6632653061222,792.9849243851082,1191.8367346938774,791.7537551427159S1217.908163265306,788.6963805109845,1229.0816326530612,787.2511270862508S1255.1530612244896,785.3508011816472,1266.3265306122448,782.1187323111584S1292.3979591836735,765.0203297110708,1303.5714285714287,765.704001282992S1329.642857142857,788.363740006212,1340.8163265306123,786.6765427906331S1366.8877551020407,757.9697767347564,1378.061224489796,754.4560198457995S1404.1326530612243,761.821026746229,1415.3061224489795,763.2514968642536S1441.3775510204082,765.1934457754735,1452.5510204081634,763.992487299297S1478.6224489795918,755.8890343673752,1489.795918367347,755.2451070230769S1515.8673469387754,760.2224649556242,1527.0408163265306,759.6996383373081S1553.112244897959,753.391267478713,1564.2857142857142,751.7595962343025S1590.3571428571427,748.4556613833416,1601.5306122448978,748.8218300412383S1627.6020408163265,753.2704351497299,1638.7755102040817,754.2007206202803S1664.8469387755101,756.3179971871754,1676.0204081632653,755.0237331782407S1702.091836734694,746.9940357416644,1713.2653061224491,745.5722938940497S1739.3367346938774,747.5466114833581,1750.5102040816325,745.5454541941424S1776.5816326530612,732.9644200137091,1787.7551020408164,732.2312452992786Q1795.2040816326532,731.742462156325,1825,740.6576227646061"></path></g></g><g class="nv-scatterWrap nvd3-svg" clip-path="url(#nv-edge-clip-32789)"><g class="nvd3 nv-wrap nv-scatter nv-chart-32789" transform="translate(0,0)"><defs><clipPath id="nv-edge-clip-32789"><rect transform="translate( -10, -10)" width="1845" height="909"></rect></clipPath></defs><g clip-path=""><g class="nv-groups"><g style="stroke-opacity: 1; fill-opacity: 0.5; fill: rgb(31, 119, 180); stroke: rgb(31, 119, 180);" class="nv-group nv-series-0 nv-noninteractive"><path class="nv-point nv-point-0" transform="translate(0,889)" d="M0,2.256758334191025A2.256758334191025,2.256758334191025 0 1,1 0,-2.256758334191025A2.256758334191025,2.256758334191025 0 1,1 0,2.256758334191025Z"></path><path class="nv-point nv-point-1" transform="translate(37.24489795918367,872.9444915153941)" d="M0,2.256758334191025A2.256758334191025,2.256758334191025 0 1,1 0,-2.256758334191025A2.256758334191025,2.256758334191025 0 1,1 0,2.256758334191025Z"></path><path class="nv-point nv-point-2" transform="translate(74.48979591836734,841.3262514364824)" d="M0,2.256758334191025A2.256758334191025,2.256758334191025 0 1,1 0,-2.256758334191025A2.256758334191025,2.256758334191025 0 1,1 0,2.256758334191025Z"></path><path class="nv-point nv-point-3" transform="translate(111.73469387755102,835.0917112243926)" d="M0,2.256758334191025A2.256758334191025,2.256758334191025 0 1,1 0,-2.256758334191025A2.256758334191025,2.256758334191025 0 1,1 0,2.256758334191025Z"></path><path class="nv-point nv-point-4" transform="translate(148.97959183673467,818.4360670498575)" d="M0,2.256758334191025A2.256758334191025,2.256758334191025 0 1,1 0,-2.256758334191025A2.256758334191025,2.256758334191025 0 1,1 0,2.256758334191025Z"></path><path class="nv-point nv-point-5" transform="translate(186.22448979591837,803.232557999112)" d="M0,2.256758334191025A2.256758334191025,2.256758334191025 0 1,1 0,-2.256758334191025A2.256758334191025,2.256758334191025 0 1,1 0,2.256758334191025Z"></path><path class="nv-point nv-point-6" transform="translate(223.46938775510205,784.5186309180783)" d="M0,2.256758334191025A2.256758334191025,2.256758334191025 0 1,1 0,-2.256758334191025A2.256758334191025,2.256758334191025 0 1,1 0,2.256758334191025Z"></path><path class="nv-point nv-point-7" transform="translate(260.7142857142857,750.655733056511)" d="M0,2.256758334191025A2.256758334191025,2.256758334191025 0 1,1 0,-2.256758334191025A2.256758334191025,2.256758334191025 0 1,1 0,2.256758334191025Z"></path><path class="nv-point nv-point-8" transform="translate(297.95918367346934,746.2679789156496)" d="M0,2.256758334191025A2.256758334191025,2.256758334191025 0 1,1 0,-2.256758334191025A2.256758334191025,2.256758334191025 0 1,1 0,2.256758334191025Z"></path><path class="nv-point nv-point-9" transform="translate(335.2040816326531,746.1135969617822)" d="M0,2.256758334191025A2.256758334191025,2.256758334191025 0 1,1 0,-2.256758334191025A2.256758334191025,2.256758334191025 0 1,1 0,2.256758334191025Z"></path><path class="nv-point nv-point-10" transform="translate(372.44897959183675,723.3969043953585)" d="M0,2.256758334191025A2.256758334191025,2.256758334191025 0 1,1 0,-2.256758334191025A2.256758334191025,2.256758334191025 0 1,1 0,2.256758334191025Z"></path><path class="nv-point nv-point-11" transform="translate(409.6938775510204,696.8135773014756)" d="M0,2.256758334191025A2.256758334191025,2.256758334191025 0 1,1 0,-2.256758334191025A2.256758334191025,2.256758334191025 0 1,1 0,2.256758334191025Z"></path><path class="nv-point nv-point-12" transform="translate(446.9387755102041,674.6504267059421)" d="M0,2.256758334191025A2.256758334191025,2.256758334191025 0 1,1 0,-2.256758334191025A2.256758334191025,2.256758334191025 0 1,1 0,2.256758334191025Z"></path><path class="nv-point nv-point-13" transform="translate(484.18367346938777,666.6768886574522)" d="M0,2.256758334191025A2.256758334191025,2.256758334191025 0 1,1 0,-2.256758334191025A2.256758334191025,2.256758334191025 0 1,1 0,2.256758334191025Z"></path><path class="nv-point nv-point-14" transform="translate(521.4285714285714,661.8755884204176)" d="M0,2.256758334191025A2.256758334191025,2.256758334191025 0 1,1 0,-2.256758334191025A2.256758334191025,2.256758334191025 0 1,1 0,2.256758334191025Z"></path><path class="nv-point nv-point-15" transform="translate(558.6734693877551,632.5846723998761)" d="M0,2.256758334191025A2.256758334191025,2.256758334191025 0 1,1 0,-2.256758334191025A2.256758334191025,2.256758334191025 0 1,1 0,2.256758334191025Z"></path><path class="nv-point nv-point-16" transform="translate(595.9183673469387,596.8000520249391)" d="M0,2.256758334191025A2.256758334191025,2.256758334191025 0 1,1 0,-2.256758334191025A2.256758334191025,2.256758334191025 0 1,1 0,2.256758334191025Z"></path><path class="nv-point nv-point-17" transform="translate(633.1632653061224,580.3891859135592)" d="M0,2.256758334191025A2.256758334191025,2.256758334191025 0 1,1 0,-2.256758334191025A2.256758334191025,2.256758334191025 0 1,1 0,2.256758334191025Z"></path><path class="nv-point nv-point-18" transform="translate(670.4081632653061,574.4219691125472)" d="M0,2.256758334191025A2.256758334191025,2.256758334191025 0 1,1 0,-2.256758334191025A2.256758334191025,2.256758334191025 0 1,1 0,2.256758334191025Z"></path><path class="nv-point nv-point-19" transform="translate(707.6530612244898,552.8121457703047)" d="M0,2.256758334191025A2.256758334191025,2.256758334191025 0 1,1 0,-2.256758334191025A2.256758334191025,2.256758334191025 0 1,1 0,2.256758334191025Z"></path><path class="nv-point nv-point-20" transform="translate(744.8979591836735,539.0848202144663)" d="M0,2.256758334191025A2.256758334191025,2.256758334191025 0 1,1 0,-2.256758334191025A2.256758334191025,2.256758334191025 0 1,1 0,2.256758334191025Z"></path><path class="nv-point nv-point-21" transform="translate(782.1428571428571,522.4811376989518)" d="M0,2.256758334191025A2.256758334191025,2.256758334191025 0 1,1 0,-2.256758334191025A2.256758334191025,2.256758334191025 0 1,1 0,2.256758334191025Z"></path><path class="nv-point nv-point-22" transform="translate(819.3877551020408,515.819094746737)" d="M0,2.256758334191025A2.256758334191025,2.256758334191025 0 1,1 0,-2.256758334191025A2.256758334191025,2.256758334191025 0 1,1 0,2.256758334191025Z"></path><path class="nv-point nv-point-23" transform="translate(856.6326530612246,478.5814803776131)" d="M0,2.256758334191025A2.256758334191025,2.256758334191025 0 1,1 0,-2.256758334191025A2.256758334191025,2.256758334191025 0 1,1 0,2.256758334191025Z"></path><path class="nv-point nv-point-24" transform="translate(893.8775510204082,473.89784538497236)" d="M0,2.256758334191025A2.256758334191025,2.256758334191025 0 1,1 0,-2.256758334191025A2.256758334191025,2.256758334191025 0 1,1 0,2.256758334191025Z"></path><path class="nv-point nv-point-25" transform="translate(931.1224489795918,445.1467294089685)" d="M0,2.256758334191025A2.256758334191025,2.256758334191025 0 1,1 0,-2.256758334191025A2.256758334191025,2.256758334191025 0 1,1 0,2.256758334191025Z"></path><path class="nv-point nv-point-26" transform="translate(968.3673469387755,450.04701445926185)" d="M0,2.256758334191025A2.256758334191025,2.256758334191025 0 1,1 0,-2.256758334191025A2.256758334191025,2.256758334191025 0 1,1 0,2.256758334191025Z"></path><path class="nv-point nv-point-27" transform="translate(1005.612244897959,414.9913603338098)" d="M0,2.256758334191025A2.256758334191025,2.256758334191025 0 1,1 0,-2.256758334191025A2.256758334191025,2.256758334191025 0 1,1 0,2.256758334191025Z"></path><path class="nv-point nv-point-28" transform="translate(1042.857142857143,400.08888535722576)" d="M0,2.256758334191025A2.256758334191025,2.256758334191025 0 1,1 0,-2.256758334191025A2.256758334191025,2.256758334191025 0 1,1 0,2.256758334191025Z"></path><path class="nv-point nv-point-29" transform="translate(1080.1020408163265,384.38143410101907)" d="M0,2.256758334191025A2.256758334191025,2.256758334191025 0 1,1 0,-2.256758334191025A2.256758334191025,2.256758334191025 0 1,1 0,2.256758334191025Z"></path><path class="nv-point nv-point-30" transform="translate(1117.3469387755101,372.99410094190733)" d="M0,2.256758334191025A2.256758334191025,2.256758334191025 0 1,1 0,-2.256758334191025A2.256758334191025,2.256758334191025 0 1,1 0,2.256758334191025Z"></path><path class="nv-point nv-point-31" transform="translate(1154.591836734694,338.2755534472922)" d="M0,2.256758334191025A2.256758334191025,2.256758334191025 0 1,1 0,-2.256758334191025A2.256758334191025,2.256758334191025 0 1,1 0,2.256758334191025Z"></path><path class="nv-point nv-point-32" transform="translate(1191.8367346938774,322.43111236275814)" d="M0,2.256758334191025A2.256758334191025,2.256758334191025 0 1,1 0,-2.256758334191025A2.256758334191025,2.256758334191025 0 1,1 0,2.256758334191025Z"></path><path class="nv-point nv-point-33" transform="translate(1229.0816326530612,292.5067794244022)" d="M0,2.256758334191025A2.256758334191025,2.256758334191025 0 1,1 0,-2.256758334191025A2.256758334191025,2.256758334191025 0 1,1 0,2.256758334191025Z"></path><path class="nv-point nv-point-34" transform="translate(1266.3265306122448,289.10028471215514)" d="M0,2.256758334191025A2.256758334191025,2.256758334191025 0 1,1 0,-2.256758334191025A2.256758334191025,2.256758334191025 0 1,1 0,2.256758334191025Z"></path><path class="nv-point nv-point-35" transform="translate(1303.5714285714287,235.07841032653963)" d="M0,2.256758334191025A2.256758334191025,2.256758334191025 0 1,1 0,-2.256758334191025A2.256758334191025,2.256758334191025 0 1,1 0,2.256758334191025Z"></path><path class="nv-point nv-point-36" transform="translate(1340.8163265306123,229.1418981422217)" d="M0,2.256758334191025A2.256758334191025,2.256758334191025 0 1,1 0,-2.256758334191025A2.256758334191025,2.256758334191025 0 1,1 0,2.256758334191025Z"></path><path class="nv-point nv-point-37" transform="translate(1378.061224489796,174.48102418121087)" d="M0,2.256758334191025A2.256758334191025,2.256758334191025 0 1,1 0,-2.256758334191025A2.256758334191025,2.256758334191025 0 1,1 0,2.256758334191025Z"></path><path class="nv-point nv-point-38" transform="translate(1415.3061224489795,228.9123650286136)" d="M0,2.256758334191025A2.256758334191025,2.256758334191025 0 1,1 0,-2.256758334191025A2.256758334191025,2.256758334191025 0 1,1 0,2.256758334191025Z"></path><path class="nv-point nv-point-39" transform="translate(1452.5510204081634,172.25311437129758)" d="M0,2.256758334191025A2.256758334191025,2.256758334191025 0 1,1 0,-2.256758334191025A2.256758334191025,2.256758334191025 0 1,1 0,2.256758334191025Z"></path><path class="nv-point nv-point-40" transform="translate(1489.795918367347,184.73228652264237)" d="M0,2.256758334191025A2.256758334191025,2.256758334191025 0 1,1 0,-2.256758334191025A2.256758334191025,2.256758334191025 0 1,1 0,2.256758334191025Z"></path><path class="nv-point nv-point-41" transform="translate(1527.0408163265306,162.39993845889268)" d="M0,2.256758334191025A2.256758334191025,2.256758334191025 0 1,1 0,-2.256758334191025A2.256758334191025,2.256758334191025 0 1,1 0,2.256758334191025Z"></path><path class="nv-point nv-point-42" transform="translate(1564.2857142857142,103.0367490741058)" d="M0,2.256758334191025A2.256758334191025,2.256758334191025 0 1,1 0,-2.256758334191025A2.256758334191025,2.256758334191025 0 1,1 0,2.256758334191025Z"></path><path class="nv-point nv-point-43" transform="translate(1601.5306122448978,104.60268452550301)" d="M0,2.256758334191025A2.256758334191025,2.256758334191025 0 1,1 0,-2.256758334191025A2.256758334191025,2.256758334191025 0 1,1 0,2.256758334191025Z"></path><path class="nv-point nv-point-44" transform="translate(1638.7755102040817,95.32624008470826)" d="M0,2.256758334191025A2.256758334191025,2.256758334191025 0 1,1 0,-2.256758334191025A2.256758334191025,2.256758334191025 0 1,1 0,2.256758334191025Z"></path><path class="nv-point nv-point-45" transform="translate(1676.0204081632653,73.63632707794214)" d="M0,2.256758334191025A2.256758334191025,2.256758334191025 0 1,1 0,-2.256758334191025A2.256758334191025,2.256758334191025 0 1,1 0,2.256758334191025Z"></path><path class="nv-point nv-point-46" transform="translate(1713.2653061224491,61.90587519521427)" d="M0,2.256758334191025A2.256758334191025,2.256758334191025 0 1,1 0,-2.256758334191025A2.256758334191025,2.256758334191025 0 1,1 0,2.256758334191025Z"></path><path class="nv-point nv-point-47" transform="translate(1750.5102040816325,57.66692035063932)" d="M0,2.256758334191025A2.256758334191025,2.256758334191025 0 1,1 0,-2.256758334191025A2.256758334191025,2.256758334191025 0 1,1 0,2.256758334191025Z"></path><path class="nv-point nv-point-48" transform="translate(1787.7551020408164,40.040323192254014)" d="M0,2.256758334191025A2.256758334191025,2.256758334191025 0 1,1 0,-2.256758334191025A2.256758334191025,2.256758334191025 0 1,1 0,2.256758334191025Z"></path><path class="nv-point nv-point-49" transform="translate(1825,0)" d="M0,2.256758334191025A2.256758334191025,2.256758334191025 0 1,1 0,-2.256758334191025A2.256758334191025,2.256758334191025 0 1,1 0,2.256758334191025Z"></path></g><g style="stroke-opacity: 1; fill-opacity: 0.5; fill: rgb(255, 127, 14); stroke: rgb(255, 127, 14);" class="nv-group nv-series-1 nv-noninteractive"><path class="nv-point nv-point-0" transform="translate(0,887.8888364238337)" d="M0,2.256758334191025A2.256758334191025,2.256758334191025 0 1,1 0,-2.256758334191025A2.256758334191025,2.256758334191025 0 1,1 0,2.256758334191025Z"></path><path class="nv-point nv-point-1" transform="translate(37.24489795918367,885.3974681196294)" d="M0,2.256758334191025A2.256758334191025,2.256758334191025 0 1,1 0,-2.256758334191025A2.256758334191025,2.256758334191025 0 1,1 0,2.256758334191025Z"></path><path class="nv-point nv-point-2" transform="translate(74.48979591836734,884.6607720365711)" d="M0,2.256758334191025A2.256758334191025,2.256758334191025 0 1,1 0,-2.256758334191025A2.256758334191025,2.256758334191025 0 1,1 0,2.256758334191025Z"></path><path class="nv-point nv-point-3" transform="translate(111.73469387755102,883.3318848147559)" d="M0,2.256758334191025A2.256758334191025,2.256758334191025 0 1,1 0,-2.256758334191025A2.256758334191025,2.256758334191025 0 1,1 0,2.256758334191025Z"></path><path class="nv-point nv-point-4" transform="translate(148.97959183673467,877.2555914733202)" d="M0,2.256758334191025A2.256758334191025,2.256758334191025 0 1,1 0,-2.256758334191025A2.256758334191025,2.256758334191025 0 1,1 0,2.256758334191025Z"></path><path class="nv-point nv-point-5" transform="translate(186.22448979591837,876.8177822884307)" d="M0,2.256758334191025A2.256758334191025,2.256758334191025 0 1,1 0,-2.256758334191025A2.256758334191025,2.256758334191025 0 1,1 0,2.256758334191025Z"></path><path class="nv-point nv-point-6" transform="translate(223.46938775510205,873.4630345176051)" d="M0,2.256758334191025A2.256758334191025,2.256758334191025 0 1,1 0,-2.256758334191025A2.256758334191025,2.256758334191025 0 1,1 0,2.256758334191025Z"></path><path class="nv-point nv-point-7" transform="translate(260.7142857142857,871.2737738755585)" d="M0,2.256758334191025A2.256758334191025,2.256758334191025 0 1,1 0,-2.256758334191025A2.256758334191025,2.256758334191025 0 1,1 0,2.256758334191025Z"></path><path class="nv-point nv-point-8" transform="translate(297.95918367346934,873.9598910422909)" d="M0,2.256758334191025A2.256758334191025,2.256758334191025 0 1,1 0,-2.256758334191025A2.256758334191025,2.256758334191025 0 1,1 0,2.256758334191025Z"></path><path class="nv-point nv-point-9" transform="translate(335.2040816326531,854.9852967957565)" d="M0,2.256758334191025A2.256758334191025,2.256758334191025 0 1,1 0,-2.256758334191025A2.256758334191025,2.256758334191025 0 1,1 0,2.256758334191025Z"></path><path class="nv-point nv-point-10" transform="translate(372.44897959183675,875.3843275957764)" d="M0,2.256758334191025A2.256758334191025,2.256758334191025 0 1,1 0,-2.256758334191025A2.256758334191025,2.256758334191025 0 1,1 0,2.256758334191025Z"></path><path class="nv-point nv-point-11" transform="translate(409.6938775510204,853.3740559309155)" d="M0,2.256758334191025A2.256758334191025,2.256758334191025 0 1,1 0,-2.256758334191025A2.256758334191025,2.256758334191025 0 1,1 0,2.256758334191025Z"></path><path class="nv-point nv-point-12" transform="translate(446.9387755102041,855.4482279397594)" d="M0,2.256758334191025A2.256758334191025,2.256758334191025 0 1,1 0,-2.256758334191025A2.256758334191025,2.256758334191025 0 1,1 0,2.256758334191025Z"></path><path class="nv-point nv-point-13" transform="translate(484.18367346938777,848.3988344384809)" d="M0,2.256758334191025A2.256758334191025,2.256758334191025 0 1,1 0,-2.256758334191025A2.256758334191025,2.256758334191025 0 1,1 0,2.256758334191025Z"></path><path class="nv-point nv-point-14" transform="translate(521.4285714285714,851.1373426994326)" d="M0,2.256758334191025A2.256758334191025,2.256758334191025 0 1,1 0,-2.256758334191025A2.256758334191025,2.256758334191025 0 1,1 0,2.256758334191025Z"></path><path class="nv-point nv-point-15" transform="translate(558.6734693877551,846.6448063701325)" d="M0,2.256758334191025A2.256758334191025,2.256758334191025 0 1,1 0,-2.256758334191025A2.256758334191025,2.256758334191025 0 1,1 0,2.256758334191025Z"></path><path class="nv-point nv-point-16" transform="translate(595.9183673469387,842.9067876846293)" d="M0,2.256758334191025A2.256758334191025,2.256758334191025 0 1,1 0,-2.256758334191025A2.256758334191025,2.256758334191025 0 1,1 0,2.256758334191025Z"></path><path class="nv-point nv-point-17" transform="translate(633.1632653061224,841.6337270386216)" d="M0,2.256758334191025A2.256758334191025,2.256758334191025 0 1,1 0,-2.256758334191025A2.256758334191025,2.256758334191025 0 1,1 0,2.256758334191025Z"></path><path class="nv-point nv-point-18" transform="translate(670.4081632653061,840.7933223551212)" d="M0,2.256758334191025A2.256758334191025,2.256758334191025 0 1,1 0,-2.256758334191025A2.256758334191025,2.256758334191025 0 1,1 0,2.256758334191025Z"></path><path class="nv-point nv-point-19" transform="translate(707.6530612244898,830.529821110532)" d="M0,2.256758334191025A2.256758334191025,2.256758334191025 0 1,1 0,-2.256758334191025A2.256758334191025,2.256758334191025 0 1,1 0,2.256758334191025Z"></path><path class="nv-point nv-point-20" transform="translate(744.8979591836735,833.8225154951716)" d="M0,2.256758334191025A2.256758334191025,2.256758334191025 0 1,1 0,-2.256758334191025A2.256758334191025,2.256758334191025 0 1,1 0,2.256758334191025Z"></path><path class="nv-point nv-point-21" transform="translate(782.1428571428571,830.50426971622)" d="M0,2.256758334191025A2.256758334191025,2.256758334191025 0 1,1 0,-2.256758334191025A2.256758334191025,2.256758334191025 0 1,1 0,2.256758334191025Z"></path><path class="nv-point nv-point-22" transform="translate(819.3877551020408,826.0703512915179)" d="M0,2.256758334191025A2.256758334191025,2.256758334191025 0 1,1 0,-2.256758334191025A2.256758334191025,2.256758334191025 0 1,1 0,2.256758334191025Z"></path><path class="nv-point nv-point-23" transform="translate(856.6326530612246,817.6355998398192)" d="M0,2.256758334191025A2.256758334191025,2.256758334191025 0 1,1 0,-2.256758334191025A2.256758334191025,2.256758334191025 0 1,1 0,2.256758334191025Z"></path><path class="nv-point nv-point-24" transform="translate(893.8775510204082,837.718136898531)" d="M0,2.256758334191025A2.256758334191025,2.256758334191025 0 1,1 0,-2.256758334191025A2.256758334191025,2.256758334191025 0 1,1 0,2.256758334191025Z"></path><path class="nv-point nv-point-25" transform="translate(931.1224489795918,813.2858507140265)" d="M0,2.256758334191025A2.256758334191025,2.256758334191025 0 1,1 0,-2.256758334191025A2.256758334191025,2.256758334191025 0 1,1 0,2.256758334191025Z"></path><path class="nv-point nv-point-26" transform="translate(968.3673469387755,824.1956519323859)" d="M0,2.256758334191025A2.256758334191025,2.256758334191025 0 1,1 0,-2.256758334191025A2.256758334191025,2.256758334191025 0 1,1 0,2.256758334191025Z"></path><path class="nv-point nv-point-27" transform="translate(1005.612244897959,820.0745770498044)" d="M0,2.256758334191025A2.256758334191025,2.256758334191025 0 1,1 0,-2.256758334191025A2.256758334191025,2.256758334191025 0 1,1 0,2.256758334191025Z"></path><path class="nv-point nv-point-28" transform="translate(1042.857142857143,821.1378586013358)" d="M0,2.256758334191025A2.256758334191025,2.256758334191025 0 1,1 0,-2.256758334191025A2.256758334191025,2.256758334191025 0 1,1 0,2.256758334191025Z"></path><path class="nv-point nv-point-29" transform="translate(1080.1020408163265,813.2920775244052)" d="M0,2.256758334191025A2.256758334191025,2.256758334191025 0 1,1 0,-2.256758334191025A2.256758334191025,2.256758334191025 0 1,1 0,2.256758334191025Z"></path><path class="nv-point nv-point-30" transform="translate(1117.3469387755101,809.68503657445)" d="M0,2.256758334191025A2.256758334191025,2.256758334191025 0 1,1 0,-2.256758334191025A2.256758334191025,2.256758334191025 0 1,1 0,2.256758334191025Z"></path><path class="nv-point nv-point-31" transform="translate(1154.591836734694,810.8969027046688)" d="M0,2.256758334191025A2.256758334191025,2.256758334191025 0 1,1 0,-2.256758334191025A2.256758334191025,2.256758334191025 0 1,1 0,2.256758334191025Z"></path><path class="nv-point nv-point-32" transform="translate(1191.8367346938774,800.4270578471916)" d="M0,2.256758334191025A2.256758334191025,2.256758334191025 0 1,1 0,-2.256758334191025A2.256758334191025,2.256758334191025 0 1,1 0,2.256758334191025Z"></path><path class="nv-point nv-point-33" transform="translate(1229.0816326530612,803.5217826053142)" d="M0,2.256758334191025A2.256758334191025,2.256758334191025 0 1,1 0,-2.256758334191025A2.256758334191025,2.256758334191025 0 1,1 0,2.256758334191025Z"></path><path class="nv-point nv-point-34" transform="translate(1266.3265306122448,790.5240674517586)" d="M0,2.256758334191025A2.256758334191025,2.256758334191025 0 1,1 0,-2.256758334191025A2.256758334191025,2.256758334191025 0 1,1 0,2.256758334191025Z"></path><path class="nv-point nv-point-35" transform="translate(1303.5714285714287,798.4239573637026)" d="M0,2.256758334191025A2.256758334191025,2.256758334191025 0 1,1 0,-2.256758334191025A2.256758334191025,2.256758334191025 0 1,1 0,2.256758334191025Z"></path><path class="nv-point nv-point-36" transform="translate(1340.8163265306123,805.7400301232609)" d="M0,2.256758334191025A2.256758334191025,2.256758334191025 0 1,1 0,-2.256758334191025A2.256758334191025,2.256758334191025 0 1,1 0,2.256758334191025Z"></path><path class="nv-point nv-point-37" transform="translate(1378.061224489796,791.9339032084944)" d="M0,2.256758334191025A2.256758334191025,2.256758334191025 0 1,1 0,-2.256758334191025A2.256758334191025,2.256758334191025 0 1,1 0,2.256758334191025Z"></path><path class="nv-point nv-point-38" transform="translate(1415.3061224489795,796.2252491472885)" d="M0,2.256758334191025A2.256758334191025,2.256758334191025 0 1,1 0,-2.256758334191025A2.256758334191025,2.256758334191025 0 1,1 0,2.256758334191025Z"></path><path class="nv-point nv-point-39" transform="translate(1452.5510204081634,787.623232685767)" d="M0,2.256758334191025A2.256758334191025,2.256758334191025 0 1,1 0,-2.256758334191025A2.256758334191025,2.256758334191025 0 1,1 0,2.256758334191025Z"></path><path class="nv-point nv-point-40" transform="translate(1489.795918367347,788.9624263523465)" d="M0,2.256758334191025A2.256758334191025,2.256758334191025 0 1,1 0,-2.256758334191025A2.256758334191025,2.256758334191025 0 1,1 0,2.256758334191025Z"></path><path class="nv-point nv-point-41" transform="translate(1527.0408163265306,770.0288431672706)" d="M0,2.256758334191025A2.256758334191025,2.256758334191025 0 1,1 0,-2.256758334191025A2.256758334191025,2.256758334191025 0 1,1 0,2.256758334191025Z"></path><path class="nv-point nv-point-42" transform="translate(1564.2857142857142,765.1553978168847)" d="M0,2.256758334191025A2.256758334191025,2.256758334191025 0 1,1 0,-2.256758334191025A2.256758334191025,2.256758334191025 0 1,1 0,2.256758334191025Z"></path><path class="nv-point nv-point-43" transform="translate(1601.5306122448978,770.7210927072821)" d="M0,2.256758334191025A2.256758334191025,2.256758334191025 0 1,1 0,-2.256758334191025A2.256758334191025,2.256758334191025 0 1,1 0,2.256758334191025Z"></path><path class="nv-point nv-point-44" transform="translate(1638.7755102040817,751.3419705037434)" d="M0,2.256758334191025A2.256758334191025,2.256758334191025 0 1,1 0,-2.256758334191025A2.256758334191025,2.256758334191025 0 1,1 0,2.256758334191025Z"></path><path class="nv-point nv-point-45" transform="translate(1676.0204081632653,776.0643401648471)" d="M0,2.256758334191025A2.256758334191025,2.256758334191025 0 1,1 0,-2.256758334191025A2.256758334191025,2.256758334191025 0 1,1 0,2.256758334191025Z"></path><path class="nv-point nv-point-46" transform="translate(1713.2653061224491,767.4236745354589)" d="M0,2.256758334191025A2.256758334191025,2.256758334191025 0 1,1 0,-2.256758334191025A2.256758334191025,2.256758334191025 0 1,1 0,2.256758334191025Z"></path><path class="nv-point nv-point-47" transform="translate(1750.5102040816325,750.9316451715591)" d="M0,2.256758334191025A2.256758334191025,2.256758334191025 0 1,1 0,-2.256758334191025A2.256758334191025,2.256758334191025 0 1,1 0,2.256758334191025Z"></path><path class="nv-point nv-point-48" transform="translate(1787.7551020408164,755.8469604538004)" d="M0,2.256758334191025A2.256758334191025,2.256758334191025 0 1,1 0,-2.256758334191025A2.256758334191025,2.256758334191025 0 1,1 0,2.256758334191025Z"></path><path class="nv-point nv-point-49" transform="translate(1825,762.6056263256818)" d="M0,2.256758334191025A2.256758334191025,2.256758334191025 0 1,1 0,-2.256758334191025A2.256758334191025,2.256758334191025 0 1,1 0,2.256758334191025Z"></path></g><g style="stroke-opacity: 1; fill-opacity: 0.5; fill: rgb(44, 160, 44); stroke: rgb(44, 160, 44);" class="nv-group nv-series-2 nv-noninteractive"><path class="nv-point nv-point-0" transform="translate(0,888.8239315686075)" d="M0,2.256758334191025A2.256758334191025,2.256758334191025 0 1,1 0,-2.256758334191025A2.256758334191025,2.256758334191025 0 1,1 0,2.256758334191025Z"></path><path class="nv-point nv-point-1" transform="translate(37.24489795918367,888.0782173463803)" d="M0,2.256758334191025A2.256758334191025,2.256758334191025 0 1,1 0,-2.256758334191025A2.256758334191025,2.256758334191025 0 1,1 0,2.256758334191025Z"></path><path class="nv-point nv-point-2" transform="translate(74.48979591836734,882.4180467123089)" d="M0,2.256758334191025A2.256758334191025,2.256758334191025 0 1,1 0,-2.256758334191025A2.256758334191025,2.256758334191025 0 1,1 0,2.256758334191025Z"></path><path class="nv-point nv-point-3" transform="translate(111.73469387755102,881.0213087291278)" d="M0,2.256758334191025A2.256758334191025,2.256758334191025 0 1,1 0,-2.256758334191025A2.256758334191025,2.256758334191025 0 1,1 0,2.256758334191025Z"></path><path class="nv-point nv-point-4" transform="translate(148.97959183673467,876.2700376927205)" d="M0,2.256758334191025A2.256758334191025,2.256758334191025 0 1,1 0,-2.256758334191025A2.256758334191025,2.256758334191025 0 1,1 0,2.256758334191025Z"></path><path class="nv-point nv-point-5" transform="translate(186.22448979591837,877.4078262511949)" d="M0,2.256758334191025A2.256758334191025,2.256758334191025 0 1,1 0,-2.256758334191025A2.256758334191025,2.256758334191025 0 1,1 0,2.256758334191025Z"></path><path class="nv-point nv-point-6" transform="translate(223.46938775510205,871.3461337065088)" d="M0,2.256758334191025A2.256758334191025,2.256758334191025 0 1,1 0,-2.256758334191025A2.256758334191025,2.256758334191025 0 1,1 0,2.256758334191025Z"></path><path class="nv-point nv-point-7" transform="translate(260.7142857142857,881.2373146339826)" d="M0,2.256758334191025A2.256758334191025,2.256758334191025 0 1,1 0,-2.256758334191025A2.256758334191025,2.256758334191025 0 1,1 0,2.256758334191025Z"></path><path class="nv-point nv-point-8" transform="translate(297.95918367346934,864.8775513112265)" d="M0,2.256758334191025A2.256758334191025,2.256758334191025 0 1,1 0,-2.256758334191025A2.256758334191025,2.256758334191025 0 1,1 0,2.256758334191025Z"></path><path class="nv-point nv-point-9" transform="translate(335.2040816326531,861.6033226401231)" d="M0,2.256758334191025A2.256758334191025,2.256758334191025 0 1,1 0,-2.256758334191025A2.256758334191025,2.256758334191025 0 1,1 0,2.256758334191025Z"></path><path class="nv-point nv-point-10" transform="translate(372.44897959183675,857.4466046360645)" d="M0,2.256758334191025A2.256758334191025,2.256758334191025 0 1,1 0,-2.256758334191025A2.256758334191025,2.256758334191025 0 1,1 0,2.256758334191025Z"></path><path class="nv-point nv-point-11" transform="translate(409.6938775510204,854.6149089370343)" d="M0,2.256758334191025A2.256758334191025,2.256758334191025 0 1,1 0,-2.256758334191025A2.256758334191025,2.256758334191025 0 1,1 0,2.256758334191025Z"></path><path class="nv-point nv-point-12" transform="translate(446.9387755102041,850.7815556374601)" d="M0,2.256758334191025A2.256758334191025,2.256758334191025 0 1,1 0,-2.256758334191025A2.256758334191025,2.256758334191025 0 1,1 0,2.256758334191025Z"></path><path class="nv-point nv-point-13" transform="translate(484.18367346938777,849.6061914991153)" d="M0,2.256758334191025A2.256758334191025,2.256758334191025 0 1,1 0,-2.256758334191025A2.256758334191025,2.256758334191025 0 1,1 0,2.256758334191025Z"></path><path class="nv-point nv-point-14" transform="translate(521.4285714285714,843.5260332408928)" d="M0,2.256758334191025A2.256758334191025,2.256758334191025 0 1,1 0,-2.256758334191025A2.256758334191025,2.256758334191025 0 1,1 0,2.256758334191025Z"></path><path class="nv-point nv-point-15" transform="translate(558.6734693877551,843.8904090068357)" d="M0,2.256758334191025A2.256758334191025,2.256758334191025 0 1,1 0,-2.256758334191025A2.256758334191025,2.256758334191025 0 1,1 0,2.256758334191025Z"></path><path class="nv-point nv-point-16" transform="translate(595.9183673469387,844.801885215691)" d="M0,2.256758334191025A2.256758334191025,2.256758334191025 0 1,1 0,-2.256758334191025A2.256758334191025,2.256758334191025 0 1,1 0,2.256758334191025Z"></path><path class="nv-point nv-point-17" transform="translate(633.1632653061224,837.6713284618926)" d="M0,2.256758334191025A2.256758334191025,2.256758334191025 0 1,1 0,-2.256758334191025A2.256758334191025,2.256758334191025 0 1,1 0,2.256758334191025Z"></path><path class="nv-point nv-point-18" transform="translate(670.4081632653061,828.7528182590629)" d="M0,2.256758334191025A2.256758334191025,2.256758334191025 0 1,1 0,-2.256758334191025A2.256758334191025,2.256758334191025 0 1,1 0,2.256758334191025Z"></path><path class="nv-point nv-point-19" transform="translate(707.6530612244898,823.6945010557149)" d="M0,2.256758334191025A2.256758334191025,2.256758334191025 0 1,1 0,-2.256758334191025A2.256758334191025,2.256758334191025 0 1,1 0,2.256758334191025Z"></path><path class="nv-point nv-point-20" transform="translate(744.8979591836735,811.600317559842)" d="M0,2.256758334191025A2.256758334191025,2.256758334191025 0 1,1 0,-2.256758334191025A2.256758334191025,2.256758334191025 0 1,1 0,2.256758334191025Z"></path><path class="nv-point nv-point-21" transform="translate(782.1428571428571,814.8814171941216)" d="M0,2.256758334191025A2.256758334191025,2.256758334191025 0 1,1 0,-2.256758334191025A2.256758334191025,2.256758334191025 0 1,1 0,2.256758334191025Z"></path><path class="nv-point nv-point-22" transform="translate(819.3877551020408,808.2307542746676)" d="M0,2.256758334191025A2.256758334191025,2.256758334191025 0 1,1 0,-2.256758334191025A2.256758334191025,2.256758334191025 0 1,1 0,2.256758334191025Z"></path><path class="nv-point nv-point-23" transform="translate(856.6326530612246,790.2777863654082)" d="M0,2.256758334191025A2.256758334191025,2.256758334191025 0 1,1 0,-2.256758334191025A2.256758334191025,2.256758334191025 0 1,1 0,2.256758334191025Z"></path><path class="nv-point nv-point-24" transform="translate(893.8775510204082,816.7700731972054)" d="M0,2.256758334191025A2.256758334191025,2.256758334191025 0 1,1 0,-2.256758334191025A2.256758334191025,2.256758334191025 0 1,1 0,2.256758334191025Z"></path><path class="nv-point nv-point-25" transform="translate(931.1224489795918,797.1165419018134)" d="M0,2.256758334191025A2.256758334191025,2.256758334191025 0 1,1 0,-2.256758334191025A2.256758334191025,2.256758334191025 0 1,1 0,2.256758334191025Z"></path><path class="nv-point nv-point-26" transform="translate(968.3673469387755,816.9912323244424)" d="M0,2.256758334191025A2.256758334191025,2.256758334191025 0 1,1 0,-2.256758334191025A2.256758334191025,2.256758334191025 0 1,1 0,2.256758334191025Z"></path><path class="nv-point nv-point-27" transform="translate(1005.612244897959,813.6901639534317)" d="M0,2.256758334191025A2.256758334191025,2.256758334191025 0 1,1 0,-2.256758334191025A2.256758334191025,2.256758334191025 0 1,1 0,2.256758334191025Z"></path><path class="nv-point nv-point-28" transform="translate(1042.857142857143,799.4975453599986)" d="M0,2.256758334191025A2.256758334191025,2.256758334191025 0 1,1 0,-2.256758334191025A2.256758334191025,2.256758334191025 0 1,1 0,2.256758334191025Z"></path><path class="nv-point nv-point-29" transform="translate(1080.1020408163265,797.6153308848925)" d="M0,2.256758334191025A2.256758334191025,2.256758334191025 0 1,1 0,-2.256758334191025A2.256758334191025,2.256758334191025 0 1,1 0,2.256758334191025Z"></path><path class="nv-point nv-point-30" transform="translate(1117.3469387755101,796.14945383475)" d="M0,2.256758334191025A2.256758334191025,2.256758334191025 0 1,1 0,-2.256758334191025A2.256758334191025,2.256758334191025 0 1,1 0,2.256758334191025Z"></path><path class="nv-point nv-point-31" transform="translate(1154.591836734694,795.4589220355325)" d="M0,2.256758334191025A2.256758334191025,2.256758334191025 0 1,1 0,-2.256758334191025A2.256758334191025,2.256758334191025 0 1,1 0,2.256758334191025Z"></path><path class="nv-point nv-point-32" transform="translate(1191.8367346938774,791.7537551427159)" d="M0,2.256758334191025A2.256758334191025,2.256758334191025 0 1,1 0,-2.256758334191025A2.256758334191025,2.256758334191025 0 1,1 0,2.256758334191025Z"></path><path class="nv-point nv-point-33" transform="translate(1229.0816326530612,787.2511270862508)" d="M0,2.256758334191025A2.256758334191025,2.256758334191025 0 1,1 0,-2.256758334191025A2.256758334191025,2.256758334191025 0 1,1 0,2.256758334191025Z"></path><path class="nv-point nv-point-34" transform="translate(1266.3265306122448,782.1187323111584)" d="M0,2.256758334191025A2.256758334191025,2.256758334191025 0 1,1 0,-2.256758334191025A2.256758334191025,2.256758334191025 0 1,1 0,2.256758334191025Z"></path><path class="nv-point nv-point-35" transform="translate(1303.5714285714287,765.704001282992)" d="M0,2.256758334191025A2.256758334191025,2.256758334191025 0 1,1 0,-2.256758334191025A2.256758334191025,2.256758334191025 0 1,1 0,2.256758334191025Z"></path><path class="nv-point nv-point-36" transform="translate(1340.8163265306123,786.6765427906331)" d="M0,2.256758334191025A2.256758334191025,2.256758334191025 0 1,1 0,-2.256758334191025A2.256758334191025,2.256758334191025 0 1,1 0,2.256758334191025Z"></path><path class="nv-point nv-point-37" transform="translate(1378.061224489796,754.4560198457995)" d="M0,2.256758334191025A2.256758334191025,2.256758334191025 0 1,1 0,-2.256758334191025A2.256758334191025,2.256758334191025 0 1,1 0,2.256758334191025Z"></path><path class="nv-point nv-point-38" transform="translate(1415.3061224489795,763.2514968642536)" d="M0,2.256758334191025A2.256758334191025,2.256758334191025 0 1,1 0,-2.256758334191025A2.256758334191025,2.256758334191025 0 1,1 0,2.256758334191025Z"></path><path class="nv-point nv-point-39" transform="translate(1452.5510204081634,763.992487299297)" d="M0,2.256758334191025A2.256758334191025,2.256758334191025 0 1,1 0,-2.256758334191025A2.256758334191025,2.256758334191025 0 1,1 0,2.256758334191025Z"></path><path class="nv-point nv-point-40" transform="translate(1489.795918367347,755.2451070230769)" d="M0,2.256758334191025A2.256758334191025,2.256758334191025 0 1,1 0,-2.256758334191025A2.256758334191025,2.256758334191025 0 1,1 0,2.256758334191025Z"></path><path class="nv-point nv-point-41" transform="translate(1527.0408163265306,759.6996383373081)" d="M0,2.256758334191025A2.256758334191025,2.256758334191025 0 1,1 0,-2.256758334191025A2.256758334191025,2.256758334191025 0 1,1 0,2.256758334191025Z"></path><path class="nv-point nv-point-42" transform="translate(1564.2857142857142,751.7595962343025)" d="M0,2.256758334191025A2.256758334191025,2.256758334191025 0 1,1 0,-2.256758334191025A2.256758334191025,2.256758334191025 0 1,1 0,2.256758334191025Z"></path><path class="nv-point nv-point-43" transform="translate(1601.5306122448978,748.8218300412383)" d="M0,2.256758334191025A2.256758334191025,2.256758334191025 0 1,1 0,-2.256758334191025A2.256758334191025,2.256758334191025 0 1,1 0,2.256758334191025Z"></path><path class="nv-point nv-point-44" transform="translate(1638.7755102040817,754.2007206202803)" d="M0,2.256758334191025A2.256758334191025,2.256758334191025 0 1,1 0,-2.256758334191025A2.256758334191025,2.256758334191025 0 1,1 0,2.256758334191025Z"></path><path class="nv-point nv-point-45" transform="translate(1676.0204081632653,755.0237331782407)" d="M0,2.256758334191025A2.256758334191025,2.256758334191025 0 1,1 0,-2.256758334191025A2.256758334191025,2.256758334191025 0 1,1 0,2.256758334191025Z"></path><path class="nv-point nv-point-46" transform="translate(1713.2653061224491,745.5722938940497)" d="M0,2.256758334191025A2.256758334191025,2.256758334191025 0 1,1 0,-2.256758334191025A2.256758334191025,2.256758334191025 0 1,1 0,2.256758334191025Z"></path><path class="nv-point nv-point-47" transform="translate(1750.5102040816325,745.5454541941424)" d="M0,2.256758334191025A2.256758334191025,2.256758334191025 0 1,1 0,-2.256758334191025A2.256758334191025,2.256758334191025 0 1,1 0,2.256758334191025Z"></path><path class="nv-point nv-point-48" transform="translate(1787.7551020408164,732.2312452992786)" d="M0,2.256758334191025A2.256758334191025,2.256758334191025 0 1,1 0,-2.256758334191025A2.256758334191025,2.256758334191025 0 1,1 0,2.256758334191025Z"></path><path class="nv-point nv-point-49" transform="translate(1825,740.6576227646061)" d="M0,2.256758334191025A2.256758334191025,2.256758334191025 0 1,1 0,-2.256758334191025A2.256758334191025,2.256758334191025 0 1,1 0,2.256758334191025Z"></path></g></g><g class="nv-point-paths"></g></g><g class="nv-point-clips"></g></g></g></g></g></g><g class="nv-interactive"><g class=" nv-wrap nv-interactiveLineLayer"><g class="nv-interactiveGuideLine"></g></g></g></g><g class="nv-focusWrap"></g></g><text style="font-size: 24px;" text-anchor="middle" x="50%" y="20px">Benchmarking compilation speed of template instanciation constrained by Concepts vs. SFINAE</text><text style="font-size: 16px;" text-anchor="middle" x="50%" y="40px"></text></g></svg>