<svg id="chart" class="nvd3-svg"><g class="nvd3 nv-wrap nv-lineChart" transform="translate(75,30)"><g><g class="nv-legendWrap nvd3-svg" transform="translate(0,-30)"><g class="nvd3 nv-legend" transform="translate(0,5)"><g transform="translate(1575,5)"><g class="nv-series" transform="translate(0,5)"><circle style="stroke-width: 2px; fill: rgb(31, 119, 180); fill-opacity: 1; stroke: rgb(31, 119, 180);" class="nv-legend-symbol" r="5"></circle><text text-anchor="start" class="nv-legend-text" dy=".32em" dx="8" fill="#000">concepts</text></g><g class="nv-series" transform="translate(80,5)"><circle style="stroke-width: 2px; fill: rgb(255, 127, 14); fill-opacity: 1; stroke: rgb(255, 127, 14);" class="nv-legend-symbol" r="5"></circle><text text-anchor="start" class="nv-legend-text" dy=".32em" dx="8" fill="#000">concepts_fast</text></g><g class="nv-series" transform="translate(186,5)"><circle style="stroke-width: 2px; fill: rgb(44, 160, 44); fill-opacity: 1; stroke: rgb(44, 160, 44);" class="nv-legend-symbol" r="5"></circle><text text-anchor="start" class="nv-legend-text" dy=".32em" dx="8" fill="#000">sfinae</text></g></g></g></g><g class="nv-focus"><g class="nv-background"><rect width="1825" height="889"></rect></g><g class="nv-x nv-axis nvd3-svg" transform="translate(0,889)"><g class="nvd3 nv-wrap nv-axis"><g><g class="tick zero" style="opacity: 1;" transform="translate(0,0)"><line y2="-889" x2="0"></line></g><g class="tick" style="opacity: 1;" transform="translate(148.97959183673467,0)"><line y2="-889" x2="0"></line><text dy=".71em" style="text-anchor: middle;" y="7" transform="translate(0,0)" x="0">20</text></g><g class="tick" style="opacity: 1;" transform="translate(297.95918367346934,0)"><line y2="-889" x2="0"></line><text dy=".71em" style="text-anchor: middle;" y="7" transform="translate(0,0)" x="0">40</text></g><g class="tick" style="opacity: 1;" transform="translate(446.9387755102041,0)"><line y2="-889" x2="0"></line><text dy=".71em" style="text-anchor: middle;" y="7" transform="translate(0,0)" x="0">60</text></g><g class="tick" style="opacity: 1;" transform="translate(595.9183673469387,0)"><line y2="-889" x2="0"></line><text dy=".71em" style="text-anchor: middle;" y="7" transform="translate(0,0)" x="0">80</text></g><g class="tick" style="opacity: 1;" transform="translate(744.8979591836735,0)"><line y2="-889" x2="0"></line><text dy=".71em" style="text-anchor: middle;" y="7" transform="translate(0,0)" x="0">100</text></g><g class="tick" style="opacity: 1;" transform="translate(893.8775510204082,0)"><line y2="-889" x2="0"></line><text dy=".71em" style="text-anchor: middle;" y="7" transform="translate(0,0)" x="0">120</text></g><g class="tick" style="opacity: 1;" transform="translate(1042.857142857143,0)"><line y2="-889" x2="0"></line><text dy=".71em" style="text-anchor: middle;" y="7" transform="translate(0,0)" x="0">140</text></g><g class="tick" style="opacity: 1;" transform="translate(1191.8367346938774,0)"><line y2="-889" x2="0"></line><text dy=".71em" style="text-anchor: middle;" y="7" transform="translate(0,0)" x="0">160</text></g><g class="tick" style="opacity: 1;" transform="translate(1340.8163265306123,0)"><line y2="-889" x2="0"></line><text dy=".71em" style="text-anchor: middle;" y="7" transform="translate(0,0)" x="0">180</text></g><g class="tick" style="opacity: 1;" transform="translate(1489.795918367347,0)"><line y2="-889" x2="0"></line><text dy=".71em" style="text-anchor: middle;" y="7" transform="translate(0,0)" x="0">200</text></g><g class="tick" style="opacity: 1;" transform="translate(1638.7755102040817,0)"><line y2="-889" x2="0"></line><text dy=".71em" style="text-anchor: middle;" y="7" transform="translate(0,0)" x="0">220</text></g><g class="tick" style="opacity: 1;" transform="translate(1787.7551020408164,0)"><line y2="-889" x2="0"></line><text dy=".71em" style="text-anchor: middle;" y="7" transform="translate(0,0)" x="0">240</text></g><path class="domain" d="M0,0V0H1825V0"></path><text class="nv-axislabel" text-anchor="middle" y="36" x="912.5">Number of constrained template instanciated</text></g><g class="nv-axisMaxMin nv-axisMaxMin-x nv-axisMin-x" transform="translate(0,0)"><text dy=".71em" y="7" transform="" style="text-anchor: middle;">0</text></g><g class="nv-axisMaxMin nv-axisMaxMin-x nv-axisMax-x" transform="translate(1825,0)"><text dy=".71em" y="7" transform="" style="text-anchor: middle;">245</text></g></g><g transform="translate(24,30)"><g class="control interpolate"><circle style="fill: rgb(51, 51, 51); stroke: rgb(51, 51, 51); stroke-width: 2px; fill-opacity: 1;" cx="0" cy="0" r="5"></circle><text text-anchor="start" dx="8" dy=".32em">interpolate</text></g><g class="control baseline" transform="translate(80,0)"><circle style="fill: rgb(51, 51, 51); stroke: rgb(51, 51, 51); stroke-width: 2px; fill-opacity: 1;" cx="0" cy="0" r="5"></circle><text text-anchor="start" dx="8" dy=".32em">subtract baseline</text></g><g class="control baseline" transform="translate(200,0)"><text text-anchor="start" dx="8" dy=".32em" style="color: blue;">export as png</text></g><g class="control baseline" transform="translate(300,0)"><text text-anchor="start" dx="8" dy=".32em" style="color: blue;">export as svg</text></g></g></g><g class="nv-y nv-axis nvd3-svg"><g class="nvd3 nv-wrap nv-axis"><g><g class="tick zero" style="opacity: 1;" transform="translate(0,889)"><line x2="1825" y2="0"></line><text dy=".32em" style="text-anchor: end;" x="-3" opacity="0" y="0">0.00s</text></g><g class="tick" style="opacity: 1;" transform="translate(0,855.816223843047)"><line x2="1825" y2="0"></line><text dy=".32em" style="text-anchor: end;" x="-3" opacity="1" y="0">0.10s</text></g><g class="tick" style="opacity: 1;" transform="translate(0,822.6324476860942)"><line x2="1825" y2="0"></line><text dy=".32em" style="text-anchor: end;" x="-3" opacity="1" y="0">0.20s</text></g><g class="tick" style="opacity: 1;" transform="translate(0,789.4486715291413)"><line x2="1825" y2="0"></line><text dy=".32em" style="text-anchor: end;" x="-3" opacity="1" y="0">0.30s</text></g><g class="tick" style="opacity: 1;" transform="translate(0,756.2648953721883)"><line x2="1825" y2="0"></line><text dy=".32em" style="text-anchor: end;" x="-3" opacity="1" y="0">0.40s</text></g><g class="tick" style="opacity: 1;" transform="translate(0,723.0811192152355)"><line x2="1825" y2="0"></line><text dy=".32em" style="text-anchor: end;" x="-3" opacity="1" y="0">0.50s</text></g><g class="tick" style="opacity: 1;" transform="translate(0,689.8973430582826)"><line x2="1825" y2="0"></line><text dy=".32em" style="text-anchor: end;" x="-3" opacity="1" y="0">0.60s</text></g><g class="tick" style="opacity: 1;" transform="translate(0,656.7135669013296)"><line x2="1825" y2="0"></line><text dy=".32em" style="text-anchor: end;" x="-3" opacity="1" y="0">0.70s</text></g><g class="tick" style="opacity: 1;" transform="translate(0,623.5297907443767)"><line x2="1825" y2="0"></line><text dy=".32em" style="text-anchor: end;" x="-3" opacity="1" y="0">0.80s</text></g><g class="tick" style="opacity: 1;" transform="translate(0,590.3460145874238)"><line x2="1825" y2="0"></line><text dy=".32em" style="text-anchor: end;" x="-3" opacity="1" y="0">0.90s</text></g><g class="tick" style="opacity: 1;" transform="translate(0,557.162238430471)"><line x2="1825" y2="0"></line><text dy=".32em" style="text-anchor: end;" x="-3" opacity="1" y="0">1.00s</text></g><g class="tick" style="opacity: 1;" transform="translate(0,523.978462273518)"><line x2="1825" y2="0"></line><text dy=".32em" style="text-anchor: end;" x="-3" opacity="1" y="0">1.10s</text></g><g class="tick" style="opacity: 1;" transform="translate(0,490.794686116565)"><line x2="1825" y2="0"></line><text dy=".32em" style="text-anchor: end;" x="-3" opacity="1" y="0">1.20s</text></g><g class="tick" style="opacity: 1;" transform="translate(0,457.6109099596122)"><line x2="1825" y2="0"></line><text dy=".32em" style="text-anchor: end;" x="-3" opacity="1" y="0">1.30s</text></g><g class="tick" style="opacity: 1;" transform="translate(0,424.4271338026593)"><line x2="1825" y2="0"></line><text dy=".32em" style="text-anchor: end;" x="-3" opacity="1" y="0">1.40s</text></g><g class="tick" style="opacity: 1;" transform="translate(0,391.24335764570634)"><line x2="1825" y2="0"></line><text dy=".32em" style="text-anchor: end;" x="-3" opacity="1" y="0">1.50s</text></g><g class="tick" style="opacity: 1;" transform="translate(0,358.0595814887534)"><line x2="1825" y2="0"></line><text dy=".32em" style="text-anchor: end;" x="-3" opacity="1" y="0">1.60s</text></g><g class="tick" style="opacity: 1;" transform="translate(0,324.8758053318005)"><line x2="1825" y2="0"></line><text dy=".32em" style="text-anchor: end;" x="-3" opacity="1" y="0">1.70s</text></g><g class="tick" style="opacity: 1;" transform="translate(0,291.6920291748476)"><line x2="1825" y2="0"></line><text dy=".32em" style="text-anchor: end;" x="-3" opacity="1" y="0">1.80s</text></g><g class="tick" style="opacity: 1;" transform="translate(0,258.5082530178948)"><line x2="1825" y2="0"></line><text dy=".32em" style="text-anchor: end;" x="-3" opacity="1" y="0">1.90s</text></g><g class="tick" style="opacity: 1;" transform="translate(0,225.32447686094181)"><line x2="1825" y2="0"></line><text dy=".32em" style="text-anchor: end;" x="-3" opacity="1" y="0">2.00s</text></g><g class="tick" style="opacity: 1;" transform="translate(0,192.14070070398884)"><line x2="1825" y2="0"></line><text dy=".32em" style="text-anchor: end;" x="-3" opacity="1" y="0">2.10s</text></g><g class="tick" style="opacity: 1;" transform="translate(0,158.95692454703587)"><line x2="1825" y2="0"></line><text dy=".32em" style="text-anchor: end;" x="-3" opacity="1" y="0">2.20s</text></g><g class="tick" style="opacity: 1;" transform="translate(0,125.77314839008311)"><line x2="1825" y2="0"></line><text dy=".32em" style="text-anchor: end;" x="-3" opacity="1" y="0">2.30s</text></g><g class="tick" style="opacity: 1;" transform="translate(0,92.58937223313015)"><line x2="1825" y2="0"></line><text dy=".32em" style="text-anchor: end;" x="-3" opacity="1" y="0">2.40s</text></g><g class="tick" style="opacity: 1;" transform="translate(0,59.40559607617718)"><line x2="1825" y2="0"></line><text dy=".32em" style="text-anchor: end;" x="-3" opacity="1" y="0">2.50s</text></g><g class="tick" style="opacity: 1;" transform="translate(0,26.22181991922432)"><line x2="1825" y2="0"></line><text dy=".32em" style="text-anchor: end;" x="-3" opacity="1" y="0">2.60s</text></g><path class="domain" d="M0,0H0V889H0"></path><text class="nv-axislabel" style="text-anchor: middle;" transform="rotate(-90)" y="-50" x="-444.5">Compilation time</text></g><g class="nv-axisMaxMin nv-axisMaxMin-y nv-axisMin-y" transform="translate(0,889)"><text style="opacity: 1;" dy=".32em" y="0" x="-3" text-anchor="end">0.00s</text></g><g class="nv-axisMaxMin nv-axisMaxMin-y nv-axisMax-y" transform="translate(0,0)"><text style="opacity: 1;" dy=".32em" y="0" x="-3" text-anchor="end">2.68s</text></g></g></g><g class="nv-linesWrap nvd3-svg"><g class="nvd3 nv-wrap nv-line" transform="translate(0,0)"><defs><clipPath id="nv-edge-clip-33470"><rect width="1825" height="889"></rect></clipPath></defs><g clip-path="url(#nv-edge-clip-33470)"><g class="nv-groups"><g style="stroke-opacity: 1; stroke-width: 1.5px; fill-opacity: 0.5; fill: rgb(31, 119, 180); stroke: rgb(31, 119, 180);" class="nv-group nv-series-0"><path class="nv-line" d="M0,884.0376981134893Q29.795918367346932,873.439961441124,37.24489795918367,870.4237221073378C48.418367346938766,865.8993631066584,63.31632653061223,858.5611858067504,74.48979591836734,853.875304775627S100.56122448979592,844.981090436055,111.73469387755102,839.1845152331823S137.80612244897958,820.5576154899927,148.97959183673467,815.231470089809S175.05102040816325,808.1936723316736,186.22448979591837,803.676879231958S212.29591836734696,790.0927022567953,223.46938775510205,785.1195160917051S249.54081632653063,776.2572577285724,260.7142857142857,770.5223047980232S286.7857142857142,752.1659026061769,297.95918367346934,746.8864965547103S324.03061224489795,741.323833789968,335.2040816326531,735.3262644549127S361.2755102040816,711.0770872931147,372.44897959183675,706.9027009876746S398.5204081632653,715.1675020529896,409.6938775510204,707.4970224186457S435.765306122449,662.3120183686572,446.9387755102041,655.7661700920486S473.01020408163265,663.2876545714478,484.18367346938777,663.8580339079216S510.2551020408163,662.8552367843465,521.4285714285714,659.5686990018738S547.5,645.9701534516353,558.6734693877551,641.9477820247703S584.7448979591836,634.8609884211392,595.9183673469387,632.7528894894402S621.9897959183672,634.2853826399206,633.1632653061224,627.8937891467776S659.2346938775511,598.2077157318722,670.4081632653061,590.1422662018201S696.4795918367347,578.9417628274518,707.6530612244898,574.1241256130974S733.7244897959184,561.8166944255736,744.8979591836735,558.0246847727901S770.969387755102,551.6328921769903,782.1428571428571,548.8440612612076S808.2142857142857,545.129651868967,819.3877551020408,539.4324786675725S845.4591836734695,515.0547143731663,856.6326530612246,510.8629065852439S882.7040816326531,515.8260380661586,893.8775510204082,511.4870934147562S919.9489795918367,489.64213061119375,931.1224489795918,481.9366089092281S957.1938775510205,464.019808792021,968.3673469387755,460.1169487349852S994.438775510204,460.9358745548746,1005.612244897959,455.9175418623228S1031.6836734693877,431.7498640547663,1042.857142857143,426.6613974513068S1068.9285714285713,426.63775401079505,1080.1020408163265,421.994431172593S1106.173469387755,401.62453699487133,1117.3469387755101,395.70591186329335S1143.4183673469388,386.05303344133307,1154.591836734694,382.5369302954066S1180.6632653061222,377.23910724817296,1191.8367346938774,372.26522422378343S1217.908163265306,353.9775788161343,1229.0816326530612,349.3777101328098S1255.1530612244896,344.21673697844733,1266.3265306122448,341.59943300162S1292.3979591836735,348.010040798501,1303.5714285714287,331.92901695396085S1329.642857142857,251.26640822017023,1340.8163265306123,234.3926073713524S1366.8877551020407,225.6729562862542,1378.061224489796,219.43701129517535S1404.1326530612243,200.54616779643317,1415.3061224489795,192.81964076416014S1441.3775510204082,176.4649005419893,1452.5510204081634,167.92683108002183S1478.6224489795918,140.52806557995083,1489.795918367347,135.8991776843771S1515.8673469387754,138.44556793155715,1527.0408163265306,137.06757844286355S1553.112244897959,132.11239447633844,1564.2857142857142,126.71258109308636S1590.3571428571427,107.04215114108901,1601.5306122448978,101.0688225545163S1627.6020408163265,91.19080880321916,1638.7755102040817,86.89039051593501S1664.8469387755101,76.3746011787894,1676.0204081632653,72.3993673059553S1702.091836734694,66.38913836029587,1713.2653061224491,60.388831363707574S1739.3367346938774,39.16546705511734,1750.5102040816325,32.397320662033344S1776.5816326530612,20.127453509119295,1787.7551020408164,15.267855409814294Q1795.2040816326532,12.02812334361096,1825,0"></path></g><g style="stroke-opacity: 1; stroke-width: 1.5px; fill-opacity: 0.5; fill: rgb(255, 127, 14); stroke: rgb(255, 127, 14);" class="nv-group nv-series-1"><path class="nv-line" d="M0,888.584539122515Q29.795918367346932,888.9100719666146,37.24489795918367,887.3577349179924C48.418367346938766,885.029229345059,63.31632653061223,874.5365193242304,74.48979591836734,873.0611686362923S100.56122448979592,875.2718552119804,111.73469387755102,877.5220636650715S137.80612244897958,887.7943172690013,148.97959183673467,888.0625583235661S175.05102040816325,881.375579446962,186.22448979591837,879.3103373621698S212.29591836734696,875.0143325171144,223.46938775510205,874.2942777582847S249.54081632653063,874.5932967652351,260.7142857142857,874.509972303305S286.7857142857142,874.9509183208785,297.95918367346934,873.7387813454174S324.03061224489795,867.3186498047794,335.2040816326531,866.4290591335638S361.2755102040816,868.6188731140493,372.44897959183675,867.8081768706468S398.5204081632653,861.4749868235399,409.6938775510204,861.0244175108808S435.765306122449,864.8371836156505,446.9387755102041,864.8043814529193S473.01020408163265,861.7939824637367,484.18367346938777,860.8057364260065S510.2551020408163,858.7108944128823,521.4285714285714,858.2160745347179S547.5,857.9209214376899,558.6734693877551,857.5069372382438S584.7448979591836,855.3641446685729,595.9183673469387,855.4561798717442S621.9897959183672,859.2086510552367,633.1632653061224,858.1205052593859S659.2346938775511,849.5841945375548,670.4081632653061,848.2018745660727S696.4795918367347,849.0982181357361,707.6530612244898,848.9050387828385S733.7244897959184,848.0009633933304,744.8979591836735,846.9140122134213S770.969387755102,842.3032924352934,782.1428571428571,841.6586975834447S808.2142857142857,843.3283060970057,819.3877551020408,842.616713201096S845.4591836734695,837.1357986689162,856.6326530612246,836.9147449440467S882.7040816326531,842.0591925778831,893.8775510204082,841.1430217019657S919.9489795918367,832.0086729662338,931.1224489795918,830.8069391045979S957.1938775510205,832.8325099849944,968.3673469387755,833.1314626243925S994.438775510204,833.2842241379311,1005.612244897959,832.7999567005846S1031.6836734693877,830.54183391688,1042.857142857143,829.9030130420825S1068.9285714285713,829.5046086255422,1080.1020408163265,828.5411508686012S1106.173469387755,824.4685060208584,1117.3469387755101,823.4799613291427S1143.4183673469388,822.8961923389896,1154.591836734694,821.9508529238303S1180.6632653061222,817.546187803749,1191.8367346938774,817.1776985614142S1217.908163265306,819.9422887287143,1229.0816326530612,819.4942579749312S1255.1530612244896,815.0609552560265,1266.3265306122448,814.190826869527S1292.3979591836735,814.5633313487767,1303.5714285714287,813.6934020649342S1329.642857142857,810.0076634552933,1340.8163265306123,808.3912983105762S1366.8877551020407,803.1587975267075,1378.061224489796,802.9176344334869S1404.1326530612243,806.4376034893357,1415.3061224489795,806.7835443557719S1441.3775510204082,805.5754723928899,1452.5510204081634,805.2239068763951S1478.6224489795918,805.8274202133616,1489.795918367347,804.4397742458063S1515.8673469387754,797.6734197766348,1527.0408163265306,795.9729337593598S1553.112244897959,793.912652649103,1564.2857142857142,793.1032007973065S1590.3571428571427,790.1201452396772,1601.5306122448978,790.5765880807161S1627.6020408163265,796.2093183888138,1638.7755102040817,796.146153070899S1664.8469387755101,792.0818539428597,1676.0204081632653,790.1554859612843S1702.091836734694,783.6133044919412,1713.2653061224491,783.3036998603968S1739.3367346938774,787.4420817687065,1750.5102040816325,788.091455084322S1776.5816326530612,788.6986518204419,1787.7551020408164,787.6328552978329Q1795.2040816326532,786.9223242827602,1825,780.9861449335951"></path></g><g style="stroke-opacity: 1; stroke-width: 1.5px; fill-opacity: 0.5; fill: rgb(44, 160, 44); stroke: rgb(44, 160, 44);" class="nv-group nv-series-2"><path class="nv-line" d="M0,877.7998118715053Q29.795918367346932,883.4077704907019,37.24489795918367,883.9656893192287C48.418367346938766,884.8025675620189,63.31632653061223,885.530951448664,74.48979591836734,883.3790001567737S100.56122448979592,870.7504495673792,111.73469387755102,869.6193473732933S137.80612244897958,875.1662976200251,148.97959183673467,875.8383188628677S175.05102040816325,873.0290633328605,186.22448979591837,874.0994889922434S212.29591836734696,883.8874253831626,223.46938775510205,882.9744899254206S249.54081632653063,871.2247784637667,260.7142857142857,868.0132526072967S286.7857142857142,862.399553194825,297.95918367346934,861.5643175489545S324.03061224489795,862.5499420683683,335.2040816326531,862.44501496816S361.2755102040816,862.3619559764392,372.44897959183675,860.8648035475659S398.5204081632653,853.3777804197057,409.6938775510204,852.4639987756717S435.765306122449,855.0621723055445,446.9387755102041,854.7729259206725S473.01020408163265,851.4979029085263,484.18367346938777,850.5356895431912S510.2551020408163,849.1013705944711,521.4285714285714,848.3581701517719S547.5,846.0352228613448,558.6734693877551,845.5810199251965S584.7448979591836,845.9905243148614,595.9183673469387,845.33015057745S621.9897959183672,842.3178435211383,633.1632653061224,841.1785283424535S659.2346938775511,839.1265929519003,670.4081632653061,837.734716052885S696.4795918367347,832.6833157273928,707.6530612244898,831.8993490156848S733.7244897959184,832.7045865279094,744.8979591836735,832.5082713081649S770.969387755102,832.1548309083173,782.1428571428571,830.5905808840547S808.2142857142857,823.9571274383916,819.3877551020408,822.0799378130808S845.4591836734695,818.1055501265388,856.6326530612246,818.075983381983S882.7040816326531,821.7290691558854,893.8775510204082,821.8828261827086S919.9489795918367,820.72152675232,931.1224489795918,819.1010302274713S957.1938775510205,812.6959309374323,968.3673469387755,811.079516017051S994.438775510204,808.7196517756493,1005.612244897959,808.3249307582623S1031.6836734693877,809.6347939545058,1042.857142857143,808.4480425678047S1068.9285714285713,801.9989581824697,1080.1020408163265,800.4132548469216S1106.173469387755,798.8342712260453,1117.3469387755101,797.8766869974842S1143.4183673469388,793.9346866764713,1154.591836734694,794.0293599898471S1180.6632653061222,798.2421896999649,1191.8367346938774,798.5078424199894S1217.908163265306,796.6594065367187,1229.0816326530612,795.8003781233436S1255.1530612244896,793.5676409283992,1266.3265306122448,792.7809863308224S1292.3979591836735,791.3578503146673,1303.5714285714287,790.5560141394988S1329.642857142857,787.9910077938948,1340.8163265306123,787.435411829699S1366.8877551020407,787.7471070391412,1378.061224489796,786.8520410448597S1404.1326530612243,782.443062033878,1415.3061224489795,781.4683052011557S1441.3775510204082,780.2917412337348,1452.5510204081634,780.3536621600437S1478.6224489795918,783.8839845540533,1489.795918367347,781.8811113765481S1515.8673469387754,768.871046912677,1527.0408163265306,767.0011743100089S1553.112244897959,769.1745291375205,1564.2857142857142,769.4152940254273S1590.3571428571427,767.8166324252899,1601.5306122448978,768.6062735627207S1627.6020408163265,776.2726881844853,1638.7755102040817,774.6795682749662S1664.8469387755101,760.1551455942845,1676.0204081632653,757.9854741659263S1702.091836734694,761.1454490261365,1713.2653061224491,760.215092085912S1739.3367346938774,752.4543193966451,1750.5102040816325,751.7830945644304S1776.5816326530612,756.677734731357,1787.7551020408164,755.7402598711469Q1795.2040816326532,755.1152766310069,1825,745.5332621630298"></path></g></g><g class="nv-scatterWrap nvd3-svg" clip-path="url(#nv-edge-clip-33470)"><g class="nvd3 nv-wrap nv-scatter nv-chart-33470" transform="translate(0,0)"><defs><clipPath id="nv-edge-clip-33470"><rect transform="translate( -10, -10)" width="1845" height="909"></rect></clipPath></defs><g clip-path=""><g class="nv-groups"><g style="stroke-opacity: 1; fill-opacity: 0.5; fill: rgb(31, 119, 180); stroke: rgb(31, 119, 180);" class="nv-group nv-series-0 nv-noninteractive"><path class="nv-point nv-point-0" transform="translate(0,884.0376981134893)" d="M0,2.256758334191025A2.256758334191025,2.256758334191025 0 1,1 0,-2.256758334191025A2.256758334191025,2.256758334191025 0 1,1 0,2.256758334191025Z"></path><path class="nv-point nv-point-1" transform="translate(37.24489795918367,870.4237221073378)" d="M0,2.256758334191025A2.256758334191025,2.256758334191025 0 1,1 0,-2.256758334191025A2.256758334191025,2.256758334191025 0 1,1 0,2.256758334191025Z"></path><path class="nv-point nv-point-2" transform="translate(74.48979591836734,853.875304775627)" d="M0,2.256758334191025A2.256758334191025,2.256758334191025 0 1,1 0,-2.256758334191025A2.256758334191025,2.256758334191025 0 1,1 0,2.256758334191025Z"></path><path class="nv-point nv-point-3" transform="translate(111.73469387755102,839.1845152331823)" d="M0,2.256758334191025A2.256758334191025,2.256758334191025 0 1,1 0,-2.256758334191025A2.256758334191025,2.256758334191025 0 1,1 0,2.256758334191025Z"></path><path class="nv-point nv-point-4" transform="translate(148.97959183673467,815.231470089809)" d="M0,2.256758334191025A2.256758334191025,2.256758334191025 0 1,1 0,-2.256758334191025A2.256758334191025,2.256758334191025 0 1,1 0,2.256758334191025Z"></path><path class="nv-point nv-point-5" transform="translate(186.22448979591837,803.676879231958)" d="M0,2.256758334191025A2.256758334191025,2.256758334191025 0 1,1 0,-2.256758334191025A2.256758334191025,2.256758334191025 0 1,1 0,2.256758334191025Z"></path><path class="nv-point nv-point-6" transform="translate(223.46938775510205,785.1195160917051)" d="M0,2.256758334191025A2.256758334191025,2.256758334191025 0 1,1 0,-2.256758334191025A2.256758334191025,2.256758334191025 0 1,1 0,2.256758334191025Z"></path><path class="nv-point nv-point-7" transform="translate(260.7142857142857,770.5223047980232)" d="M0,2.256758334191025A2.256758334191025,2.256758334191025 0 1,1 0,-2.256758334191025A2.256758334191025,2.256758334191025 0 1,1 0,2.256758334191025Z"></path><path class="nv-point nv-point-8" transform="translate(297.95918367346934,746.8864965547103)" d="M0,2.256758334191025A2.256758334191025,2.256758334191025 0 1,1 0,-2.256758334191025A2.256758334191025,2.256758334191025 0 1,1 0,2.256758334191025Z"></path><path class="nv-point nv-point-9" transform="translate(335.2040816326531,735.3262644549127)" d="M0,2.256758334191025A2.256758334191025,2.256758334191025 0 1,1 0,-2.256758334191025A2.256758334191025,2.256758334191025 0 1,1 0,2.256758334191025Z"></path><path class="nv-point nv-point-10" transform="translate(372.44897959183675,706.9027009876746)" d="M0,2.256758334191025A2.256758334191025,2.256758334191025 0 1,1 0,-2.256758334191025A2.256758334191025,2.256758334191025 0 1,1 0,2.256758334191025Z"></path><path class="nv-point nv-point-11" transform="translate(409.6938775510204,707.4970224186457)" d="M0,2.256758334191025A2.256758334191025,2.256758334191025 0 1,1 0,-2.256758334191025A2.256758334191025,2.256758334191025 0 1,1 0,2.256758334191025Z"></path><path class="nv-point nv-point-12" transform="translate(446.9387755102041,655.7661700920486)" d="M0,2.256758334191025A2.256758334191025,2.256758334191025 0 1,1 0,-2.256758334191025A2.256758334191025,2.256758334191025 0 1,1 0,2.256758334191025Z"></path><path class="nv-point nv-point-13" transform="translate(484.18367346938777,663.8580339079216)" d="M0,2.256758334191025A2.256758334191025,2.256758334191025 0 1,1 0,-2.256758334191025A2.256758334191025,2.256758334191025 0 1,1 0,2.256758334191025Z"></path><path class="nv-point nv-point-14" transform="translate(521.4285714285714,659.5686990018738)" d="M0,2.256758334191025A2.256758334191025,2.256758334191025 0 1,1 0,-2.256758334191025A2.256758334191025,2.256758334191025 0 1,1 0,2.256758334191025Z"></path><path class="nv-point nv-point-15" transform="translate(558.6734693877551,641.9477820247703)" d="M0,2.256758334191025A2.256758334191025,2.256758334191025 0 1,1 0,-2.256758334191025A2.256758334191025,2.256758334191025 0 1,1 0,2.256758334191025Z"></path><path class="nv-point nv-point-16" transform="translate(595.9183673469387,632.7528894894402)" d="M0,2.256758334191025A2.256758334191025,2.256758334191025 0 1,1 0,-2.256758334191025A2.256758334191025,2.256758334191025 0 1,1 0,2.256758334191025Z"></path><path class="nv-point nv-point-17" transform="translate(633.1632653061224,627.8937891467776)" d="M0,2.256758334191025A2.256758334191025,2.256758334191025 0 1,1 0,-2.256758334191025A2.256758334191025,2.256758334191025 0 1,1 0,2.256758334191025Z"></path><path class="nv-point nv-point-18" transform="translate(670.4081632653061,590.1422662018201)" d="M0,2.256758334191025A2.256758334191025,2.256758334191025 0 1,1 0,-2.256758334191025A2.256758334191025,2.256758334191025 0 1,1 0,2.256758334191025Z"></path><path class="nv-point nv-point-19" transform="translate(707.6530612244898,574.1241256130974)" d="M0,2.256758334191025A2.256758334191025,2.256758334191025 0 1,1 0,-2.256758334191025A2.256758334191025,2.256758334191025 0 1,1 0,2.256758334191025Z"></path><path class="nv-point nv-point-20" transform="translate(744.8979591836735,558.0246847727901)" d="M0,2.256758334191025A2.256758334191025,2.256758334191025 0 1,1 0,-2.256758334191025A2.256758334191025,2.256758334191025 0 1,1 0,2.256758334191025Z"></path><path class="nv-point nv-point-21" transform="translate(782.1428571428571,548.8440612612076)" d="M0,2.256758334191025A2.256758334191025,2.256758334191025 0 1,1 0,-2.256758334191025A2.256758334191025,2.256758334191025 0 1,1 0,2.256758334191025Z"></path><path class="nv-point nv-point-22" transform="translate(819.3877551020408,539.4324786675725)" d="M0,2.256758334191025A2.256758334191025,2.256758334191025 0 1,1 0,-2.256758334191025A2.256758334191025,2.256758334191025 0 1,1 0,2.256758334191025Z"></path><path class="nv-point nv-point-23" transform="translate(856.6326530612246,510.8629065852439)" d="M0,2.256758334191025A2.256758334191025,2.256758334191025 0 1,1 0,-2.256758334191025A2.256758334191025,2.256758334191025 0 1,1 0,2.256758334191025Z"></path><path class="nv-point nv-point-24" transform="translate(893.8775510204082,511.4870934147562)" d="M0,2.256758334191025A2.256758334191025,2.256758334191025 0 1,1 0,-2.256758334191025A2.256758334191025,2.256758334191025 0 1,1 0,2.256758334191025Z"></path><path class="nv-point nv-point-25" transform="translate(931.1224489795918,481.9366089092281)" d="M0,2.256758334191025A2.256758334191025,2.256758334191025 0 1,1 0,-2.256758334191025A2.256758334191025,2.256758334191025 0 1,1 0,2.256758334191025Z"></path><path class="nv-point nv-point-26" transform="translate(968.3673469387755,460.1169487349852)" d="M0,2.256758334191025A2.256758334191025,2.256758334191025 0 1,1 0,-2.256758334191025A2.256758334191025,2.256758334191025 0 1,1 0,2.256758334191025Z"></path><path class="nv-point nv-point-27" transform="translate(1005.612244897959,455.9175418623228)" d="M0,2.256758334191025A2.256758334191025,2.256758334191025 0 1,1 0,-2.256758334191025A2.256758334191025,2.256758334191025 0 1,1 0,2.256758334191025Z"></path><path class="nv-point nv-point-28" transform="translate(1042.857142857143,426.6613974513068)" d="M0,2.256758334191025A2.256758334191025,2.256758334191025 0 1,1 0,-2.256758334191025A2.256758334191025,2.256758334191025 0 1,1 0,2.256758334191025Z"></path><path class="nv-point nv-point-29" transform="translate(1080.1020408163265,421.994431172593)" d="M0,2.256758334191025A2.256758334191025,2.256758334191025 0 1,1 0,-2.256758334191025A2.256758334191025,2.256758334191025 0 1,1 0,2.256758334191025Z"></path><path class="nv-point nv-point-30" transform="translate(1117.3469387755101,395.70591186329335)" d="M0,2.256758334191025A2.256758334191025,2.256758334191025 0 1,1 0,-2.256758334191025A2.256758334191025,2.256758334191025 0 1,1 0,2.256758334191025Z"></path><path class="nv-point nv-point-31" transform="translate(1154.591836734694,382.5369302954066)" d="M0,2.256758334191025A2.256758334191025,2.256758334191025 0 1,1 0,-2.256758334191025A2.256758334191025,2.256758334191025 0 1,1 0,2.256758334191025Z"></path><path class="nv-point nv-point-32" transform="translate(1191.8367346938774,372.26522422378343)" d="M0,2.256758334191025A2.256758334191025,2.256758334191025 0 1,1 0,-2.256758334191025A2.256758334191025,2.256758334191025 0 1,1 0,2.256758334191025Z"></path><path class="nv-point nv-point-33" transform="translate(1229.0816326530612,349.3777101328098)" d="M0,2.256758334191025A2.256758334191025,2.256758334191025 0 1,1 0,-2.256758334191025A2.256758334191025,2.256758334191025 0 1,1 0,2.256758334191025Z"></path><path class="nv-point nv-point-34" transform="translate(1266.3265306122448,341.59943300162)" d="M0,2.256758334191025A2.256758334191025,2.256758334191025 0 1,1 0,-2.256758334191025A2.256758334191025,2.256758334191025 0 1,1 0,2.256758334191025Z"></path><path class="nv-point nv-point-35" transform="translate(1303.5714285714287,331.92901695396085)" d="M0,2.256758334191025A2.256758334191025,2.256758334191025 0 1,1 0,-2.256758334191025A2.256758334191025,2.256758334191025 0 1,1 0,2.256758334191025Z"></path><path class="nv-point nv-point-36" transform="translate(1340.8163265306123,234.3926073713524)" d="M0,2.256758334191025A2.256758334191025,2.256758334191025 0 1,1 0,-2.256758334191025A2.256758334191025,2.256758334191025 0 1,1 0,2.256758334191025Z"></path><path class="nv-point nv-point-37" transform="translate(1378.061224489796,219.43701129517535)" d="M0,2.256758334191025A2.256758334191025,2.256758334191025 0 1,1 0,-2.256758334191025A2.256758334191025,2.256758334191025 0 1,1 0,2.256758334191025Z"></path><path class="nv-point nv-point-38" transform="translate(1415.3061224489795,192.81964076416014)" d="M0,2.256758334191025A2.256758334191025,2.256758334191025 0 1,1 0,-2.256758334191025A2.256758334191025,2.256758334191025 0 1,1 0,2.256758334191025Z"></path><path class="nv-point nv-point-39" transform="translate(1452.5510204081634,167.92683108002183)" d="M0,2.256758334191025A2.256758334191025,2.256758334191025 0 1,1 0,-2.256758334191025A2.256758334191025,2.256758334191025 0 1,1 0,2.256758334191025Z"></path><path class="nv-point nv-point-40" transform="translate(1489.795918367347,135.8991776843771)" d="M0,2.256758334191025A2.256758334191025,2.256758334191025 0 1,1 0,-2.256758334191025A2.256758334191025,2.256758334191025 0 1,1 0,2.256758334191025Z"></path><path class="nv-point nv-point-41" transform="translate(1527.0408163265306,137.06757844286355)" d="M0,2.256758334191025A2.256758334191025,2.256758334191025 0 1,1 0,-2.256758334191025A2.256758334191025,2.256758334191025 0 1,1 0,2.256758334191025Z"></path><path class="nv-point nv-point-42" transform="translate(1564.2857142857142,126.71258109308636)" d="M0,2.256758334191025A2.256758334191025,2.256758334191025 0 1,1 0,-2.256758334191025A2.256758334191025,2.256758334191025 0 1,1 0,2.256758334191025Z"></path><path class="nv-point nv-point-43" transform="translate(1601.5306122448978,101.0688225545163)" d="M0,2.256758334191025A2.256758334191025,2.256758334191025 0 1,1 0,-2.256758334191025A2.256758334191025,2.256758334191025 0 1,1 0,2.256758334191025Z"></path><path class="nv-point nv-point-44" transform="translate(1638.7755102040817,86.89039051593501)" d="M0,2.256758334191025A2.256758334191025,2.256758334191025 0 1,1 0,-2.256758334191025A2.256758334191025,2.256758334191025 0 1,1 0,2.256758334191025Z"></path><path class="nv-point nv-point-45" transform="translate(1676.0204081632653,72.3993673059553)" d="M0,2.256758334191025A2.256758334191025,2.256758334191025 0 1,1 0,-2.256758334191025A2.256758334191025,2.256758334191025 0 1,1 0,2.256758334191025Z"></path><path class="nv-point nv-point-46" transform="translate(1713.2653061224491,60.388831363707574)" d="M0,2.256758334191025A2.256758334191025,2.256758334191025 0 1,1 0,-2.256758334191025A2.256758334191025,2.256758334191025 0 1,1 0,2.256758334191025Z"></path><path class="nv-point nv-point-47" transform="translate(1750.5102040816325,32.397320662033344)" d="M0,2.256758334191025A2.256758334191025,2.256758334191025 0 1,1 0,-2.256758334191025A2.256758334191025,2.256758334191025 0 1,1 0,2.256758334191025Z"></path><path class="nv-point nv-point-48" transform="translate(1787.7551020408164,15.267855409814294)" d="M0,2.256758334191025A2.256758334191025,2.256758334191025 0 1,1 0,-2.256758334191025A2.256758334191025,2.256758334191025 0 1,1 0,2.256758334191025Z"></path><path class="nv-point nv-point-49" transform="translate(1825,0)" d="M0,2.256758334191025A2.256758334191025,2.256758334191025 0 1,1 0,-2.256758334191025A2.256758334191025,2.256758334191025 0 1,1 0,2.256758334191025Z"></path></g><g style="stroke-opacity: 1; fill-opacity: 0.5; fill: rgb(255, 127, 14); stroke: rgb(255, 127, 14);" class="nv-group nv-series-1 nv-noninteractive"><path class="nv-point nv-point-0" transform="translate(0,888.584539122515)" d="M0,2.256758334191025A2.256758334191025,2.256758334191025 0 1,1 0,-2.256758334191025A2.256758334191025,2.256758334191025 0 1,1 0,2.256758334191025Z"></path><path class="nv-point nv-point-1" transform="translate(37.24489795918367,887.3577349179924)" d="M0,2.256758334191025A2.256758334191025,2.256758334191025 0 1,1 0,-2.256758334191025A2.256758334191025,2.256758334191025 0 1,1 0,2.256758334191025Z"></path><path class="nv-point nv-point-2" transform="translate(74.48979591836734,873.0611686362923)" d="M0,2.256758334191025A2.256758334191025,2.256758334191025 0 1,1 0,-2.256758334191025A2.256758334191025,2.256758334191025 0 1,1 0,2.256758334191025Z"></path><path class="nv-point nv-point-3" transform="translate(111.73469387755102,877.5220636650715)" d="M0,2.256758334191025A2.256758334191025,2.256758334191025 0 1,1 0,-2.256758334191025A2.256758334191025,2.256758334191025 0 1,1 0,2.256758334191025Z"></path><path class="nv-point nv-point-4" transform="translate(148.97959183673467,888.0625583235661)" d="M0,2.256758334191025A2.256758334191025,2.256758334191025 0 1,1 0,-2.256758334191025A2.256758334191025,2.256758334191025 0 1,1 0,2.256758334191025Z"></path><path class="nv-point nv-point-5" transform="translate(186.22448979591837,879.3103373621698)" d="M0,2.256758334191025A2.256758334191025,2.256758334191025 0 1,1 0,-2.256758334191025A2.256758334191025,2.256758334191025 0 1,1 0,2.256758334191025Z"></path><path class="nv-point nv-point-6" transform="translate(223.46938775510205,874.2942777582847)" d="M0,2.256758334191025A2.256758334191025,2.256758334191025 0 1,1 0,-2.256758334191025A2.256758334191025,2.256758334191025 0 1,1 0,2.256758334191025Z"></path><path class="nv-point nv-point-7" transform="translate(260.7142857142857,874.509972303305)" d="M0,2.256758334191025A2.256758334191025,2.256758334191025 0 1,1 0,-2.256758334191025A2.256758334191025,2.256758334191025 0 1,1 0,2.256758334191025Z"></path><path class="nv-point nv-point-8" transform="translate(297.95918367346934,873.7387813454174)" d="M0,2.256758334191025A2.256758334191025,2.256758334191025 0 1,1 0,-2.256758334191025A2.256758334191025,2.256758334191025 0 1,1 0,2.256758334191025Z"></path><path class="nv-point nv-point-9" transform="translate(335.2040816326531,866.4290591335638)" d="M0,2.256758334191025A2.256758334191025,2.256758334191025 0 1,1 0,-2.256758334191025A2.256758334191025,2.256758334191025 0 1,1 0,2.256758334191025Z"></path><path class="nv-point nv-point-10" transform="translate(372.44897959183675,867.8081768706468)" d="M0,2.256758334191025A2.256758334191025,2.256758334191025 0 1,1 0,-2.256758334191025A2.256758334191025,2.256758334191025 0 1,1 0,2.256758334191025Z"></path><path class="nv-point nv-point-11" transform="translate(409.6938775510204,861.0244175108808)" d="M0,2.256758334191025A2.256758334191025,2.256758334191025 0 1,1 0,-2.256758334191025A2.256758334191025,2.256758334191025 0 1,1 0,2.256758334191025Z"></path><path class="nv-point nv-point-12" transform="translate(446.9387755102041,864.8043814529193)" d="M0,2.256758334191025A2.256758334191025,2.256758334191025 0 1,1 0,-2.256758334191025A2.256758334191025,2.256758334191025 0 1,1 0,2.256758334191025Z"></path><path class="nv-point nv-point-13" transform="translate(484.18367346938777,860.8057364260065)" d="M0,2.256758334191025A2.256758334191025,2.256758334191025 0 1,1 0,-2.256758334191025A2.256758334191025,2.256758334191025 0 1,1 0,2.256758334191025Z"></path><path class="nv-point nv-point-14" transform="translate(521.4285714285714,858.2160745347179)" d="M0,2.256758334191025A2.256758334191025,2.256758334191025 0 1,1 0,-2.256758334191025A2.256758334191025,2.256758334191025 0 1,1 0,2.256758334191025Z"></path><path class="nv-point nv-point-15" transform="translate(558.6734693877551,857.5069372382438)" d="M0,2.256758334191025A2.256758334191025,2.256758334191025 0 1,1 0,-2.256758334191025A2.256758334191025,2.256758334191025 0 1,1 0,2.256758334191025Z"></path><path class="nv-point nv-point-16" transform="translate(595.9183673469387,855.4561798717442)" d="M0,2.256758334191025A2.256758334191025,2.256758334191025 0 1,1 0,-2.256758334191025A2.256758334191025,2.256758334191025 0 1,1 0,2.256758334191025Z"></path><path class="nv-point nv-point-17" transform="translate(633.1632653061224,858.1205052593859)" d="M0,2.256758334191025A2.256758334191025,2.256758334191025 0 1,1 0,-2.256758334191025A2.256758334191025,2.256758334191025 0 1,1 0,2.256758334191025Z"></path><path class="nv-point nv-point-18" transform="translate(670.4081632653061,848.2018745660727)" d="M0,2.256758334191025A2.256758334191025,2.256758334191025 0 1,1 0,-2.256758334191025A2.256758334191025,2.256758334191025 0 1,1 0,2.256758334191025Z"></path><path class="nv-point nv-point-19" transform="translate(707.6530612244898,848.9050387828385)" d="M0,2.256758334191025A2.256758334191025,2.256758334191025 0 1,1 0,-2.256758334191025A2.256758334191025,2.256758334191025 0 1,1 0,2.256758334191025Z"></path><path class="nv-point nv-point-20" transform="translate(744.8979591836735,846.9140122134213)" d="M0,2.256758334191025A2.256758334191025,2.256758334191025 0 1,1 0,-2.256758334191025A2.256758334191025,2.256758334191025 0 1,1 0,2.256758334191025Z"></path><path class="nv-point nv-point-21" transform="translate(782.1428571428571,841.6586975834447)" d="M0,2.256758334191025A2.256758334191025,2.256758334191025 0 1,1 0,-2.256758334191025A2.256758334191025,2.256758334191025 0 1,1 0,2.256758334191025Z"></path><path class="nv-point nv-point-22" transform="translate(819.3877551020408,842.616713201096)" d="M0,2.256758334191025A2.256758334191025,2.256758334191025 0 1,1 0,-2.256758334191025A2.256758334191025,2.256758334191025 0 1,1 0,2.256758334191025Z"></path><path class="nv-point nv-point-23" transform="translate(856.6326530612246,836.9147449440467)" d="M0,2.256758334191025A2.256758334191025,2.256758334191025 0 1,1 0,-2.256758334191025A2.256758334191025,2.256758334191025 0 1,1 0,2.256758334191025Z"></path><path class="nv-point nv-point-24" transform="translate(893.8775510204082,841.1430217019657)" d="M0,2.256758334191025A2.256758334191025,2.256758334191025 0 1,1 0,-2.256758334191025A2.256758334191025,2.256758334191025 0 1,1 0,2.256758334191025Z"></path><path class="nv-point nv-point-25" transform="translate(931.1224489795918,830.8069391045979)" d="M0,2.256758334191025A2.256758334191025,2.256758334191025 0 1,1 0,-2.256758334191025A2.256758334191025,2.256758334191025 0 1,1 0,2.256758334191025Z"></path><path class="nv-point nv-point-26" transform="translate(968.3673469387755,833.1314626243925)" d="M0,2.256758334191025A2.256758334191025,2.256758334191025 0 1,1 0,-2.256758334191025A2.256758334191025,2.256758334191025 0 1,1 0,2.256758334191025Z"></path><path class="nv-point nv-point-27" transform="translate(1005.612244897959,832.7999567005846)" d="M0,2.256758334191025A2.256758334191025,2.256758334191025 0 1,1 0,-2.256758334191025A2.256758334191025,2.256758334191025 0 1,1 0,2.256758334191025Z"></path><path class="nv-point nv-point-28" transform="translate(1042.857142857143,829.9030130420825)" d="M0,2.256758334191025A2.256758334191025,2.256758334191025 0 1,1 0,-2.256758334191025A2.256758334191025,2.256758334191025 0 1,1 0,2.256758334191025Z"></path><path class="nv-point nv-point-29" transform="translate(1080.1020408163265,828.5411508686012)" d="M0,2.256758334191025A2.256758334191025,2.256758334191025 0 1,1 0,-2.256758334191025A2.256758334191025,2.256758334191025 0 1,1 0,2.256758334191025Z"></path><path class="nv-point nv-point-30" transform="translate(1117.3469387755101,823.4799613291427)" d="M0,2.256758334191025A2.256758334191025,2.256758334191025 0 1,1 0,-2.256758334191025A2.256758334191025,2.256758334191025 0 1,1 0,2.256758334191025Z"></path><path class="nv-point nv-point-31" transform="translate(1154.591836734694,821.9508529238303)" d="M0,2.256758334191025A2.256758334191025,2.256758334191025 0 1,1 0,-2.256758334191025A2.256758334191025,2.256758334191025 0 1,1 0,2.256758334191025Z"></path><path class="nv-point nv-point-32" transform="translate(1191.8367346938774,817.1776985614142)" d="M0,2.256758334191025A2.256758334191025,2.256758334191025 0 1,1 0,-2.256758334191025A2.256758334191025,2.256758334191025 0 1,1 0,2.256758334191025Z"></path><path class="nv-point nv-point-33" transform="translate(1229.0816326530612,819.4942579749312)" d="M0,2.256758334191025A2.256758334191025,2.256758334191025 0 1,1 0,-2.256758334191025A2.256758334191025,2.256758334191025 0 1,1 0,2.256758334191025Z"></path><path class="nv-point nv-point-34" transform="translate(1266.3265306122448,814.190826869527)" d="M0,2.256758334191025A2.256758334191025,2.256758334191025 0 1,1 0,-2.256758334191025A2.256758334191025,2.256758334191025 0 1,1 0,2.256758334191025Z"></path><path class="nv-point nv-point-35" transform="translate(1303.5714285714287,813.6934020649342)" d="M0,2.256758334191025A2.256758334191025,2.256758334191025 0 1,1 0,-2.256758334191025A2.256758334191025,2.256758334191025 0 1,1 0,2.256758334191025Z"></path><path class="nv-point nv-point-36" transform="translate(1340.8163265306123,808.3912983105762)" d="M0,2.256758334191025A2.256758334191025,2.256758334191025 0 1,1 0,-2.256758334191025A2.256758334191025,2.256758334191025 0 1,1 0,2.256758334191025Z"></path><path class="nv-point nv-point-37" transform="translate(1378.061224489796,802.9176344334869)" d="M0,2.256758334191025A2.256758334191025,2.256758334191025 0 1,1 0,-2.256758334191025A2.256758334191025,2.256758334191025 0 1,1 0,2.256758334191025Z"></path><path class="nv-point nv-point-38" transform="translate(1415.3061224489795,806.7835443557719)" d="M0,2.256758334191025A2.256758334191025,2.256758334191025 0 1,1 0,-2.256758334191025A2.256758334191025,2.256758334191025 0 1,1 0,2.256758334191025Z"></path><path class="nv-point nv-point-39" transform="translate(1452.5510204081634,805.2239068763951)" d="M0,2.256758334191025A2.256758334191025,2.256758334191025 0 1,1 0,-2.256758334191025A2.256758334191025,2.256758334191025 0 1,1 0,2.256758334191025Z"></path><path class="nv-point nv-point-40" transform="translate(1489.795918367347,804.4397742458063)" d="M0,2.256758334191025A2.256758334191025,2.256758334191025 0 1,1 0,-2.256758334191025A2.256758334191025,2.256758334191025 0 1,1 0,2.256758334191025Z"></path><path class="nv-point nv-point-41" transform="translate(1527.0408163265306,795.9729337593598)" d="M0,2.256758334191025A2.256758334191025,2.256758334191025 0 1,1 0,-2.256758334191025A2.256758334191025,2.256758334191025 0 1,1 0,2.256758334191025Z"></path><path class="nv-point nv-point-42" transform="translate(1564.2857142857142,793.1032007973065)" d="M0,2.256758334191025A2.256758334191025,2.256758334191025 0 1,1 0,-2.256758334191025A2.256758334191025,2.256758334191025 0 1,1 0,2.256758334191025Z"></path><path class="nv-point nv-point-43" transform="translate(1601.5306122448978,790.5765880807161)" d="M0,2.256758334191025A2.256758334191025,2.256758334191025 0 1,1 0,-2.256758334191025A2.256758334191025,2.256758334191025 0 1,1 0,2.256758334191025Z"></path><path class="nv-point nv-point-44" transform="translate(1638.7755102040817,796.146153070899)" d="M0,2.256758334191025A2.256758334191025,2.256758334191025 0 1,1 0,-2.256758334191025A2.256758334191025,2.256758334191025 0 1,1 0,2.256758334191025Z"></path><path class="nv-point nv-point-45" transform="translate(1676.0204081632653,790.1554859612843)" d="M0,2.256758334191025A2.256758334191025,2.256758334191025 0 1,1 0,-2.256758334191025A2.256758334191025,2.256758334191025 0 1,1 0,2.256758334191025Z"></path><path class="nv-point nv-point-46" transform="translate(1713.2653061224491,783.3036998603968)" d="M0,2.256758334191025A2.256758334191025,2.256758334191025 0 1,1 0,-2.256758334191025A2.256758334191025,2.256758334191025 0 1,1 0,2.256758334191025Z"></path><path class="nv-point nv-point-47" transform="translate(1750.5102040816325,788.091455084322)" d="M0,2.256758334191025A2.256758334191025,2.256758334191025 0 1,1 0,-2.256758334191025A2.256758334191025,2.256758334191025 0 1,1 0,2.256758334191025Z"></path><path class="nv-point nv-point-48" transform="translate(1787.7551020408164,787.6328552978329)" d="M0,2.256758334191025A2.256758334191025,2.256758334191025 0 1,1 0,-2.256758334191025A2.256758334191025,2.256758334191025 0 1,1 0,2.256758334191025Z"></path><path class="nv-point nv-point-49" transform="translate(1825,780.9861449335951)" d="M0,2.256758334191025A2.256758334191025,2.256758334191025 0 1,1 0,-2.256758334191025A2.256758334191025,2.256758334191025 0 1,1 0,2.256758334191025Z"></path></g><g style="stroke-opacity: 1; fill-opacity: 0.5; fill: rgb(44, 160, 44); stroke: rgb(44, 160, 44);" class="nv-group nv-series-2 nv-noninteractive"><path class="nv-point nv-point-0" transform="translate(0,877.7998118715053)" d="M0,2.256758334191025A2.256758334191025,2.256758334191025 0 1,1 0,-2.256758334191025A2.256758334191025,2.256758334191025 0 1,1 0,2.256758334191025Z"></path><path class="nv-point nv-point-1" transform="translate(37.24489795918367,883.9656893192287)" d="M0,2.256758334191025A2.256758334191025,2.256758334191025 0 1,1 0,-2.256758334191025A2.256758334191025,2.256758334191025 0 1,1 0,2.256758334191025Z"></path><path class="nv-point nv-point-2" transform="translate(74.48979591836734,883.3790001567737)" d="M0,2.256758334191025A2.256758334191025,2.256758334191025 0 1,1 0,-2.256758334191025A2.256758334191025,2.256758334191025 0 1,1 0,2.256758334191025Z"></path><path class="nv-point nv-point-3" transform="translate(111.73469387755102,869.6193473732933)" d="M0,2.256758334191025A2.256758334191025,2.256758334191025 0 1,1 0,-2.256758334191025A2.256758334191025,2.256758334191025 0 1,1 0,2.256758334191025Z"></path><path class="nv-point nv-point-4" transform="translate(148.97959183673467,875.8383188628677)" d="M0,2.256758334191025A2.256758334191025,2.256758334191025 0 1,1 0,-2.256758334191025A2.256758334191025,2.256758334191025 0 1,1 0,2.256758334191025Z"></path><path class="nv-point nv-point-5" transform="translate(186.22448979591837,874.0994889922434)" d="M0,2.256758334191025A2.256758334191025,2.256758334191025 0 1,1 0,-2.256758334191025A2.256758334191025,2.256758334191025 0 1,1 0,2.256758334191025Z"></path><path class="nv-point nv-point-6" transform="translate(223.46938775510205,882.9744899254206)" d="M0,2.256758334191025A2.256758334191025,2.256758334191025 0 1,1 0,-2.256758334191025A2.256758334191025,2.256758334191025 0 1,1 0,2.256758334191025Z"></path><path class="nv-point nv-point-7" transform="translate(260.7142857142857,868.0132526072967)" d="M0,2.256758334191025A2.256758334191025,2.256758334191025 0 1,1 0,-2.256758334191025A2.256758334191025,2.256758334191025 0 1,1 0,2.256758334191025Z"></path><path class="nv-point nv-point-8" transform="translate(297.95918367346934,861.5643175489545)" d="M0,2.256758334191025A2.256758334191025,2.256758334191025 0 1,1 0,-2.256758334191025A2.256758334191025,2.256758334191025 0 1,1 0,2.256758334191025Z"></path><path class="nv-point nv-point-9" transform="translate(335.2040816326531,862.44501496816)" d="M0,2.256758334191025A2.256758334191025,2.256758334191025 0 1,1 0,-2.256758334191025A2.256758334191025,2.256758334191025 0 1,1 0,2.256758334191025Z"></path><path class="nv-point nv-point-10" transform="translate(372.44897959183675,860.8648035475659)" d="M0,2.256758334191025A2.256758334191025,2.256758334191025 0 1,1 0,-2.256758334191025A2.256758334191025,2.256758334191025 0 1,1 0,2.256758334191025Z"></path><path class="nv-point nv-point-11" transform="translate(409.6938775510204,852.4639987756717)" d="M0,2.256758334191025A2.256758334191025,2.256758334191025 0 1,1 0,-2.256758334191025A2.256758334191025,2.256758334191025 0 1,1 0,2.256758334191025Z"></path><path class="nv-point nv-point-12" transform="translate(446.9387755102041,854.7729259206725)" d="M0,2.256758334191025A2.256758334191025,2.256758334191025 0 1,1 0,-2.256758334191025A2.256758334191025,2.256758334191025 0 1,1 0,2.256758334191025Z"></path><path class="nv-point nv-point-13" transform="translate(484.18367346938777,850.5356895431912)" d="M0,2.256758334191025A2.256758334191025,2.256758334191025 0 1,1 0,-2.256758334191025A2.256758334191025,2.256758334191025 0 1,1 0,2.256758334191025Z"></path><path class="nv-point nv-point-14" transform="translate(521.4285714285714,848.3581701517719)" d="M0,2.256758334191025A2.256758334191025,2.256758334191025 0 1,1 0,-2.256758334191025A2.256758334191025,2.256758334191025 0 1,1 0,2.256758334191025Z"></path><path class="nv-point nv-point-15" transform="translate(558.6734693877551,845.5810199251965)" d="M0,2.256758334191025A2.256758334191025,2.256758334191025 0 1,1 0,-2.256758334191025A2.256758334191025,2.256758334191025 0 1,1 0,2.256758334191025Z"></path><path class="nv-point nv-point-16" transform="translate(595.9183673469387,845.33015057745)" d="M0,2.256758334191025A2.256758334191025,2.256758334191025 0 1,1 0,-2.256758334191025A2.256758334191025,2.256758334191025 0 1,1 0,2.256758334191025Z"></path><path class="nv-point nv-point-17" transform="translate(633.1632653061224,841.1785283424535)" d="M0,2.256758334191025A2.256758334191025,2.256758334191025 0 1,1 0,-2.256758334191025A2.256758334191025,2.256758334191025 0 1,1 0,2.256758334191025Z"></path><path class="nv-point nv-point-18" transform="translate(670.4081632653061,837.734716052885)" d="M0,2.256758334191025A2.256758334191025,2.256758334191025 0 1,1 0,-2.256758334191025A2.256758334191025,2.256758334191025 0 1,1 0,2.256758334191025Z"></path><path class="nv-point nv-point-19" transform="translate(707.6530612244898,831.8993490156848)" d="M0,2.256758334191025A2.256758334191025,2.256758334191025 0 1,1 0,-2.256758334191025A2.256758334191025,2.256758334191025 0 1,1 0,2.256758334191025Z"></path><path class="nv-point nv-point-20" transform="translate(744.8979591836735,832.5082713081649)" d="M0,2.256758334191025A2.256758334191025,2.256758334191025 0 1,1 0,-2.256758334191025A2.256758334191025,2.256758334191025 0 1,1 0,2.256758334191025Z"></path><path class="nv-point nv-point-21" transform="translate(782.1428571428571,830.5905808840547)" d="M0,2.256758334191025A2.256758334191025,2.256758334191025 0 1,1 0,-2.256758334191025A2.256758334191025,2.256758334191025 0 1,1 0,2.256758334191025Z"></path><path class="nv-point nv-point-22" transform="translate(819.3877551020408,822.0799378130808)" d="M0,2.256758334191025A2.256758334191025,2.256758334191025 0 1,1 0,-2.256758334191025A2.256758334191025,2.256758334191025 0 1,1 0,2.256758334191025Z"></path><path class="nv-point nv-point-23" transform="translate(856.6326530612246,818.075983381983)" d="M0,2.256758334191025A2.256758334191025,2.256758334191025 0 1,1 0,-2.256758334191025A2.256758334191025,2.256758334191025 0 1,1 0,2.256758334191025Z"></path><path class="nv-point nv-point-24" transform="translate(893.8775510204082,821.8828261827086)" d="M0,2.256758334191025A2.256758334191025,2.256758334191025 0 1,1 0,-2.256758334191025A2.256758334191025,2.256758334191025 0 1,1 0,2.256758334191025Z"></path><path class="nv-point nv-point-25" transform="translate(931.1224489795918,819.1010302274713)" d="M0,2.256758334191025A2.256758334191025,2.256758334191025 0 1,1 0,-2.256758334191025A2.256758334191025,2.256758334191025 0 1,1 0,2.256758334191025Z"></path><path class="nv-point nv-point-26" transform="translate(968.3673469387755,811.079516017051)" d="M0,2.256758334191025A2.256758334191025,2.256758334191025 0 1,1 0,-2.256758334191025A2.256758334191025,2.256758334191025 0 1,1 0,2.256758334191025Z"></path><path class="nv-point nv-point-27" transform="translate(1005.612244897959,808.3249307582623)" d="M0,2.256758334191025A2.256758334191025,2.256758334191025 0 1,1 0,-2.256758334191025A2.256758334191025,2.256758334191025 0 1,1 0,2.256758334191025Z"></path><path class="nv-point nv-point-28" transform="translate(1042.857142857143,808.4480425678047)" d="M0,2.256758334191025A2.256758334191025,2.256758334191025 0 1,1 0,-2.256758334191025A2.256758334191025,2.256758334191025 0 1,1 0,2.256758334191025Z"></path><path class="nv-point nv-point-29" transform="translate(1080.1020408163265,800.4132548469216)" d="M0,2.256758334191025A2.256758334191025,2.256758334191025 0 1,1 0,-2.256758334191025A2.256758334191025,2.256758334191025 0 1,1 0,2.256758334191025Z"></path><path class="nv-point nv-point-30" transform="translate(1117.3469387755101,797.8766869974842)" d="M0,2.256758334191025A2.256758334191025,2.256758334191025 0 1,1 0,-2.256758334191025A2.256758334191025,2.256758334191025 0 1,1 0,2.256758334191025Z"></path><path class="nv-point nv-point-31" transform="translate(1154.591836734694,794.0293599898471)" d="M0,2.256758334191025A2.256758334191025,2.256758334191025 0 1,1 0,-2.256758334191025A2.256758334191025,2.256758334191025 0 1,1 0,2.256758334191025Z"></path><path class="nv-point nv-point-32" transform="translate(1191.8367346938774,798.5078424199894)" d="M0,2.256758334191025A2.256758334191025,2.256758334191025 0 1,1 0,-2.256758334191025A2.256758334191025,2.256758334191025 0 1,1 0,2.256758334191025Z"></path><path class="nv-point nv-point-33" transform="translate(1229.0816326530612,795.8003781233436)" d="M0,2.256758334191025A2.256758334191025,2.256758334191025 0 1,1 0,-2.256758334191025A2.256758334191025,2.256758334191025 0 1,1 0,2.256758334191025Z"></path><path class="nv-point nv-point-34" transform="translate(1266.3265306122448,792.7809863308224)" d="M0,2.256758334191025A2.256758334191025,2.256758334191025 0 1,1 0,-2.256758334191025A2.256758334191025,2.256758334191025 0 1,1 0,2.256758334191025Z"></path><path class="nv-point nv-point-35" transform="translate(1303.5714285714287,790.5560141394988)" d="M0,2.256758334191025A2.256758334191025,2.256758334191025 0 1,1 0,-2.256758334191025A2.256758334191025,2.256758334191025 0 1,1 0,2.256758334191025Z"></path><path class="nv-point nv-point-36" transform="translate(1340.8163265306123,787.435411829699)" d="M0,2.256758334191025A2.256758334191025,2.256758334191025 0 1,1 0,-2.256758334191025A2.256758334191025,2.256758334191025 0 1,1 0,2.256758334191025Z"></path><path class="nv-point nv-point-37" transform="translate(1378.061224489796,786.8520410448597)" d="M0,2.256758334191025A2.256758334191025,2.256758334191025 0 1,1 0,-2.256758334191025A2.256758334191025,2.256758334191025 0 1,1 0,2.256758334191025Z"></path><path class="nv-point nv-point-38" transform="translate(1415.3061224489795,781.4683052011557)" d="M0,2.256758334191025A2.256758334191025,2.256758334191025 0 1,1 0,-2.256758334191025A2.256758334191025,2.256758334191025 0 1,1 0,2.256758334191025Z"></path><path class="nv-point nv-point-39" transform="translate(1452.5510204081634,780.3536621600437)" d="M0,2.256758334191025A2.256758334191025,2.256758334191025 0 1,1 0,-2.256758334191025A2.256758334191025,2.256758334191025 0 1,1 0,2.256758334191025Z"></path><path class="nv-point nv-point-40" transform="translate(1489.795918367347,781.8811113765481)" d="M0,2.256758334191025A2.256758334191025,2.256758334191025 0 1,1 0,-2.256758334191025A2.256758334191025,2.256758334191025 0 1,1 0,2.256758334191025Z"></path><path class="nv-point nv-point-41" transform="translate(1527.0408163265306,767.0011743100089)" d="M0,2.256758334191025A2.256758334191025,2.256758334191025 0 1,1 0,-2.256758334191025A2.256758334191025,2.256758334191025 0 1,1 0,2.256758334191025Z"></path><path class="nv-point nv-point-42" transform="translate(1564.2857142857142,769.4152940254273)" d="M0,2.256758334191025A2.256758334191025,2.256758334191025 0 1,1 0,-2.256758334191025A2.256758334191025,2.256758334191025 0 1,1 0,2.256758334191025Z"></path><path class="nv-point nv-point-43" transform="translate(1601.5306122448978,768.6062735627207)" d="M0,2.256758334191025A2.256758334191025,2.256758334191025 0 1,1 0,-2.256758334191025A2.256758334191025,2.256758334191025 0 1,1 0,2.256758334191025Z"></path><path class="nv-point nv-point-44" transform="translate(1638.7755102040817,774.6795682749662)" d="M0,2.256758334191025A2.256758334191025,2.256758334191025 0 1,1 0,-2.256758334191025A2.256758334191025,2.256758334191025 0 1,1 0,2.256758334191025Z"></path><path class="nv-point nv-point-45" transform="translate(1676.0204081632653,757.9854741659263)" d="M0,2.256758334191025A2.256758334191025,2.256758334191025 0 1,1 0,-2.256758334191025A2.256758334191025,2.256758334191025 0 1,1 0,2.256758334191025Z"></path><path class="nv-point nv-point-46" transform="translate(1713.2653061224491,760.215092085912)" d="M0,2.256758334191025A2.256758334191025,2.256758334191025 0 1,1 0,-2.256758334191025A2.256758334191025,2.256758334191025 0 1,1 0,2.256758334191025Z"></path><path class="nv-point nv-point-47" transform="translate(1750.5102040816325,751.7830945644304)" d="M0,2.256758334191025A2.256758334191025,2.256758334191025 0 1,1 0,-2.256758334191025A2.256758334191025,2.256758334191025 0 1,1 0,2.256758334191025Z"></path><path class="nv-point nv-point-48" transform="translate(1787.7551020408164,755.7402598711469)" d="M0,2.256758334191025A2.256758334191025,2.256758334191025 0 1,1 0,-2.256758334191025A2.256758334191025,2.256758334191025 0 1,1 0,2.256758334191025Z"></path><path class="nv-point nv-point-49" transform="translate(1825,745.5332621630298)" d="M0,2.256758334191025A2.256758334191025,2.256758334191025 0 1,1 0,-2.256758334191025A2.256758334191025,2.256758334191025 0 1,1 0,2.256758334191025Z"></path></g></g><g class="nv-point-paths"></g></g><g class="nv-point-clips"></g></g></g></g></g></g><g class="nv-interactive"><g class=" nv-wrap nv-interactiveLineLayer"><g class="nv-interactiveGuideLine"></g></g></g></g><g class="nv-focusWrap"></g></g><text style="font-size: 24px;" text-anchor="middle" x="50%" y="20px">Benchmarking compilation speed of template instanciation constrained by Concepts vs. SFINAE</text><text style="font-size: 16px;" text-anchor="middle" x="50%" y="40px"></text></g></svg>