<?xml version="1.0" encoding="UTF-8" standalone="no"?>
<!-- Created with Inkscape (http://www.inkscape.org/) -->

<svg
   width="52mm"
   height="33mm"
   viewBox="0 0 52 33"
   version="1.1"
   id="svg489"
   inkscape:version="1.2.1 (9c6d41e410, 2022-07-14)"
   sodipodi:docname="logo-edite.svg"
   xmlns:inkscape="http://www.inkscape.org/namespaces/inkscape"
   xmlns:sodipodi="http://sodipodi.sourceforge.net/DTD/sodipodi-0.dtd"
   xmlns="http://www.w3.org/2000/svg"
   xmlns:svg="http://www.w3.org/2000/svg">
  <sodipodi:namedview
     id="namedview491"
     pagecolor="#ffffff"
     bordercolor="#666666"
     borderopacity="1.0"
     inkscape:showpageshadow="2"
     inkscape:pageopacity="0.0"
     inkscape:pagecheckerboard="0"
     inkscape:deskcolor="#d1d1d1"
     inkscape:document-units="mm"
     showgrid="false"
     inkscape:zoom="4.4195761"
     inkscape:cx="95.48427"
     inkscape:cy="94.466073"
     inkscape:window-width="1920"
     inkscape:window-height="1056"
     inkscape:window-x="1920"
     inkscape:window-y="0"
     inkscape:window-maximized="1"
     inkscape:current-layer="g404" />
  <defs
     id="defs486" />
  <g
     inkscape:label="Calque 1"
     inkscape:groupmode="layer"
     id="layer1">
    <g
       id="g404"
       transform="translate(8.2941413,110.86262)"
       inkscape:label="Image">
      <path
         style="fill:#febebe;stroke-width:0.3175"
         d="m 3.2611749,-90.218 v -12.60428 l 3.413125,0.12294 c 3.061536,0.11027 3.5908321,0.22019 5.1382481,1.067 2.026063,1.10874 4.411939,3.428573 5.280106,5.133942 0.338124,0.664187 0.715621,1.283585 0.838881,1.376439 0.12326,0.09286 0.439295,0.994978 0.702299,2.004718 0.886149,3.402154 -0.534996,7.170561 -4.084813,10.831579 -2.426907,2.502933 -4.8224111,3.891072 -7.1469031,4.141465 -0.967831,0.104254 -2.295474,0.266258 -2.950318,0.360013 l -1.190625,0.170466 z m 5.969957,7.093619 c 2.1393661,-0.538698 4.5612841,-3.018852 5.3303081,-5.458476 0.489845,-1.553966 0.516232,-2.021127 0.184268,-3.262302 -0.501978,-1.876839 -1.976633,-4.001929 -3.378083,-4.868072 -0.610484,-0.3773 -1.8983661,-0.767369 -2.8619601,-0.866821 l -1.75199,-0.180821 v 7.505669 c 0,8.410292 -0.209463,7.807398 2.477457,7.130823 z"
         id="path416" />
      <path
         style="fill:#fdd602;stroke-width:0.3175"
         d="m 20.935342,-77.881202 c -0.116417,-0.116415 -0.211667,-0.689468 -0.211667,-1.273448 0,-0.971533 0.14843,-1.134581 1.74625,-1.918225 0.960438,-0.471043 1.74625,-1.040991 1.74625,-1.266551 0,-0.525317 0.0056,-0.526037 -1.74625,0.224891 -0.814767,0.34925 -1.540987,0.635 -1.613822,0.635 -0.07284,0 -0.132428,-0.836473 -0.132428,-1.85883 0,-1.595395 0.358199,-2.731553 2.527495,-8.016875 l 2.527496,-6.158045 0.0125,9.921875 0.01251,9.921875 h -2.328333 c -1.280584,0 -2.423584,-0.09525 -2.54,-0.211667 z m -0.211667,-16.774583 c 0,-1.294902 0.116257,-1.74625 0.449792,-1.74625 0.247385,0 0.510804,0.178594 0.585375,0.396875 0.134069,0.392439 -0.657305,3.095625 -0.906262,3.095625 -0.0709,0 -0.128905,-0.785812 -0.128905,-1.74625 z m 0,-8.117805 v -5.05844 H 6.2774249 -8.168825 v -1.42875 -1.42875 h 26.035 26.035 v 1.42875 1.42875 h -7.605061 c -4.843638,0 -7.882719,-0.12651 -8.369742,-0.34841 -1.041724,-0.47464 -2.534082,0.31204 -3.076603,1.62181 -0.364624,0.88028 -0.335417,1.08449 0.27278,1.90711 0.571544,0.77305 0.681126,1.35796 0.681126,3.63557 0,2.640526 -0.01737,2.70345 -0.639032,2.315214 -0.532968,-0.332843 -0.954548,-0.28417 -2.54,0.293256 l -1.900968,0.692338 z"
         id="path414" />
      <path
         style="fill:#588fc7;stroke-width:0.3175"
         d="M -8.1688249,-92.584709 V -107.51453 H 6.2774249 20.723675 v 2.38125 2.38125 H 9.2936749 -2.1363249 v 3.968745 3.96875 H 0.56242512 3.2611749 v 2.54 2.54 H 0.56242512 -2.1363249 v 3.4925 3.4925 H 0.57578042 3.2878859 l -0.09273,2.460625 -0.09273,2.460625 -5.6356248,0.0867 -5.635625,0.0867 z"
         id="path410" />
      <path
         style="fill:#4b8444;stroke-width:0.3175"
         d="m 31.836175,-80.368285 v -2.38125 h 3.01625 3.01625 v -3.4925 -3.4925 h -3.01625 -3.01625 v -2.54 -2.54 h 3.01625 3.01625 v -3.96875 -3.968745 h -6.0325 c -5.820832,0 -6.0325,-0.0223 -6.0325,-0.635 0,-0.46061 0.211668,-0.635 0.770706,-0.635 1.028846,0 2.086794,-1.3899 2.086794,-2.74157 v -1.06843 h 7.62 7.62 v 14.922495 14.9225 h -6.0325 -6.0325 z"
         id="path408" />
      <path
         style="fill:#fe0000;stroke-width:0.3175"
         d="m 16.433933,-79.464635 c -0.786424,-0.786424 -0.438635,-2.017769 2.541994,-8.9999 2.566294,-6.011551 2.817279,-6.702814 2.737867,-7.540625 -0.0555,-0.585514 -1.163856,-0.483122 -2.577619,0.238125 -1.498498,0.764477 -1.5875,0.772223 -1.5875,0.138155 0,-0.646291 5.164708,-3.0845 6.618856,-3.124699 2.008737,-0.05553 1.945856,0.362309 -1.215745,8.07841 -1.607223,3.922536 -2.999055,7.596228 -3.09296,8.163759 -0.146241,0.88384 -0.07745,1.031875 0.479484,1.031875 0.357621,0 1.316848,-0.28575 2.131615,-0.635 1.755883,-0.752659 1.74625,-0.751481 1.74625,-0.213592 0,0.450605 -5.831822,3.389929 -6.724196,3.389091 -0.293121,-2.73e-4 -0.769241,-0.236795 -1.058046,-0.525599 z m 8.545569,-25.353025 c -0.442245,-0.67495 -0.460651,-0.94207 -0.121348,-1.76122 0.921137,-2.22382 3.803021,-2.36896 3.803021,-0.19152 0,2.36903 -2.529748,3.7108 -3.681673,1.95274 z"
         id="path406" />
    </g>
  </g>
</svg>
