<?xml version="1.0" encoding="UTF-8" standalone="no"?>
<!-- Created with Inkscape (http://www.inkscape.org/) -->

<svg
   width="144.74495mm"
   height="143.93491mm"
   viewBox="0 0 144.74495 143.93491"
   version="1.1"
   id="svg232"
   xml:space="preserve"
   inkscape:version="1.2.1 (9c6d41e410, 2022-07-14)"
   sodipodi:docname="hexagonal_grid2.svg"
   xmlns:inkscape="http://www.inkscape.org/namespaces/inkscape"
   xmlns:sodipodi="http://sodipodi.sourceforge.net/DTD/sodipodi-0.dtd"
   xmlns="http://www.w3.org/2000/svg"
   xmlns:svg="http://www.w3.org/2000/svg"><sodipodi:namedview
     id="namedview234"
     pagecolor="#ffffff"
     bordercolor="#666666"
     borderopacity="1.0"
     inkscape:showpageshadow="2"
     inkscape:pageopacity="0.0"
     inkscape:pagecheckerboard="0"
     inkscape:deskcolor="#d1d1d1"
     inkscape:document-units="mm"
     showgrid="false"
     inkscape:zoom="0.78127806"
     inkscape:cx="392.94589"
     inkscape:cy="353.90729"
     inkscape:window-width="1920"
     inkscape:window-height="1056"
     inkscape:window-x="1920"
     inkscape:window-y="0"
     inkscape:window-maximized="1"
     inkscape:current-layer="layer1" /><defs
     id="defs229" /><g
     inkscape:label="Calque 1"
     inkscape:groupmode="layer"
     id="layer1"
     transform="translate(-1.1655728,-0.89004175)"><g
       id="g540"
       transform="translate(0.48697987,0.35940723)"><path
         style="fill:#ebf9ee;stroke-width:0.352778"
         d="m 0.7316168,141.28896 c 0,-1.74625 0.0777819,-3.175 0.17284855,-3.175 0.0950667,0 0.89040995,1.42875 1.76742935,3.175 l 1.5945808,3.175 H 2.4990462 0.7316168 Z m 12.9436762,0.004 1.696603,-3.17152 3.585097,-0.004 3.585097,-0.004 1.665637,2.91042 c 0.9161,1.60073 1.733113,3.02948 1.815584,3.175 0.08247,0.14552 -3.04383,0.26458 -6.947336,0.26458 h -7.097284 l 1.696602,-3.17152 z m 19.972967,2.90694 c 0.08247,-0.14552 0.899484,-1.57427 1.815585,-3.175 l 1.665636,-2.91047 h 3.466028 3.466028 l 1.665636,2.91042 c 0.916101,1.60073 1.733113,3.02948 1.815586,3.175 0.08247,0.14552 -3.043792,0.26458 -6.94725,0.26458 -3.903458,0 -7.02972,-0.11906 -6.947249,-0.26458 z m 21.519445,0 c 0.08247,-0.14552 0.899485,-1.57427 1.815585,-3.175 l 1.665637,-2.91041 h 3.466028 3.466028 l 1.665637,2.91041 c 0.9161,1.60073 1.733112,3.02948 1.815585,3.175 0.08247,0.14552 -3.043792,0.26459 -6.94725,0.26459 -3.903458,0 -7.029719,-0.11907 -6.94725,-0.26459 z m 21.872224,0 c 0.08247,-0.14552 0.899485,-1.57427 1.815585,-3.175 l 1.665637,-2.91041 h 3.466028 3.466028 l 1.665636,2.91041 c 0.916101,1.60073 1.733113,3.02948 1.815586,3.175 0.08247,0.14552 -3.043792,0.26459 -6.94725,0.26459 -3.903458,0 -7.029719,-0.11907 -6.94725,-0.26459 z m 21.519446,0 c 0.08247,-0.14552 0.899485,-1.57427 1.815585,-3.175 l 1.66564,-2.91041 h 3.46602 3.46603 l 1.66564,2.91041 c 0.9161,1.60073 1.73311,3.02948 1.81558,3.175 0.0825,0.14552 -3.04379,0.26459 -6.94725,0.26459 -3.90345,0 -7.029714,-0.11907 -6.947245,-0.26459 z m 21.519445,0 c 0.0825,-0.14552 0.89949,-1.57427 1.81559,-3.175 l 1.66563,-2.91041 3.5851,0.004 3.5851,0.004 1.6966,3.17153 1.6966,3.17152 h -7.09728 c -3.90351,0 -7.02981,-0.11906 -6.94734,-0.26458 z m 23.35142,-2.91047 c 0.87702,-1.74625 1.67236,-3.175 1.76743,-3.175 0.0951,0 0.17285,1.42875 0.17285,3.175 v 3.175 h -1.76743 -1.76743 z m -142.6833341,-9.525 v -6.17361 l 1.7485999,2.99861 c 0.96173,1.64924 1.7485999,3.07799 1.7485999,3.175 0,0.097 -0.7868699,1.52577 -1.7485999,3.175 l -1.7485999,2.99862 z m 142.7483341,2.99024 -1.69889,-2.99024 1.69889,-2.99023 1.69889,-2.99024 0.10193,2.99024 c 0.0561,1.64463 0.0561,4.33584 0,5.98047 l -0.10193,2.99024 z M 0.7316168,119.35795 c 0,-3.33081 0.0577869,-5.98987 0.12841526,-5.90903 0.0706284,0.0808 0.87773884,1.45575 1.79357874,3.05535 l 1.6651636,2.90836 -1.635665,3.00067 c -0.8996158,1.65037 -1.70672618,3.00066 -1.79357878,3.00066 -0.0868526,0 -0.15791382,-2.7252 -0.15791382,-6.05601 z m 142.7660332,3.14137 -1.69648,-3.09105 1.69648,-2.986 1.69648,-2.98601 0.10193,2.99024 c 0.0561,1.64464 0.0561,4.37931 0,6.07705 l -0.10193,3.0868 z M 0.7316168,106.77554 c 0,-3.33081 0.0665189,-6.05602 0.1478198,-6.05602 0.0813009,0 0.886076,1.35435 1.7883891,3.00966 l 1.6405693,3.00967 -1.6599738,2.89936 c -0.9129856,1.59465 -1.71776074,2.96551 -1.78838914,3.04636 -0.0706284,0.0808 -0.12841526,-2.57822 -0.12841526,-5.90903 z m 142.7608732,2.92662 -1.70163,-2.99507 1.70163,-3.08198 1.70164,-3.08198 0.10193,3.08681 c 0.0561,1.69774 0.0561,4.43241 0,6.07704 l -0.10193,2.99024 z M 0.7469059,94.369521 V 88.19591 l 1.7485999,2.998611 c 0.96173,1.649236 1.7485999,3.077986 1.7485999,3.175 0,0.09701 -0.7868699,1.525764 -1.7485999,3.175 l -1.7485999,2.998609 z m 142.7483341,2.99024 -1.69889,-2.99024 1.69889,-2.990239 1.69889,-2.99024 0.10193,2.99024 c 0.0561,1.644632 0.0561,4.335847 0,5.980479 L 145.19413,100.35 Z M 0.7316168,81.84591 c 0,-3.395486 0.0777819,-6.173611 0.17284855,-6.173611 0.0950667,0 0.89581085,1.439503 1.77943155,3.198898 l 1.606583,3.198897 -1.6215178,2.974714 c -0.8918347,1.636091 -1.69257888,2.974713 -1.77943148,2.974713 -0.0868526,0 -0.15791382,-2.778125 -0.15791382,-6.173611 z m 142.7761132,3.277454 -1.68639,-3.072546 1.68639,-3.277454 1.6864,-3.277453 0.10167,3.281037 c 0.0559,1.804572 0.0559,4.662072 0,6.35 l -0.10167,3.068962 z M 0.7469059,69.3223 V 63.148689 L 2.4955058,66.1473 c 0.96173,1.649236 1.7485999,3.077986 1.7485999,3.175 0,0.09701 -0.7868699,1.525763 -1.7485999,3.175 l -1.7485999,2.998611 z m 142.7483341,2.990239 -1.69889,-2.990239 1.69889,-2.99024 1.69889,-2.99024 0.10193,2.99024 c 0.0561,1.644632 0.0561,4.335847 0,5.980479 l -0.10193,2.99024 z M 0.7316168,56.91628 c 0,-3.330808 0.0577869,-5.98987 0.12841526,-5.909027 0.0706284,0.08085 0.87773884,1.455755 1.79357874,3.055351 l 1.6651636,2.908364 -1.635665,3.000664 C 1.7834936,61.622 0.97638322,62.9723 0.88953062,62.9723 c -0.0868526,0 -0.15791382,-2.725209 -0.15791382,-6.05602 z m 142.7660332,3.14137 -1.69648,-3.091043 1.69648,-2.986006 1.69648,-2.986003 0.10193,2.99024 c 0.0561,1.644632 0.0561,4.379302 0,6.077045 l -0.10193,3.086806 z M 0.7316168,44.333875 c 0,-3.330811 0.0665189,-6.056019 0.1478198,-6.056019 0.0813009,0 0.886076,1.354349 1.7883891,3.009663 l 1.6405693,3.009664 -1.6599738,2.899364 c -0.9129856,1.594651 -1.71776074,2.96551 -1.78838914,3.046356 -0.0706284,0.08084 -0.12841526,-2.57822 -0.12841526,-5.909028 z m 142.7608732,2.926617 -1.70163,-2.995066 1.70163,-3.08198 1.70164,-3.081979 0.10193,3.086805 c 0.0561,1.697743 0.0561,4.432413 0,6.077046 l -0.10193,2.990239 z M 0.7469059,31.927856 v -6.173611 l 1.7485999,2.998611 c 0.96173,1.649236 1.7485999,3.077986 1.7485999,3.175 0,0.09701 -0.7868699,1.525764 -1.7485999,3.175 l -1.7485999,2.998611 z m 142.7483341,2.99024 -1.69889,-2.99024 1.69889,-2.99024 1.69889,-2.99024 0.10193,2.99024 c 0.0561,1.644632 0.0561,4.335848 0,5.98048 l -0.10193,2.990239 z M 0.7316168,19.404245 c 0,-3.395486 0.0777819,-6.173611 0.17284855,-6.173611 0.0950667,0 0.89581085,1.439504 1.77943155,3.198898 l 1.606583,3.198897 -1.6215178,2.974714 c -0.8918347,1.636092 -1.69257888,2.974713 -1.77943148,2.974713 -0.0868526,0 -0.15791382,-2.778125 -0.15791382,-6.173611 z m 142.7761132,3.277454 -1.68639,-3.072545 1.68639,-3.277455 1.6864,-3.277454 0.10167,3.281039 c 0.0559,1.804571 0.0559,4.662071 0,6.349999 l -0.10167,3.068962 z M 0.74022947,6.7924399 0.7316168,0.53063452 h 7.2527649 c 3.9890203,0 7.1852883,0.1190625 7.1028173,0.26458333 -0.08247,0.14552083 -0.899484,1.57427075 -1.815584,3.17499995 L 11.605978,6.8806344 H 7.9611502 4.3163226 L 2.5325824,9.9674399 0.74884213,13.054245 Z M 143.49524,9.8686392 141.79635,6.8806344 h -3.65251 -3.65251 l -1.7726,-3.0868055 -1.77259,-3.0868055 7.08713,-0.0956624 c 3.89792,-0.0526143 7.14725,-0.0355393 7.22073,0.0379443 0.0735,0.0734837 0.0901,2.8501964 0.0369,6.1704727 l -0.0967,6.036866 z M 24.527733,3.9702178 C 23.611632,2.3694886 22.794619,0.94073868 22.712148,0.79521785 22.629677,0.64969702 25.748163,0.53063452 29.642117,0.53063452 h 7.079916 l -1.59458,3.17499988 -1.594581,3.175 H 29.863121 26.19337 Z M 46.287575,3.7938289 44.51438,0.7070234 48.022998,0.60648771 c 1.929744,-0.0552946 5.087501,-0.0552946 7.017245,0 l 3.508619,0.10053569 -1.773196,3.0868055 -1.773195,3.0868055 h -3.47085 -3.470851 z m 21.519446,0 -1.773195,-3.0868055 3.508619,-0.10053569 c 1.929744,-0.0552946 5.0875,-0.0552946 7.017244,0 l 3.508619,0.10053569 -1.773196,3.0868055 -1.773195,3.0868055 h -3.47085 -3.47085 z m 21.519446,0 -1.773195,-3.0868055 3.508619,-0.10053569 c 1.929744,-0.0552946 5.0875,-0.0552946 7.017244,0 l 3.508615,0.10053569 -1.773192,3.0868055 -1.773195,3.0868055 h -3.47085 -3.47085 z M 110.97468,3.7056344 109.3801,0.53063452 h 7.07992 c 3.89395,0 7.01244,0.1190625 6.92997,0.26458333 -0.0825,0.14552083 -0.89949,1.57427075 -1.81559,3.17499995 l -1.66564,2.9104166 h -3.66975 -3.66975 z"
         id="path556" /><path
         style="fill:#85d966;stroke-width:0.352778"
         d="m 132.60727,141.01802 -1.65074,-3.08622 1.65074,-2.90453 1.65075,-2.90454 h 3.70416 3.70417 l 1.61073,2.83442 1.61073,2.83442 -1.61073,3.15745 -1.61073,3.15745 -3.70417,-0.001 -3.70416,-0.001 -1.65075,-3.08622 z m -10.79167,-6.25544 -1.48716,-2.99862 1.48716,-2.99861 1.48715,-2.99861 3.71375,0.002 3.71374,0.002 1.69888,2.99628 1.69889,2.99629 -1.69889,2.99628 -1.69888,2.99628 -3.71374,0.002 -3.71375,0.002 -1.48715,-2.99861 z m 11.00338,-5.90634 c -0.92244,-1.59924 -1.67717,-3.06889 -1.67717,-3.26589 0,-0.19699 0.75473,-1.66664 1.67717,-3.26589 l 1.67718,-2.90772 h 3.46704 3.46704 l 1.74527,3.1363 1.74527,3.13629 -1.74387,3.03732 -1.74388,3.03731 h -3.46843 -3.46844 z m -10.98948,-6.58266 -1.75123,-3.14038 1.62182,-2.85384 1.62181,-2.85385 3.70417,-7e-4 3.70417,-7.1e-4 1.69888,2.99628 1.69889,2.99629 -1.69889,2.99628 -1.69888,2.99628 -3.57476,0.002 -3.57475,0.002 -1.75123,-3.14039 z m 10.72963,-6.21055 -1.69889,-2.99629 1.69889,-2.99628 1.69889,-2.99628 h 3.70416 3.70417 l 1.69889,2.99628 1.69889,2.99628 -1.69889,2.99629 -1.69889,2.99628 h -3.70417 -3.70416 z m -10.74389,-6.02682 -1.73997,-3.03053 1.75273,-3.14308 1.75273,-3.14308 3.57475,0.004 3.57476,0.004 1.6523,3.08912 1.65231,3.08912 -1.76897,3.08102 -1.76896,3.0809 h -3.47085 -3.47085 z m 10.79047,-6.41554 -1.6523,-3.08912 1.76896,-3.081016 1.76896,-3.081013 h 3.47085 3.47085 l 1.73998,3.030531 1.73998,3.030528 -1.75273,3.14308 -1.75274,3.14308 -3.57475,-0.004 -3.57475,-0.004 -1.65231,-3.08913 z m -10.79011,-6.252538 -1.48716,-2.998611 1.48716,-2.998611 1.48715,-2.998611 3.71375,0.0025 3.71374,0.0025 1.69888,2.996283 1.69889,2.996282 -1.69889,2.996283 -1.69888,2.996283 -3.71374,0.002 -3.71375,0.002 -1.48715,-2.998612 z m 10.79167,-6.261911 -1.65074,-2.904532 1.65074,-3.08622 1.65075,-3.08622 3.58611,-0.0035 3.58611,-0.0035 1.74376,3.133574 1.74375,3.133576 -1.6257,2.860651 -1.6257,2.860653 h -3.70417 -3.70416 l -1.65075,-2.904532 z m -10.77927,-6.22978 -1.75273,-3.143081 1.73997,-3.03053 1.73998,-3.030531 3.58751,0.0041 3.58751,0.0041 1.65078,3.0798 1.65078,3.079802 -1.65078,3.086287 -1.65078,3.086287 -3.57476,0.0035 -3.57475,0.0035 -1.75273,-3.143081 z m 10.77927,-6.300089 -1.65074,-3.08622 1.65074,-2.904532 1.65075,-2.904532 h 3.70416 3.70417 l 1.61073,2.834417 1.61073,2.834418 -1.61073,3.157453 -1.61073,3.157452 -3.70417,-0.0011 -3.70416,-0.0011 -1.65075,-3.08622 z m -10.80368,-6.279638 -1.49916,-3.022808 1.68513,-2.972086 1.68512,-2.972086 h 3.52778 3.52778 l 1.69888,2.996283 1.69889,2.996283 -1.69889,2.996282 -1.69888,2.996283 -3.71374,0.0025 -3.71375,0.0025 -1.49916,-3.022808 z m 11.01539,-5.882136 c -0.92244,-1.599244 -1.67717,-3.068895 -1.67717,-3.265889 0,-0.196995 0.75473,-1.666646 1.67717,-3.26589 l 1.67718,-2.907721 h 3.46704 3.46704 l 1.74527,3.136296 1.74527,3.136293 -1.74387,3.037318 -1.74388,3.037315 h -3.46843 -3.46844 z"
         id="path554" /><path
         style="fill:#4eb3ba;stroke-width:0.352778"
         d="m 89.359685,66.291769 -1.739978,-3.03053 1.752731,-3.143081 1.752734,-3.14308 h 3.455684 3.455685 l 1.677172,2.907721 c 0.922447,1.599244 1.677167,3.068895 1.677167,3.26589 0,0.196994 -0.75472,1.666645 -1.677167,3.265889 L 98.036541,69.3223 H 94.5681 91.099663 Z m 21.795505,-0.137276 -1.8128,-3.167807 1.63846,-3.005804 1.63847,-3.005804 h 3.64574 3.64573 l 1.74527,3.136296 1.74528,3.136293 -1.74388,3.037318 -1.74387,3.037315 h -3.4728 -3.47281 z m -32.628281,-6.185038 -1.636854,-3.002848 1.69648,-2.992049 1.696477,-2.992046 3.713741,-0.0025 3.713745,-0.0025 1.497185,3.018829 1.497182,3.018825 -1.623522,2.978397 -1.623526,2.978676 H 83.81079 80.163762 Z m 21.576661,0.0018 -1.698888,-2.996282 1.698888,-2.996283 1.69889,-2.996283 3.70416,7.06e-4 3.70417,7.05e-4 1.62182,2.853845 1.62181,2.853842 -1.75123,3.140382 -1.75122,3.140385 -3.57476,-0.0025 -3.57475,-0.0025 -1.69889,-2.996282 z m 21.72593,-0.139446 -1.75123,-3.140382 1.62182,-2.853841 1.62181,-2.853845 3.70417,-7.06e-4 3.70417,-7.05e-4 1.69888,2.996282 1.69889,2.996283 -1.69889,2.996283 -1.69888,2.996282 -3.57476,0.0025 -3.57475,0.0025 -1.75123,-3.140385 z m -32.481464,-6.232422 -1.499161,-3.022808 1.685124,-2.972086 1.685125,-2.972086 h 3.527778 3.527778 l 1.698886,2.996283 1.698894,2.996283 -1.698894,2.996282 -1.698886,2.996283 -3.713741,0.0025 -3.713745,0.0025 -1.499158,-3.022808 z m 21.691644,0.02187 -1.69889,-2.996283 1.69889,-2.996282 1.69889,-2.996283 h 3.52778 3.52778 l 1.69888,2.996283 1.69889,2.996282 -1.69889,2.996283 -1.69888,2.996283 h -3.52778 -3.52778 z m 21.56759,0.09042 -1.65074,-2.904532 1.65074,-3.08622 1.65075,-3.08622 3.70416,-0.0011 3.70417,-0.0011 1.69889,2.996283 1.69889,2.996283 -1.69889,2.996282 -1.69889,2.996283 -3.70417,-7.06e-4 -3.70416,-7.05e-4 -1.65075,-2.904532 z M 78.699629,47.45717 76.88683,44.289364 l 1.638466,-3.005805 1.638466,-3.005804 h 3.645737 3.645736 l 1.745269,3.136297 1.745273,3.136293 -1.743876,3.037318 -1.743872,3.037314 h -3.472801 -3.472805 z m 21.596171,0.137277 -1.739981,-3.030531 1.752731,-3.14308 1.75273,-3.143081 h 3.4567 3.4567 l 1.74527,3.136297 1.74527,3.136293 -1.74387,3.037318 -1.74387,3.037452 h -3.47086 -3.47085 l -1.73997,-3.030531 z m 21.51944,0 -1.73997,-3.030531 1.75273,-3.14308 1.75273,-3.143081 3.57475,0.0041 3.57476,0.0041 1.65078,3.079799 1.65078,3.079803 -1.65078,3.086287 -1.65078,3.086287 -3.58751,0.0035 -3.58751,0.0035 -1.73998,-3.030531 z m -32.442802,-6.46255 -1.752731,-3.143081 1.739978,-3.030531 1.739978,-3.030392 h 3.472801 3.472804 l 1.812795,3.167807 1.812797,3.167807 -1.63846,3.005804 -1.638471,3.005804 h -3.63438 -3.634377 l -1.752734,-3.143081 z m 21.608412,0.137276 -1.63846,-3.005804 1.8128,-3.167806 1.81279,-3.16767 h 3.49773 3.49772 l 1.60175,3.18926 1.60174,3.189258 -1.62677,2.984352 -1.62677,2.984352 h -3.64703 -3.64703 l -1.63847,-3.005804 z m 21.62486,-0.09027 -1.6523,-3.089123 1.76896,-3.081012 1.76896,-3.080876 h 3.47085 3.47085 l 1.73998,3.03053 1.73998,3.030531 -1.75273,3.14308 -1.75274,3.143081 -3.57475,-0.0035 -3.57475,-0.0035 -1.65231,-3.089123 z m -54.021584,-6.254728 -1.69889,-2.996283 1.69889,-2.996283 1.698886,-2.996284 h 3.527778 3.527778 l 1.698886,2.996284 1.69889,2.996283 -1.69889,2.996283 -1.698886,2.996282 H 83.81079 80.283012 Z m 21.519444,0 -1.698888,-2.996283 1.698888,-2.996283 1.69889,-2.996284 h 3.70416 3.70417 l 1.69889,2.996284 1.69889,2.996283 -1.69889,2.996283 -1.69889,2.996282 h -3.70417 -3.70416 z m 21.71203,0.0023 -1.48716,-2.998611 1.48716,-2.998611 1.48715,-2.998611 3.71375,0.0023 3.71374,0.0023 1.69888,2.996284 1.69889,2.996281 -1.69889,2.996283 -1.69888,2.996282 -3.71374,0.0023 -3.71375,0.0023 -1.48715,-2.998611 z m -32.571069,-6.211224 -1.621815,-2.853842 1.751228,-3.140384 1.751228,-3.140384 h 3.644473 3.644474 l 1.631911,2.993784 1.63191,2.993785 -1.701626,3.00111 -1.701634,3.00111 -3.704167,-6.7e-4 -3.704167,-6.71e-4 -1.621815,-2.853843 z m 21.797559,-0.136869 -1.69648,-2.992049 1.63686,-3.002846 1.63685,-3.002846 h 3.65712 3.65712 l 1.61824,2.968699 1.61824,2.968698 -1.50199,3.028524 -1.50199,3.028523 -3.71375,-0.0023 -3.71374,-0.0023 z m 21.56518,0.08618 -1.65074,-2.904531 1.65074,-3.08622 1.65075,-3.08622 3.58611,-0.0035 3.58611,-0.0035 1.74376,3.133575 1.74375,3.133575 -1.6257,2.860652 -1.6257,2.860652 h -3.70417 -3.70416 l -1.65075,-2.904532 z M 78.525296,22.572058 76.88683,19.566255 78.699629,16.398447 80.512423,13.23064 h 2.266545 c 2.182463,0 2.266544,0.03272 2.266544,0.881945 0,0.820963 0.119736,0.881944 1.731716,0.881944 h 1.731719 l 1.210677,2.155473 1.210677,2.155474 -1.748889,3.136193 -1.748892,3.136193 h -3.634377 -3.634381 z m 21.783254,-0.137277 -1.752731,-3.143081 1.739981,-3.03053 1.73997,-3.03053 h 3.47085 3.47086 l 1.73997,3.03053 1.73998,3.03053 -1.75273,3.143081 -1.75273,3.143081 h -3.44535 -3.44534 z m 21.51945,0 -1.75273,-3.143081 1.73997,-3.03053 1.73998,-3.03053 3.58751,0.004 3.58751,0.004 1.65078,3.079801 1.65078,3.0798 -1.65078,3.086287 -1.65078,3.086287 -3.57476,0.0035 -3.57475,0.0035 z m -32.294001,-6.18366 -1.685124,-2.972087 1.499161,-3.022808 1.499158,-3.0228079 3.713745,0.00233 3.713741,0.00233 1.698886,2.9962829 1.698894,2.996284 -1.698894,2.996283 -1.698886,2.996283 h -3.527778 -3.527778 l -1.685125,-2.972086 z m 21.505681,-0.0242 -1.69889,-2.996284 1.69889,-2.996283 1.69889,-2.9962836 h 3.52778 3.52778 l 1.69888,2.9962836 1.69889,2.996283 -1.69889,2.996284 -1.69888,2.996283 h -3.52778 -3.52778 z m 21.56759,-0.09223 -1.65074,-3.086219 1.65074,-2.904532 1.65075,-2.904531 h 3.70416 3.70417 l 1.61073,2.834417 1.61073,2.834417 -1.61073,3.157454 -1.61073,3.157454 -3.70417,-0.0011 -3.70416,-0.0011 -1.65075,-3.08622 z m -32.5037,-6.2577672 -1.698888,-2.9962834 1.698888,-2.9962834 1.69889,-2.99628328 3.70416,2.805e-5 3.70417,2.804e-5 1.61073,3.15745409 1.61073,3.1574541 -1.61073,2.834417 -1.61073,2.834417 -3.70417,6.7e-4 -3.70416,6.7e-4 -1.69889,-2.9962833 z m 21.59332,0.1354922 -1.62502,-2.8594548 1.8014,-3.1281483 1.80141,-3.12814819 3.52778,-0.004295 3.52778,-0.004295 1.69888,2.99628329 1.69889,2.9962832 -1.69889,2.9962834 -1.69888,2.9962834 -3.70417,-6.7e-4 -3.70417,-6.7e-4 -1.62501,-2.859456 z"
         id="path552" /><path
         style="fill:#62a559;stroke-width:0.352778"
         d="m 89.533999,141.13444 -1.685124,-2.97208 1.499161,-3.02281 1.499158,-3.02281 3.713745,0.002 3.713741,0.002 1.698886,2.99628 1.698894,2.99629 -1.698894,2.99628 -1.698886,2.99628 h -3.527778 -3.527778 l -1.685125,-2.97208 z m 21.505681,-0.0242 -1.69889,-2.99628 1.69889,-2.99628 1.69889,-2.99628 3.71374,-0.002 3.71375,-0.002 1.49915,3.0228 1.49916,3.02281 -1.68512,2.97209 -1.68512,2.97208 h -3.52778 -3.52778 l -1.69889,-2.99628 z m -32.455554,-6.35 -1.69889,-2.99628 1.69889,-2.99628 1.698886,-2.99628 h 3.527778 3.527778 l 1.685124,2.97208 1.685125,2.97209 -1.499161,3.02281 -1.499158,3.0228 -3.713745,-0.002 -3.713741,-0.002 -1.698886,-2.99628 z m 21.519444,0 -1.698888,-2.99628 1.698888,-2.99628 1.69889,-2.99628 h 3.70416 3.70417 l 1.69889,2.99628 1.69889,2.99628 -1.69889,2.99628 -1.69889,2.99629 h -3.70417 -3.70416 z m -10.743885,-6.02681 -1.739978,-3.03053 1.752731,-3.14308 1.752734,-3.14308 h 3.455684 3.455685 l 1.677172,2.90772 c 0.922447,1.59924 1.677167,3.0689 1.677167,3.26589 0,0.19699 -0.75472,1.66665 -1.677167,3.26589 l -1.677172,2.90772 H 94.5681 91.099663 Z m 21.795505,-0.13728 -1.8128,-3.1678 1.63846,-3.00581 1.63847,-3.0058 h 3.65712 3.65712 l 1.62152,2.97471 1.62152,2.97472 -1.60658,3.19889 -1.60659,3.1989 h -3.49772 -3.49773 z m -32.628281,-6.18503 -1.636854,-3.00285 1.69648,-2.99205 1.696477,-2.99205 3.713741,-0.002 3.713745,-0.002 1.497185,3.01882 1.497182,3.01883 -1.623522,2.9784 -1.623526,2.97867 H 83.81079 80.163762 l -1.636853,-3.00284 z m 21.576661,0.002 -1.698888,-2.99628 1.698888,-2.99628 1.69889,-2.99629 3.70416,7.1e-4 3.70417,7e-4 1.62182,2.85385 1.62181,2.85384 -1.75123,3.14038 -1.75122,3.14039 -3.57476,-0.002 -3.57475,-0.002 -1.69889,-2.99628 z m -10.743532,-6.34753 -1.48716,-2.99861 1.48716,-2.99861 1.487156,-2.99861 3.713745,0.002 3.713741,0.002 1.698886,2.99628 1.698894,2.99629 -1.698894,2.99628 -1.698886,2.99628 -3.713741,0.002 -3.713745,0.002 -1.487156,-2.99861 z m 21.679642,-0.002 -1.69889,-2.99628 1.69889,-2.99628 1.69889,-2.99628 h 3.52778 3.52778 l 1.69888,2.99628 1.69889,2.99628 -1.69889,2.99628 -1.69888,2.99629 h -3.52778 -3.52778 z m -32.340051,-6.16408 -1.812799,-3.16781 1.638466,-3.00581 1.638466,-3.0058 h 3.657121 3.657124 l 1.621518,2.97471 1.621515,2.97472 -1.606582,3.19889 -1.606581,3.1989 h -3.497725 -3.497729 z m 21.514931,-0.008 -1.817311,-3.1757 1.838461,-2.99791 1.83846,-2.99791 h 3.45026 3.45025 l 1.74527,3.13629 1.74527,3.1363 -1.74387,3.03731 -1.74387,3.03732 h -3.47281 -3.4728 z m -10.842122,-6.31738 -1.752731,-3.14308 1.739978,-3.030534 1.739978,-3.03053 h 3.472801 3.472804 l 1.817311,3.175695 1.817311,3.175699 -1.838464,2.99791 -1.838459,2.99792 h -3.438899 -3.438896 z m 21.608412,0.13727 -1.63846,-3.0058 1.8128,-3.167807 1.81279,-3.167807 h 3.49773 3.49772 l 1.60175,3.189259 1.60174,3.189255 -1.62677,2.98436 -1.62677,2.9845 h -3.64703 -3.64703 l -1.63847,-3.0058 z m -32.396724,-6.344976 -1.69889,-2.996283 1.69889,-2.996282 1.698886,-2.996283 3.713741,-0.0025 3.713745,-0.0025 1.499158,3.022808 1.499161,3.022808 -1.685125,2.972086 -1.685124,2.972082 H 83.81079 80.283012 l -1.698886,-2.996279 z m 21.519444,0 -1.698888,-2.996283 1.698888,-2.996282 1.69889,-2.996283 h 3.70416 3.70417 l 1.69889,2.996283 1.69889,2.996282 -1.69889,2.996283 -1.69889,2.996286 h -3.70417 -3.70416 z m -10.753562,-6.367889 -1.497182,-3.018825 1.623522,-2.978397 1.623526,-2.978394 h 3.657121 3.657124 l 1.631911,2.993785 1.63191,2.993785 -1.701626,3.001109 -1.701634,3.001109 -3.713741,0.0025 -3.713745,0.0025 -1.497186,-3.018829 z m 21.692082,0.02212 -1.69648,-2.992049 1.63686,-3.002848 1.63685,-3.002845 h 3.65712 3.65712 l 1.61824,2.968699 1.61824,2.968699 -1.50199,3.028523 -1.50199,3.028523 -3.71375,-0.0025 -3.71374,-0.0025 -1.69648,-2.992046 z m -32.325824,-5.998436 -1.838463,-2.997912 1.81731,-3.175699 1.81731,-3.175695 h 3.472805 3.472801 l 1.739978,3.030531 1.739978,3.03053 -1.752731,3.143081 -1.752734,3.14308 h -3.438896 -3.438899 z m 21.592284,-0.145164 -1.752731,-3.143081 1.739981,-3.03053 1.73997,-3.030524 h 3.47085 3.47086 l 1.73997,3.030531 1.73998,3.03053 -1.75273,3.143081 -1.75273,3.14308 h -3.44535 -3.44534 l -1.75273,-3.14308 z m -10.774551,-6.183662 -1.685124,-2.972086 1.499161,-3.022808 1.499158,-3.022808 3.713745,0.0025 3.713741,0.0025 1.698886,2.996283 1.698894,2.996283 -1.698894,2.996282 -1.698886,2.996283 h -3.527778 -3.527778 l -1.685125,-2.972086 z m 21.505681,-0.0242 -1.69889,-2.996283 1.69889,-2.996283 1.69889,-2.996283 3.71374,-0.0025 3.71375,-0.0025 1.49915,3.022808 1.49916,3.022808 -1.68512,2.972085 -1.68512,2.972086 h -3.52778 -3.52778 l -1.69889,-2.996283 z m -32.455554,-6.35 -1.69889,-2.996283 1.69889,-2.996283 1.698886,-2.996282 h 3.527778 3.527778 l 1.685124,2.972085 1.685125,2.972086 -1.499161,3.022808 -1.499158,3.022808 -3.713745,-0.0025 -3.713741,-0.0025 -1.698886,-2.996283 z m 21.519444,0 -1.698888,-2.996283 1.698888,-2.996283 1.69889,-2.996282 h 3.70416 3.70417 l 1.69889,2.996282 1.69889,2.996283 -1.69889,2.996283 -1.69889,2.996282 h -3.70417 -3.70416 z"
         id="path550" /><path
         style="fill:#005cd7;stroke-width:0.352778"
         d="m 2.8139685,28.715244 -1.6218151,-2.853842 1.7512274,-3.140384 1.7512276,-3.140384 3.5747546,0.0035 3.574755,0.0035 1.650744,3.08622 1.650745,3.086219 -1.650745,2.904532 -1.650744,2.904531 H 8.1399507 4.4357838 L 2.8139685,28.715278 Z m 21.6249255,-0.158993 -1.497186,-3.018828 1.623525,-2.978395 1.623524,-2.978394 h 3.657123 3.657122 l 1.631914,2.993784 1.631913,2.993785 -1.701633,3.00111 -1.701632,3.00111 -3.713743,0.0023 -3.713742,0.0023 z m 21.692083,0.02212 -1.69648,-2.992048 1.636854,-3.002846 1.636853,-3.002846 h 3.645737 3.645736 l 1.743756,3.133574 1.743756,3.133575 -1.625699,2.860652 -1.625702,2.860652 -3.704167,6.7e-4 -3.704167,6.71e-4 -1.696477,-2.992049 z m 21.594108,0.13687 -1.621815,-2.853843 1.751228,-3.140384 1.751228,-3.140382 h 3.456697 3.4567 l 1.743756,3.133575 1.743756,3.133574 -1.625699,2.860652 -1.625702,2.860652 H 73.051067 69.3469 l -1.621815,-2.853843 z m -54.00397,-6.225283 -1.65078,-3.079801 1.65078,-3.086287 1.650781,-3.086287 3.587508,-0.0035 3.587509,-0.0035 1.739978,3.03053 1.739977,3.03053 -1.752731,3.143081 -1.752732,3.143081 -3.574755,-0.004 -3.574754,-0.004 z m 21.67632,-0.05519 -1.752732,-3.143081 1.739978,-3.03053 1.739977,-3.03053 h 3.470851 3.47085 l 1.739978,3.03053 1.739978,3.03053 -1.752731,3.143081 -1.752734,3.143081 h -3.445341 -3.445341 z m 21.519445,0 -1.752731,-3.143081 1.739978,-3.03053 1.739978,-3.03053 h 3.472801 3.472804 l 1.812795,3.167807 1.812798,3.167808 -1.638466,3.005803 -1.638466,3.005804 h -3.63438 -3.634377 z M 2.8250556,16.065691 1.2143275,12.908237 2.8250556,10.07382 4.4357838,7.239403 h 3.7041669 3.7041673 l 1.650744,2.904531 1.650745,2.904532 -1.650745,3.086219 -1.650744,3.08622 -3.7041673,0.0011 -3.7041669,0.0011 z M 24.60912,16.226918 22.910234,13.230634 24.60912,10.234351 26.308008,7.2380674 h 3.527778 3.527778 l 1.698887,2.9962836 1.698889,2.996283 -1.698889,2.996284 -1.698887,2.996283 h -3.527778 -3.527778 z m 21.519448,0 -1.69889,-2.996284 1.69889,-2.996283 1.698886,-2.9962836 3.713741,-0.00233 3.713745,-0.00233 1.499157,3.0228076 1.499161,3.022808 -1.685124,2.972087 -1.685124,2.972086 h -3.527778 -3.527778 z m 21.519446,0 -1.69889,-2.996284 1.69889,-2.996283 1.698886,-2.9962836 h 3.704167 3.704167 l 1.698886,2.9962836 1.69889,2.996283 -1.69889,2.996284 -1.698886,2.996283 H 73.051067 69.3469 Z m 17.397498,-2.114339 c 0,-0.771046 0.153698,-0.881945 1.222312,-0.881945 0.847407,0 1.334318,0.209291 1.5875,0.682364 0.550605,1.028819 0.491038,1.081525 -1.222312,1.081525 -1.458147,0 -1.5875,-0.07186 -1.5875,-0.881944 z M 13.673008,9.8769178 11.974122,6.8806344 13.673008,3.884351 l 1.698888,-2.99628328 3.527778,0.004295 3.527778,0.004295 1.801407,3.12814818 1.801407,3.1281482 -1.625018,2.8594549 -1.625018,2.859456 -3.704167,6.67e-4 -3.704167,6.68e-4 z m 21.607606,0.1605312 -1.610728,-2.834417 1.610728,-3.1574541 1.610728,-3.15745409 3.704167,-2.804e-5 3.704167,-2.805e-5 1.698886,2.99628328 1.69889,2.9962834 -1.69889,2.9962834 -1.698886,2.9962832 -3.704167,-6.68e-4 -3.704167,-6.67e-4 z M 56.892478,9.8550484 55.393317,6.8322403 57.078441,3.860154 58.763566,0.88806772 h 3.527778 3.527778 l 1.698886,2.99628328 1.69889,2.9962834 -1.69889,2.9962834 -1.698886,2.9962832 -3.713742,0.0023 -3.713744,0.0023 z m 21.691648,0.021869 -1.69889,-2.9962827 1.69889,-2.9962834 1.698886,-2.99628328 h 3.527778 3.527778 l 1.685124,2.97208628 1.685125,2.9720863 -1.499161,3.0228081 -1.499158,3.0228073 -3.713745,-0.0023 -3.713741,-0.0023 -1.698886,-2.9962829 z"
         id="path548" /><path
         style="fill:#095da1;stroke-width:0.352778"
         d="m 13.673008,72.318582 -1.698886,-2.996282 1.698886,-2.996283 1.698888,-2.996283 h 3.527778 3.527778 l 1.685123,2.972086 1.685124,2.972086 -1.499159,3.022808 -1.499159,3.022808 -3.713743,-0.0023 -3.713742,-0.0023 z m 21.519447,0 -1.698887,-2.996282 1.698887,-2.996283 1.698887,-2.996283 h 3.704167 3.704167 l 1.698886,2.996283 1.69889,2.996283 -1.69889,2.996282 -1.698886,2.996283 H 40.595509 36.891342 Z M 2.9291227,66.291769 1.1891449,63.261239 2.9418766,60.118158 4.6946084,56.975078 h 3.4556847 3.4556849 l 1.677172,2.907721 c 0.922444,1.599244 1.677171,3.068895 1.677171,3.26589 0,0.196994 -0.754727,1.666645 -1.677171,3.265889 L 11.605978,69.3223 H 8.1375391 4.6691004 Z m 21.5194463,0 -1.739978,-3.03053 1.752732,-3.143081 1.752731,-3.14308 h 3.644475 3.644473 l 1.633541,2.996769 1.633542,2.99677 -1.817967,3.176841 -1.817967,3.176842 h -3.472802 -3.472802 z m 21.939851,0.122809 c -0.922443,-1.599244 -1.677169,-3.068895 -1.677169,-3.265889 0,-0.196995 0.754726,-1.666646 1.677169,-3.26589 l 1.677173,-2.907721 h 3.46704 3.467044 l 1.745269,3.136296 1.745273,3.136293 -1.743876,3.037318 -1.743872,3.037315 h -3.468437 -3.468441 z m -32.715412,-6.443218 -1.698886,-2.996282 1.698886,-2.996283 1.698888,-2.996283 3.704167,7.06e-4 3.704167,7.05e-4 1.621815,2.853846 1.621815,2.853841 -1.751228,3.140382 L 22.521405,62.9723 18.94665,62.97 15.371896,62.9677 Z m 21.725931,-0.139446 -1.751228,-3.140381 1.621816,-2.853842 1.621815,-2.853845 3.704167,-7.06e-4 3.704167,-7.05e-4 1.698886,2.996282 1.69889,2.996283 -1.69889,2.996283 -1.698886,2.996282 -3.574754,0.0025 -3.574754,0.0025 -1.751229,-3.140385 z m 21.621851,0.161992 -1.623522,-2.978396 1.497182,-3.018826 1.497186,-3.018828 3.713744,0.0025 3.713742,0.0025 1.696477,2.992046 1.69648,2.99205 -1.636854,3.002848 -1.636854,3.002844 H 62.291344 58.644316 L 57.02079,59.994189 Z M 2.7368966,53.621361 1.0380095,50.625078 l 1.6988871,-2.996283 1.6988872,-2.996283 3.7041669,0.0011 3.7041673,0.0011 1.650744,3.08622 1.650745,3.08622 -1.650745,2.904532 -1.650744,2.904532 -3.7041673,7.06e-4 -3.7041669,7.05e-4 -1.6988872,-2.996282 z m 21.8722234,0 -1.698886,-2.996283 1.698886,-2.996283 1.698888,-2.996283 h 3.527778 3.527778 l 1.698887,2.996283 1.698889,2.996283 -1.698889,2.996283 -1.698887,2.996282 h -3.527778 -3.527778 z m 21.519448,0 -1.69889,-2.996283 1.69889,-2.996283 1.698886,-2.996283 h 3.527778 3.527778 l 1.685124,2.972086 1.685124,2.972086 -1.499161,3.022808 -1.499157,3.022808 -3.713745,-0.0025 -3.713741,-0.0025 -1.698886,-2.996283 z m 21.519446,0 -1.69889,-2.996283 1.69889,-2.996283 1.698886,-2.996283 h 3.704167 3.704167 l 1.698886,2.996283 1.69889,2.996283 -1.69889,2.996283 -1.698886,2.996282 H 73.051067 69.3469 Z m -53.926899,-6.084179 -1.65078,-3.079803 1.65078,-3.086287 1.650781,-3.086286 3.586111,-0.0035 3.586111,-0.0035 1.745271,3.136297 1.745272,3.136293 -1.743874,3.037318 -1.743874,3.03742 -3.587509,-0.004 -3.587508,-0.004 z m 21.663566,0.05736 -1.739978,-3.03053 1.752732,-3.143081 1.752733,-3.14308 h 3.456697 3.4567 l 1.745269,3.136297 1.745273,3.136293 -1.743876,3.037318 -1.743872,3.037314 h -3.47085 -3.470851 z m 21.519446,0 -1.739978,-3.03053 1.752731,-3.143081 1.752734,-3.14308 h 3.644473 3.644474 l 1.633541,2.996769 1.633541,2.99677 -1.817966,3.176841 -1.817967,3.176842 H 62.116906 58.644105 Z M 2.9266241,41.138781 1.1813529,38.002488 2.9252267,34.965171 4.6691004,31.927856 h 3.4708503 3.4708503 l 1.768963,3.081014 1.768963,3.081012 -1.652305,3.089123 -1.652304,3.089123 -3.5861116,0.0035 -3.5861109,0.0035 -1.7452714,-3.136297 z m 21.6353619,0.151945 -1.626772,-2.984352 1.601743,-3.189258 1.601742,-3.18926 h 3.497726 3.497726 l 1.812797,3.167807 1.812797,3.167807 -1.638465,3.005804 -1.638466,3.005804 h -3.647028 -3.647029 z m 21.507752,-0.02145 -1.638466,-3.005804 1.812799,-3.167806 1.812794,-3.167811 h 3.472805 3.472801 l 1.739978,3.03053 1.739977,3.030531 -1.75273,3.14308 -1.752734,3.143081 H 51.342585 47.708204 L 46.069738,41.269273 Z M 67.852992,41.132 l -1.752731,-3.143081 1.739978,-3.030531 1.739978,-3.030533 h 3.47085 3.47085 l 1.739978,3.03053 1.739978,3.030531 -1.752731,3.14308 -1.752734,3.143081 h -3.445341 -3.445341 l -1.752734,-3.143081 z m -54.179984,-6.207862 -1.698886,-2.996283 1.698886,-2.996283 1.698888,-2.996284 3.713742,-0.0023 3.713743,-0.0023 1.487158,2.998611 1.487159,2.998611 -1.487159,2.998611 -1.487158,2.998611 -3.713743,-0.0023 -3.713742,-0.0023 z m 21.519447,0 -1.698887,-2.996283 1.698887,-2.996283 1.698887,-2.996284 h 3.704167 3.704167 l 1.698886,2.996284 1.69889,2.996283 -1.69889,2.996283 -1.698886,2.996282 h -3.704167 -3.704167 z m 21.872225,0 -1.69889,-2.996283 1.69889,-2.996283 1.698886,-2.996284 h 3.527778 3.527778 l 1.698886,2.996284 1.69889,2.996283 -1.69889,2.996283 -1.698886,2.996282 h -3.527778 -3.527778 z"
         id="path546" /><path
         style="fill:#245b62;stroke-width:0.352778"
         d="m 46.128568,141.11025 -1.69889,-2.99629 1.69889,-2.99628 1.698886,-2.99628 3.713741,-0.002 3.713745,-0.002 1.499157,3.02281 1.499161,3.02281 -1.685124,2.97208 -1.685124,2.97209 h -3.527778 -3.527778 l -1.698886,-2.99628 z m 21.519446,0 -1.69889,-2.99629 1.69889,-2.99628 1.698886,-2.99628 h 3.704167 3.704167 l 1.698886,2.99628 1.69889,2.99628 -1.69889,2.99629 -1.698886,2.99628 H 73.051067 69.3469 Z m -10.755536,-6.37187 -1.499161,-3.02281 1.685124,-2.97208 1.685125,-2.97209 h 3.527778 3.527778 l 1.698886,2.99628 1.69889,2.99628 -1.69889,2.99629 -1.698886,2.99628 -3.713742,0.002 -3.713744,0.002 -1.499158,-3.02281 z M 46.38842,128.85624 c -0.922443,-1.59924 -1.677169,-3.06889 -1.677169,-3.26589 0,-0.19699 0.754726,-1.66664 1.677169,-3.26589 l 1.677173,-2.90772 h 3.46704 3.467044 l 1.745269,3.1363 1.745273,3.13629 -1.743876,3.03732 -1.743872,3.03731 h -3.468437 -3.468441 z m 21.451819,-0.12281 -1.739978,-3.03053 1.752731,-3.14308 1.752734,-3.14308 h 3.456697 3.4567 l 1.74527,3.1363 1.745272,3.13629 -1.743875,3.03732 -1.743873,3.03731 h -3.47085 -3.47085 z m -10.819449,-6.29786 -1.623522,-2.9784 1.497182,-3.01882 1.497186,-3.01883 3.713744,0.002 3.713742,0.002 1.696477,2.99205 1.69648,2.99204 -1.636854,3.00285 -1.636854,3.00285 h -3.647027 -3.647028 l -1.623526,-2.9784 z m -10.892222,-6.37254 -1.69889,-2.99629 1.69889,-2.99628 1.698886,-2.99628 3.713741,-0.002 3.713745,-0.002 1.487156,2.99861 1.487159,2.99861 -1.487159,2.99861 -1.487156,2.99861 -3.713745,-0.002 -3.713741,-0.002 -1.698886,-2.99628 z m 21.519446,0 -1.69889,-2.99629 1.69889,-2.99628 1.698886,-2.99628 h 3.704167 3.704167 l 1.698886,2.99628 1.69889,2.99628 -1.69889,2.99629 -1.698886,2.99628 H 73.051067 69.3469 Z m -32.263333,-6.02682 -1.739978,-3.03053 1.759319,-3.15489 1.759319,-3.15489 3.503492,0.1 3.50349,0.10001 1.778095,2.89082 1.778095,2.89083 -1.828126,3.19459 -1.828123,3.19459 H 40.59746 37.124658 Z m 21.607834,-0.15873 -1.601741,-3.18926 1.626771,-2.98435 1.626771,-2.98435 h 3.657121 3.657124 l 1.633541,2.99677 1.633541,2.99677 -1.817966,3.17684 -1.817967,3.17684 h -3.497728 -3.497725 z m -32.430529,-6.14509 -1.626772,-2.98435 1.601743,-3.18926 1.601742,-3.189259 h 3.497726 3.497726 l 1.812797,3.167807 1.812797,3.167802 -1.638465,3.00581 -1.638466,3.0058 h -3.647028 -3.647029 z m 21.698722,-0.0136 -1.838463,-2.99791 1.81731,-3.175702 1.81731,-3.175694 h 3.472805 3.472801 l 1.739978,3.03053 1.739977,3.030526 -1.75273,3.14308 -1.752734,3.14309 h -3.438896 -3.438899 z m 21.592284,-0.14517 -1.752731,-3.14308 1.739978,-3.030526 1.739978,-3.030513 h 3.47085 3.47085 l 1.739978,3.030531 1.739978,3.030528 -1.752731,3.14308 -1.752734,3.14308 h -3.445341 -3.445341 l -1.752734,-3.14308 z m -32.660537,-6.207836 -1.698887,-2.996283 1.698887,-2.996282 1.698887,-2.996283 h 3.704167 3.704167 l 1.698886,2.996283 1.69889,2.996282 -1.69889,2.996283 -1.698886,2.996286 h -3.704167 -3.704167 z m 21.885986,0.0242 -1.685124,-2.972085 1.499161,-3.022808 1.499158,-3.022808 3.713744,0.0025 3.713742,0.0025 1.698886,2.996282 1.69889,2.996283 -1.69889,2.996283 -1.698886,2.996279 H 62.291344 58.763566 L 57.078441,97.390287 Z M 2.8139685,91.156908 1.1921534,88.303067 l 1.7512274,-3.140382 1.7512276,-3.140386 3.5747546,0.0035 3.574755,0.0035 1.650744,3.08622 1.650745,3.08622 -1.650745,2.904532 -1.650744,2.904532 H 8.1399507 4.4357838 L 2.8139685,91.157014 Z m 21.6249255,-0.158993 -1.497186,-3.018825 1.623525,-2.978397 1.623524,-2.978394 h 3.657123 3.657122 l 1.631914,2.993785 1.631913,2.993785 -1.701633,3.001109 -1.701632,3.001109 -3.713743,0.0023 -3.713742,0.0023 z m 21.692083,0.02212 -1.69648,-2.992049 1.636854,-3.002848 1.636853,-3.002845 h 3.657121 3.657124 l 1.618237,2.968699 1.618242,2.968699 -1.501994,3.028523 -1.501994,3.028523 -3.713745,-0.0025 -3.713741,-0.0025 -1.696477,-2.992046 z m 21.51504,-0.0078 -1.700879,-2.99979 1.843934,-3.006841 1.843934,-3.006838 3.496437,0.09993 3.496438,0.09993 1.776335,2.887966 1.776335,2.887963 -1.711661,3.018737 -1.711656,3.018733 H 73.051067 69.3469 Z m -53.924902,-6.080647 -1.65078,-3.079803 1.65078,-3.086287 1.650781,-3.086287 3.587508,-0.0035 3.587509,-0.0035 1.739978,3.03053 1.739977,3.03053 -1.752731,3.143081 -1.752732,3.143186 -3.574755,-0.004 -3.574754,-0.004 z m 21.67632,-0.05518 -1.752732,-3.143081 1.739978,-3.03053 1.739977,-3.030531 h 3.470851 3.47085 l 1.739978,3.030531 1.739978,3.03053 -1.752731,3.143081 -1.752734,3.14308 h -3.445341 -3.445341 z m 21.519445,0 -1.752731,-3.143081 1.739978,-3.03053 1.739978,-3.030531 h 3.472801 3.472804 l 1.817311,3.175695 1.81731,3.175699 -1.838463,2.997912 -1.838459,2.997916 H 62.10851 58.669614 Z M 2.8250556,78.507356 1.2143275,75.349903 2.8250556,72.515485 4.4357838,69.681068 h 3.7041669 3.7041673 l 1.650744,2.904532 1.650745,2.904532 -1.650745,3.08622 -1.650744,3.08622 -3.7041673,0.0011 -3.7041669,0.0011 -1.6107282,-3.157452 z m 21.7978284,0.185423 -1.685124,-2.972085 1.49916,-3.022809 1.499159,-3.022808 3.713742,0.0025 3.713743,0.0025 1.698887,2.996283 1.698889,2.996283 -1.698889,2.996282 -1.698887,2.996283 h -3.527778 -3.527778 l -1.685124,-2.972086 z m 21.505684,-0.0242 -1.69889,-2.996283 1.69889,-2.996283 1.698886,-2.996282 3.713741,-0.0025 3.713745,-0.0025 1.499157,3.022808 1.499161,3.022808 -1.685124,2.972085 -1.685124,2.972086 h -3.527778 -3.527778 l -1.698886,-2.996283 z m 21.519446,0 -1.69889,-2.996283 1.69889,-2.996283 1.698886,-2.996282 h 3.704167 3.704167 l 1.698886,2.996282 1.69889,2.996283 -1.69889,2.996283 -1.698886,2.996282 H 73.051067 69.3469 Z m -10.755536,-6.371869 -1.499161,-3.022808 1.685124,-2.972086 1.685125,-2.972085 h 3.527778 3.527778 l 1.698886,2.996282 1.69889,2.996283 -1.69889,2.996283 -1.698886,2.996282 -3.713742,0.0025 -3.713744,0.0025 -1.499158,-3.022808 z m 10.947761,-6.004944 -1.739978,-3.030531 1.752731,-3.14308 1.752734,-3.143081 h 3.456697 3.4567 l 1.74527,3.136297 1.745272,3.136293 -1.743875,3.037318 -1.743873,3.037318 h -3.47085 -3.47085 l -1.739978,-3.030531 z"
         id="path544" /><path
         style="fill:#071414;stroke-width:0.352778"
         d="m 2.5749038,141.1283 -1.71994028,-3.33567 1.73067958,-3.01433 1.7306795,-3.01434 -1.7399777,-3.03053 -1.7399778,-3.03053 1.7454738,-3.13006 1.7454739,-3.13007 -1.824361,-3.18801 -1.8243609,-3.18802 1.818611,-3.17796 1.8186111,-3.17797 -1.74362,-3.13333 L 0.8285751,100.44415 2.5724489,97.406836 4.3163226,94.369521 2.5763449,91.338991 0.8363671,88.30846 2.5768922,85.18727 4.3174173,82.066079 2.5861905,78.708524 0.85496352,75.350968 2.5856431,72.336634 4.3163226,69.3223 2.5763449,66.291769 0.8363671,63.261239 2.5818409,60.131176 4.3273148,57.001109 2.5029538,53.813092 0.6785929,50.625078 2.4972039,47.447111 4.315815,44.269144 2.572195,41.135814 0.8285751,38.002488 2.5724489,34.965171 4.3163226,31.927856 2.5763449,28.897326 0.8363671,25.866796 2.5768922,22.745605 4.3174173,19.624413 2.5861905,16.266859 0.85496352,12.909304 2.5856431,9.8949694 4.3163226,6.8806344 h 3.6491911 3.6491913 l 1.816913,-3.175 1.816913,-3.17499988 h 3.651143 3.651143 l 1.816913,3.17499988 1.816913,3.175 h 3.674114 3.674115 l 1.594581,-3.175 1.59458,-3.17499988 h 3.850503 3.850506 l 1.816912,3.17499988 1.816911,3.175 h 3.474756 3.474755 l 1.816912,-3.175 1.816911,-3.17499988 h 3.651145 3.651144 l 1.816912,3.17499988 1.816911,3.175 h 3.474756 3.474755 l 1.816912,-3.175 1.816911,-3.17499988 h 3.651145 3.651144 l 1.816912,3.17499988 1.816911,3.175 h 3.474756 3.474755 l 1.816912,-3.175 1.81691,-3.17499988 h 3.85051 3.8505 l 1.59458,3.17499988 1.59458,3.175 h 3.67412 3.67411 l 1.81691,-3.175 1.81692,-3.17499988 h 3.65114 3.65114 l 1.81692,3.17499988 1.81691,3.175 h 3.64919 3.64919 l 1.73068,3.014335 1.73068,3.0143346 -1.72578,3.346986 -1.72578,3.346985 1.73898,3.124975 1.73897,3.124975 -1.74388,3.037316 -1.74387,3.037315 1.73998,3.03053 1.73998,3.030531 -1.74548,3.130063 -1.74547,3.130066 1.82436,3.188018 1.82436,3.188014 -1.81861,3.177967 -1.81861,3.177966 1.74362,3.13333 1.74362,3.133326 -1.74388,3.037318 -1.74387,3.037315 1.73068,3.014334 1.73068,3.014334 -1.72578,3.346986 -1.72578,3.346987 1.73898,3.124976 1.73897,3.124972 -1.74388,3.037318 -1.74387,3.037314 1.73998,3.030531 1.73998,3.030528 -1.74548,3.13007 -1.74547,3.13006 1.82436,3.18802 1.82436,3.18801 -1.81861,3.17797 -1.81861,3.17797 1.74362,3.13333 1.74362,3.13332 -1.74388,3.03732 -1.74387,3.03731 1.73068,3.01434 1.73068,3.01433 -1.71994,3.33567 -1.71994,3.33566 h -3.84193 -3.84192 l -1.6966,-3.17152 -1.6966,-3.17153 -3.58946,-0.004 -3.58946,-0.003 -1.81692,3.175 -1.81691,3.175 h -3.65114 -3.65115 l -1.81691,-3.175 -1.81691,-3.175 h -3.47476 -3.47475 l -1.81691,3.175 -1.816914,3.175 h -3.651144 -3.651145 l -1.816911,-3.175 -1.816912,-3.175 h -3.474755 -3.474756 l -1.816911,3.175 -1.816912,3.175 h -3.827533 -3.827534 l -1.816911,-3.175 -1.816912,-3.175 h -3.474755 -3.474756 l -1.816911,3.175 -1.816912,3.175 h -3.651144 -3.651145 l -1.816911,-3.175 -1.816912,-3.175 h -3.474755 -3.474756 l -1.816911,3.175 -1.816913,3.175 h -3.651143 -3.651143 l -1.816913,-3.175 -1.816913,-3.175 -3.589461,0.004 -3.58946,0.004 -1.696603,3.17153 -1.696602,3.17152 H 8.1367676 4.2948441 L 2.5749038,141.1284 Z m 53.9932302,0.006 1.685124,-2.97209 -1.499161,-3.02281 -1.499157,-3.0228 -3.713745,0.002 -3.713741,0.002 -1.698886,2.99629 -1.69889,2.99628 1.69889,2.99628 1.698886,2.99629 h 3.527778 3.527778 l 1.685124,-2.97209 z m 21.885986,-0.0242 1.69889,-2.99629 -1.69889,-2.99628 -1.698886,-2.99628 H 73.051067 69.3469 l -1.698886,2.99628 -1.69889,2.99628 1.69889,2.99629 1.698886,2.99628 h 3.704167 3.704167 z m 21.519446,0 1.698894,-2.99629 -1.698894,-2.99628 -1.698886,-2.99628 -3.713741,-0.002 -3.713745,-0.002 -1.499158,3.02281 -1.499161,3.02281 1.685124,2.97208 1.685125,2.97209 h 3.527778 3.527778 l 1.698886,-2.99629 z m 21.505684,0.0242 1.68512,-2.97209 -1.49916,-3.02281 -1.49915,-3.0228 -3.71375,0.002 -3.71374,0.002 -1.69889,2.99629 -1.69889,2.99628 1.69889,2.99628 1.69889,2.99629 h 3.52778 3.52778 l 1.68512,-2.97209 z m 21.79783,-0.18543 1.61073,-3.15745 -1.61073,-2.83442 -1.61073,-2.83441 h -3.70417 -3.70416 l -1.65075,2.90453 -1.65074,2.90453 1.65074,3.08622 1.65075,3.08622 3.70416,10e-4 3.70417,0.001 1.61073,-3.15746 z m -75.759072,-6.18876 1.69889,-2.99629 -1.69889,-2.99628 -1.698886,-2.99628 h -3.527778 -3.527778 l -1.685125,2.97209 -1.685124,2.97208 1.499161,3.02281 1.499158,3.02281 3.713744,-0.002 3.713742,-0.002 1.698886,-2.99628 z m 21.691648,-0.0219 1.499161,-3.02281 -1.685125,-2.97209 -1.685124,-2.97208 H 83.81079 80.283012 l -1.698886,2.99628 -1.69889,2.99628 1.69889,2.99628 1.698886,2.99629 3.713741,0.002 3.713745,0.002 1.499158,-3.02281 z m 21.700024,0.0219 1.69889,-2.99629 -1.69889,-2.99628 -1.69889,-2.99628 h -3.70417 -3.70416 l -1.69889,2.99628 -1.698888,2.99628 1.698888,2.99629 1.69889,2.99628 h 3.70416 3.70417 z m 21.51944,0 1.69889,-2.99629 -1.69889,-2.99628 -1.69888,-2.99628 -3.71374,-0.002 -3.71375,-0.002 -1.48715,2.99861 -1.48716,2.99861 1.48716,2.99861 1.48715,2.99861 3.71375,-0.002 3.71374,-0.002 1.69888,-2.99629 z m -75.682777,-6.0336 1.743876,-3.03732 -1.745273,-3.13629 -1.745269,-3.1363 h -3.467044 -3.46704 l -1.677173,2.90772 c -0.922443,1.59925 -1.677169,3.0689 -1.677169,3.26589 0,0.197 0.754726,1.66665 1.677169,3.26589 l 1.677173,2.90772 h 3.468441 3.468437 z m 21.519447,0 1.743875,-3.03732 -1.745272,-3.13629 -1.74527,-3.1363 h -3.4567 -3.456697 l -1.752734,3.14308 -1.752731,3.14308 1.739978,3.03053 1.739978,3.03053 h 3.47085 3.47085 z m 21.447923,0.12959 c 0.922447,-1.59924 1.677167,-3.06889 1.677167,-3.26589 0,-0.19699 -0.75472,-1.66664 -1.677167,-3.26589 l -1.677172,-2.90772 h -3.455685 -3.455684 l -1.752734,3.14308 -1.752731,3.14308 1.739978,3.03053 1.739978,3.03053 h 3.468437 3.468441 z m 21.856307,-0.29117 1.60658,-3.1989 -1.62152,-2.97471 -1.62152,-2.97472 h -3.65712 -3.65712 l -1.63847,3.00581 -1.63846,3.0058 1.8128,3.16781 1.81279,3.1678 h 3.49773 3.49772 z m 21.60689,0.16158 1.74387,-3.03732 -1.74527,-3.13629 -1.74527,-3.1363 h -3.46704 -3.46704 l -1.67718,2.90772 c -0.92244,1.59925 -1.67717,3.0689 -1.67717,3.26589 0,0.197 0.75473,1.66665 1.67717,3.26589 l 1.67718,2.90772 h 3.46844 3.46843 z m -75.601685,-6.31553 1.636854,-3.00285 -1.69648,-2.99205 -1.696477,-2.99204 -3.713742,-0.002 -3.713744,-0.002 -1.497186,3.01883 -1.497182,3.01882 1.623522,2.9784 1.623526,2.97839 h 3.647028 3.647027 l 1.636854,-3.00284 z m 21.506118,0.0245 1.623522,-2.9784 -1.497182,-3.01882 -1.497185,-3.01883 -3.713745,0.002 -3.713741,0.002 -1.696477,2.99204 -1.69648,2.99205 1.636854,3.00285 1.636853,3.00284 h 3.647028 3.647027 l 1.623526,-2.97839 z m 21.621847,-0.16199 1.75123,-3.14039 -1.62181,-2.85384 -1.62182,-2.85384 -3.70417,-7.1e-4 -3.70416,-7e-4 -1.69889,2.99628 -1.698888,2.99628 1.698888,2.99628 1.69889,2.99629 3.57475,0.002 3.57476,0.002 1.75122,-3.14039 z m 21.72593,0.13944 1.69889,-2.99628 -1.69889,-2.99628 -1.69888,-2.99629 -3.70417,7.1e-4 -3.70417,7.1e-4 -1.62181,2.85384 -1.62182,2.85384 1.75123,3.14038 1.75123,3.14039 3.57475,-0.002 3.57476,-0.002 1.69888,-2.99628 z m -75.687024,-6.34767 1.487159,-2.99861 -1.487159,-2.99861 -1.487156,-2.99861 -3.713745,0.002 -3.713741,0.002 -1.698886,2.99628 -1.69889,2.99629 1.69889,2.99628 1.698886,2.99628 3.713741,0.002 3.713745,0.002 1.487156,-2.99861 z m 21.712024,-0.002 1.69889,-2.99628 -1.69889,-2.99628 -1.698886,-2.99628 H 73.051067 69.3469 l -1.698886,2.99628 -1.69889,2.99628 1.69889,2.99628 1.698886,2.99629 h 3.704167 3.704167 z m 21.519446,0 1.698894,-2.99628 -1.698894,-2.99628 -1.698886,-2.99628 -3.713741,-0.002 -3.713745,-0.002 -1.487156,2.99861 -1.48716,2.99861 1.48716,2.99861 1.487156,2.99861 3.713745,-0.002 3.713741,-0.002 1.698886,-2.99628 z m 21.519444,0 1.69889,-2.99628 -1.69889,-2.99628 -1.69888,-2.99628 h -3.52778 -3.52778 l -1.69889,2.99628 -1.69889,2.99628 1.69889,2.99628 1.69889,2.99629 h 3.52778 3.52778 z m 21.87223,0 1.69889,-2.99628 -1.69889,-2.99628 -1.69889,-2.99628 h -3.70417 -3.70416 l -1.69889,2.99628 -1.69889,2.99628 1.69889,2.99628 1.69889,2.99629 h 3.70416 3.70417 z m -97.466853,-6.19087 1.828126,-3.19459 -1.778095,-2.89083 -1.778095,-2.89082 -3.50349,-0.10001 -3.503492,-0.10001 -1.759319,3.1549 -1.759319,3.15489 1.739978,3.03053 1.739977,3.03053 h 3.472802 3.472804 z m 21.50929,0.0177 1.817966,-3.17684 -1.633541,-2.99677 -1.633541,-2.99677 h -3.657124 -3.657121 l -1.626771,2.98435 -1.626771,2.98436 1.601741,3.18926 1.601742,3.18925 h 3.497725 3.497728 z m 21.706781,-0.0221 1.606582,-3.19889 -1.621515,-2.97472 -1.621518,-2.97471 h -3.657124 -3.657121 l -1.638466,3.0058 -1.638466,3.00581 1.812799,3.16781 1.812794,3.1678 h 3.497729 3.497725 z m 21.606892,0.16159 1.74387,-3.03732 -1.74527,-3.13629 -1.74527,-3.1363 h -3.45025 -3.45026 l -1.83846,2.99792 -1.838461,2.99791 1.817311,3.1757 1.81731,3.17569 h 3.4728 3.47281 z m 21.54453,-0.0437 1.76897,-3.08101 -1.65231,-3.08913 -1.6523,-3.08912 -3.57476,-0.004 -3.57475,-0.004 -1.75273,3.14308 -1.75273,3.14309 1.73997,3.03053 1.73998,3.03053 h 3.47085 3.47085 l 1.76896,-3.08102 z m -97.1446,-6.27465 1.638465,-3.00581 -1.812797,-3.167802 -1.812797,-3.167807 h -3.497726 -3.497726 l -1.601742,3.189259 -1.601743,3.18926 1.626772,2.98435 1.626771,2.98435 h 3.647029 3.647028 z m 21.608416,-0.13728 1.75273,-3.14308 -1.739977,-3.030528 -1.739978,-3.030531 H 51.52967 48.056865 l -1.81731,3.175695 -1.81731,3.175694 1.838463,2.99792 1.838459,2.99791 h 3.438899 3.438896 z m 21.519446,0 1.752731,-3.14308 -1.739978,-3.030528 -1.739978,-3.030531 h -3.47085 -3.47085 l -1.739978,3.030531 -1.739978,3.030528 1.752731,3.14308 1.752734,3.14308 h 3.445341 3.445341 z m 21.592284,0.14517 1.838464,-2.99792 -1.817311,-3.175694 -1.817311,-3.175695 h -3.472804 -3.472801 l -1.739978,3.030531 -1.739978,3.030528 1.752731,3.14308 1.752734,3.14308 h 3.438896 3.438899 z m 21.698724,0.0136 1.62677,-2.98435 -1.60174,-3.189262 -1.60175,-3.189259 h -3.49772 -3.49773 l -1.81279,3.167807 -1.8128,3.167804 1.63846,3.00581 1.63847,3.0058 h 3.64703 3.64703 z m 21.62011,-0.15873 1.75273,-3.14308 -1.73998,-3.030531 -1.73998,-3.030548 h -3.47085 -3.47085 l -1.76896,3.081013 -1.76896,3.081016 1.6523,3.08912 1.65231,3.08912 3.57475,0.004 3.57475,0.004 1.75274,-3.14308 z m -97.161698,-6.207876 1.69889,-2.996283 -1.69889,-2.996282 -1.698886,-2.996283 h -3.704167 -3.704167 l -1.698887,2.996283 -1.698887,2.996282 1.698887,2.996283 1.698887,2.996286 h 3.704167 3.704167 z m 21.519446,0 1.69889,-2.996283 -1.69889,-2.996282 -1.698886,-2.996283 -3.713742,-0.0025 -3.713744,-0.0025 -1.499158,3.022808 -1.499161,3.022808 1.685124,2.972086 1.685125,2.972082 h 3.527778 3.527778 l 1.698886,-2.996279 z m 21.505684,0.0242 1.685125,-2.972085 -1.499161,-3.022808 -1.499158,-3.022808 -3.713745,0.0025 -3.713741,0.0025 -1.698886,2.996282 -1.69889,2.996283 1.69889,2.996283 1.698886,2.996279 h 3.527778 3.527778 l 1.685124,-2.972082 z m 21.885988,-0.0242 1.69889,-2.996283 -1.69889,-2.996282 -1.69889,-2.996283 h -3.70417 -3.70416 l -1.69889,2.996283 -1.698888,2.996282 1.698888,2.996283 1.69889,2.996286 h 3.70416 3.70417 z m 21.51944,0 1.69889,-2.996283 -1.69889,-2.996282 -1.69888,-2.996283 -3.71374,-0.0025 -3.71375,-0.0025 -1.48715,2.998611 -1.48716,2.998611 1.48716,2.998611 1.48715,2.998611 3.71375,-0.002 3.71374,-0.002 1.69888,-2.996282 z m -118.934258,-6.259583 1.650745,-2.904532 -1.650745,-3.08622 -1.650744,-3.08622 -3.574755,-0.0035 -3.5747546,-0.0035 -1.7512276,3.140386 -1.7512274,3.140382 1.6218151,2.853841 1.6218153,2.853845 h 3.7041669 3.7041673 l 1.650744,-2.904532 z m 21.570334,-0.09524 1.701633,-3.001109 -1.631913,-2.993785 -1.631914,-2.993785 H 29.84588 26.188757 l -1.623524,2.978394 -1.623525,2.978397 1.497186,3.018825 1.497185,3.018828 3.713742,-0.0025 3.713743,-0.0025 1.701632,-3.001109 z m 21.691738,-0.02275 1.501994,-3.028523 -1.618242,-2.968699 -1.618237,-2.968699 h -3.657124 -3.657121 l -1.636853,3.002844 -1.636854,3.002848 1.69648,2.992049 1.696477,2.992046 3.713741,0.0025 3.713745,0.0025 1.501994,-3.028523 z m 21.709956,0.0051 1.711661,-3.018737 -1.776335,-2.887962 -1.776335,-2.887966 -3.496438,-0.09993 -3.496437,-0.09993 -1.843934,3.006838 -1.843934,3.006841 1.700879,2.999789 1.700883,2.99979 h 3.704167 3.704167 z m 21.509424,0.01764 1.701626,-3.001109 -1.63191,-2.993785 -1.631911,-2.993785 h -3.657124 -3.657121 l -1.623526,2.978394 -1.623522,2.978397 1.497182,3.018825 1.497186,3.018828 3.713745,-0.0025 3.713741,-0.0025 1.701634,-3.001109 z m 21.691736,-0.02275 1.50199,-3.028523 -1.61824,-2.968699 -1.61824,-2.968699 h -3.65712 -3.65712 l -1.63685,3.002844 -1.63686,3.002848 1.69648,2.992049 1.69648,2.992046 3.71374,0.0025 3.71375,0.0025 1.50199,-3.028523 z m 21.624,0.161879 1.6257,-2.86065 -1.74375,-3.133577 -1.74376,-3.133573 -3.58611,0.0035 -3.58611,0.0035 -1.65075,3.08622 -1.65074,3.08622 1.65074,2.904532 1.65075,2.904533 h 3.70416 3.70417 l 1.6257,-2.860654 z m -119.017913,-6.273662 1.752731,-3.143081 -1.739977,-3.03053 -1.739978,-3.030531 -3.587509,0.0035 -3.587508,0.0035 -1.650781,3.086287 -1.65078,3.086287 1.65078,3.079803 1.650781,3.079799 3.574754,0.0041 3.574755,0.0041 1.752732,-3.143081 z m 21.519447,0 1.752731,-3.143081 -1.739978,-3.03053 -1.739978,-3.030531 h -3.47085 -3.470851 l -1.739977,3.030531 -1.739978,3.03053 1.752732,3.143081 1.752733,3.14308 h 3.445341 3.445341 z M 67.385868,85.021912 69.224331,82.024 67.407021,78.848301 65.58971,75.672606 h -3.472804 -3.472801 l -1.739978,3.030531 -1.739978,3.03053 1.752731,3.143081 1.752734,3.14308 h 3.438896 3.438899 z m 21.799386,-0.145164 1.752731,-3.143081 -1.739978,-3.03053 -1.739978,-3.030531 h -3.472801 -3.472805 l -1.81731,3.175695 -1.81731,3.175699 1.838463,2.997912 1.838459,2.997916 h 3.438899 3.438896 z m 21.519446,0 1.75273,-3.143081 -1.73998,-3.03053 -1.73997,-3.030531 h -3.47086 -3.47085 l -1.73997,3.030531 -1.739981,3.03053 1.752731,3.143081 1.75273,3.14308 h 3.44534 3.44535 z m 21.67632,0.04984 1.65078,-3.086287 -1.65078,-3.079803 -1.65078,-3.079799 -3.58751,-0.0041 -3.58751,-0.0041 -1.73998,3.03053 -1.73997,3.030531 1.75273,3.14308 1.75273,3.143081 3.57475,-0.0035 3.57476,-0.0035 1.65078,-3.086287 z M 13.494862,78.576352 15.145607,75.490132 13.494862,72.5856 11.844118,69.681068 H 8.1399507 4.4357838 l -1.6107282,2.834417 -1.6107281,2.834418 1.6107281,3.157453 1.6107282,3.157452 3.7041669,-0.0011 3.7041673,-0.0011 1.650744,-3.08622 z m 21.567589,0.09223 1.698889,-2.996283 -1.698889,-2.996282 -1.698887,-2.996283 -3.713743,-0.0023 -3.713742,-0.0023 -1.499159,3.022808 -1.49916,3.022809 1.685124,2.972085 1.685124,2.972086 h 3.527778 3.527778 z m 21.505683,0.0242 1.685124,-2.972086 -1.499161,-3.022808 -1.499157,-3.022808 -3.713745,0.0025 -3.713741,0.0025 -1.698886,2.996282 -1.69889,2.996283 1.69889,2.996283 1.698886,2.996283 h 3.527778 3.527778 l 1.685124,-2.972086 z m 21.885986,-0.0242 1.69889,-2.996283 -1.69889,-2.996282 -1.698886,-2.996283 H 73.051067 69.3469 l -1.698886,2.996283 -1.69889,2.996282 1.69889,2.996283 1.698886,2.996283 h 3.704167 3.704167 z m 21.519446,0 1.698894,-2.996283 -1.698894,-2.996282 -1.698886,-2.996283 -3.713741,-0.0025 -3.713745,-0.0025 -1.499158,3.022808 -1.499161,3.022808 1.685124,2.972086 1.685125,2.972086 h 3.527778 3.527778 L 99.973566,78.6683 Z m 21.505684,0.0242 1.68512,-2.972086 -1.49916,-3.022808 -1.49915,-3.022808 -3.71375,0.0025 -3.71374,0.0025 -1.69889,2.996282 -1.69889,2.996283 1.69889,2.996283 1.69889,2.996283 h 3.52778 3.52778 l 1.68512,-2.972086 z m 21.79783,-0.185424 1.61073,-3.157453 -1.61073,-2.834417 -1.61073,-2.834418 h -3.70417 -3.70416 l -1.65075,2.904532 -1.65074,2.904533 1.65074,3.086219 1.65075,3.08622 3.70416,0.0011 3.70417,0.0011 1.61073,-3.157453 z M 24.29854,72.296714 25.797699,69.273906 24.112575,66.30182 22.427452,63.329734 h -3.527778 -3.527778 l -1.698888,2.996283 -1.698886,2.996283 1.698886,2.996282 1.698888,2.996283 3.713742,0.0025 3.713743,0.0025 1.499159,-3.022808 z m 21.700022,0.02187 1.69889,-2.996283 -1.69889,-2.996283 -1.698886,-2.996282 h -3.704167 -3.704167 l -1.698887,2.996282 -1.698887,2.996283 1.698887,2.996283 1.698887,2.996283 h 3.704167 3.704167 z m 21.519446,0 1.69889,-2.996283 -1.69889,-2.996283 -1.698886,-2.996282 h -3.527778 -3.527778 l -1.685125,2.972085 -1.685124,2.972086 1.499161,3.022808 1.499158,3.022808 3.713744,-0.0025 3.713742,-0.0025 1.698886,-2.996282 z m 21.691648,-0.02187 1.499161,-3.022808 -1.685125,-2.972086 -1.685124,-2.972086 H 83.81079 80.283012 l -1.698886,2.996283 -1.69889,2.996283 1.69889,2.996282 1.698886,2.996283 3.713741,0.0025 3.713745,0.0025 1.499158,-3.022808 z m 21.700024,0.02187 1.69889,-2.996283 -1.69889,-2.996283 -1.69889,-2.996282 h -3.70417 -3.70416 l -1.69889,2.996282 -1.698888,2.996283 1.698888,2.996283 1.69889,2.996283 h 3.70416 3.70417 z m 21.51944,0 1.69889,-2.996283 -1.69889,-2.996283 -1.69888,-2.996282 h -3.52778 -3.52778 l -1.68512,2.972085 -1.68513,2.972086 1.49916,3.022808 1.49916,3.022808 3.71375,-0.0025 3.71374,-0.0025 1.69888,-2.996282 z M 13.28315,66.414578 c 0.922444,-1.599244 1.677171,-3.068895 1.677171,-3.265889 0,-0.196995 -0.754727,-1.666646 -1.677171,-3.26589 L 11.605978,56.975078 H 8.1502931 4.6946084 l -1.7527318,3.14308 -1.7527317,3.143081 1.7399778,3.03053 1.7399777,3.030531 h 3.4684387 3.4684389 z m 21.668968,-0.26912 1.817967,-3.176841 -1.633542,-2.99677 -1.633541,-2.996769 h -3.644473 -3.644475 l -1.752731,3.14308 -1.752732,3.143081 1.739978,3.03053 1.739978,3.030531 h 3.472802 3.472802 z m 21.794225,0.139527 1.743876,-3.037318 -1.745273,-3.136293 -1.745269,-3.136296 h -3.467044 -3.46704 l -1.677173,2.907721 c -0.922443,1.599244 -1.677169,3.068895 -1.677169,3.26589 0,0.196994 0.754726,1.666645 1.677169,3.265889 l 1.677173,2.907722 h 3.468441 3.468437 z m 21.519447,0 1.743875,-3.037318 -1.745272,-3.136293 -1.74527,-3.136296 h -3.4567 -3.456697 l -1.752734,3.14308 -1.752731,3.143081 1.739978,3.03053 1.739978,3.030531 h 3.47085 3.47085 z m 21.447923,0.129593 c 0.922447,-1.599244 1.677167,-3.068895 1.677167,-3.265889 0,-0.196995 -0.75472,-1.666646 -1.677167,-3.26589 l -1.677172,-2.907721 h -3.455685 -3.455684 l -1.752734,3.14308 -1.752731,3.143081 1.739978,3.03053 1.739978,3.030531 h 3.468437 3.468441 z m 21.943747,-0.129593 1.74388,-3.037318 -1.74528,-3.136293 -1.74527,-3.136296 h -3.64573 -3.64574 l -1.63847,3.005804 -1.63846,3.005804 1.8128,3.167807 1.81279,3.167807 h 3.47281 3.4728 z m 21.51945,0 1.74387,-3.037318 -1.74527,-3.136293 -1.74527,-3.136296 h -3.46704 -3.46704 l -1.67718,2.907721 c -0.92244,1.599244 -1.67717,3.068895 -1.67717,3.26589 0,0.196994 0.75473,1.666645 1.67717,3.265889 l 1.67718,2.907722 h 3.46844 3.46843 z M 24.272632,59.831914 26.02386,56.691533 24.402045,53.837691 22.78023,50.983846 l -3.704167,-7.06e-4 -3.704167,-7.05e-4 -1.698888,2.996282 -1.698886,2.996283 1.698886,2.996283 1.698888,2.996282 3.574754,0.0025 3.574755,0.0025 1.751227,-3.140385 z m 21.72593,0.139446 1.69889,-2.996282 -1.69889,-2.996283 -1.698886,-2.996283 -3.704167,7.06e-4 -3.704167,7.05e-4 -1.621815,2.853846 -1.621816,2.853841 1.751228,3.140382 1.751229,3.140385 3.574754,-0.0025 3.574754,-0.0025 1.698886,-2.996282 z m 21.576663,-0.0018 1.636854,-3.002847 -1.69648,-2.99205 -1.696477,-2.992046 -3.713742,-0.0025 -3.713744,-0.0025 -1.497186,3.018829 -1.497182,3.018825 1.623522,2.978397 1.623526,2.978394 h 3.647028 3.647027 l 1.636854,-3.002845 z m 21.506118,0.02445 1.623522,-2.978397 -1.497182,-3.018825 -1.497185,-3.018829 -3.713745,0.0025 -3.713741,0.0025 -1.696477,2.992046 -1.69648,2.992049 1.636854,3.002848 1.636853,3.002845 h 3.647028 3.647027 l 1.623526,-2.978394 z m 21.621847,-0.161992 1.75123,-3.140382 -1.62181,-2.853842 -1.62182,-2.853845 -3.70417,-7.05e-4 -3.70416,-7.06e-4 -1.69889,2.996283 -1.698888,2.996283 1.698888,2.996282 1.69889,2.996283 3.57475,0.0025 3.57476,0.0025 1.75122,-3.140385 z m 21.72593,0.139446 1.69889,-2.996283 -1.69889,-2.996282 -1.69888,-2.996283 -3.70417,7.05e-4 -3.70417,7.06e-4 -1.62181,2.853845 -1.62182,2.853842 1.75123,3.140382 1.75123,3.140385 3.57475,-0.0025 3.57476,-0.0025 1.69888,-2.996283 z m -118.934258,-6.259721 1.650745,-2.904532 -1.650745,-3.08622 -1.650744,-3.08622 -3.7041673,-0.0011 -3.7041669,-0.0011 -1.6988872,2.996283 -1.6988871,2.996283 1.6988871,2.996283 1.6988872,2.996282 3.7041669,-7.05e-4 3.7041673,-7.06e-4 1.650744,-2.904532 z m 21.567589,-0.09042 1.698889,-2.996283 -1.698889,-2.996283 -1.698887,-2.996283 h -3.527778 -3.527778 l -1.698888,2.996283 -1.698886,2.996283 1.698886,2.996283 1.698888,2.996282 h 3.527778 3.527778 z m 21.691646,-0.02187 1.499161,-3.022808 -1.685124,-2.972085 -1.685124,-2.972086 h -3.527778 -3.527778 l -1.698886,2.996283 -1.69889,2.996282 1.69889,2.996283 1.698886,2.996283 3.713741,0.0025 3.713745,0.0025 1.499157,-3.022808 z m 21.700023,0.02187 1.69889,-2.996283 -1.69889,-2.996283 -1.698886,-2.996283 H 73.051067 69.3469 l -1.698886,2.996283 -1.69889,2.996283 1.69889,2.996283 1.698886,2.996282 h 3.704167 3.704167 z m 21.519446,0 1.698894,-2.996283 -1.698894,-2.996283 -1.698886,-2.996283 h -3.527778 -3.527778 l -1.685125,2.972086 -1.685124,2.972086 1.499161,3.022808 1.499158,3.022808 3.713745,-0.0025 3.713741,-0.0025 1.698886,-2.996283 z m 21.519444,0 1.69889,-2.996283 -1.69889,-2.996283 -1.69888,-2.996283 h -3.52778 -3.52778 l -1.69889,2.996283 -1.69889,2.996283 1.69889,2.996283 1.69889,2.996282 h 3.52778 3.52778 z m 21.87223,0 1.69889,-2.996283 -1.69889,-2.996283 -1.69889,-2.996283 -3.70417,0.0011 -3.70416,0.0011 -1.65075,3.08622 -1.65074,3.08622 1.65074,2.904532 1.65075,2.904532 3.70416,7.06e-4 3.70417,7.05e-4 1.69889,-2.996282 z m -119.074453,-6.033597 1.743874,-3.037318 -1.745272,-3.136293 -1.745271,-3.136297 -3.586111,0.0035 -3.586111,0.0035 -1.650781,3.086287 -1.65078,3.086287 1.65078,3.079803 1.650781,3.079799 3.587508,0.0041 3.587509,0.0041 1.743874,-3.037314 z m 21.519444,0 1.743876,-3.037318 -1.745273,-3.136293 -1.745269,-3.136297 h -3.4567 -3.456697 l -1.752733,3.14308 -1.752732,3.143081 1.739978,3.03053 1.739977,3.030531 h 3.470851 3.47085 z m 21.597446,-0.139528 1.817966,-3.176841 -1.633541,-2.99677 -1.633541,-2.996769 h -3.644474 -3.644473 l -1.752734,3.14308 -1.752731,3.143081 1.739978,3.03053 1.739978,3.030531 h 3.472801 3.472804 z m 21.794224,0.139528 1.743876,-3.037318 -1.745273,-3.136293 -1.745269,-3.136297 h -3.645736 -3.645737 l -1.638466,3.005804 -1.638466,3.005804 1.812799,3.167807 1.812794,3.167807 h 3.472805 3.472801 z m 21.519449,0 1.74387,-3.037318 -1.74527,-3.136293 -1.74527,-3.136297 h -3.4567 -3.4567 l -1.75273,3.14308 -1.752731,3.143081 1.739981,3.03053 1.73997,3.030531 h 3.47085 3.47086 z m 21.65967,-0.05592 1.65078,-3.086287 -1.65078,-3.079803 -1.65078,-3.079799 -3.57476,-0.0041 -3.57475,-0.0041 -1.75273,3.143081 -1.75273,3.14308 1.73997,3.030531 1.73998,3.03053 3.58751,-0.0035 3.58751,-0.0035 1.65078,-3.086287 z M 13.496422,41.179005 15.148727,38.089882 13.379764,35.00887 11.610801,31.927856 H 8.1399507 4.6691004 l -1.7438737,3.037315 -1.7438738,3.037317 1.7452712,3.136293 1.7452714,3.136297 3.5861109,-0.0035 3.5861116,-0.0035 1.652304,-3.089123 z m 21.624858,0.09027 1.638465,-3.005804 -1.812797,-3.167807 -1.812797,-3.167807 h -3.497726 -3.497726 l -1.601742,3.18926 -1.601743,3.189258 1.626772,2.984352 1.626771,2.984352 h 3.647029 3.647028 z m 21.608416,-0.137277 1.75273,-3.14308 -1.739977,-3.030531 -1.739978,-3.03053 H 51.52967 48.056865 l -1.812794,3.167807 -1.812799,3.167807 1.638466,3.005804 1.638466,3.005804 h 3.634381 3.634377 z m 21.519446,0 1.752731,-3.14308 -1.739978,-3.030531 -1.739978,-3.03053 h -3.47085 -3.47085 l -1.739978,3.03053 -1.739978,3.030531 1.752731,3.14308 1.752734,3.143081 h 3.445341 3.445341 z m 21.783258,0.137277 1.63846,-3.005804 -1.812797,-3.167807 -1.812795,-3.167807 h -3.472804 -3.472801 l -1.739978,3.03053 -1.739978,3.030531 1.752731,3.14308 1.752734,3.143081 h 3.634377 3.63438 z m 21.50775,0.02145 1.62677,-2.984352 -1.60174,-3.189255 -1.60175,-3.18926 h -3.49772 -3.49773 l -1.81279,3.167807 -1.8128,3.167807 1.63846,3.005804 1.63847,3.005804 h 3.64703 3.64703 l 1.62677,-2.984352 z m 21.62011,-0.158729 1.75273,-3.143081 -1.73998,-3.030531 -1.73998,-3.030526 h -3.47085 -3.47085 l -1.76896,3.081014 -1.76896,3.081012 1.6523,3.089123 1.65231,3.089123 3.57475,0.0035 3.57475,0.0035 1.75274,-3.143081 z m -118.873721,-6.205527 1.487159,-2.998611 -1.487159,-2.998611 -1.487158,-2.998611 -3.713743,0.0023 -3.713742,0.0023 -1.698888,2.996284 -1.698886,2.996283 1.698886,2.996283 1.698888,2.996282 3.713742,0.0023 3.713743,0.0023 z m 21.712023,-0.0023 1.69889,-2.996283 -1.69889,-2.996283 -1.698886,-2.996284 h -3.704167 -3.704167 l -1.698887,2.996284 -1.698887,2.996283 1.698887,2.996283 1.698887,2.996282 h 3.704167 3.704167 z m 21.519446,0 1.69889,-2.996283 -1.69889,-2.996283 -1.698886,-2.996284 h -3.527778 -3.527778 l -1.698886,2.996284 -1.69889,2.996283 1.69889,2.996283 1.698886,2.996282 h 3.527778 3.527778 z m 21.519446,0 1.69889,-2.996283 -1.69889,-2.996283 -1.698886,-2.996284 H 83.81079 80.283012 l -1.698886,2.996284 -1.69889,2.996283 1.69889,2.996283 1.698886,2.996282 h 3.527778 3.527778 z m 21.872226,0 1.69889,-2.996283 -1.69889,-2.996283 -1.69889,-2.996284 h -3.70417 -3.70416 l -1.69889,2.996284 -1.698888,2.996283 1.698888,2.996283 1.69889,2.996282 h 3.70416 3.70417 z m 21.51944,0 1.69889,-2.996283 -1.69889,-2.996283 -1.69888,-2.996284 -3.71374,-0.0023 -3.71375,-0.0023 -1.48715,2.998611 -1.48716,2.998611 1.48716,2.998611 1.48715,2.998611 3.71375,-0.0025 3.71374,-0.0025 1.69888,-2.996282 z m -118.934258,-6.259583 1.650745,-2.904531 -1.650745,-3.08622 -1.650744,-3.08622 -3.574755,-0.0035 -3.5747546,-0.0035 -1.7512276,3.140384 -1.7512274,3.140384 1.6218151,2.853842 1.6218153,2.853843 h 3.7041669 3.7041673 z m 21.570334,-0.09524 1.701633,-3.00111 -1.631913,-2.993785 -1.631914,-2.993784 H 29.84588 26.188757 l -1.623524,2.978394 -1.623525,2.978395 1.497186,3.018828 1.497185,3.018827 3.713742,-0.0023 3.713743,-0.0023 z m 21.796294,0.139122 1.625699,-2.860652 -1.743756,-3.133574 -1.743756,-3.133575 h -3.645736 -3.645737 l -1.636853,3.002846 -1.636854,3.002846 1.69648,2.992049 1.696477,2.992048 3.704167,-6.7e-4 3.704167,-6.71e-4 1.625702,-2.860652 z m 21.519446,0 1.625699,-2.860652 -1.743756,-3.133574 -1.743756,-3.133575 h -3.4567 -3.456697 l -1.751228,3.140384 -1.751228,3.140384 1.621815,2.853842 1.621815,2.853843 h 3.704167 3.704167 z m 21.595378,-0.139122 1.701626,-3.00111 -1.63191,-2.993785 -1.631911,-2.993784 h -3.644474 -3.644473 l -1.751228,3.140384 -1.751228,3.140384 1.621815,2.853842 1.621815,2.853843 3.704167,6.71e-4 3.704167,6.7e-4 1.701634,-3.00111 z m 21.691736,-0.02276 1.50199,-3.028524 -1.61824,-2.968698 -1.61824,-2.968699 h -3.65712 -3.65712 l -1.63685,3.002846 -1.63686,3.002846 1.69648,2.992049 1.69648,2.992048 3.71374,0.0023 3.71375,0.0023 1.50199,-3.028524 z m 21.624,0.161881 1.6257,-2.860652 -1.74375,-3.133575 -1.74376,-3.133575 -3.58611,0.0035 -3.58611,0.0035 -1.65075,3.08622 -1.65074,3.086219 1.65074,2.904532 1.65075,2.904531 h 3.70416 3.70417 l 1.6257,-2.860652 z m -119.017913,-6.273661 1.752731,-3.143081 -1.739977,-3.03053 -1.739978,-3.03053 -3.587509,0.0035 -3.587508,0.0035 -1.650781,3.086287 -1.65078,3.086287 1.65078,3.079801 1.650781,3.0798 3.574754,0.004 3.574755,0.004 z m 21.519447,0 1.752731,-3.143081 -1.739978,-3.03053 -1.739978,-3.03053 h -3.47085 -3.470851 l -1.739977,3.03053 -1.739978,3.03053 1.752732,3.143081 1.752733,3.143081 h 3.445341 3.445341 z m 21.783253,0.137277 1.638466,-3.005803 -1.812798,-3.167808 -1.812795,-3.167807 h -3.472804 -3.472801 l -1.739978,3.03053 -1.739978,3.03053 1.752731,3.143081 1.752734,3.143081 h 3.634377 3.63438 z m 21.608417,-0.137277 1.752731,-3.143081 -1.739978,-3.03053 -1.739978,-3.03053 h -3.472801 -3.472805 l -1.812794,3.167807 -1.812799,3.167808 1.638466,3.005803 1.638466,3.005804 h 3.634381 3.634377 z m 21.519446,0 1.75273,-3.143081 -1.73998,-3.03053 -1.73997,-3.03053 h -3.47086 -3.47085 l -1.73997,3.03053 -1.739981,3.03053 1.752731,3.143081 1.75273,3.143081 h 3.44534 3.44535 z m 21.67632,0.04984 1.65078,-3.086286 -1.65078,-3.079801 -1.65078,-3.079801 -3.58751,-0.004 -3.58751,-0.004 -1.73998,3.03053 -1.73997,3.03053 1.75273,3.143081 1.75273,3.143081 3.57475,-0.0035 3.57476,-0.0035 1.65078,-3.086287 z M 13.494862,16.134685 15.145607,13.048466 13.494862,10.143934 11.844118,7.239403 H 8.1399507 4.4357838 l -1.6107282,2.834417 -1.6107281,2.834417 1.6107281,3.157454 1.6107282,3.157454 3.7041669,-0.0011 3.7041673,-0.0011 1.650744,-3.08622 z m 21.567589,0.09223 1.698889,-2.996284 -1.698889,-2.996283 -1.698887,-2.9962836 h -3.527778 -3.527778 l -1.698888,2.9962836 -1.698886,2.996283 1.698886,2.996284 1.698888,2.996283 h 3.527778 3.527778 z m 21.505683,0.0242 1.685124,-2.972087 -1.499161,-3.022808 -1.499157,-3.0228079 -3.713745,0.00233 -3.713741,0.00233 -1.698886,2.9962839 -1.69889,2.996283 1.69889,2.996284 1.698886,2.996283 h 3.527778 3.527778 z m 21.885986,-0.0242 1.69889,-2.996284 -1.69889,-2.996283 -1.698886,-2.9962836 H 73.051067 69.3469 l -1.698886,2.9962836 -1.69889,2.996283 1.69889,2.996284 1.698886,2.996283 h 3.704167 3.704167 z m 21.519446,0 1.698894,-2.996284 -1.698894,-2.996283 -1.698886,-2.9962836 -3.713741,-0.00233 -3.713745,-0.00233 -1.499158,3.0228076 -1.499161,3.022808 1.685124,2.972087 1.685125,2.972086 h 3.527778 3.527778 z m 21.519444,0 1.69889,-2.996284 -1.69889,-2.996283 -1.69888,-2.9962836 h -3.52778 -3.52778 l -1.69889,2.9962836 -1.69889,2.996283 1.69889,2.996284 1.69889,2.996283 h 3.52778 3.52778 z m 21.78407,-0.161227 1.61073,-3.157454 -1.61073,-2.834417 -1.61073,-2.834417 h -3.70417 -3.70416 l -1.65075,2.904531 -1.65074,2.904532 1.65074,3.086219 1.65075,3.08622 3.70416,0.0011 3.70417,0.0011 1.61073,-3.157454 z M 24.405248,10.01241 26.030266,7.1529552 24.228859,4.0248069 22.427452,0.89665871 l -3.527778,-0.004296 -3.527778,-0.004295 -1.698888,2.99628329 -1.698886,2.9962834 1.698886,2.9962834 1.698888,2.9962832 3.704167,-6.7e-4 3.704167,-6.7e-4 1.625018,-2.859456 z m 21.593314,-0.1354922 1.69889,-2.9962834 -1.69889,-2.9962834 -1.698886,-2.99628328 -3.704167,2.805e-5 -3.704167,2.804e-5 -1.610728,3.15745409 -1.610728,3.1574541 1.610728,2.834417 1.610728,2.834417 3.704167,6.7e-4 3.704167,6.7e-4 1.698886,-2.9962833 z m 21.519446,0 1.69889,-2.9962834 -1.69889,-2.9962834 -1.698886,-2.99628328 h -3.527778 -3.527778 l -1.685125,2.97208628 -1.685124,2.9720863 1.499161,3.0228081 1.499158,3.0228076 3.713744,-0.0023 3.713742,-0.0023 1.698886,-2.9962836 z M 89.209656,9.8550491 90.708817,6.832241 89.023692,3.8601547 87.338568,0.88806843 H 83.81079 80.283012 l -1.698886,2.99628327 -1.69889,2.9962827 1.69889,2.9962834 1.698886,2.9962832 3.713741,0.0023 3.713745,0.0023 1.499158,-3.0228082 z m 21.611864,0.1823999 1.61073,-2.8344163 -1.61073,-3.1574548 -1.61073,-3.15745409 -3.70417,-2.804e-5 -3.70416,-2.805e-5 -1.69889,2.99628328 -1.698888,2.9962834 1.698888,2.9962834 1.69889,2.9962832 3.70416,-6.7e-4 3.70417,-6.7e-4 1.61073,-2.834417 z m 21.6076,-0.1605312 1.69889,-2.9962834 -1.69889,-2.9962834 -1.69888,-2.99628328 -3.52778,0.004295 -3.52778,0.004295 -1.80141,3.12814828 -1.8014,3.1281482 1.62502,2.8594548 1.62501,2.859455 3.70417,6.71e-4 3.70417,6.7e-4 1.69888,-2.9962832 z"
         id="path542" /></g></g></svg>
